<svg width="393" height="1301" viewBox="0 0 393 1301" fill="none" xmlns="http://www.w3.org/2000/svg">
<g clip-path="url(#clip0_425_2)">
<rect width="393" height="1301" fill="white"/>
<path d="M421.609 1126H-19.5869L-20.1848 1487V1499.5L-15.4021 1508L-7.6304 1513L2.53264 1515H387.533H401.283L409.652 1513L415.033 1510L418.62 1506.5L421.609 1502V1495.5V1126Z" fill="#FFEA61"/>
<path d="M-20.1848 887V1180C110.859 1328.4 328.547 1359.83 421.011 1357V887H-20.1848Z" fill="#FFDD3C"/>
<path d="M-19.5869 502V969C207.587 957.8 369.598 1069 422.207 1126V502H-19.5869Z" fill="#FFD400"/>
<path d="M-126 157V771.537C147.207 950.883 94.4955 496.946 420.413 610.43V157H-126Z" fill="#FFCC00"/>
<path d="M-18.9891 -87V382C149.359 247.6 346.482 326 424 382V-87H-18.9891Z" fill="#FFD400"/>
<path d="M-19.5869 -378V7.5C312.326 -39.7 413.239 122.167 422.207 209V-378H-19.5869Z" fill="#FFDD3C"/>
<rect x="-20.4783" y="-403.5" width="442.978" height="1918" rx="18.5" stroke="black" stroke-width="3"/>
</g>
<defs>
<clipPath id="clip0_425_2">
<rect width="393" height="1301" fill="white"/>
</clipPath>
</defs>
</svg>
