<svg width="261" height="120" viewBox="0 0 261 120" fill="none" xmlns="http://www.w3.org/2000/svg">
<path d="M31.6157 0.722252H47.7876L48.7983 1.22818L49.9775 2.57732L50.3145 3.92645V7.97387H76.0884V3.58917L76.5938 2.24003L77.2676 1.39682L78.6152 0.722252H182.216L183.396 1.22818L184.238 1.90275L184.743 2.9146L184.912 3.58917V7.97387H210.686V3.58917L211.191 2.24003L212.37 1.05954L213.212 0.722252H229.384L230.563 1.22818L231.574 2.40867L231.911 3.08324L232.08 6.1188V7.97387H249.599L252.8 8.47979L255.158 9.49165L256.674 10.6721L258.19 12.1899L259.538 14.3823L260.212 16.406L260.38 17.9238V109.496L260.043 111.689L259.201 113.713L258.022 115.399L257.348 116.242L255.664 117.591L253.305 118.772L251.115 119.278H10.2217L8.2002 118.94L6.17871 118.097L4.49414 116.917L3.65186 116.242L2.3042 114.556L1.29346 112.532L0.788086 110.846L0.619629 109.328V17.9238L0.956543 15.7314L1.79883 13.7077L3.14648 11.8526L4.6626 10.3349L6.51562 9.15436L8.2002 8.47979L9.88477 8.14251L11.7378 7.97387H28.9204V3.58917L29.5942 2.07139L30.7734 1.05954L31.6157 0.722252ZM10.8955 16.2373L9.88477 16.7433L8.87402 17.7551L8.70557 18.4297V108.822L9.21094 110.171L10.3901 111.014L11.4009 111.183H248.251L250.778 111.014L251.789 110.171L252.126 109.496L252.294 92.6323V32.0897L252.126 17.7551L250.947 16.5746L249.936 16.2373H10.8955Z" fill="white"/>
</svg>
