<svg width="59" height="56" viewBox="0 0 59 56" fill="none" xmlns="http://www.w3.org/2000/svg">
<path d="M41.6969 8.23244C30.0619 -12.4944 3.24838 10.8957 24.6874 23.9223L25.9867 22.6486C23.6006 19.5935 25.8686 15.9905 26.6955 18.4222C26.9514 19.1748 26.3411 20.5064 26.9907 21.5486H28.5263C29.4218 13.5011 34.1371 8.92719 41.6969 8.23244Z" fill="#B0ABA4"/>
<path d="M50.5366 32.3694C67.3547 15.4023 36.6973 -2.89546 30.2574 21.0111L31.8799 21.8568C34.1626 18.7267 38.3405 19.7995 36.2101 21.2855C35.5507 21.7455 34.0732 21.5627 33.2465 22.4764L33.6955 23.9159C41.808 22.4025 47.6486 25.4857 50.5366 32.3694Z" fill="#B0ABA4"/>
<path d="M8.19742 34.0147C5.34468 57.5065 41.0373 53.7962 31.3456 30.9683L29.5327 31.2621C29.6578 35.1078 25.6738 36.7424 26.446 34.2935C26.685 33.5355 27.9722 32.8013 28.063 31.5833L26.8146 30.7068C21.3064 36.7381 14.7561 37.765 8.19742 34.0147Z" fill="#B0ABA4"/>
<path d="M15.3572 9.42215C-8.26346 14.2735 6.72071 46.2458 25.6939 29.9532L24.831 28.3629C21.1532 29.7071 18.3009 26.5281 20.9148 26.4634C21.7239 26.4434 22.8446 27.4047 24.0512 27.1002L24.4999 25.6606C16.9104 22.4696 13.8261 16.7124 15.3572 9.42215Z" fill="#B0ABA4"/>
<path d="M29.9904 48.3248C51.7607 58.535 59.6675 24.2142 34.5001 25.8602L34.2003 27.6374C37.9548 28.7593 38.2509 32.9831 36.1344 31.4781C35.4793 31.0122 35.1845 29.5813 34.0374 29.1048L32.7889 29.9813C36.8408 37.0351 35.7239 43.445 29.9904 48.3248Z" fill="#B0ABA4"/>
<ellipse cx="29.3532" cy="26.2961" rx="3.24834" ry="3.18429" fill="#B0ABA4"/>
</svg>
