<svg width="44" height="44" viewBox="0 0 44 44" fill="none" xmlns="http://www.w3.org/2000/svg">
<path d="M21.8281 7.39062H22.3008L22.8809 7.41211L23.6328 7.47656L24.4492 7.58398L25.3301 7.75586L25.9961 7.92773L26.7051 8.14258L27.3496 8.37891L27.9082 8.61523L28.5098 8.89453L29.0469 9.17383L29.5625 9.47461L30.0781 9.79688L30.4434 10.0547L30.8301 10.334L31.1309 10.5703L31.4102 10.8066L31.6465 11L31.9258 11.2578L32.0977 11.4082L32.7637 12.0742L32.9141 12.2461L33.1074 12.4609L33.3008 12.6973L33.5801 13.041L33.8379 13.3848L34.1387 13.8145L34.4609 14.3086L34.7402 14.7812L34.998 15.2539L35.3203 15.8984L35.5996 16.543L35.8359 17.1875L36.0293 17.7676L36.2441 18.5625L36.3945 19.2715L36.5234 20.0664L36.5879 20.625L36.6309 21.248V22.752L36.5664 23.5898L36.4805 24.2344L36.3516 24.9648L36.1582 25.7812L35.9863 26.3613L35.75 27.0703L35.4492 27.8008L35.2129 28.3164L34.8906 28.9609L34.5898 29.4766L34.2676 29.9922L34.0742 30.2715L33.8164 30.6367L33.3867 31.1953L32.8711 31.7969L32.7207 31.9688H32.6777L32.6348 32.0547L32.0762 32.6133H32.0332V32.6562L31.8613 32.8066L31.6465 33L31.4746 33.1504L31.1309 33.4297L30.8516 33.6445L30.4648 33.9238L30.1211 34.1602L29.7559 34.3965L29.4336 34.5898L28.9824 34.8477L28.3164 35.1914L27.6934 35.4707L26.9629 35.75L26.2539 35.9863L25.4375 36.2012L24.7285 36.3516L24.041 36.459L23.2891 36.5449L22.666 36.5879H21.3555L20.7539 36.5449L20.002 36.459L19.4648 36.373L18.7344 36.2227L17.918 36.0078L17.123 35.75L16.4141 35.4707L15.834 35.2129L15.0605 34.8262L14.5449 34.5254L14.0938 34.2461L13.6211 33.9238L13.1914 33.6016L12.998 33.4512L12.7617 33.2578L12.4824 33.0215L12.2676 32.8281L12.0957 32.6777L11.9668 32.5703V32.5273L11.8809 32.4844L11.752 32.3555V32.3125H11.709L11.5586 32.1406L11.2578 31.8398L11.0645 31.6035L10.7852 31.3027L10.3555 31.2168L9.92578 31.0879L9.47461 30.8945L9.17383 30.7227L8.83008 30.4863L8.55078 30.25L8.40039 30.1211V30.0781H8.35742L8.20703 29.9062L7.94922 29.584L7.71289 29.2188L7.45508 28.6816L7.26172 28.1016L7.1543 27.5L7.13281 27.2207V26.834L7.19727 26.2539L7.32617 25.6309L7.49805 25.0508L7.64844 24.6211L7.62695 24.3848L7.51953 23.5684L7.45508 22.8379L7.43359 22.2363V21.7207L7.47656 20.8613L7.5625 20.0449L7.69141 19.2715L7.8418 18.5625L8.01367 17.918L8.29297 17.0586L8.61523 16.2422L8.89453 15.6406L9.15234 15.125L9.43164 14.6309L9.66797 14.2441L9.9043 13.8789L10.1621 13.5137L10.3984 13.1914L10.6133 12.9121L10.8066 12.6758L10.9785 12.4824L11.1719 12.2461L11.3008 12.0957H11.3438V12.0527H11.3867V12.0098H11.4297L11.4727 11.9238L12.0742 11.3223H12.1172V11.2793L12.2891 11.1289L12.5039 10.9355L12.7402 10.7422L13.084 10.4629L13.4277 10.2051L13.8145 9.92578L14.1797 9.68945L14.5234 9.47461L15.0391 9.17383L15.791 8.78711L16.4141 8.50781L17.1445 8.22852L17.7891 8.01367L18.584 7.79883L19.4004 7.62695L20.2168 7.49805L20.8828 7.43359L21.1836 7.41211L21.8281 7.39062ZM21.4629 8.80859L20.625 8.87305L19.959 8.95898L19.1641 9.10938L18.498 9.28125L17.875 9.47461L17.4453 9.625L16.7578 9.9043L16.2422 10.1406L15.834 10.3555L15.4473 10.5703L15.082 10.7852L14.8242 10.957L14.416 11.2363L14.0078 11.5371L13.6426 11.8379L13.4062 12.0312L13.127 12.2891L13.0625 12.332V12.375L12.9766 12.418L12.4609 12.9336L12.3105 13.1055L12.0527 13.3848L11.8594 13.6211L11.6875 13.8359L11.4512 14.1367L11.1934 14.502L10.8926 14.9531L10.6348 15.3828L10.4414 15.7266L10.1836 16.2207L9.88281 16.8652L9.66797 17.4238L9.41016 18.1973L9.23828 18.8203L9.08789 19.5078L9.00195 19.9805L8.91602 20.668L8.87305 21.248L8.85156 21.7852V22.1074L8.91602 22.0645L9.08789 21.7207L9.3457 21.2266L9.64648 20.7109L9.86133 20.3457L10.2051 19.8301L10.4844 19.4648L10.7422 19.207L10.957 19.0781L11.0859 19.0352L11.2363 19.0137H11.5156L11.7305 19.0566L11.9453 19.1641L12.2031 19.4004L12.4395 19.6797L12.7402 20.1094L12.9766 20.4961L13.2559 20.9688L13.5996 21.5918L13.9219 22.2148L14.1797 22.709L14.6738 23.6973L14.9746 24.3633L15.1895 24.9219L15.3184 25.3086L15.4688 25.8887L15.5547 26.4043L15.5977 26.8555V27.2207L15.5332 27.7793L15.4473 28.1875L15.2969 28.6387L15.1035 29.0684L14.9316 29.3691L14.7168 29.6699L14.5449 29.8848L14.3516 30.0996L14.0723 30.3574L13.6855 30.6367L13.3633 30.8301L12.8906 31.0449L12.5898 31.1523L12.6543 31.2598L12.8477 31.4531H12.8906L12.9121 31.5176L13.084 31.668L13.1914 31.7754H13.2344V31.8184L13.4062 31.9688L13.6855 32.2051L13.9863 32.4414L14.2441 32.6348L14.6309 32.9141L15.1035 33.2148L15.5762 33.4941L16.1777 33.8164L16.8652 34.1387L17.5312 34.3965L18.2402 34.6328L18.8633 34.8047L19.5508 34.9551L20.3672 35.084L20.9902 35.1484L21.2695 35.1699L21.8281 35.1914H22.2363L22.8164 35.1699L23.5254 35.1055L24.1484 35.0195L24.75 34.9121L25.373 34.7617L25.9102 34.6113L26.7266 34.332L27.1992 34.1387L27.7793 33.8809L28.1875 33.666L28.7031 33.3867L29.2188 33.0645L29.627 32.7852L30.0137 32.5059L30.3359 32.248L30.5723 32.0547L30.8086 31.8398L30.9805 31.6895L31.2383 31.4531L31.7109 30.9805L31.8613 30.8086L32.1191 30.5078L32.3125 30.293L32.4844 30.0566L32.6992 29.7773L32.957 29.4121L33.2793 28.918L33.6016 28.3594L33.9023 27.7793L34.1387 27.2852L34.375 26.7051L34.5469 26.2109L34.6543 25.8887L34.8262 25.2871L35.0195 24.4062L35.127 23.7188L35.1914 23.0957L35.2344 22.2363V21.8281L35.2129 21.1836L35.1484 20.4746L35.0625 19.8516L34.9121 19.0781L34.7402 18.3906L34.5684 17.8535L34.418 17.4023L34.1387 16.7148L33.8379 16.0703L33.5156 15.4688L33.3223 15.1465L33.0215 14.6738L32.7207 14.2441L32.377 13.793L31.9043 13.2344L31.668 12.9766L31.4746 12.7832L31.4316 12.7188H31.3887L31.3457 12.6328H31.3027L31.2812 12.5684L31.1094 12.418L30.8945 12.2031L30.6582 12.0098L30.4434 11.8164L30.0781 11.5371L29.7988 11.3223L29.3691 11.0215L28.8965 10.7207L28.3379 10.3984L27.7148 10.0762L27.1348 9.81836L26.5332 9.58203L25.6738 9.30273L24.8145 9.08789L23.9766 8.9375L23.2246 8.85156L22.5371 8.80859H21.4629ZM11.3438 20.625L11.1074 21.0117L10.7422 21.6133L10.4414 22.1719L10.3125 22.3867L10.1406 22.7305L9.81836 23.3535L9.41016 24.1699L9.17383 24.6641L8.9375 25.2441L8.80859 25.6094L8.67969 26.0391L8.59375 26.4688L8.57227 26.6406V27.3496L8.63672 27.7148L8.72266 28.0156L8.87305 28.3809L9.04492 28.6816L9.25977 28.9609L9.56055 29.2617L9.88281 29.498L10.248 29.6914L10.6777 29.8418L11.043 29.9062L11.4512 29.9277L11.8594 29.8848L12.2246 29.7988L12.6328 29.627L12.8691 29.498L13.1699 29.2832L13.4492 29.0254L13.6641 28.7676L13.8359 28.4883L13.9863 28.1875L14.0938 27.8652L14.1797 27.4785L14.2012 27.2637V26.7266L14.1152 26.168L13.9648 25.6094L13.75 25.0293L13.5137 24.4922L13.2129 23.8691L12.8047 23.0527L12.5898 22.6445L12.332 22.1504L12.0527 21.6562L11.8164 21.248L11.5371 20.7969L11.4082 20.625H11.3438Z" fill="#B0ABA4"/>
<path d="M21.4844 26.5332H22.4727L23.0527 26.6191L23.5469 26.748L24.0195 26.9199L24.5137 27.1562L24.9004 27.3926L25.3086 27.6934L25.5879 27.9512L25.7598 28.1016L26.0176 28.3809L26.2969 28.7461L26.5117 29.0684L26.7695 29.541L26.9414 29.9492L27.0918 30.4004L27.1992 30.873L27.2637 31.3457V31.9902L27.1348 32.248L26.9844 32.3984L26.8125 32.4844L26.5762 32.5273H17.3594L17.1445 32.4844L16.9297 32.3555L16.7793 32.1836L16.6934 31.9688V31.3242L16.7793 30.7656L16.8867 30.3359L17.1016 29.7344L17.3809 29.1758L17.5742 28.875L17.7891 28.5742L18.0254 28.2949L18.2832 28.0156L18.5625 27.7578L18.9922 27.4355L19.4434 27.1562L19.8086 26.9844L20.0449 26.877L20.625 26.6836L21.1406 26.5762L21.4844 26.5332ZM21.7637 27.9297L21.3555 27.9727L20.9688 28.0586L20.625 28.166L20.2383 28.3379L19.8945 28.5312L19.5938 28.7461L19.3789 28.9395L19.207 29.0898L18.9707 29.3477L18.7559 29.6484L18.584 29.9277L18.4121 30.2715L18.2617 30.6797L18.1543 31.1094H25.8027L25.7168 30.7441L25.5879 30.3574L25.3516 29.8633L25.0938 29.4766L24.9004 29.2402L24.8145 29.1328H24.7715L24.7285 29.0469L24.5566 28.8965L24.2344 28.6387L23.8477 28.4023L23.3965 28.1875L22.9883 28.0586L22.7305 27.9941L22.1719 27.9297H21.7637Z" fill="#B0ABA4"/>
<path d="M26.5117 19.5508H26.748L26.9844 19.6367L27.1777 19.7871L27.3066 20.002L27.3496 20.1953L27.3281 20.4531L27.2207 20.668L27.1133 20.7969L26.9414 20.9043L26.8125 20.9473L26.6191 20.9688L26.3828 20.9258L26.2539 20.8613L26.082 20.7109L25.9531 20.4531L25.9316 20.3887V20.1309L26.0176 19.916L26.1035 19.7871L26.2754 19.6367L26.5117 19.5508Z" fill="#B0ABA4"/>
<path d="M17.3379 19.5508H17.5742L17.8105 19.6367L18.0254 19.8301L18.1328 20.0234L18.1543 20.1094V20.4102L18.0684 20.625L17.918 20.7969L17.7461 20.9043L17.6387 20.9473H17.2734L17.0801 20.8613L16.9082 20.7109L16.8008 20.5391L16.7578 20.4102V20.1094L16.8438 19.8945L16.9512 19.7441L17.1445 19.6152L17.3379 19.5508Z" fill="#B0ABA4"/>
</svg>
