<svg width="247" height="220" viewBox="0 0 247 220" fill="none" xmlns="http://www.w3.org/2000/svg">
<path d="M125.965 102.892C126.307 102.9 126.65 102.9 126.992 102.9C126.992 89.2401 126.821 75.5723 127.058 61.9126C127.204 53.4722 127.849 45.0236 128.525 36.6077C129.023 30.3854 132.301 25.9328 138.108 23.47C148.057 19.2376 164.318 23.0786 164.497 40.8809C164.693 60.404 164.334 79.927 164.456 99.4501C164.587 119.218 164.97 138.986 165.345 158.753C165.508 167.34 168.754 174.476 175.148 180.478C183.768 188.576 193.765 193.045 205.476 194.089C213.867 194.839 214.153 195.443 210.85 202.725C210.793 202.839 210.744 202.962 210.695 203.084C209.431 206.224 209.195 209.29 212.122 211.606C215.058 213.914 218.769 214.664 221.411 211.924C227.886 205.229 233.986 198.158 239.964 191.006C241.782 188.829 241.244 186.048 239.221 183.863C234.549 178.798 229.941 173.661 225.105 168.759C223.319 166.941 221.126 165.318 218.818 164.258C214.43 162.227 210.883 165.041 211.527 169.844C211.715 171.23 212.351 172.568 212.848 173.897C214.373 177.95 212.669 180.56 208.387 179.842C203.943 179.1 199.482 177.893 195.299 176.213C183.123 171.328 176.991 162.529 177.619 148.959C178.442 131.026 178.964 113.061 179.086 95.1117C179.217 76.2655 178.703 57.4111 178.532 38.5568C178.467 31.6169 176.053 25.9247 171.429 20.575C165.166 13.317 157.411 9.32105 148.277 8.21197C139.103 7.10289 129.928 7.30674 123.437 15.739C122.988 16.3262 122.181 16.9623 121.512 16.9868C120.109 17.0602 118.169 17.2804 117.378 16.4975C112.697 11.8655 106.825 9.61467 100.684 8.58714C88.9003 6.62179 76.9941 5.15389 67.8279 15.8043C66.2621 17.6229 64.5414 17.1907 62.7391 15.6249C60.3089 13.5046 57.8135 11.2946 54.9919 9.81852C37.1569 0.513662 15.8152 11.792 8.44308 27.5801C6.92625 30.8258 6.27385 34.8381 6.48588 38.4181C6.755 42.9115 9.5114 44.8932 13.0262 44.6159C16.7367 44.3223 18.5146 42.2184 19.0936 37.782C19.3627 35.7433 19.6399 33.6066 20.488 31.7799C23.8724 24.5383 33.5687 19.8002 42.5555 20.7707C50.629 21.6432 55.7177 26.1612 57.3487 35.4415C58.572 42.4467 59.0368 49.6638 59.0205 56.775C58.9471 87.4949 58.5393 118.215 58.3354 148.935C58.311 153.216 58.4169 157.546 59.0856 161.754C59.3547 163.434 61.0021 165.522 62.576 166.264C67.9094 168.776 72.1336 165.041 72.1336 158.109C72.1499 126.484 72.0358 94.8507 72.2397 63.2174C72.2968 54.5405 72.8106 45.7984 74.0257 37.2193C74.9227 30.8176 77.9563 24.5872 83.8768 21.5209C92.2765 17.1743 104.305 20.053 107.665 30.0674C109.777 36.3712 111.188 43.2133 111.245 49.8351C111.547 83.2788 111.294 116.739 111.27 150.191C111.261 154.35 111.237 158.533 111.62 162.668C111.987 166.647 114.817 168.335 119.645 168.066C123.396 167.854 124.448 165.31 124.53 162.219C125.051 142.443 125.5 122.667 125.965 102.892ZM64.7941 9.26399C84.0725 -2.93589 102.144 0.66042 120.199 10.3159C135.596 -5.86358 167.988 3.81642 177.725 18.8135C181.582 24.7503 183.653 30.6545 184.2 37.5944C186.744 70.1329 184.126 102.614 183.482 135.112C183.335 142.484 183.767 149.897 184.371 157.253C184.771 162.121 187.82 165.652 192.061 167.895C196.375 170.178 200.86 172.119 205.802 174.46C205.802 171.834 205.786 170.219 205.802 168.613C205.892 160.849 212.652 155.785 219.943 158.541C223.246 159.781 226.385 162.023 228.954 164.478C234.214 169.51 239.189 174.851 243.992 180.323C247.849 184.711 247.686 192.001 243.315 197.31C238.284 203.426 232.869 209.257 227.234 214.827C223.89 218.122 219.902 220.34 214.577 219.027C206.862 217.135 202.695 210.994 204.522 203.288C204.758 202.301 205.068 201.339 205.419 200.091C202.736 199.602 200.347 199.169 197.957 198.737C183.882 196.193 172.929 188.544 164.864 177.11C162.14 173.253 160.248 168.058 159.979 163.353C158.976 145.444 158.479 127.479 158.381 109.538C158.25 87.1605 158.699 64.7832 158.903 42.4141C159.017 29.8064 149.729 25.8431 141.394 28.3956C136.933 29.7656 134.446 32.995 134.144 37.57C133.492 47.307 132.872 57.0441 132.579 66.7893C131.722 94.7446 131.021 122.716 130.295 150.68C130.189 154.708 130.271 158.745 130.197 162.774C130.091 168.523 126.356 173.212 121.569 173.693C113.194 174.541 107.445 171.508 106.303 165.041C105.561 160.857 105.585 156.519 105.561 152.246C105.398 123.613 105.324 94.9812 105.21 66.349C105.178 58.039 105.398 49.7127 104.9 41.4273C104.697 37.9206 103.432 34.2428 101.785 31.0949C97.8789 23.6494 87.7831 23.4047 83.0613 30.3528C79.0898 36.2081 77.9727 42.9441 77.9401 49.6965C77.8014 85.0973 78.0053 120.498 77.8667 155.899C77.8503 159.667 76.8799 163.646 75.412 167.128C73.5201 171.597 68.3824 173.579 63.6035 172.633C57.3323 171.385 54.0296 168.433 53.3935 163.051C52.945 159.316 52.6759 155.54 52.7004 151.781C52.9042 122.366 53.32 92.9587 53.3853 63.5436C53.4016 54.8586 52.8389 46.1327 51.9174 37.4884C51.4036 32.6525 49.4628 28.0123 43.7461 26.8054C37.2058 25.419 29.5482 28.1836 26.3841 33.1418C25.5767 34.4058 24.9896 35.9635 24.8021 37.4558C23.6277 46.9564 18.6614 51.4009 10.3433 50.2021C3.50937 49.2153 -0.502906 41.4273 0.581709 33.1581C2.8488 15.8614 24.5655 0.0814628 40.9163 0.701243C50.1722 1.05191 58.1723 3.898 64.7941 9.26399Z" fill="white"/>
<path d="M125.965 102.891C125.5 122.667 125.051 142.443 124.529 162.219C124.448 165.31 123.396 167.854 119.645 168.066C114.817 168.335 111.987 166.647 111.62 162.668C111.237 158.533 111.261 154.349 111.269 150.19C111.294 116.739 111.547 83.2787 111.245 49.835C111.188 43.2132 109.777 36.3711 107.665 30.0673C104.305 20.0529 92.2764 17.1742 83.8767 21.5208C77.9562 24.5871 74.9226 30.8175 74.0256 37.2192C72.8105 45.7983 72.2967 54.5404 72.2396 63.2173C72.0357 94.8506 72.1498 126.484 72.1335 158.109C72.1335 165.041 67.9093 168.776 62.5759 166.264C61.002 165.522 59.3546 163.434 59.0855 161.754C58.4168 157.546 58.3109 153.216 58.3353 148.935C58.5392 118.215 58.947 87.4948 59.0204 56.7749C59.0367 49.6637 58.5719 42.4466 57.3486 35.4414C55.7176 26.1611 50.6289 21.6431 42.5554 20.7706C33.5686 19.8001 23.8723 24.5382 20.4879 31.7798C19.6398 33.6065 19.3626 35.7432 19.0935 37.7819C18.5145 42.2183 16.7366 44.3222 13.0261 44.6158C9.5113 44.8931 6.7549 42.9114 6.48578 38.418C6.27375 34.838 6.92615 30.8257 8.44298 27.58C15.8151 11.7919 37.1568 0.513562 54.9918 9.81842C57.8134 11.2945 60.3088 13.5045 62.739 15.6248C64.5413 17.1906 66.262 17.6228 67.8278 15.8042C76.994 5.15379 88.9002 6.62169 100.684 8.58704C106.825 9.61457 112.697 11.8654 117.378 16.4974C118.169 17.2803 120.109 17.0601 121.512 16.9867C122.181 16.9622 122.988 16.3261 123.437 15.7389C129.928 7.30664 139.102 7.10279 148.277 8.21187C157.41 9.32095 165.166 13.3169 171.429 20.5749C176.053 25.9246 178.467 31.6168 178.532 38.5567C178.703 57.411 179.217 76.2654 179.086 95.1116C178.964 113.061 178.442 131.026 177.618 148.959C176.991 162.529 183.123 171.328 195.299 176.213C199.482 177.893 203.943 179.1 208.387 179.842C212.669 180.56 214.373 177.95 212.848 173.897C212.351 172.568 211.715 171.23 211.527 169.844C210.883 165.041 214.43 162.227 218.818 164.258C221.125 165.318 223.319 166.941 225.105 168.759C229.941 173.661 234.549 178.798 239.221 183.862C241.244 186.048 241.782 188.829 239.963 191.006C233.986 198.158 227.886 205.229 221.411 211.924C218.769 214.664 215.058 213.914 212.122 211.606C209.195 209.29 209.431 206.223 210.695 203.084C210.744 202.961 210.793 202.839 210.85 202.725C214.153 195.443 213.867 194.839 205.476 194.089C193.765 193.045 183.767 188.576 175.148 180.478C168.754 174.476 165.508 167.34 165.345 158.753C164.97 138.985 164.587 119.218 164.456 99.45C164.334 79.9269 164.693 60.4039 164.497 40.8808C164.318 23.0785 148.057 19.2375 138.107 23.4699C132.301 25.9327 129.023 30.3853 128.525 36.6076C127.848 45.0235 127.204 53.4721 127.057 61.9125C126.821 75.5722 126.992 89.24 126.992 102.9C126.65 102.9 126.307 102.9 125.965 102.891Z" fill="white"/>
</svg>
