<svg width="393" height="852" viewBox="0 0 393 852" fill="none" xmlns="http://www.w3.org/2000/svg">
<g clip-path="url(#clip0_373_2061)">
<rect width="393" height="852" fill="white"/>
<path d="M-45 -22.5V542.5L162.5 671C252.5 641 432.9 579.3 434.5 572.5C436.5 564 454.5 66.5 444.5 22C436.5 -13.6 114.833 -22.5 -45 -22.5Z" fill="#C8ABE1"/>
<path d="M144.5 636.5C147 630.5 132.5 519 252 503.5C348.546 490.977 369 431 381.5 403.5C387.833 381.167 418.1 350.5 432.5 348.5C446.9 346.5 438.833 631 440.5 776.5H206L144.5 636.5Z" fill="#DFBEED"/>
<path d="M-28 287.5C33.8333 272.333 158.9 200.9 164.5 36.5C170.1 -127.9 34 -118.333 -34.5 -47L-28 287.5Z" fill="#D8B1E8"/>
<path d="M-29 347C0.666666 343.333 77.9944 347.587 105.5 420C130 484.5 146.5 566.5 159.5 616.5C166.885 644.903 172.5 720 298.5 720C436.5 720 384.5 763.5 405 807.5C424.445 849.236 433.667 883 421.5 898.5L-8 891.5L-29 347Z" fill="#DCAAE3"/>
<path d="M27 623C31.6667 629.667 38.4 646.7 28 661.5C14 649 22 630.667 27 623Z" fill="#A09BD6"/>
<path d="M44.5 725C26.1 724.2 15.5 730.167 13 733L5.5 748.5C14.1667 744.833 34.9 735 44.5 725Z" fill="#FDEBEA"/>
<path d="M-9.5 722C-10.5 745.5 -2.5 757 -1.5 759L8 741C2.8 732.6 -6 724.5 -9.5 722Z" fill="#FDEBEA"/>
<path d="M23 702.5C27.6667 698.833 40 691.3 48 690.5C42.8 705.7 25.0667 717 17.5667 721L11.5 734C1.10002 724.4 3.20673e-05 700.833 1.00003 690.5C5.40222 699.304 16.4078 706.673 18.382 718.224L23 702.5Z" fill="#9471B3"/>
<path d="M22 707C2.00001 688.5 4 670 4.00001 667.5C7.16668 668.833 15.8 674.8 25 688L22 707Z" fill="#9471B3"/>
<path d="M27.5 673C29 671.5 32.5 659 47 652C40.5 661.5 48 673 25 695.5C25.4723 695.162 27.1968 679.859 27.5 673Z" fill="#E19CC1"/>
<path d="M12 643.5C10 651.167 10.5 669.4 26.5 679C27.2338 673.314 27.931 671.965 28 662C21.6 650.8 14.5 645 12 643.5Z" fill="#F9D5DB"/>
<path d="M27 633.5C35.5 716.5 -10.5 770 -11 771.5V773.5C18.5 736 33.5 688 27 633.5Z" fill="black"/>
<path d="M97.7817 781C86.7817 795.5 61.5 820 38.5 803.5C51.5 769.5 77.7817 786 97.7817 781Z" fill="#A382BD"/>
<path d="M34.7817 734.5C32.7817 737 9.78174 778.5 37.7817 803.5C62.7817 771.5 36.2817 751.5 34.7817 734.5Z" fill="#FCDFDE"/>
<path d="M105.782 762C95.7817 771.5 74.7817 783 56.2817 774.5C69.2817 746.5 94.2817 764.5 105.782 762Z" fill="#F7D0D7"/>
<path d="M51.7817 717.5C42.2817 732 37.2817 752 54.7817 774.5C77.2817 745 51.7817 730 51.7817 717.5Z" fill="#6F6BB1"/>
<path d="M115.282 738C106.782 750 90.2817 759.5 71.7817 753.5C84.2817 730.5 103.782 742.5 115.282 738Z" fill="#A386BD"/>
<path d="M72.7817 706C64.2817 717 52.7817 736 70.2817 754.5C89.2817 733 71.2817 717.5 72.7817 706Z" fill="#6264AA"/>
<path d="M91.2817 733.5C67.2817 748.5 42.7817 795 27.7817 816.5H30.7817C44.7817 793 73.2817 747.5 91.2817 733.5Z" fill="black"/>
<path d="M86.5 737.5C108.5 719.5 95.7817 711.5 98.7818 694C89.2817 702.5 73.9999 715.5 86.5 737.5Z" fill="#F9D5DB"/>
<path d="M124.222 721.528C121.249 728.34 112.209 743.258 86.0444 737.457C101.911 717.995 109.018 723.995 124.222 721.528Z" fill="#6362A4"/>
<path d="M25.2542 758.671C11.5491 764.276 8.95699 774.932 8.95699 774.932L12.0894 775.365C21.9782 776.574 33.8667 774.868 37.4663 769.619C41.0659 764.371 38.9594 753.066 25.2542 758.671Z" fill="#A09BD6"/>
<path d="M52.6816 679.312C39.584 690.907 43.6231 704.395 42.7896 708.111C47.2134 707.287 50.471 705.663 50.471 705.663C50.471 705.663 70.8745 697.792 73.1675 680.072C75.4604 662.352 65.7792 667.716 52.6816 679.312Z" fill="#FEBECB"/>
<path d="M47.0627 714.667C42.3813 716.423 33.4736 726.354 32.6737 727.52L29.6572 733.168C37.9381 734.846 56.9331 732.155 59.9496 726.507C65.6466 715.839 55.1442 711.635 47.0627 714.667Z" fill="#FDE7E3"/>
<path d="M4.61417 732.517C8.93719 739.34 17.8002 751.421 17.8002 751.421L20.1999 747.923C23.4667 738.159 20.6152 725.466 16.3288 721.688C6.69038 716.363 0.291143 725.693 4.61417 732.517Z" fill="#FEBECB"/>
<path d="M1.14256 787.584C1.5324 787.016 28.6442 717.199 61.7351 684.21C62.6152 683.302 63.4774 682.471 64.3198 681.721C63.4545 682.524 62.5928 683.355 61.7351 684.21C43.2924 703.229 17.0345 755.636 1.69208 790.534L1.14256 787.584Z" fill="black"/>
<path d="M58.794 780.5C52.2939 791.5 52.2939 813.5 73.794 826.5C78.2939 805.5 65.2939 788.5 58.794 780.5Z" fill="#FDEBEA"/>
<path d="M79.2939 768.5C73.6272 777 66.294 799 88.7939 813.5C96.294 789 81.2939 778 79.2939 768.5Z" fill="#FCDFDE"/>
<path d="M72.2939 826C74.7939 830 81.7939 847.5 114.294 844.5C109.127 837.667 92.7939 823.5 72.2939 826Z" fill="#FDEBEA"/>
<path d="M91.2939 811.5C96.2939 821 108.294 834 132.294 828.5C127.627 821.833 114.794 807.5 91.2939 811.5Z" fill="#FEBECB"/>
<path d="M104.794 798.5C108.294 806.5 124.394 817.9 146.794 805.5C129.794 799 133.794 794 104.794 798.5Z" fill="#FEBECB"/>
<path d="M96.7941 753C102.294 760.333 112.294 780.5 104.294 797.5C82.7937 777.5 95.294 755.5 96.7941 753Z" fill="#9471B3"/>
<path d="M116.294 736.5C108.294 746.5 102.294 765.5 116.294 783.5C128.794 762 120.127 743.833 116.294 736.5Z" fill="#9471B3"/>
<path d="M116 783.105C119.5 779.605 128.5 771.605 156 779.105C151.833 784.105 128.5 798.105 116 783.105Z" fill="#9471B3"/>
<path d="M130.794 764C163.294 756.5 154.294 736 174.794 720C159.127 722.833 127.794 736.5 130.794 764Z" fill="#E19BC1"/>
<path d="M150.794 737.5C117.294 767 121.794 793 60.2939 834L61.2939 836.5C118.794 797.5 126.423 762 150.794 737.5Z" fill="black"/>
<path d="M296.5 202.5C301.833 194.333 316.1 177.8 330.5 177C326.1 198.2 306 202.833 296.5 202.5Z" fill="#FDEBEA"/>
<path d="M307.958 162.29C287.338 159.311 269.394 169.566 263 175.067C263 175.067 277.698 178.063 289.475 175.361C298.312 172.06 307.958 162.29 307.958 162.29Z" fill="#F6B6C3"/>
<path d="M266 126.5C282 116 292.5 123 309.5 129C288.7 143 271.833 133.167 266 126.5Z" fill="#FCE7E0"/>
<path d="M342.425 112.941C334.545 112.429 331.932 96.0841 332.561 89.4464C341.573 90.6463 354.474 97.0692 355.848 103.974C353.347 107.449 350.306 113.452 342.425 112.941Z" fill="#A382BD"/>
<path d="M351 146C331.5 147.5 330.5 168.5 330 169C336.833 169.833 354.2 166.6 359 155L351 146Z" fill="#6B6CB0"/>
<path d="M321.312 238.458C321.631 232.032 324.875 218.403 335.301 215.289C337.446 228.766 328.78 236.317 321.312 238.458Z" fill="#FCE7E0"/>
<path d="M390.5 195.5C375.7 178.3 377.333 154.667 380 145H390.5C408.5 162.2 398 185.833 390.5 195.5Z" fill="#6B6CB0"/>
<path d="M370.5 120C349.7 99.6 317.5 106.5 304 112.5C309.167 122 327.9 139.8 361.5 135L370.5 120Z" fill="#6B6CB0"/>
<path d="M367 132C344.2 116 314.5 131.5 307.5 145.5C322 156.5 359.5 161.5 367 139V132Z" fill="#A382BD"/>
<path d="M360.374 126.746C343.048 105.08 352.627 78.7663 359.582 68.3175C368.922 71.9078 385.966 89.3642 379.43 130.467L360.374 126.746Z" fill="#6B6CB0"/>
<path d="M378 135.5C342 146.5 352.5 193 352 194.5C366.167 191.833 387.7 173.7 390.5 140.5L378 135.5Z" fill="#A382BD"/>
<path d="M396 65C365 110.5 381.5 124.5 381 127.5C383 127.5 391.833 128.833 396 129.5C414.4 89.9 403.667 70 396 65Z" fill="#A382BD"/>
<path d="M360.963 222C356.463 227.833 350.163 244.3 360.963 263.5C361.963 255.5 381.463 241.5 360.963 222Z" fill="#E19BC1"/>
<path d="M376.463 200C373.963 207.167 371.363 223.8 380.963 233C389.963 217 379.463 208.5 376.463 200Z" fill="#E19BC1"/>
<path d="M382.734 109.875C381.778 112.217 379.68 119.403 379.18 122.38L383.307 126.151C384.797 127.614 390.166 120.304 391.468 117.555C397.243 105.352 386.157 101.491 382.734 109.875Z" fill="#F5BAC5"/>
<path d="M393.806 120.299C390.923 121.299 385.502 124.523 383.787 126.288C384.133 128.119 384.604 132.392 385.169 132.399C390.87 132.459 396.075 132.245 399.315 130.181C409.47 123.711 399.573 118.299 393.806 120.299Z" fill="#FDDEDA"/>
<path d="M388.141 145.718C386.304 143.951 383.671 141.329 381.605 137.623L384.688 132.262C387.893 131.96 395.444 133.321 399.051 138.423C406.134 148.44 393.133 150.52 388.141 145.718Z" fill="#FDDEDA"/>
<path d="M355.315 147.825C358.166 143.645 368.898 136.611 372.123 134.408L376.867 137.836C374.948 140.929 371.411 151.195 363.294 156.33C352.521 163.144 351.751 153.049 355.315 147.825Z" fill="#FDDEDA"/>
<path d="M347.377 119.058C351.277 118.504 366.043 124.71 370.189 126.582L372.665 128.845L369.713 130.085C365.457 131.648 350.803 133.339 344.643 128.678C336.943 122.85 342.501 119.752 347.377 119.058Z" fill="#FDDEDA"/>
<path d="M344.486 114.598C351.591 122.933 363.024 126.798 370.812 129.877L373.824 122.936C368.321 116.694 358.14 104.964 351.751 103.668C337.891 100.856 343.316 113.226 344.486 114.598Z" fill="#F5BAC5"/>
<path d="M375.996 104.321C378.859 108.877 378.826 114.482 379.935 121.554L373.206 123.281C368.939 116.35 368.254 118.027 366.043 108.25C363.278 96.0284 372.417 98.6255 375.996 104.321Z" fill="#FDDEDA"/>
<path d="M374.553 153.292C372.844 149.064 374.56 141.685 375.631 138.524L382.086 137.76C383.808 140.848 386.099 148.88 383.965 154.927C381.297 162.486 376.69 158.578 374.553 153.292Z" fill="#F5BAC5"/>
<path d="M342.451 132.733C350.081 127.832 364.399 128.055 370.123 128.642C371.453 130.06 373.385 132.896 371.85 135.37C369.931 138.464 353.184 146.179 344.324 146.26C335.464 146.341 332.913 138.859 342.451 132.733Z" fill="#F7C2C7"/>
<ellipse cx="378.073" cy="130.382" rx="7.30197" ry="8.598" transform="rotate(176.961 378.073 130.382)" fill="#7C74B6"/>
<ellipse cx="377.407" cy="129.994" rx="7" ry="8.5" transform="rotate(176.961 377.407 129.994)" fill="#8F86C9"/>
<path d="M27.5 832.5C47.1 798.9 4.33333 775.5 -16 773V830C-12 841.5 7.9 866.1 27.5 832.5Z" fill="#A482BD"/>
<path d="M27.5 811.5C-6.1 809.5 -15.5 789.667 -16 780V872.5C6.83333 874.667 53.9 879.4 59.5 881C66.5 883 86.5 870 78 849.5C69.5 829 69.5 814 27.5 811.5Z" fill="#837BB9"/>
</g>
<defs>
<clipPath id="clip0_373_2061">
<rect width="393" height="852" fill="white"/>
</clipPath>
</defs>
</svg>
