<svg width="393" height="590" viewBox="0 0 393 590" fill="none" xmlns="http://www.w3.org/2000/svg">
<g filter="url(#filter0_d_202_556)">
<path fill-rule="evenodd" clip-rule="evenodd" d="M-111 184.42C-111 142.983 -86.1751 105.709 -46.6197 79.8437C-46.1869 81.741 -45.3881 83.6146 -44.2401 85.4604C-46.1303 86.7124 -47.9843 87.9909 -49.8011 89.295C-84.3312 114.083 -105 147.795 -105 184.42C-105 211.975 -93.3003 237.882 -72.8 259.579C-75.2338 259.871 -77.6558 260.188 -80.0656 260.53C-99.6481 238.557 -111 212.44 -111 184.42ZM155.952 316.664C230.22 296.409 283 244.839 283 184.42C283 166.433 278.322 149.23 269.792 133.405C267.605 133.567 265.404 133.723 263.19 133.871C272.138 149.578 277 166.656 277 184.42C277 221.045 256.331 254.756 221.801 279.544C201.822 293.887 177.33 305.125 149.911 312.048C151.961 313.561 153.975 315.1 155.952 316.664ZM143.723 307.634C215.383 290.333 267 241.704 267 184.42C267 166.727 262.076 149.859 253.158 134.486C250.909 134.612 248.649 134.73 246.377 134.84C255.833 150.125 261 166.914 261 184.42C261 217.881 242.121 248.729 210.487 271.444C190.317 285.926 165.117 296.96 136.83 303.054C139.166 304.55 141.465 306.077 143.723 307.634ZM128.752 298.096C198.62 284.498 250 238.755 250 184.42C250 166.897 244.657 150.269 235.073 135.323C232.733 135.409 230.382 135.488 228.021 135.558C238.328 150.441 244 167.049 244 184.42C244 214.513 226.976 242.317 198.326 262.832C177.475 277.762 150.671 288.644 120.533 293.459C123.318 294.965 126.058 296.511 128.752 298.096ZM-34.7756 257.119C-37.7675 257.15 -40.7468 257.219 -43.7127 257.325C-65.8118 237.271 -79 211.948 -79 184.42C-79 150.978 -59.5377 120.792 -28.2811 99.3508C-26.4159 100.439 -24.4216 101.511 -22.3027 102.565C-24.013 103.687 -25.6879 104.835 -27.3259 106.008C-55.9759 126.523 -73 154.327 -73 184.42C-73 211.804 -58.9026 237.293 -34.7756 257.119ZM110.954 288.527C180.254 280.041 233 236.82 233 184.778C233 167.11 226.921 150.459 216.179 135.839C213.693 135.883 211.197 135.918 208.692 135.944C220.453 150.518 227 167.222 227 184.778C227 211.41 211.935 236.082 186.452 254.329C164.073 270.353 133.958 281.151 100.2 283.538C103.846 285.137 107.432 286.801 110.954 288.527ZM-9.42915 257.753C-13.1335 257.527 -16.8605 257.359 -20.6086 257.25C-45.6405 238.376 -61 212.861 -61 184.778C-61 153.882 -42.4099 126.095 -12.8023 106.839C-10.5679 107.752 -8.23565 108.65 -5.80904 109.532C-8.80286 111.346 -11.6863 113.246 -14.4516 115.227C-39.9347 133.474 -55 158.145 -55 184.778C-55 211.41 -39.9347 236.082 -14.4516 254.329C-12.8181 255.499 -11.1434 256.64 -9.42915 257.753ZM84.3584 277.141C84.9048 277.146 85.452 277.148 86 277.148C157.245 277.148 215 235.793 215 184.778C215 166.87 207.884 150.153 195.565 135.997C192.817 135.991 190.079 135.973 187.353 135.945C201.186 150.042 209 166.924 209 184.778C209 207.851 195.949 229.3 173.724 245.215C151.509 261.122 120.513 271.148 86 271.148C76.892 271.148 68.0289 270.45 59.5075 269.13C68.022 271.484 76.3152 274.162 84.3584 277.141ZM35.1297 263.399C26.9597 261.807 18.6259 260.502 10.1504 259.502C-22.0625 242.708 -43 215.494 -43 184.778C-43 155.833 -24.4068 129.997 4.69401 113.06C7.30579 113.874 10.0027 114.67 12.7815 115.449C7.61662 118.15 2.76707 121.125 -1.72365 124.34C-23.9494 140.255 -37 161.704 -37 184.778C-37 207.851 -23.9494 229.3 -1.72365 245.215C8.78249 252.738 21.2526 258.946 35.1297 263.399ZM-54.8399 257.899C-57.4776 258.077 -60.1035 258.284 -62.717 258.52C-83.0695 237.5 -95 211.96 -95 184.42C-95 147.718 -73.8118 114.569 -39.7391 90.9362C-38.3454 92.2942 -36.7596 93.6338 -34.9891 94.9532C-36.1711 95.756 -37.3371 96.5703 -38.4868 97.3958C-70.1214 120.11 -89 150.958 -89 184.42C-89 211.631 -76.5158 237.113 -54.8399 257.899ZM-26 184.42C-26 156.896 -6.72191 132.596 22.6932 118.065C25.7899 118.835 28.9718 119.585 32.2354 120.314C24.2244 123.658 16.9029 127.712 10.4436 132.337C-8.79625 146.113 -20 164.609 -20 184.42C-20 204.231 -8.79625 222.726 10.4436 236.503C29.6728 250.272 56.5436 258.975 86.5 258.975C116.456 258.975 143.327 250.272 162.556 236.503C181.796 222.726 193 204.231 193 184.42C193 166.098 183.417 148.9 166.756 135.521C169.877 135.617 173.015 135.699 176.172 135.767C190.498 149.285 199 166.141 199 184.42C199 228.909 148.632 264.975 86.5 264.975C24.368 264.975 -26 228.909 -26 184.42ZM-11 184.778C-11 157.516 10.9344 133.923 42.8558 122.553C47.031 123.383 51.3212 124.181 55.7197 124.944C42.383 128.248 30.5176 133.659 20.9038 140.543C4.46886 152.311 -5 168.032 -5 184.778C-5 201.524 4.46886 217.245 20.9038 229.013C37.328 240.773 60.3238 248.235 86 248.235C111.676 248.235 134.672 240.773 151.096 229.013C167.531 217.245 177 201.524 177 184.778C177 168.032 167.531 152.311 151.096 140.543C148.011 138.333 144.694 136.276 141.17 134.391C145.304 134.63 149.479 134.843 153.691 135.029C171.772 147.646 183 165.273 183 184.778C183 223.138 139.572 254.235 86 254.235C32.4284 254.235 -11 223.138 -11 184.778ZM5 184.778C5 156.069 34.1301 132.232 72.3802 127.594C88.1775 129.89 105.128 131.766 122.971 133.158C149.115 142.778 167 162.282 167 184.778C167 216.81 130.735 242.778 86 242.778C41.2649 242.778 5 216.81 5 184.778ZM139.783 220.912C153.322 211.217 161 198.36 161 184.778C161 171.196 153.322 158.339 139.783 148.644C126.254 138.957 107.258 132.778 86 132.778C64.7421 132.778 45.7462 138.957 32.2175 148.644C18.678 158.339 11 171.196 11 184.778C11 198.36 18.678 211.217 32.2175 220.912C45.7462 230.599 64.7421 236.778 86 236.778C107.258 236.778 126.254 230.599 139.783 220.912ZM143 184.778C143 194.999 137.225 204.812 126.762 212.304C116.309 219.789 101.563 224.605 85 224.605C68.4365 224.605 53.6907 219.789 43.2383 212.304C32.7752 204.812 27 194.999 27 184.778C27 174.557 32.7752 164.743 43.2383 157.251C53.6907 149.767 68.4365 144.951 85 144.951C101.563 144.951 116.309 149.767 126.762 157.251C137.225 164.743 143 174.557 143 184.778ZM149 184.778C149 210.087 120.346 230.605 85 230.605C49.6538 230.605 21 210.087 21 184.778C21 159.468 49.6538 138.951 85 138.951C120.346 138.951 149 159.468 149 184.778ZM114.741 203.697C122.128 198.407 126 191.637 126 184.778C126 177.918 122.128 171.148 114.741 165.859C107.365 160.577 96.8691 157.123 85 157.123C73.1309 157.123 62.6351 160.577 55.2591 165.859C47.8724 171.148 44 177.918 44 184.778C44 191.637 47.8724 198.407 55.2591 203.697C62.6351 208.978 73.1309 212.432 85 212.432C96.8691 212.432 107.365 208.978 114.741 203.697ZM85 218.432C110.957 218.432 132 203.365 132 184.778C132 166.191 110.957 151.123 85 151.123C59.0426 151.123 38 166.191 38 184.778C38 203.365 59.0426 218.432 85 218.432ZM111 184.42C111 188.214 108.862 192.21 104.281 195.491C99.7097 198.764 93.0889 200.975 85.5 200.975C77.9111 200.975 71.2903 198.764 66.7193 195.491C62.1375 192.21 60 188.214 60 184.42C60 180.625 62.1375 176.63 66.7193 173.349C71.2903 170.076 77.9111 167.864 85.5 167.864C93.0889 167.864 99.7097 170.076 104.281 173.349C108.862 176.63 111 180.625 111 184.42ZM117 184.42C117 196.877 102.897 206.975 85.5 206.975C68.103 206.975 54 196.877 54 184.42C54 171.963 68.103 161.864 85.5 161.864C102.897 161.864 117 171.963 117 184.42ZM95 184.778C95 185.507 94.5974 186.728 92.8206 188.001C91.0545 189.265 88.3087 190.235 85 190.235C81.6913 190.235 78.9455 189.265 77.1794 188.001C75.4026 186.728 75 185.507 75 184.778C75 184.048 75.4026 182.827 77.1794 181.555C78.9455 180.29 81.6913 179.321 85 179.321C88.3087 179.321 91.0545 180.29 92.8206 181.555C94.5974 182.827 95 184.048 95 184.778ZM101 184.778C101 191.105 93.8365 196.235 85 196.235C76.1634 196.235 69 191.105 69 184.778C69 178.45 76.1634 173.321 85 173.321C93.8365 173.321 101 178.45 101 184.778Z" fill="#EDCFA6"/>
</g>
<g filter="url(#filter1_d_202_556)">
<path fill-rule="evenodd" clip-rule="evenodd" d="M213.142 292.448C211.411 293.498 209.655 294.528 207.874 295.536C224.513 340.597 281.839 373.815 350 373.815C431.186 373.815 497 326.689 497 268.556C497 210.422 431.186 163.296 350 163.296C325.694 163.296 302.766 167.52 282.57 174.999C282.76 177.076 282.888 179.166 282.952 181.266C302.844 173.653 325.665 169.296 350 169.296C389.483 169.296 424.979 180.765 450.452 199.004C475.935 217.252 491 241.923 491 268.556C491 295.188 475.935 319.86 450.452 338.107C424.979 356.346 389.483 367.815 350 367.815C310.517 367.815 275.021 356.346 249.548 338.107C231.905 325.473 219.255 309.759 213.142 292.448ZM197.899 300.826C196.114 301.712 194.308 302.577 192.481 303.422C208.532 340.143 249.013 369.132 300.295 380.628C305.844 379.501 311.469 378.506 317.165 377.651C285.928 373.066 258.145 361.984 236.674 346.609C218.769 333.789 205.405 318.121 197.899 300.826ZM396.802 374.905C402.513 375.355 408.166 375.943 413.756 376.663C472.677 358.743 514 316.926 514 268.198C514 203.144 440.351 150.407 349.5 150.407C324.811 150.407 301.392 154.302 280.376 161.28C280.826 163.244 281.22 165.222 281.556 167.212C302.108 160.299 325.132 156.407 349.5 156.407C393.816 156.407 433.687 169.279 462.326 189.786C490.976 210.3 508 238.105 508 268.198C508 298.29 490.976 326.095 462.326 346.609C444.35 359.481 421.949 369.344 396.802 374.905ZM286.547 383.731C263.371 377.319 242.63 367.512 225.513 355.221C206.683 341.701 192.373 325.299 183.873 307.179C182.028 307.939 180.165 308.678 178.283 309.395C194.305 343.84 229.866 371.864 275.521 386.683C279.156 385.639 282.832 384.655 286.547 383.731ZM439.804 381.061C436.121 380.288 432.403 379.574 428.653 378.92C445.743 372.799 461.205 364.758 474.487 355.221C506.121 332.507 525 301.659 525 268.198C525 234.736 506.121 203.888 474.487 181.174C442.862 158.466 398.868 144.235 350 144.235C324.57 144.235 300.46 148.088 278.727 154.985C278.162 153.068 277.542 151.166 276.87 149.279C299.233 142.178 323.975 138.235 350 138.235C449.964 138.235 531 196.421 531 268.198C531 316.508 494.288 358.662 439.804 381.061ZM265.662 389.691C246.443 382.954 229.071 373.998 214.199 363.322C194.234 348.99 178.903 331.675 169.521 312.538C167.615 313.179 165.692 313.799 163.752 314.398C167.199 321.559 171.424 328.459 176.355 335.046C181.232 340.07 185.767 345.28 189.936 350.657C207.376 368.072 230.195 382.524 256.647 392.762C259.619 391.697 262.625 390.673 265.662 389.691ZM459.411 385.819C456.381 384.982 453.323 384.186 450.238 383.431C463.215 377.733 475.149 370.969 485.801 363.322C520.331 338.534 541 304.822 541 268.198C541 231.573 520.331 197.861 485.801 173.073C451.281 148.292 403.287 132.778 350 132.778C323.226 132.778 297.789 136.694 274.726 143.735C273.951 141.88 273.124 140.041 272.248 138.219C296.101 130.856 322.387 126.778 350 126.778C458.8 126.778 547 190.094 547 268.198C547 317.24 512.225 360.452 459.411 385.819ZM245.991 396.811C231.444 390.863 218.01 383.711 205.954 375.559C207.706 378.928 209.323 382.344 210.801 385.803C219.397 391.049 228.576 395.819 238.257 400.054C240.806 398.941 243.385 397.86 245.991 396.811ZM478.691 391.822C476.072 390.911 473.429 390.032 470.761 389.186C480.7 384.174 489.991 378.564 498.529 372.436C536.317 345.315 559 308.381 559 268.198C559 228.014 536.317 191.08 498.529 163.959C463.839 139.061 416.739 122.728 364.162 120.225C370.613 118.778 376.743 117.249 382.523 115.643C485.832 126.894 565 190.91 565 268.198C565 318.781 531.088 363.68 478.691 391.822ZM227.441 405.05C223.47 403.217 219.584 401.299 215.788 399.299C216.603 401.904 217.341 404.53 218 407.175C218.881 407.614 219.766 408.049 220.656 408.479C222.89 407.31 225.152 406.167 227.441 405.05ZM497.162 398.942C494.845 397.958 492.504 396.999 490.14 396.067C497.562 391.882 504.608 387.374 511.238 382.576C552.279 352.873 577 312.358 577 268.198C577 224.037 552.279 183.522 511.238 153.819C481.651 132.406 443.769 116.786 401.238 109.738C404.993 108.387 408.526 106.996 411.823 105.568C510.5 125.172 583 190.557 583 268.198C583 320.936 549.548 368.021 497.162 398.942ZM514.744 407.137C512.643 406.066 510.518 405.018 508.371 403.993C514.286 400.451 519.964 396.716 525.387 392.803C570.048 360.57 597 316.564 597 268.556C597 220.547 570.048 176.541 525.387 144.308C497.336 124.064 462.444 108.598 423.335 99.8952C425.936 98.4194 428.299 96.9129 430.411 95.3785C530.719 119.628 603 188 603 268.556C603 323.987 568.775 373.65 514.744 407.137ZM282.291 196.506C282.558 194.24 282.751 191.959 282.867 189.663C302.424 181.112 325.408 176.185 350 176.185C421.245 176.185 479 217.541 479 268.556C479 319.57 421.245 360.926 350 360.926C287.016 360.926 234.575 328.605 223.26 285.862C225.043 284.619 226.793 283.351 228.51 282.061C232.537 299.919 244.458 316.234 262.276 328.993C284.491 344.9 315.487 354.926 350 354.926C384.513 354.926 415.509 344.9 437.724 328.993C459.949 313.078 473 291.629 473 268.556C473 245.482 459.949 224.033 437.724 208.118C415.509 192.211 384.513 182.185 350 182.185C324.894 182.185 301.648 187.491 282.291 196.506ZM238.3 274.127C242.539 315.848 291.153 348.753 350.5 348.753C412.632 348.753 463 312.687 463 268.198C463 223.708 412.632 187.642 350.5 187.642C324.247 187.642 300.095 194.081 280.955 204.874C280.398 207.631 279.731 210.362 278.956 213.066C297.773 201.073 322.819 193.642 350.5 193.642C380.456 193.642 407.327 202.345 426.556 216.114C445.796 229.891 457 248.387 457 268.198C457 288.008 445.796 306.504 426.556 320.281C407.327 334.05 380.456 342.753 350.5 342.753C320.544 342.753 293.673 334.05 274.444 320.281C255.43 306.666 244.265 288.444 244.005 268.897C242.159 270.673 240.257 272.417 238.3 274.127ZM254.062 258.242C253.362 261.607 253 265.051 253 268.556C253 306.915 296.428 338.012 350 338.012C403.572 338.012 447 306.915 447 268.556C447 230.196 403.572 199.099 350 199.099C319.758 199.099 292.749 209.008 274.96 224.54C270.035 236.512 262.962 247.823 254.062 258.242ZM415.096 312.791C431.531 301.022 441 285.301 441 268.556C441 251.81 431.531 236.089 415.096 224.321C398.672 212.56 375.676 205.099 350 205.099C324.324 205.099 301.328 212.56 284.904 224.321C268.469 236.089 259 251.81 259 268.556C259 285.301 268.469 301.022 284.904 312.791C301.328 324.551 324.324 332.012 350 332.012C375.676 332.012 398.672 324.551 415.096 312.791ZM425 268.556C425 282.138 417.322 294.994 403.783 304.689C390.254 314.377 371.258 320.556 350 320.556C328.742 320.556 309.746 314.377 296.217 304.689C282.678 294.994 275 282.138 275 268.556C275 254.973 282.678 242.117 296.217 232.422C309.746 222.734 328.742 216.556 350 216.556C371.258 216.556 390.254 222.734 403.783 232.422C417.322 242.117 425 254.973 425 268.556ZM431 268.556C431 300.588 394.735 326.556 350 326.556C305.265 326.556 269 300.588 269 268.556C269 236.523 305.265 210.556 350 210.556C394.735 210.556 431 236.523 431 268.556ZM390.762 296.082C401.225 288.59 407 278.776 407 268.556C407 258.335 401.225 248.521 390.762 241.029C380.309 233.545 365.563 228.728 349 228.728C332.436 228.728 317.691 233.545 307.238 241.029C296.775 248.521 291 258.335 291 268.556C291 278.776 296.775 288.59 307.238 296.082C317.691 303.566 332.436 308.383 349 308.383C365.563 308.383 380.309 303.566 390.762 296.082ZM349 314.383C384.346 314.383 413 293.865 413 268.556C413 243.246 384.346 222.728 349 222.728C313.654 222.728 285 243.246 285 268.556C285 293.865 313.654 314.383 349 314.383ZM390 268.556C390 275.415 386.128 282.185 378.741 287.474C371.365 292.756 360.869 296.21 349 296.21C337.131 296.21 326.635 292.756 319.259 287.474C311.872 282.185 308 275.415 308 268.556C308 261.696 311.872 254.926 319.259 249.637C326.635 244.355 337.131 240.901 349 240.901C360.869 240.901 371.365 244.355 378.741 249.637C386.128 254.926 390 261.696 390 268.556ZM396 268.556C396 287.142 374.957 302.21 349 302.21C323.043 302.21 302 287.142 302 268.556C302 249.969 323.043 234.901 349 234.901C374.957 234.901 396 249.969 396 268.556ZM368.281 279.268C372.862 275.988 375 271.992 375 268.198C375 264.403 372.862 260.407 368.281 257.127C363.71 253.854 357.089 251.642 349.5 251.642C341.911 251.642 335.29 253.854 330.719 257.127C326.137 260.407 324 264.403 324 268.198C324 271.992 326.137 275.988 330.719 279.268C335.29 282.541 341.911 284.753 349.5 284.753C357.089 284.753 363.71 282.541 368.281 279.268ZM349.5 290.753C366.897 290.753 381 280.655 381 268.198C381 255.74 366.897 245.642 349.5 245.642C332.103 245.642 318 255.74 318 268.198C318 280.655 332.103 290.753 349.5 290.753ZM356.821 271.778C358.597 270.506 359 269.285 359 268.556C359 267.826 358.597 266.605 356.821 265.333C355.054 264.068 352.309 263.099 349 263.099C345.691 263.099 342.945 264.068 341.179 265.333C339.403 266.605 339 267.826 339 268.556C339 269.285 339.403 270.506 341.179 271.778C342.945 273.043 345.691 274.012 349 274.012C352.309 274.012 355.054 273.043 356.821 271.778ZM349 280.012C357.837 280.012 365 274.883 365 268.556C365 262.228 357.837 257.099 349 257.099C340.163 257.099 333 262.228 333 268.556C333 274.883 340.163 280.012 349 280.012Z" fill="#EDCFA6"/>
</g>
<g filter="url(#filter2_d_202_556)">
<path fill-rule="evenodd" clip-rule="evenodd" d="M213.097 412.592C205.022 375.252 180.491 341.501 144.387 315.444C99.7332 283.217 37.744 263.099 -31 263.099C-99.7439 263.099 -161.733 283.217 -206.387 315.444C-251.048 347.677 -278 391.683 -278 439.691C-278 487.7 -251.048 531.706 -206.387 563.939C-161.733 596.165 -99.7439 616.284 -31 616.284C25.1487 616.284 76.791 602.862 118.162 580.384C118.535 582.44 118.956 584.485 119.424 586.519C77.3778 608.993 25.3395 622.284 -31 622.284C-170.728 622.284 -284 540.534 -284 439.691C-284 338.848 -170.728 257.099 -31 257.099C94.5162 257.099 198.684 323.064 218.576 409.579C216.73 410.566 214.904 411.57 213.097 412.592ZM200.515 420.191C187.383 336.073 88.7393 270.704 -31 270.704C-159.682 270.704 -264 346.202 -264 439.333C-264 532.465 -159.682 607.963 -31 607.963C25.0465 607.963 76.4711 593.641 116.668 569.779C116.445 567.555 116.277 565.321 116.166 563.076C76.6219 587.258 25.2799 601.963 -31 601.963C-94.2173 601.963 -151.204 583.409 -192.238 553.712C-233.279 524.009 -258 483.494 -258 439.333C-258 395.173 -233.279 354.658 -192.238 324.955C-151.204 295.257 -94.2173 276.704 -31 276.704C32.2173 276.704 89.2043 295.257 130.238 324.955C166.437 351.153 189.939 385.763 194.981 423.866C196.801 422.622 198.646 421.397 200.515 420.191ZM116.076 551.889C77.621 577.783 25.8909 593.642 -31 593.642C-149.741 593.642 -246 524.556 -246 439.333C-246 354.111 -149.741 285.025 -31 285.025C84.3331 285.025 178.456 350.202 183.764 432.036C181.796 433.563 179.863 435.113 177.967 436.688C176.995 397.531 154.486 361.62 117.529 335.095C79.7518 307.982 27.2579 291.025 -31 291.025C-89.2579 291.025 -141.752 307.982 -179.529 335.095C-217.317 362.216 -240 399.15 -240 439.333C-240 479.517 -217.317 516.451 -179.529 543.572C-141.752 570.685 -89.2579 587.642 -31 587.642C26.7561 587.642 78.8471 570.976 116.55 544.27C116.32 546.796 116.162 549.336 116.076 551.889ZM165.657 447.746C165.885 444.962 166 442.157 166 439.333C166 361.229 77.8001 297.914 -31 297.914C-139.8 297.914 -228 361.229 -228 439.333C-228 517.437 -139.8 580.753 -31 580.753C28.6964 580.753 82.1912 561.692 118.318 531.585C118.949 528.234 119.707 524.911 120.586 521.62C115.714 526.12 110.443 530.408 104.801 534.458C70.2808 559.239 22.2871 574.753 -31 574.753C-84.2871 574.753 -132.281 559.239 -166.801 534.458C-201.331 509.67 -222 475.958 -222 439.333C-222 402.709 -201.331 368.997 -166.801 344.209C-132.281 319.428 -84.2871 303.914 -31 303.914C22.2871 303.914 70.2808 319.428 104.801 344.209C139.331 368.997 160 402.709 160 439.333C160 444.553 159.58 449.714 158.76 454.799C160.984 452.407 163.284 450.055 165.657 447.746ZM143.856 473.031C147.863 462.284 150 450.988 150 439.333C150 367.557 68.9635 309.37 -31 309.37C-130.964 309.37 -212 367.557 -212 439.333C-212 511.11 -130.964 569.296 -31 569.296C37.0115 569.296 96.2618 542.362 127.19 502.539C131.569 492.288 137.165 482.423 143.856 473.031ZM93.4868 526.357C125.121 503.643 144 472.795 144 439.333C144 405.872 125.121 375.024 93.4868 352.309C61.862 329.602 17.8685 315.37 -31 315.37C-79.8685 315.37 -123.862 329.602 -155.487 352.309C-187.121 375.024 -206 405.872 -206 439.333C-206 472.795 -187.121 503.643 -155.487 526.357C-123.862 549.065 -79.8685 563.296 -31 563.296C17.8685 563.296 61.862 549.065 93.4868 526.357ZM127 439.333C127 469.426 109.976 497.23 81.3259 517.745C52.6866 538.252 12.8158 551.123 -31.5 551.123C-75.8158 551.123 -115.687 538.252 -144.326 517.745C-172.976 497.23 -190 469.426 -190 439.333C-190 409.24 -172.976 381.436 -144.326 360.921C-115.687 340.414 -75.8158 327.543 -31.5 327.543C12.8158 327.543 52.6866 340.414 81.3259 360.921C109.976 381.436 127 409.24 127 439.333ZM133 439.333C133 504.387 59.3508 557.123 -31.5 557.123C-122.351 557.123 -196 504.387 -196 439.333C-196 374.28 -122.351 321.543 -31.5 321.543C59.3508 321.543 133 374.28 133 439.333ZM69.4516 509.243C94.9347 490.995 110 466.324 110 439.691C110 413.059 94.9347 388.387 69.4516 370.14C43.9791 351.901 8.48331 340.432 -31 340.432C-70.4833 340.432 -105.979 351.901 -131.452 370.14C-156.935 388.387 -172 413.059 -172 439.691C-172 466.324 -156.935 490.995 -131.452 509.243C-105.979 527.482 -70.4833 538.951 -31 538.951C8.48331 538.951 43.9791 527.482 69.4516 509.243ZM-31 544.951C50.1859 544.951 116 497.824 116 439.691C116 381.558 50.1859 334.432 -31 334.432C-112.186 334.432 -178 381.558 -178 439.691C-178 497.824 -112.186 544.951 -31 544.951ZM92 439.691C92 462.765 78.9494 484.214 56.7236 500.129C34.5086 516.036 3.51276 526.062 -31 526.062C-65.5128 526.062 -96.5086 516.036 -118.724 500.129C-140.949 484.214 -154 462.765 -154 439.691C-154 416.618 -140.949 395.169 -118.724 379.254C-96.5086 363.347 -65.5128 353.321 -31 353.321C3.51276 353.321 34.5086 363.347 56.7236 379.254C78.9494 395.169 92 416.618 92 439.691ZM98 439.691C98 490.706 40.2448 532.062 -31 532.062C-102.245 532.062 -160 490.706 -160 439.691C-160 388.677 -102.245 347.321 -31 347.321C40.2448 347.321 98 388.677 98 439.691ZM45.5564 491.416C64.7963 477.64 76 459.144 76 439.333C76 419.523 64.7963 401.027 45.5564 387.25C26.3272 373.481 -0.543579 364.778 -30.5 364.778C-60.4564 364.778 -87.3272 373.481 -106.556 387.25C-125.796 401.027 -137 419.523 -137 439.333C-137 459.144 -125.796 477.64 -106.556 491.416C-87.3272 505.185 -60.4564 513.889 -30.5 513.889C-0.543579 513.889 26.3272 505.185 45.5564 491.416ZM-30.5 519.889C31.632 519.889 82 483.823 82 439.333C82 394.844 31.632 358.778 -30.5 358.778C-92.632 358.778 -143 394.844 -143 439.333C-143 483.823 -92.632 519.889 -30.5 519.889ZM60 439.691C60 456.437 50.5311 472.158 34.0963 483.926C17.672 495.687 -5.32379 503.148 -31 503.148C-56.6762 503.148 -79.672 495.687 -96.0962 483.926C-112.531 472.158 -122 456.437 -122 439.691C-122 422.945 -112.531 407.225 -96.0962 395.456C-79.672 383.696 -56.6762 376.235 -31 376.235C-5.32379 376.235 17.672 383.696 34.0963 395.456C50.5311 407.225 60 422.945 60 439.691ZM66 439.691C66 478.051 22.5716 509.148 -31 509.148C-84.5716 509.148 -128 478.051 -128 439.691C-128 401.331 -84.5716 370.235 -31 370.235C22.5716 370.235 66 401.331 66 439.691ZM22.7825 475.825C36.322 466.13 44 453.274 44 439.691C44 426.109 36.322 413.252 22.7825 403.557C9.25375 393.87 -9.7421 387.691 -31 387.691C-52.2579 387.691 -71.2538 393.87 -84.7825 403.557C-98.322 413.252 -106 426.109 -106 439.691C-106 453.274 -98.322 466.13 -84.7825 475.825C-71.2538 485.512 -52.2579 491.691 -31 491.691C-9.7421 491.691 9.25375 485.512 22.7825 475.825ZM-31 497.691C13.735 497.691 50 471.724 50 439.691C50 407.659 13.735 381.691 -31 381.691C-75.7351 381.691 -112 407.659 -112 439.691C-112 471.724 -75.7351 497.691 -31 497.691ZM26 439.691C26 449.912 20.2248 459.726 9.76172 467.218C-0.690674 474.702 -15.4365 479.518 -32 479.518C-48.5635 479.518 -63.3093 474.702 -73.7617 467.218C-84.2248 459.726 -90 449.912 -90 439.691C-90 429.471 -84.2248 419.657 -73.7617 412.165C-63.3093 404.681 -48.5635 399.864 -32 399.864C-15.4365 399.864 -0.690674 404.681 9.76172 412.165C20.2248 419.657 26 429.471 26 439.691ZM32 439.691C32 465.001 3.34622 485.518 -32 485.518C-67.3462 485.518 -96 465.001 -96 439.691C-96 414.382 -67.3462 393.864 -32 393.864C3.34622 393.864 32 414.382 32 439.691ZM-2.25909 458.61C5.12759 453.321 9 446.551 9 439.691C9 432.832 5.12759 426.062 -2.25909 420.772C-9.6351 415.491 -20.1309 412.037 -32 412.037C-43.8691 412.037 -54.3649 415.491 -61.7409 420.772C-69.1276 426.062 -73 432.832 -73 439.691C-73 446.551 -69.1276 453.321 -61.7409 458.61C-54.3649 463.892 -43.8691 467.346 -32 467.346C-20.1309 467.346 -9.6351 463.892 -2.25909 458.61ZM-32 473.346C-6.0426 473.346 15 458.278 15 439.691C15 421.105 -6.0426 406.037 -32 406.037C-57.9574 406.037 -79 421.105 -79 439.691C-79 458.278 -57.9574 473.346 -32 473.346ZM-6 439.333C-6 443.128 -8.13751 447.123 -12.7193 450.404C-17.2903 453.677 -23.9111 455.889 -31.5 455.889C-39.0889 455.889 -45.7097 453.677 -50.2807 450.404C-54.8625 447.123 -57 443.128 -57 439.333C-57 435.539 -54.8625 431.543 -50.2807 428.262C-45.7097 424.989 -39.0889 422.778 -31.5 422.778C-23.9111 422.778 -17.2903 424.989 -12.7193 428.262C-8.13751 431.543 -6 435.539 -6 439.333ZM0 439.333C0 451.79 -14.103 461.889 -31.5 461.889C-48.897 461.889 -63 451.79 -63 439.333C-63 426.876 -48.897 416.778 -31.5 416.778C-14.103 416.778 0 426.876 0 439.333ZM-22 439.691C-22 440.421 -22.4026 441.642 -24.1794 442.914C-25.9455 444.179 -28.6913 445.148 -32 445.148C-35.3087 445.148 -38.0545 444.179 -39.8206 442.914C-41.5974 441.642 -42 440.421 -42 439.691C-42 438.962 -41.5974 437.741 -39.8206 436.469C-38.0545 435.204 -35.3087 434.235 -32 434.235C-28.6913 434.235 -25.9455 435.204 -24.1794 436.469C-22.4026 437.741 -22 438.962 -22 439.691ZM-16 439.691C-16 446.019 -23.1635 451.148 -32 451.148C-40.8366 451.148 -48 446.019 -48 439.691C-48 433.364 -40.8366 428.235 -32 428.235C-23.1635 428.235 -16 433.364 -16 439.691Z" fill="#EDCFA6"/>
</g>
<g filter="url(#filter3_d_202_556)">
<path fill-rule="evenodd" clip-rule="evenodd" d="M616 556.407C616 604.416 589.048 648.422 544.387 680.655C499.733 712.881 437.744 733 369 733C300.256 733 238.267 712.881 193.613 680.655C148.952 648.422 122 604.416 122 556.407C122 508.399 148.952 464.393 193.613 432.16C238.267 399.933 300.256 379.815 369 379.815C437.744 379.815 499.733 399.933 544.387 432.16C589.048 464.393 616 508.399 616 556.407ZM622 556.407C622 657.251 508.728 739 369 739C229.272 739 116 657.251 116 556.407C116 455.564 229.272 373.815 369 373.815C508.728 373.815 622 455.564 622 556.407ZM530.238 670.428C571.279 640.725 596 600.21 596 556.049C596 511.889 571.279 471.374 530.238 441.671C489.204 411.973 432.217 393.42 369 393.42C305.783 393.42 248.796 411.973 207.762 441.671C166.721 471.374 142 511.889 142 556.049C142 600.21 166.721 640.725 207.762 670.428C248.796 700.125 305.783 718.679 369 718.679C432.217 718.679 489.204 700.125 530.238 670.428ZM369 724.679C497.682 724.679 602 649.181 602 556.049C602 462.918 497.682 387.42 369 387.42C240.318 387.42 136 462.918 136 556.049C136 649.181 240.318 724.679 369 724.679ZM578 556.049C578 596.233 555.317 633.167 517.529 660.288C479.752 687.401 427.258 704.358 369 704.358C310.742 704.358 258.248 687.401 220.471 660.288C182.683 633.167 160 596.233 160 556.049C160 515.866 182.683 478.932 220.471 451.811C258.248 424.698 310.742 407.741 369 407.741C427.258 407.741 479.752 424.698 517.529 451.811C555.317 478.932 578 515.866 578 556.049ZM584 556.049C584 641.272 487.741 710.358 369 710.358C250.259 710.358 154 641.272 154 556.049C154 470.827 250.259 401.741 369 401.741C487.741 401.741 584 470.827 584 556.049ZM504.801 651.174C539.331 626.386 560 592.674 560 556.049C560 519.425 539.331 485.713 504.801 460.925C470.281 436.144 422.287 420.63 369 420.63C315.713 420.63 267.719 436.144 233.199 460.925C198.669 485.713 178 519.425 178 556.049C178 592.674 198.669 626.386 233.199 651.174C267.719 675.955 315.713 691.469 369 691.469C422.287 691.469 470.281 675.955 504.801 651.174ZM369 697.469C477.8 697.469 566 634.153 566 556.049C566 477.945 477.8 414.63 369 414.63C260.2 414.63 172 477.945 172 556.049C172 634.153 260.2 697.469 369 697.469ZM544 556.049C544 589.511 525.121 620.359 493.487 643.073C461.862 665.781 417.868 680.012 369 680.012C320.132 680.012 276.138 665.781 244.513 643.073C212.879 620.359 194 589.511 194 556.049C194 522.588 212.879 491.74 244.513 469.025C276.138 446.318 320.132 432.086 369 432.086C417.868 432.086 461.862 446.318 493.487 469.025C525.121 491.74 544 522.588 544 556.049ZM550 556.049C550 627.826 468.964 686.012 369 686.012C269.036 686.012 188 627.826 188 556.049C188 484.273 269.036 426.086 369 426.086C468.964 426.086 550 484.273 550 556.049ZM481.326 634.461C509.976 613.946 527 586.142 527 556.049C527 525.957 509.976 498.152 481.326 477.638C452.687 457.13 412.816 444.259 368.5 444.259C324.184 444.259 284.313 457.13 255.674 477.638C227.024 498.152 210 525.957 210 556.049C210 586.142 227.024 613.946 255.674 634.461C284.313 654.968 324.184 667.839 368.5 667.839C412.816 667.839 452.687 654.968 481.326 634.461ZM368.5 673.839C459.351 673.839 533 621.103 533 556.049C533 490.996 459.351 438.259 368.5 438.259C277.649 438.259 204 490.996 204 556.049C204 621.103 277.649 673.839 368.5 673.839ZM510 556.407C510 583.04 494.935 607.711 469.452 625.959C443.979 644.198 408.483 655.667 369 655.667C329.517 655.667 294.021 644.198 268.548 625.959C243.065 607.711 228 583.04 228 556.407C228 529.775 243.065 505.103 268.548 486.856C294.021 468.617 329.517 457.148 369 457.148C408.483 457.148 443.979 468.617 469.452 486.856C494.935 505.103 510 529.775 510 556.407ZM516 556.407C516 614.54 450.186 661.667 369 661.667C287.814 661.667 222 614.54 222 556.407C222 498.274 287.814 451.148 369 451.148C450.186 451.148 516 498.274 516 556.407ZM456.724 616.845C478.949 600.93 492 579.481 492 556.407C492 533.334 478.949 511.885 456.724 495.97C434.509 480.063 403.513 470.037 369 470.037C334.487 470.037 303.491 480.063 281.276 495.97C259.051 511.885 246 533.334 246 556.407C246 579.481 259.051 600.93 281.276 616.845C303.491 632.752 334.487 642.778 369 642.778C403.513 642.778 434.509 632.752 456.724 616.845ZM369 648.778C440.245 648.778 498 607.422 498 556.407C498 505.393 440.245 464.037 369 464.037C297.755 464.037 240 505.393 240 556.407C240 607.422 297.755 648.778 369 648.778ZM476 556.049C476 575.86 464.796 594.356 445.556 608.132C426.327 621.901 399.456 630.605 369.5 630.605C339.544 630.605 312.673 621.901 293.444 608.132C274.204 594.356 263 575.86 263 556.049C263 536.239 274.204 517.743 293.444 503.966C312.673 490.197 339.544 481.494 369.5 481.494C399.456 481.494 426.327 490.197 445.556 503.966C464.796 517.743 476 536.239 476 556.049ZM482 556.049C482 600.539 431.632 636.605 369.5 636.605C307.368 636.605 257 600.539 257 556.049C257 511.56 307.368 475.494 369.5 475.494C431.632 475.494 482 511.56 482 556.049ZM434.096 600.642C450.531 588.874 460 573.153 460 556.407C460 539.661 450.531 523.941 434.096 512.172C417.672 500.412 394.676 492.951 369 492.951C343.324 492.951 320.328 500.412 303.904 512.172C287.469 523.941 278 539.661 278 556.407C278 573.153 287.469 588.874 303.904 600.642C320.328 612.403 343.324 619.864 369 619.864C394.676 619.864 417.672 612.403 434.096 600.642ZM369 625.864C422.572 625.864 466 594.767 466 556.407C466 518.047 422.572 486.951 369 486.951C315.428 486.951 272 518.047 272 556.407C272 594.767 315.428 625.864 369 625.864ZM444 556.407C444 569.99 436.322 582.846 422.783 592.541C409.254 602.229 390.258 608.407 369 608.407C347.742 608.407 328.746 602.229 315.217 592.541C301.678 582.846 294 569.99 294 556.407C294 542.825 301.678 529.968 315.217 520.274C328.746 510.586 347.742 504.407 369 504.407C390.258 504.407 409.254 510.586 422.783 520.274C436.322 529.968 444 542.825 444 556.407ZM450 556.407C450 588.44 413.735 614.407 369 614.407C324.265 614.407 288 588.44 288 556.407C288 524.375 324.265 498.407 369 498.407C413.735 498.407 450 524.375 450 556.407ZM409.762 583.934C420.225 576.442 426 566.628 426 556.407C426 546.187 420.225 536.373 409.762 528.881C399.309 521.397 384.563 516.58 368 516.58C351.437 516.58 336.691 521.397 326.238 528.881C315.775 536.373 310 546.187 310 556.407C310 566.628 315.775 576.442 326.238 583.934C336.691 591.418 351.437 596.235 368 596.235C384.563 596.235 399.309 591.418 409.762 583.934ZM368 602.235C403.346 602.235 432 581.717 432 556.407C432 531.098 403.346 510.58 368 510.58C332.654 510.58 304 531.098 304 556.407C304 581.717 332.654 602.235 368 602.235ZM409 556.407C409 563.267 405.128 570.037 397.741 575.326C390.365 580.608 379.869 584.062 368 584.062C356.131 584.062 345.635 580.608 338.259 575.326C330.872 570.037 327 563.267 327 556.407C327 549.548 330.872 542.778 338.259 537.489C345.635 532.207 356.131 528.753 368 528.753C379.869 528.753 390.365 532.207 397.741 537.489C405.128 542.778 409 549.548 409 556.407ZM415 556.407C415 574.994 393.957 590.062 368 590.062C342.043 590.062 321 574.994 321 556.407C321 537.821 342.043 522.753 368 522.753C393.957 522.753 415 537.821 415 556.407ZM387.281 567.12C391.862 563.839 394 559.844 394 556.049C394 552.255 391.862 548.259 387.281 544.979C382.71 541.705 376.089 539.494 368.5 539.494C360.911 539.494 354.29 541.705 349.719 544.979C345.138 548.259 343 552.255 343 556.049C343 559.844 345.138 563.839 349.719 567.12C354.29 570.393 360.911 572.605 368.5 572.605C376.089 572.605 382.71 570.393 387.281 567.12ZM368.5 578.605C385.897 578.605 400 568.506 400 556.049C400 543.592 385.897 533.494 368.5 533.494C351.103 533.494 337 543.592 337 556.049C337 568.506 351.103 578.605 368.5 578.605ZM375.821 559.63C377.597 558.358 378 557.137 378 556.407C378 555.678 377.597 554.457 375.821 553.185C374.055 551.92 371.309 550.951 368 550.951C364.691 550.951 361.946 551.92 360.179 553.185C358.403 554.457 358 555.678 358 556.407C358 557.137 358.403 558.358 360.179 559.63C361.946 560.895 364.691 561.864 368 561.864C371.309 561.864 374.055 560.895 375.821 559.63ZM368 567.864C376.837 567.864 384 562.735 384 556.407C384 550.08 376.837 544.951 368 544.951C359.163 544.951 352 550.08 352 556.407C352 562.735 359.163 567.864 368 567.864Z" fill="#EDCFA6"/>
</g>
<g filter="url(#filter4_d_202_556)">
<path d="M419 55C419 61.2829 413.695 67.872 402.519 74.2845C391.495 80.6102 375.41 86.374 355.36 91.2402C315.29 100.965 259.831 107 198.5 107C137.169 107 81.7099 100.965 41.6404 91.2402C21.59 86.374 5.50477 80.6102 -5.51947 74.2845C-16.695 67.872 -22 61.2829 -22 55C-22 48.7171 -16.695 42.128 -5.51947 35.7155C5.50477 29.3898 21.59 23.626 41.6404 18.7598C81.7099 9.03508 137.169 3 198.5 3C259.831 3 315.29 9.03508 355.36 18.7598C375.41 23.626 391.495 29.3898 402.519 35.7155C413.695 42.128 419 48.7171 419 55Z" stroke="#EDCFA6" stroke-width="4" shape-rendering="crispEdges"/>
</g>
<g filter="url(#filter5_d_202_556)">
<path d="M431 64.5C431 71.2659 425.29 78.3154 413.38 85.1467C401.622 91.8912 384.475 98.0322 363.113 103.215C320.419 113.573 261.335 120 196 120C130.665 120 71.5808 113.573 28.8872 103.215C7.52482 98.0322 -9.62223 91.8912 -21.3802 85.1467C-33.2897 78.3154 -39 71.2659 -39 64.5C-39 57.7341 -33.2897 50.6846 -21.3802 43.8533C-9.62223 37.1088 7.52482 30.9678 28.8872 25.785C71.5808 15.4268 130.665 9 196 9C261.335 9 320.419 15.4268 363.113 25.785C384.475 30.9678 401.622 37.1088 413.38 43.8533C425.29 50.6846 431 57.7341 431 64.5Z" stroke="#EDCFA6" stroke-width="4" shape-rendering="crispEdges"/>
</g>
<g filter="url(#filter6_d_202_556)">
<path d="M441 76.5C441 83.543 435.064 90.8554 422.751 97.9257C410.588 104.909 392.855 111.266 370.769 116.629C326.628 127.349 265.544 134 198 134C130.456 134 69.3719 127.349 25.2308 116.629C3.14465 111.266 -14.5881 104.909 -26.7508 97.9257C-39.0644 90.8554 -45 83.543 -45 76.5C-45 69.457 -39.0644 62.1446 -26.7508 55.0743C-14.5881 48.0908 3.14465 41.7344 25.2308 36.3707C69.3719 25.6507 130.456 19 198 19C265.544 19 326.628 25.6507 370.769 36.3707C392.855 41.7344 410.588 48.0908 422.751 55.0743C435.064 62.1446 441 69.457 441 76.5Z" stroke="#EDCFA6" stroke-width="4" shape-rendering="crispEdges"/>
</g>
<defs>
<filter id="filter0_d_202_556" x="-115" y="79.8437" width="402" height="244.821" filterUnits="userSpaceOnUse" color-interpolation-filters="sRGB">
<feFlood flood-opacity="0" result="BackgroundImageFix"/>
<feColorMatrix in="SourceAlpha" type="matrix" values="0 0 0 0 0 0 0 0 0 0 0 0 0 0 0 0 0 0 127 0" result="hardAlpha"/>
<feOffset dy="4"/>
<feGaussianBlur stdDeviation="2"/>
<feComposite in2="hardAlpha" operator="out"/>
<feColorMatrix type="matrix" values="0 0 0 0 0 0 0 0 0 0 0 0 0 0 0 0 0 0 0.25 0"/>
<feBlend mode="normal" in2="BackgroundImageFix" result="effect1_dropShadow_202_556"/>
<feBlend mode="normal" in="SourceGraphic" in2="effect1_dropShadow_202_556" result="shape"/>
</filter>
<filter id="filter1_d_202_556" x="159.752" y="95.3785" width="447.248" height="321.101" filterUnits="userSpaceOnUse" color-interpolation-filters="sRGB">
<feFlood flood-opacity="0" result="BackgroundImageFix"/>
<feColorMatrix in="SourceAlpha" type="matrix" values="0 0 0 0 0 0 0 0 0 0 0 0 0 0 0 0 0 0 127 0" result="hardAlpha"/>
<feOffset dy="4"/>
<feGaussianBlur stdDeviation="2"/>
<feComposite in2="hardAlpha" operator="out"/>
<feColorMatrix type="matrix" values="0 0 0 0 0 0 0 0 0 0 0 0 0 0 0 0 0 0 0.25 0"/>
<feBlend mode="normal" in2="BackgroundImageFix" result="effect1_dropShadow_202_556"/>
<feBlend mode="normal" in="SourceGraphic" in2="effect1_dropShadow_202_556" result="shape"/>
</filter>
<filter id="filter2_d_202_556" x="-288" y="257.099" width="510.576" height="373.185" filterUnits="userSpaceOnUse" color-interpolation-filters="sRGB">
<feFlood flood-opacity="0" result="BackgroundImageFix"/>
<feColorMatrix in="SourceAlpha" type="matrix" values="0 0 0 0 0 0 0 0 0 0 0 0 0 0 0 0 0 0 127 0" result="hardAlpha"/>
<feOffset dy="4"/>
<feGaussianBlur stdDeviation="2"/>
<feComposite in2="hardAlpha" operator="out"/>
<feColorMatrix type="matrix" values="0 0 0 0 0 0 0 0 0 0 0 0 0 0 0 0 0 0 0.25 0"/>
<feBlend mode="normal" in2="BackgroundImageFix" result="effect1_dropShadow_202_556"/>
<feBlend mode="normal" in="SourceGraphic" in2="effect1_dropShadow_202_556" result="shape"/>
</filter>
<filter id="filter3_d_202_556" x="112" y="373.815" width="514" height="373.185" filterUnits="userSpaceOnUse" color-interpolation-filters="sRGB">
<feFlood flood-opacity="0" result="BackgroundImageFix"/>
<feColorMatrix in="SourceAlpha" type="matrix" values="0 0 0 0 0 0 0 0 0 0 0 0 0 0 0 0 0 0 127 0" result="hardAlpha"/>
<feOffset dy="4"/>
<feGaussianBlur stdDeviation="2"/>
<feComposite in2="hardAlpha" operator="out"/>
<feColorMatrix type="matrix" values="0 0 0 0 0 0 0 0 0 0 0 0 0 0 0 0 0 0 0.25 0"/>
<feBlend mode="normal" in2="BackgroundImageFix" result="effect1_dropShadow_202_556"/>
<feBlend mode="normal" in="SourceGraphic" in2="effect1_dropShadow_202_556" result="shape"/>
</filter>
<filter id="filter4_d_202_556" x="-28" y="0" width="453" height="116" filterUnits="userSpaceOnUse" color-interpolation-filters="sRGB">
<feFlood flood-opacity="0" result="BackgroundImageFix"/>
<feColorMatrix in="SourceAlpha" type="matrix" values="0 0 0 0 0 0 0 0 0 0 0 0 0 0 0 0 0 0 127 0" result="hardAlpha"/>
<feOffset dy="3"/>
<feGaussianBlur stdDeviation="2"/>
<feComposite in2="hardAlpha" operator="out"/>
<feColorMatrix type="matrix" values="0 0 0 0 0 0 0 0 0 0 0 0 0 0 0 0 0 0 0.25 0"/>
<feBlend mode="normal" in2="BackgroundImageFix" result="effect1_dropShadow_202_556"/>
<feBlend mode="normal" in="SourceGraphic" in2="effect1_dropShadow_202_556" result="shape"/>
</filter>
<filter id="filter5_d_202_556" x="-45" y="6" width="482" height="123" filterUnits="userSpaceOnUse" color-interpolation-filters="sRGB">
<feFlood flood-opacity="0" result="BackgroundImageFix"/>
<feColorMatrix in="SourceAlpha" type="matrix" values="0 0 0 0 0 0 0 0 0 0 0 0 0 0 0 0 0 0 127 0" result="hardAlpha"/>
<feOffset dy="3"/>
<feGaussianBlur stdDeviation="2"/>
<feComposite in2="hardAlpha" operator="out"/>
<feColorMatrix type="matrix" values="0 0 0 0 0 0 0 0 0 0 0 0 0 0 0 0 0 0 0.25 0"/>
<feBlend mode="normal" in2="BackgroundImageFix" result="effect1_dropShadow_202_556"/>
<feBlend mode="normal" in="SourceGraphic" in2="effect1_dropShadow_202_556" result="shape"/>
</filter>
<filter id="filter6_d_202_556" x="-51" y="16" width="498" height="127" filterUnits="userSpaceOnUse" color-interpolation-filters="sRGB">
<feFlood flood-opacity="0" result="BackgroundImageFix"/>
<feColorMatrix in="SourceAlpha" type="matrix" values="0 0 0 0 0 0 0 0 0 0 0 0 0 0 0 0 0 0 127 0" result="hardAlpha"/>
<feOffset dy="3"/>
<feGaussianBlur stdDeviation="2"/>
<feComposite in2="hardAlpha" operator="out"/>
<feColorMatrix type="matrix" values="0 0 0 0 0 0 0 0 0 0 0 0 0 0 0 0 0 0 0.25 0"/>
<feBlend mode="normal" in2="BackgroundImageFix" result="effect1_dropShadow_202_556"/>
<feBlend mode="normal" in="SourceGraphic" in2="effect1_dropShadow_202_556" result="shape"/>
</filter>
</defs>
</svg>
