<svg width="226" height="188" viewBox="0 0 226 188" fill="none" xmlns="http://www.w3.org/2000/svg">
<path d="M19.2411 49.0452C19.4531 46.3296 19.3569 43.5487 19.931 40.9147C22.207 30.4599 29.6844 25.3549 39.3619 22.9084C48.0666 20.7229 56.3773 22.0603 63.2406 27.9645C71.7103 35.2469 78.1512 44.1196 82.4839 54.5743C95.6494 86.338 100.728 119.757 103.236 153.739C103.771 160.989 104.299 168.263 105.38 175.439C106.028 179.745 109.293 181.8 113.232 181.368C117.322 180.92 118.249 177.976 118.708 174.469C120.984 157.083 122.929 139.639 125.798 122.35C130.38 94.7458 136.021 67.4103 148.825 42.089C155.267 29.3509 165.338 21.9217 179.364 22.2968C194.195 22.6964 200.307 27.0349 203.983 40.4009C207.097 51.7282 204.758 62.5417 200.763 73.1921C199.217 77.3104 197.498 81.3879 196.263 85.6041C195.198 89.2412 196.867 91.9242 200.397 93.335C203.687 94.6479 207.279 93.1556 209.526 89.3717C218.174 74.8313 220.233 59.0025 219.04 42.3989C218.283 31.8545 213.532 23.9033 205.069 17.942C203.266 16.6698 201.383 15.4955 199.449 14.4354C184.288 6.11726 162.881 7.96846 151.04 18.57C143.871 24.9798 138.179 32.4905 134.068 41.2082C126.839 56.5314 120.978 72.3603 116.513 88.703C116.208 89.8202 115.936 91.0516 115.264 91.9323C114.474 92.9761 113.016 94.5582 112.295 94.3544C111.095 94.0118 109.806 92.5929 109.336 91.337C107.336 85.9792 105.514 80.548 103.825 75.0841C96.6793 51.9647 85.8005 31.039 67.8171 14.4109C64.6636 11.4914 60.8373 8.35996 56.8421 7.46291C40.6186 3.82578 18.7298 10.2926 10.4084 30.3703C5.42487 42.3989 5.0163 55.3735 7.80776 67.9648C9.43305 75.288 13.0971 82.2197 16.3428 89.0944C17.8229 92.2341 20.7644 93.0088 24.32 91.2718C28.0387 89.4614 28.7718 86.9414 27.3969 83.3696C26.7437 81.6733 26.1622 79.9445 25.487 78.2564C21.7349 68.8782 19.2215 59.2553 19.2411 49.0452ZM112.212 81.9995C114.304 75.8343 115.831 70.6233 117.83 65.5999C121.625 56.0585 125.497 46.5416 129.701 37.1797C133.869 27.8993 140.305 20.2173 147.975 13.5954C155.341 7.23451 164.084 4.0704 173.685 3.59741C184.521 3.05918 194.936 4.85322 204.413 10.5862C216.359 17.8197 224.064 27.6383 224.843 42.2031C225.802 60.1034 223.678 77.2615 214.225 92.9354C211.577 97.331 207.595 99.4105 202.552 99.4594C197.506 99.5084 193.624 97.0455 191.459 92.7478C188.941 87.7406 190.206 82.4236 192.458 77.6856C196.125 69.9628 198.817 62.0605 199.623 53.5223C200.244 46.9575 199.009 40.6863 195.599 35.1735C191.643 28.7718 184.779 27.622 178.069 27.9645C166.462 28.5517 158.796 35.092 153.707 45.3673C142.669 67.6549 136.696 91.4185 132.889 115.786C129.782 135.684 127.115 155.647 124.322 175.586C123.344 182.567 119.919 186.547 114.166 186.995C106.704 187.59 101.233 184.345 99.9315 177.225C98.537 169.584 98.1913 161.747 97.587 153.984C95.6184 128.671 92.4925 103.512 85.0511 79.1779C81.8364 68.6661 77.6863 58.2929 72.5952 48.564C69.312 42.2928 64.211 36.5354 58.7504 31.9442C49.1601 23.8707 31.4768 27.7361 26.9427 38.8025C25.0311 43.4671 24.749 49.3387 25.4633 54.4193C26.521 61.9301 29.1217 69.237 31.0748 76.6254C31.9327 79.8711 33.0026 83.076 33.642 86.3625C34.8082 92.3645 30.4159 94.599 26.1255 96.6867C21.9102 98.7336 17.2472 99.0027 14.3032 95.2025C10.6294 90.4563 7.38044 85.1474 5.09622 79.6101C-1.3185 64.0585 -0.931138 47.6996 3.74331 32.1236C9.61002 12.5842 24.2417 3.15707 45.2082 0.857362C56.8438 -0.414818 65.9529 3.71969 74.112 12.1112C90.6536 29.1307 101.663 49.1431 108.713 71.5693C109.705 74.7253 110.814 77.8405 112.212 81.9995Z" fill="white"/>
<path d="M19.2411 49.0451C19.2215 59.2551 21.7349 68.8781 25.487 78.2563C26.1623 79.9444 26.7437 81.6732 27.3969 83.3694C28.7719 86.9413 28.0387 89.4612 24.32 91.2717C20.7645 93.0087 17.823 92.2339 16.3428 89.0943C13.0971 82.2196 9.43309 75.2879 7.8078 67.9647C5.01634 55.3734 5.42491 42.3988 10.4084 30.3701C18.7298 10.2925 40.6186 3.82567 56.8422 7.4628C60.8373 8.35985 64.6636 11.4913 67.8172 14.4108C85.8006 31.0388 96.6794 51.9646 103.825 75.084C105.514 80.5478 107.336 85.979 109.336 91.3369C109.806 92.5928 111.095 94.0117 112.295 94.3542C113.016 94.5581 114.474 92.976 115.264 91.9322C115.936 91.0514 116.208 89.8201 116.513 88.7028C120.978 72.3602 126.839 56.5313 134.068 41.2081C138.179 32.4904 143.872 24.9797 151.04 18.5698C162.881 7.96834 184.288 6.11714 199.45 14.4352C201.383 15.4954 203.266 16.6697 205.069 17.9419C213.532 23.9032 218.283 31.8543 219.04 42.3988C220.233 59.0023 218.174 74.8312 209.526 89.3716C207.279 93.1555 203.687 94.6478 200.397 93.3349C196.867 91.924 195.198 89.2411 196.263 85.6039C197.498 81.3878 199.217 77.3103 200.763 73.192C204.758 62.5416 207.097 51.7281 203.983 40.4008C200.307 27.0347 194.195 22.6963 179.364 22.2967C165.338 21.9216 155.267 29.3508 148.825 42.0889C136.021 67.4102 130.38 94.7457 125.798 122.35C122.929 139.639 120.985 157.083 118.708 174.469C118.249 177.976 117.322 180.92 113.232 181.368C109.293 181.8 106.028 179.745 105.38 175.439C104.299 168.263 103.771 160.989 103.236 153.739C100.728 119.757 95.6494 86.3379 82.484 54.5742C78.1512 44.1194 71.7104 35.2468 63.2406 27.9644C56.3773 22.0602 48.0666 20.7228 39.3619 22.9083C29.6844 25.3548 22.2071 30.4598 19.931 40.9145C19.3569 43.5486 19.4531 46.3295 19.2411 49.0451Z" fill="white"/>
</svg>
