<svg width="191" height="223" viewBox="0 0 191 223" fill="none" xmlns="http://www.w3.org/2000/svg">
<path d="M115.159 174.975C116.015 179.378 117.235 186.514 118.808 193.576C122.465 209.984 142.955 218.074 156.613 216.54C171.122 214.901 182.798 201.372 184.963 187.248C185.533 183.521 183.785 180.422 180.88 179.81C178.123 179.231 174.501 181.311 173.764 184.606C172.415 190.657 168.415 194.644 163.922 198.224C156.379 204.243 145.689 204.683 139.991 198.624C136.71 195.134 133.859 190.697 132.373 186.179C129.288 176.785 129.637 166.828 130.83 157.164C132.51 143.561 136.824 130.595 142.238 117.979C150.284 99.239 158.295 80.5722 158.901 59.5568C159.301 45.6933 156.144 33.3874 147.888 22.3129C143.833 16.8817 138.881 12.6248 132.459 10.2353C121.504 6.15784 110.247 5.17928 98.6982 6.8429C91.6376 7.85412 84.3111 8.24556 78.6035 13.163C68.9634 21.4648 62.4174 31.6912 60.1308 44.4211C57.3662 59.8014 57.5024 75.1899 59.9008 90.5784C60.3151 93.2369 59.6619 95.2512 57.1477 95.7242C54.1744 96.2787 51.0526 96.2462 48.0035 96.1565C38.2468 95.8873 29.176 97.714 21.5128 104.238C12.5202 111.896 8.4354 121.763 6.82398 133.384C3.3214 158.648 27.1666 179.566 52.1951 175.562C69.2497 172.838 79.379 161.339 85.2783 145.739C85.8476 144.238 86.0327 142.346 85.7032 140.781C83.9189 132.299 82.442 123.696 79.8846 115.443C73.4381 94.6315 72.0069 73.4121 73.4781 51.8666C74.2422 40.6698 79.0259 31.3894 88.6741 25.6075C94.1241 22.3455 100.391 19.9072 106.606 18.5616C122.116 15.2018 134.284 22.264 140.03 37.1061C144.749 49.2978 145.363 62.0033 141.7 74.2847C136.208 92.6906 129.545 110.762 123.177 128.899C118.26 142.909 116.352 157.392 115.159 174.975ZM53.5048 90.9535C53.1264 81.8688 52.3444 73.2001 52.4977 64.5395C52.7586 49.779 54.3986 35.3772 62.8007 22.3782C70.9239 9.81132 81.5686 2.65118 96.7263 1.16697C109.925 -0.121521 122.687 0.710289 135.235 4.67362C138.128 5.58698 140.994 7.2751 143.294 9.27307C158.978 22.9001 165.409 40.0418 164.56 60.9023C163.655 83.1573 154.852 102.705 146.609 122.628C141.078 135.994 136.431 149.678 136.108 164.349C135.988 169.78 136.138 175.309 137.034 180.642C137.658 184.353 139.264 188.145 141.316 191.325C145.344 197.572 149.931 198.697 156.785 195.656C161.683 193.478 165.338 189.996 167.411 184.834C168.504 182.11 169.922 179.313 171.894 177.201C175.181 173.686 180.864 173.107 184.903 175.187C189.082 177.331 191.416 181.808 190.608 187.443C189.141 197.694 184.905 206.64 176.755 213.319C162.954 224.63 144.998 225.136 129.534 216.035C117.753 209.103 113.25 198.428 110.92 186.025C108.346 172.316 109.711 158.607 113.034 145.413C116.73 130.726 122.13 116.462 127.047 102.101C131.593 88.8332 136.844 75.7689 137.854 61.5629C138.415 53.6852 137.491 45.9788 134.455 38.6229C129.572 26.79 120.106 21.4567 107.666 24.1478C102.666 25.2324 97.6038 26.9857 93.1658 29.4975C84.2745 34.5128 79.8275 42.7494 79.1254 52.8371C77.7537 72.5396 78.8905 92.03 84.6488 111.072C86.1542 116.046 87.5789 121.054 89.271 125.971C94.6974 141.735 90.3361 155.125 79.3774 166.828C62.0309 185.356 39.0623 186.375 19.5425 173.36C5.5624 164.03 -1.29188 149.955 1.3903 132.593C2.29224 126.754 3.36789 120.687 5.81602 115.394C14.0526 97.5917 30.3446 88.7273 49.8726 90.5703C51.0273 90.6763 52.1805 90.8149 53.5048 90.9535Z" fill="white"/>
<path d="M46.8006 161.641C61.7112 161.698 72.7555 151.219 72.8167 136.956C72.8779 122.448 60.9341 110.648 46.1172 110.574C31.5304 110.501 20.2113 121.29 20.0221 135.447C19.8304 149.873 31.8044 161.584 46.8006 161.641ZM115.159 174.975C116.352 157.392 118.26 142.909 123.177 128.899C129.545 110.762 136.208 92.6906 141.7 74.2847C145.363 62.0033 144.749 49.2978 140.03 37.1061C134.284 22.264 122.116 15.2018 106.606 18.5616C100.391 19.9072 94.1241 22.3455 88.6741 25.6075C79.0259 31.3894 74.2422 40.6698 73.4781 51.8666C72.0069 73.4121 73.4381 94.6315 79.8846 115.443C82.4421 123.696 83.9189 132.299 85.7032 140.781C86.0327 142.346 85.8476 144.238 85.2784 145.739C79.379 161.339 69.2497 172.838 52.1952 175.562C27.1666 179.566 3.32143 158.648 6.824 133.384C8.43543 121.763 12.5203 111.896 21.5128 104.238C29.176 97.714 38.2468 95.8873 48.0035 96.1565C51.0526 96.2462 54.1744 96.2787 57.1477 95.7242C59.6619 95.2512 60.3151 93.2369 59.9008 90.5784C57.5024 75.1899 57.3662 59.8014 60.1308 44.4211C62.4174 31.6912 68.9635 21.4648 78.6035 13.163C84.3112 8.24555 91.6376 7.85411 98.6982 6.84289C110.247 5.17927 121.504 6.15784 132.459 10.2353C138.881 12.6248 143.833 16.8817 147.888 22.3129C156.144 33.3874 159.301 45.6933 158.901 59.5568C158.295 80.5722 150.284 99.239 142.238 117.979C136.824 130.595 132.51 143.561 130.83 157.164C129.637 166.828 129.288 176.785 132.373 186.179C133.859 190.697 136.71 195.134 139.991 198.624C145.689 204.683 156.379 204.243 163.922 198.224C168.415 194.644 172.415 190.657 173.764 184.606C174.501 181.311 178.123 179.231 180.88 179.81C183.785 180.422 185.533 183.521 184.963 187.248C182.798 201.372 171.122 214.901 156.613 216.541C142.955 218.074 122.465 209.984 118.808 193.576C117.235 186.514 116.015 179.378 115.159 174.975Z" fill="white"/>
</svg>
