<svg width="124" height="207" viewBox="0 0 124 207" fill="none" xmlns="http://www.w3.org/2000/svg">
<path d="M10.6791 93.8477C57.8852 155.924 49.8461 140.763 60.8688 205.234C60.9419 205.661 61.3167 206 61.75 206C62.1833 206 62.5581 205.661 62.6312 205.234C73.6539 140.763 65.6148 155.924 112.821 93.8477C114.321 91.8748 112.943 89 110.465 89H13.0353C10.5567 89 9.17873 91.8748 10.6791 93.8477Z" fill="#C73AEC" stroke="#C73AEC"/>
<path d="M124 62C124 96.2417 98.5 110.5 62 124C30 118.5 0 96.2417 0 62C0 27.7583 27.7583 0 62 0C96.2417 0 124 27.7583 124 62Z" fill="#C73AEC"/>
<circle cx="62" cy="60" r="44" fill="white"/>
<circle cx="62" cy="60" r="38" fill="#C73AEC"/>
<circle cx="48.5" cy="49.5" r="10.5" fill="white"/>
</svg>
