<svg width="44" height="44" viewBox="0 0 44 44" fill="none" xmlns="http://www.w3.org/2000/svg">
<path d="M21.7637 7.39062H22.2793L22.8379 7.41211L23.5898 7.47656L24.4062 7.58398L25.2871 7.75586L25.9531 7.92773L26.7695 8.18555L27.3496 8.40039L27.9082 8.63672L28.3379 8.83008L29.1543 9.25977L29.5195 9.47461L29.9277 9.73242L30.4004 10.0547L30.7871 10.334L31.1309 10.6133L31.3457 10.7852L31.6465 11.043L31.9043 11.2793L31.9688 11.3223V11.3652L32.0547 11.4082L32.6133 11.9668V12.0098H32.6562L32.8066 12.1816L33.043 12.4395L33.2363 12.6758L33.5156 13.0195L33.8379 13.4492L34.1387 13.8789L34.4395 14.3516L34.7188 14.8242L34.998 15.3398L35.2344 15.8125L35.5352 16.5L35.8145 17.252L36.0078 17.8535L36.2227 18.6699L36.373 19.4004L36.502 20.2598L36.5879 21.248V22.752L36.5234 23.5684L36.3945 24.4707L36.2441 25.2441L36.0938 25.8457L35.8574 26.6191L35.707 27.0488L35.4707 27.6504L35.1484 28.3594L34.9336 28.7891L34.6543 29.2832L34.4395 29.6484L34.2246 29.9922L33.9238 30.4219L33.709 30.7227L33.4082 31.1094L33.2148 31.3457L32.957 31.6465L32.6562 31.9688L32.5918 32.0547H32.5488L32.5059 32.1406L32.0762 32.5703L31.9043 32.7207L31.6035 33L31.3672 33.1934L31.0879 33.4297L30.8086 33.6445L30.4219 33.9238L29.7129 34.3965L29.2402 34.6758L28.7676 34.9336L28.3594 35.1484L27.6504 35.4707L26.9199 35.75L26.2109 35.9863L25.4805 36.1797L24.8145 36.3301L24.1699 36.4375L23.4824 36.5234L22.9883 36.5664L22.6016 36.5879H21.291L20.6895 36.5449L19.9375 36.459L19.0566 36.3086L18.2402 36.1152L17.4668 35.8789L16.8438 35.6641L16.2637 35.4277L15.6406 35.1484L15.2109 34.9336L14.8242 34.7188L14.2441 34.375L13.9219 34.1602L13.5781 33.9238L13.1914 33.6445L12.8477 33.3652L12.6328 33.1934L12.3105 32.9141L12.0312 32.6562L11.7949 32.4199L11.623 32.2695V32.2266L11.5586 32.2051L11.4082 32.0332L11.1719 31.7969L11.0215 31.625L10.7637 31.3242L10.5273 31.0234L10.2266 30.6367L9.96875 30.2715L9.75391 29.9492L9.49609 29.541L9.17383 28.9824L8.87305 28.4023L8.6582 27.9512L8.42188 27.3926L8.22852 26.877L7.99219 26.168L7.77734 25.3516L7.62695 24.6211L7.49805 23.7832L7.43359 23.1387L7.39062 22.3652V21.6133L7.43359 20.8398L7.49805 20.1953L7.58398 19.5938L7.75586 18.7344L7.90625 18.1328L8.09961 17.4883L8.29297 16.9297L8.55078 16.2852L8.80859 15.7266L8.98047 15.3828L9.23828 14.8887L9.53906 14.373L9.77539 14.0078L10.0117 13.6641L10.2695 13.2988L10.4844 13.0195L10.7637 12.6758L10.957 12.4395L11.2363 12.1387L11.2578 12.0957H11.3008L11.3438 12.0098L12.1172 11.2363L12.2891 11.0859L12.5898 10.8281L12.8477 10.6133L13.2129 10.334L13.5566 10.0762L14.2656 9.60352L14.6953 9.3457L15.1895 9.06641L15.834 8.74414L16.4785 8.46484L17.0371 8.25L17.8965 7.9707L18.541 7.79883L19.25 7.64844L19.873 7.54102L20.5605 7.45508L21.1406 7.41211L21.7637 7.39062ZM21.4199 8.80859L20.5605 8.87305L19.916 8.95898L19.1211 9.10938L18.5195 9.25977L17.875 9.45312L17.2305 9.68945L16.7148 9.9043L16.1562 10.1621L15.6191 10.4414L15.0391 10.7852L14.459 11.1719L14.0723 11.4512L13.7285 11.7305L13.4922 11.9238L13.1914 12.1816L12.8691 12.4824L12.332 13.0195V13.0625H12.2891L12.1387 13.2344L11.8809 13.5352L11.6016 13.8789L11.3438 14.2227L11.043 14.6523L10.7637 15.082L10.4629 15.5977L10.1836 16.1348L10.0117 16.4785L9.75391 17.0801L9.53906 17.6387L9.28125 18.4766L9.10938 19.1641L9.00195 19.7227L8.91602 20.2598L8.85156 20.8184L8.80859 21.6133V22.4082L8.85156 23.1816L8.95898 24.0625L9.10938 24.8574L9.28125 25.5449L9.49609 26.2324L9.71094 26.8125L9.94727 27.3711L10.1406 27.8008L10.3555 28.209L10.5703 28.5957L10.8281 29.0254L11.2363 29.627L11.5371 30.0352L11.8379 30.4004L12.0312 30.6367L12.332 30.959L12.5254 31.1738L12.9336 31.582H12.9766V31.625L13.1484 31.7754L13.3848 31.9902L13.6211 32.1836L13.9648 32.4629L14.373 32.7637L14.8887 33.1074L15.3398 33.3867L15.834 33.666L16.1777 33.8379L16.8223 34.1387L17.5957 34.4395L18.2617 34.6543L19.0781 34.8691L19.873 35.0195L20.6895 35.127L21.2266 35.1699L21.7852 35.1914H22.1934L22.7734 35.1699L23.4824 35.1055L24.1055 35.0195L24.707 34.9121L25.416 34.7402L25.9316 34.5898L26.6836 34.332L27.1992 34.1172L27.6289 33.9238L28.3164 33.5801L28.832 33.2793L29.3047 32.9785L29.6699 32.7207L29.9707 32.5059L30.207 32.3125L30.4219 32.1406L30.7227 31.8828L31.002 31.625L31.3242 31.3242L31.4961 31.1523L31.6465 30.9805L31.8184 30.8086L31.9688 30.6367L32.2051 30.3574L32.4414 30.0566L32.6992 29.7129L32.957 29.3477L33.2578 28.875L33.4941 28.4668L33.7734 27.9512L34.0527 27.3711L34.3535 26.6406L34.6113 25.8672L34.8047 25.1797L34.9551 24.5137L35.084 23.6758L35.1484 23.0527L35.1699 22.752L35.1914 21.8926L35.1699 21.2266L35.1055 20.4961L34.998 19.7441L34.8691 19.0781L34.7402 18.5625L34.5469 17.918L34.3535 17.3594L34.0742 16.6719L33.709 15.9199L33.4941 15.5117L33.1719 14.9746L32.8711 14.5234L32.6133 14.1582L32.1406 13.5566L31.9258 13.3203L31.7754 13.1484L31.5391 12.8906L31.3887 12.7188L31.2168 12.5684L30.9375 12.2891L30.7656 12.1387L30.5508 11.9453L30.25 11.709L29.9062 11.4297L29.498 11.1504L29.2188 10.957L28.8105 10.6992L28.252 10.377L27.7148 10.0977L27.0918 9.81836L26.3613 9.53906L25.6309 9.30273L24.7715 9.08789L23.9336 8.9375L23.1816 8.85156L22.5156 8.80859H21.4199Z" fill="#B0ABA4"/>
<path d="M21.4844 26.5332H22.4727L23.0527 26.6191L23.418 26.7051L23.9121 26.877L24.2988 27.0488L24.6641 27.2422L25.0508 27.5L25.3301 27.7148L25.5449 27.9082L25.7168 28.0586L25.8672 28.209L26.0176 28.3809L26.3184 28.7676L26.5762 29.1758L26.791 29.584L27.0059 30.1211L27.1348 30.5508L27.2207 30.9805L27.2852 31.5605V31.9043L27.2207 32.1191L27.0703 32.3125L26.9199 32.4414L26.7266 32.5059L26.5977 32.5273H17.3379L17.1445 32.4844L16.9727 32.3984L16.8223 32.248L16.6934 31.9902L16.6719 31.8828V31.5391L16.7363 30.9805L16.8438 30.4648L17.0156 29.9492L17.209 29.498L17.3809 29.1758L17.6387 28.7676L17.8535 28.4883L17.8965 28.4238H17.9395L17.9824 28.3379L18.3047 27.9941L18.584 27.7363L18.9922 27.4355L19.4434 27.1562L19.9805 26.8984L20.4746 26.7266L20.9043 26.6191L21.4844 26.5332ZM21.7637 27.9297L21.3555 27.9727L20.9473 28.0586L20.5605 28.1875L20.3242 28.2949L19.959 28.4883L19.7012 28.6602L19.4648 28.8535L19.25 29.0469L19.0566 29.2402L18.7773 29.6055L18.5625 29.9492L18.3691 30.3574L18.2188 30.8086L18.1543 31.1094H25.7812L25.7598 30.916L25.6309 30.4863L25.4375 30.0352L25.2012 29.627L24.9863 29.3477L24.75 29.0898L24.5352 28.875L24.2559 28.6602L23.8477 28.4023L23.3965 28.1875L22.9883 28.0586L22.7305 27.9941L22.1719 27.9297H21.7637Z" fill="#B0ABA4"/>
<path d="M16.1348 19.6797H16.3926L16.6074 19.7656L16.7793 19.8945L17.8105 20.9258L17.918 21.0762L17.9824 21.2695V21.6133L17.8965 21.8496L17.7246 22.0645L16.8223 22.9668L16.5859 23.1387L16.3711 23.2031H16.1777L15.9629 23.1387L15.834 23.0527L15.6836 22.9023L15.5762 22.666L15.5547 22.4512L15.6191 22.2148L15.748 22.0215L15.8555 21.9141L15.9414 21.8066L16.0918 21.6777L16.1992 21.5703L16.2852 21.4629L16.2422 21.377L15.748 20.8828L15.5977 20.6465L15.5547 20.5176V20.2598L15.6191 20.0879L15.7266 19.916L15.8984 19.7656L16.0273 19.7012L16.1348 19.6797Z" fill="#B0ABA4"/>
<path d="M27.5645 19.7656H27.8652L28.0801 19.8516L28.2949 20.0449L28.4023 20.2383L28.4238 20.3242V20.6035L28.3379 20.7969L28.1875 21.0117L27.8008 21.3984L27.7578 21.4199L27.8008 21.5059L28.209 21.9141L28.3594 22.1289L28.4238 22.3008V22.5801L28.3379 22.7734L28.209 22.9453L28.1016 23.0312L27.9082 23.1172L27.8008 23.1387H27.5859L27.3281 23.0312L27.0703 22.7949L26.3398 22.0645L26.1895 21.8281L26.1465 21.6992V21.2266L26.2324 20.9902L26.4258 20.7539L27.2422 19.9375L27.4785 19.7871L27.5645 19.7656Z" fill="#B0ABA4"/>
</svg>
