<svg width="59" height="60" viewBox="0 0 59 60" fill="none" xmlns="http://www.w3.org/2000/svg">
<path d="M41.2771 24.4615H43.1066L45.1647 24.6346L46.4225 24.8077L48.1948 25.1538L50.2529 25.7308L52.1395 26.3654L53.7403 27.0577L55.1696 27.75L56.4845 28.4423V28.5577L55.2267 29.25L53.969 29.8846L52.311 30.5769L50.4244 31.2692L48.8236 31.7308L46.937 32.1346L44.8789 32.4808L43.7355 32.5961L42.5921 32.6538H41.6773L39.9622 32.5385L38.5901 32.3077L36.6463 31.8461L35.3314 31.3846L33.4448 30.4615L32.53 29.8846L31.7868 29.3077L31.2151 28.8461L30.9293 28.5L31.3295 28.0961L32.1298 27.4615L32.9874 26.8846L34.188 26.1923L35.5029 25.6154L36.7607 25.1538L38.1327 24.8077L39.6764 24.5769L41.2771 24.4615Z" fill="#B0ABA4"/>
<path d="M16.1793 24.5769H18.9806L20.5814 24.75L22.0678 25.0385L23.0397 25.3269L24.5262 25.9038L25.7268 26.4808L26.813 27.1154L27.6134 27.6923L28.4138 28.3269L28.6425 28.5577L28.5281 28.7885L27.9564 29.3077L27.156 29.8846L26.1841 30.5192L24.5833 31.3269L23.1541 31.8462L21.7248 32.25L20.2956 32.5385L18.6376 32.7115H16.5223L14.9787 32.5962L13.3207 32.3654L11.1483 31.9038L9.43315 31.4423L7.7752 30.8654L6.57462 30.4038L5.08819 29.7115L4.17346 29.25L3.25873 28.7308L3.08722 28.5577L4.34497 27.8654L5.60272 27.2308L7.14633 26.5962L8.34691 26.1346L10.0049 25.6154L11.72 25.1538L12.8634 24.9231L14.5785 24.6923L16.1793 24.5769Z" fill="#B0ABA4"/>
<path d="M29.7287 29.5385L30.1289 29.8846L30.7577 30.6346L31.3294 31.5L31.844 32.3654L32.3013 33.2885L32.7587 34.3269L33.1589 35.5385L33.4447 36.75L33.7306 38.4808L33.8449 40.0385V41.5962L33.7306 43.0385L33.4447 45.0577L33.1017 46.8462L32.7015 48.3462L31.9011 50.7115L31.1579 52.4423L30.4719 53.8846L29.7858 55.0962L29.6143 54.9231L28.8139 53.4808L28.0707 51.8654L27.4418 50.3077L26.6415 47.8269L26.2984 46.4423L25.9554 44.4808L25.7267 42.4615L25.6696 41.5962V39.6923L25.7839 38.3654L26.0697 36.6346L26.4699 35.1346L26.9273 33.9231L27.3275 33L27.9564 31.8462L28.7568 30.6346L29.3856 29.8846L29.7287 29.5385Z" fill="#B0ABA4"/>
<path d="M29.7287 4.32692L29.9574 4.55769L30.7578 6.05769L31.5581 7.73077L32.1298 9.17307L32.8731 11.4808L33.2161 13.0385L33.4448 14.4808L33.5591 15.6346L33.6163 16.6731V18.0577L33.5019 19.5L33.2161 21.1731L32.7587 22.6731L32.0727 24.2308L31.5581 25.1538L30.8721 26.1346L30.3576 26.7692L29.9002 27.2885L29.6715 27.3462L28.9855 26.5962L28.1279 25.4423L27.6134 24.5769L27.156 23.7115L26.6415 22.3846L26.2984 21.2308L26.0126 19.6154L25.8983 18.4615V16.0962L26.0698 14.3654L26.3556 12.6346L26.7558 11.0769L27.4419 8.9423L28.0707 7.4423L28.814 5.88461L29.5 4.67307L29.7287 4.32692Z" fill="#B0ABA4"/>
<path d="M26.1269 32.1346L26.2413 32.1923L25.7839 33.1154L25.3265 34.2115L24.9263 35.5962L24.6405 36.8654L24.4118 38.1346L24.2403 39.8654L23.3256 40.7885L22.6967 41.3077L21.9535 41.9423L20.8672 42.75L19.9525 43.3846L18.8663 44.0769L17.4942 44.8269L16.5223 45.3462L14.9215 46.0385L13.3207 46.6731L11.9486 47.1346L11.2626 47.3077H10.9196L11.0339 46.7885L11.7199 44.7115L12.3488 43.1538L12.8634 42L13.4351 40.8462L14.1211 39.6346L14.8072 38.5385L15.436 37.6154L16.1221 36.6923L16.9225 35.7115L17.437 35.1346L18.123 34.3846L18.4089 34.0962L20.1812 33.9231L21.5533 33.6923L22.9254 33.3462L24.4118 32.8846L25.6124 32.3654L26.1269 32.1346Z" fill="#B0ABA4"/>
<path d="M33.2161 31.9615L33.5591 32.0769L34.531 32.5385L36.1318 33.1154L38.1899 33.6346L39.6763 33.8654L41.0484 33.9808L41.7916 34.7308L42.1918 35.1923L42.7064 35.7692L43.1637 36.3461L43.7354 37.0961L44.5358 38.25L45.2219 39.3461L45.8508 40.4423L46.6511 42L47.28 43.4423L47.9089 45.1154L48.3663 46.5577L48.5378 47.25L48.1376 47.1923L46.937 46.8461L45.5077 46.3269L43.9641 45.6923L42.4777 45L41.2199 44.3077L40.0194 43.6154L38.9903 42.9231L37.9612 42.1731L37.3895 41.7115L36.6463 41.0769L36.0746 40.5577L35.6172 40.1538L35.217 39.75L35.1027 38.4231L34.874 36.9231L34.4166 35.0192L33.9593 33.6346L33.4447 32.4231L33.2161 31.9615Z" fill="#B0ABA4"/>
<path d="M12.6918 11.3654L14.4641 11.8269L15.779 12.2885L17.7228 13.0962L19.2093 13.8462L20.2383 14.4231L21.9535 15.5769L22.6395 16.0962L23.5542 16.8462L24.1259 17.3654L24.4118 17.6538L24.469 17.8269L24.6405 19.6154L24.9263 21.2308L25.2694 22.5577L25.7267 23.7692L26.2413 24.9231L26.2984 25.1538L23.7257 24.1154L22.5823 23.7692L20.8672 23.4231L19.0378 23.1923L18.1802 22.3269L17.6657 21.6923L16.9225 20.7692L16.0077 19.3846L15.2073 18L14.5785 16.8462L13.9496 15.4038L13.3207 13.7308L12.8062 11.9423L12.6918 11.3654Z" fill="#B0ABA4"/>
<path d="M46.7655 11.3654L46.8227 11.4808L46.4225 12.9231L45.7364 14.9423L45.1075 16.3846L44.4787 17.7115L43.6783 19.0962L42.8779 20.3077L42.0775 21.4038L41.3915 22.2115L40.9913 22.6731L40.5911 23.0769L38.2471 23.4231L37.1608 23.6538L35.9031 24L34.3023 24.6346L33.3304 25.0385L33.2161 24.9808L33.8449 23.6538L34.2451 22.5L34.5882 21.1154L34.874 19.5577L35.0455 17.8846L35.1599 17.5962L36.0174 16.7308L36.532 16.3269L37.1037 15.8654L38.4186 14.9423L39.562 14.25L41.0484 13.4423L42.7064 12.6923L44.0213 12.1731L45.4506 11.7115L46.7655 11.3654Z" fill="#B0ABA4"/>
<path d="M10.4622 33.2308L10.9767 33.2885L12.8633 33.6923L14.5213 33.9231L16.4079 34.0962L16.2936 34.3269L15.779 34.9039L15.1502 35.7115L14.407 36.6923L13.4922 38.0192L13.0349 38.7692L12.9205 38.8269L11.1482 39H7.37498L5.48835 38.8269L5.14532 38.7692L5.2025 38.5385L5.65986 37.9615L6.17439 37.3846L6.68893 36.75L8.6899 34.7308L9.31877 34.2115L9.94765 33.6346L10.4622 33.2308Z" fill="#B0ABA4"/>
<path d="M24.1832 41.8846L24.2975 42.0577L24.5262 44.1923L24.8692 46.2692L25.0979 47.4808L24.9264 47.7692L24.2975 48.4615L23.783 49.0962L23.2113 49.6731L22.8111 50.1346L22.1822 50.7692L21.7248 51.1731L21.2103 51.6923L20.4099 52.3269L19.8954 52.7885L19.438 53.0769L19.3808 53.0192L19.2093 51.0577L19.1522 50.1923V48.0577L19.2665 46.3269L19.3237 45.6346L19.438 45.3462L20.8101 44.4808L21.782 43.7885L22.6967 43.0962L23.44 42.4615L24.1832 41.8846Z" fill="#B0ABA4"/>
<path d="M35.2742 41.7692L35.7316 42.1154L36.2461 42.5769L37.0465 43.2115L38.1327 44.0192L39.4477 44.8846L39.7907 45.1154L39.905 46.1538L40.0194 48.5192V49.4423L39.9622 51.0577L39.7907 52.9615L39.7335 53.0769L39.5048 52.9615L38.9331 52.5L38.3042 51.9808L37.6754 51.4038L37.218 51L35.4457 49.2115L35.0455 48.75L34.3595 47.9423L34.3023 47.7115L34.7597 45.5192L35.0455 43.7308L35.217 42.0577L35.2742 41.7692Z" fill="#B0ABA4"/>
<path d="M48.3663 33.2308H48.7093L50.4244 34.7308L51.3391 35.5962L52.2539 36.5192L52.654 36.9808L53.1686 37.5577L53.7975 38.3654L54.0261 38.7692L53.8546 38.8269L51.7965 39H47.9089L46.5368 38.8846L45.7364 37.5577L45.0504 36.5769L44.5358 35.8846L43.7926 34.9615L43.1066 34.1539V33.9808L44.7073 33.8654L46.4796 33.6346L48.3663 33.2308Z" fill="#B0ABA4"/>
<path d="M38.9331 6.17308H39.1046L39.2761 8.19231L39.3333 9.28847V12.1731L39.2761 12.8077L38.8188 13.0962L37.6754 13.7885L36.7606 14.4231L35.7316 15.2308L35.1027 15.75H34.9884L34.5882 13.0385L34.1308 10.9038V10.6154L35.0455 9.63462L36.5891 8.07693L37.0465 7.67308L37.7897 7.03847L38.7616 6.28847L38.9331 6.17308Z" fill="#B0ABA4"/>
<path d="M20.5814 6.11539L20.8672 6.23077L21.6105 6.86539L22.4108 7.5L23.3256 8.36539L24.0116 9L24.469 9.51923L25.155 10.2115L25.3837 10.5L25.3265 11.0192L24.9263 12.9231L24.5833 15.1731L24.5262 15.8077L24.0688 15.4615L23.2112 14.7692L22.2393 14.0769L21.3818 13.5L20.4099 12.9231L20.3527 12.8077L20.2955 12.1154V8.94231L20.467 6.80769L20.5814 6.11539Z" fill="#B0ABA4"/>
<path d="M46.8226 18.8077H48.8236L50.6531 18.9231L51.7965 19.0385L52.1967 19.0962L52.0823 19.3846L51.2819 20.3654L50.7674 20.9423L50.3672 21.4038L49.7383 22.0962L48.9951 22.8462L48.0804 23.6538L47.0513 23.5385L45.0504 23.25L43.3924 23.0769L42.5349 23.0192L42.8779 22.6154L43.6783 21.5769L44.3071 20.6538L44.9932 19.5577L45.3362 18.9808L45.3934 18.9231L46.8226 18.8077Z" fill="#B0ABA4"/>
<path d="M10.7481 18.8077H12.6919L14.064 18.8654L14.4642 19.4423L15.0359 20.4231L15.7219 21.4038L16.2365 22.0962L16.9797 23.0192L16.8653 23.1346L13.7781 23.4231L11.9487 23.7115L11.6628 23.7692L9.89052 22.0962L9.20448 21.3462L8.5756 20.6538L7.94672 19.8462L7.48936 19.2692L7.43219 19.0962L8.86145 18.9231L10.7481 18.8077Z" fill="#B0ABA4"/>
</svg>
