<svg width="245" height="118" viewBox="0 0 245 118" fill="none" xmlns="http://www.w3.org/2000/svg">
<path d="M124.3 56.8648C125.752 56.2695 127.163 55.9025 128.345 55.1685C131.779 53.0646 135.138 50.8464 138.49 48.6201C148.888 41.7128 159.302 34.8381 169.634 27.8493C174.339 24.6688 179.151 22.8177 184.476 26.1205C194.955 32.6445 205.304 39.3805 215.84 45.8148C221.239 49.1094 226.841 52.0778 232.501 54.8913C235.363 56.3184 237.117 54.4672 238.185 51.8576C239.424 48.824 237.769 46.6873 235.641 45.1461C228.807 40.2041 221.891 35.3845 214.886 30.6873C205.182 24.1633 195.371 17.8023 185.601 11.3844C178.637 6.80125 176.068 6.83388 169.381 11.6046C167.269 13.1132 165.255 14.7769 163.094 16.2121C152.81 23.0297 142.429 29.7168 132.194 36.6159C126.225 40.6445 123.632 40.7668 117.67 36.9421C102.575 27.2621 87.4234 17.6882 72.3285 8.00819C69.6374 6.28749 67.0931 5.89606 64.3693 7.77171C60.7403 10.2753 57.1358 12.8197 53.4416 15.2417C42.6851 22.3121 31.8308 29.2357 21.1315 36.3958C17.054 39.1358 13.0498 42.0879 9.47794 45.4396C6.70524 48.0248 7.29242 51.3439 10.0651 53.9779C12.2017 56.0004 14.5585 55.9841 16.8745 54.6222C21.58 51.8576 26.2202 48.9952 30.8115 46.0513C41.307 39.3071 51.7698 32.4895 62.2327 25.6882C67.6557 22.1653 70.3876 22.2713 75.6558 26.1205C78.2735 28.0369 80.9403 29.9044 83.6559 31.6821C95.3746 39.3805 107.101 47.0706 118.894 54.663C120.484 55.6905 122.457 56.1309 124.3 56.8648ZM245.003 49.4274C244.448 57.3541 238.413 62.4591 231.229 60.4856C227.779 59.5478 224.37 58.0473 221.312 56.1961C208.207 48.245 195.184 40.1552 182.25 31.9268C178.963 29.831 176.435 30.2632 173.393 32.3183C160.256 41.1909 146.922 49.7781 133.842 58.7323C127.791 62.875 121.895 63.5438 115.705 59.5641C105.218 52.8199 94.7793 46.0023 84.3572 39.1521C80.2389 36.4447 76.1858 33.6149 72.1899 30.7199C69.8086 28.991 67.8596 28.8605 65.2092 30.6057C51.0032 39.9758 36.6994 49.1991 22.3058 58.2919C15.0968 62.8506 9.26591 62.1981 4.82959 56.8811C1.20877 52.5263 0.743984 46.3448 4.63392 42.251C8.17319 38.5242 12.373 35.3356 16.6381 32.4243C29.8329 23.4048 43.1989 14.6301 56.516 5.78189C58.1389 4.69728 59.8269 3.71868 61.5068 2.72377C66.0818 0.00815471 70.5507 0.0652398 75.0849 2.96842C90.3021 12.6973 105.617 22.2631 120.745 32.1144C123.787 34.096 125.948 33.9329 128.794 31.9757C142.078 22.8584 155.436 13.8553 168.851 4.92562C173.915 1.5576 179.477 1.18247 184.737 4.26506C190.437 7.61676 195.803 11.5311 201.365 15.1357C210.972 21.3579 220.676 27.4252 230.193 33.7617C233.961 36.2734 237.622 39.0787 240.827 42.2592C242.719 44.1348 243.641 47.0054 245.003 49.4274Z" fill="white"/>
<path d="M67.4192 78.0923C69.3275 78.9567 71.0808 79.4868 72.5324 80.4573C79.6517 85.2279 86.6406 90.2107 93.7844 94.9487C101.572 100.119 109.466 105.11 117.32 110.174C121.161 112.661 124.83 112.417 128.516 109.685C131.224 107.679 134.127 105.942 136.941 104.074C147.656 96.9467 158.396 89.86 169.079 82.6836C173.532 79.6907 178.123 78.6142 182.919 81.5908C193.406 88.1066 203.755 94.8509 214.291 101.277C219.689 104.563 225.292 107.54 230.951 110.354C233.806 111.772 235.567 109.929 236.627 107.312C237.859 104.262 236.195 102.133 234.067 100.592C227.233 95.65 220.309 90.8386 213.312 86.1332C203.494 79.5439 193.593 73.0852 183.701 66.6101C177.153 62.3206 174.413 62.3776 168.125 66.8466C165.899 68.4205 163.795 70.1657 161.52 71.6743C151.236 78.5001 140.863 85.1872 130.629 92.0863C124.659 96.1067 122.058 96.2127 116.096 92.3962C101.002 82.7162 85.8495 73.1341 70.7546 63.4622C68.0635 61.7334 65.511 61.3664 62.7954 63.242C59.0522 65.819 55.3417 68.4286 51.5496 70.9241C40.891 77.9211 30.1346 84.7549 19.5657 91.8743C15.2925 94.7611 11.2558 98.0639 7.42294 101.513C5.27002 103.446 5.90611 106.056 7.50449 108.266C9.20073 110.606 11.3862 111.732 14.2649 110.533C15.5779 109.987 16.8909 109.367 18.0897 108.6C32.3038 99.4666 46.4691 90.2596 60.7159 81.1749C62.7383 79.8864 65.1032 79.1362 67.4192 78.0923ZM230.943 116.625C228.415 115.54 224.028 114.227 220.219 111.944C206.976 103.984 193.871 95.7724 180.839 87.4543C177.422 85.2769 174.812 85.7417 171.648 87.8946C158.413 96.857 144.998 105.55 131.762 114.513C126.094 118.354 120.443 118.981 114.645 115.279C104.019 108.51 93.4745 101.62 82.9382 94.7041C78.7058 91.9232 74.5467 89.02 70.4448 86.0516C68.1532 84.388 66.2857 84.3472 63.7984 85.9864C49.568 95.3239 35.2722 104.555 20.8949 113.664C13.7267 118.207 8.13239 117.75 3.63899 112.751C-0.397736 108.266 -0.911533 101.938 3.19859 97.5257C6.43612 94.0517 10.3261 91.0751 14.2731 88.3921C27.9246 79.1117 41.7228 70.0433 55.4721 60.9179C56.989 59.9067 58.5711 58.9933 60.1368 58.0799C64.5976 55.4703 68.985 55.5356 73.3806 58.3409C88.606 68.0535 103.921 77.6112 119.04 87.4787C122.221 89.5583 124.431 89.3544 127.416 87.3075C140.684 78.1739 154.05 69.1789 167.473 60.2736C172.415 57.0035 177.879 56.6854 183.016 59.6538C188.187 62.6304 192.99 66.235 198.005 69.4725C208.264 76.1107 218.646 82.5613 228.815 89.3462C232.786 91.9966 236.578 95.0629 239.971 98.4309C243.486 101.913 243.559 106.39 241.48 110.753C239.8 114.284 236.937 116.356 230.943 116.625Z" fill="white"/>
<path d="M124.3 56.8649C122.457 56.1309 120.484 55.6905 118.894 54.663C107.102 47.0707 95.3747 39.3805 83.656 31.6822C80.9403 29.9044 78.2736 28.0369 75.6559 26.1205C70.3877 22.2714 67.6558 22.1653 62.2328 25.6883C51.7699 32.4896 41.307 39.3071 30.8116 46.0513C26.2203 48.9953 21.5801 51.8577 16.8746 54.6222C14.5586 55.9841 12.2018 56.0004 10.0652 53.978C7.2925 51.3439 6.70533 48.0248 9.47803 45.4397C13.0499 42.088 17.0541 39.1359 21.1316 36.3958C31.8309 29.2357 42.6852 22.3121 53.4417 15.2418C57.1359 12.8197 60.7404 10.2754 64.3694 7.77177C67.0932 5.89612 69.6375 6.28755 72.3286 8.00826C87.4235 17.6882 102.576 27.2622 117.67 36.9422C123.632 40.7669 126.225 40.6446 132.195 36.616C142.429 29.7169 152.81 23.0298 163.094 16.2122C165.255 14.7769 167.269 13.1133 169.381 11.6046C176.068 6.83395 178.637 6.80131 185.602 11.3844C195.371 17.8024 205.182 24.1633 214.886 30.6873C221.891 35.3846 228.807 40.2042 235.641 45.1461C237.769 46.6874 239.425 48.824 238.185 51.8577C237.117 54.4673 235.363 56.3185 232.501 54.8913C226.841 52.0779 221.239 49.1095 215.84 45.8148C205.304 39.3805 194.955 32.6445 184.476 26.1205C179.151 22.8177 174.34 24.6689 169.634 27.8494C159.302 34.8382 148.888 41.7129 138.49 48.6202C135.138 50.8465 131.779 53.0646 128.345 55.1686C127.163 55.9026 125.752 56.2696 124.3 56.8649Z" fill="white"/>
<path d="M67.4192 78.0922C65.1032 79.1361 62.7383 79.8864 60.7159 81.1749C46.4691 90.2595 32.3038 99.4665 18.0897 108.6C16.8909 109.367 15.5779 109.986 14.2649 110.533C11.3862 111.732 9.20074 110.606 7.5045 108.266C5.90612 106.056 5.27003 103.446 7.42295 101.513C11.2558 98.0639 15.2925 94.7611 19.5657 91.8742C30.1346 84.7549 40.891 77.921 51.5496 70.924C55.3417 68.4286 59.0522 65.819 62.7954 63.242C65.511 61.3663 68.0635 61.7333 70.7546 63.4622C85.8495 73.134 101.002 82.7161 116.096 92.3961C122.058 96.2126 124.659 96.1066 130.629 92.0862C140.863 85.1871 151.236 78.5 161.52 71.6743C163.795 70.1656 165.899 68.4204 168.125 66.8465C174.413 62.3776 177.153 62.3205 183.701 66.61C193.593 73.0851 203.494 79.5438 213.312 86.1331C220.309 90.8385 227.233 95.65 234.067 100.592C236.195 102.133 237.859 104.262 236.627 107.312C235.567 109.929 233.806 111.772 230.951 110.353C225.292 107.54 219.689 104.563 214.291 101.277C203.754 94.8508 193.406 88.1066 182.919 81.5907C178.123 78.6142 173.532 79.6906 169.079 82.6835C158.396 89.8599 147.656 96.9466 136.941 104.074C134.127 105.942 131.224 107.679 128.516 109.685C124.83 112.417 121.161 112.661 117.32 110.174C109.466 105.11 101.572 100.119 93.7844 94.9486C86.6406 90.2106 79.6517 85.2279 72.5324 80.4572C71.0808 79.4867 69.3275 78.9567 67.4192 78.0922Z" fill="white"/>
</svg>
