<svg width="208" height="173" viewBox="0 0 208 173" fill="none" xmlns="http://www.w3.org/2000/svg">
<path d="M47.7704 112.475C47.9743 114.53 48.1358 117.523 48.5851 120.467C52.0461 143.162 69.5092 161.062 92.7811 165.857C114.393 170.31 137.829 160.084 149.661 141.042C164.632 116.944 159.581 86.8355 137.51 68.6091C133.724 65.4857 133.696 64.7926 136.874 61.1473C141.065 56.344 145.296 51.5733 149.338 46.6477C158.663 35.2878 169.04 25.461 184.07 22.2724C188.134 21.4161 192.351 21.1226 196.292 19.8993C198.24 19.304 201.016 17.2408 201.084 15.7403C201.167 13.8891 199.213 10.8799 197.447 10.2193C193.911 8.89819 189.87 8.16423 186.1 8.3681C176.47 8.89818 167.583 12.4293 159.243 17.0287C155.805 18.9288 152.748 21.8075 150.096 24.7597C146.807 28.4212 143.991 32.5314 141.192 36.6007C134.647 46.1258 125.907 52.4377 114.663 55.1859C99.1053 58.9943 85.1521 56.4418 73.9781 44.2501C68.8014 38.5987 63.8268 32.7189 59.2714 26.5619C51.5853 16.1724 41.3329 9.9665 28.89 7.65048C23.3829 6.62295 17.5627 6.88389 11.9113 7.14485C7.93979 7.33242 6.11469 10.4558 5.86515 14.1582C5.63273 17.5914 8.16565 19.304 10.9563 20.2744C13.2503 21.0654 15.7482 21.2693 18.1457 21.7831C22.3072 22.672 26.6221 23.1531 30.5854 24.5966C41.12 28.4376 47.7826 36.7883 54.1435 45.4978C57.5026 50.1054 61.1234 54.5825 65.13 58.6192C70.8711 64.4011 71.0823 65.7875 65.1773 71.5041C64.8967 71.7732 64.5901 72.0179 64.3161 72.2952C53.5752 83.1739 48.064 96.2382 47.7704 112.475ZM141.958 64.4664C170.67 89.5675 169.303 128.875 148.667 152.002C127.456 175.774 91.4853 179.55 66.3973 160.304C51.0455 148.536 42.8807 132.879 42.2152 113.437C41.5538 94.1261 49.4071 78.3869 62.597 65.4775C55.3211 56.3439 48.6283 47.4224 41.3736 38.982C34.9948 31.561 26.5495 27.8994 16.6868 27.3204C13.6466 27.1328 10.4923 26.3172 7.69839 25.094C2.09101 22.6312 -0.430521 18.2601 0.146853 13.1714C0.853891 6.94101 4.04005 3.06738 10.0707 1.59132C17.999 -0.357724 25.831 0.873617 33.5946 2.74927C49.2114 6.50872 59.9858 16.6536 68.8935 29.3754C71.4183 32.9799 74.5343 36.1766 77.3991 39.5447C89.2818 53.4979 106.977 53.0493 120.606 47.0228C126.859 44.2583 131.665 39.7811 135.701 34.3907C138.193 31.0553 140.572 27.6384 143.117 24.3438C156.147 7.50371 173.913 1.90933 194.373 3.18967C197.065 3.36092 199.845 4.79618 202.253 6.21515C206.414 8.66165 207.878 12.7392 206.888 17.3142C205.853 22.1011 202.298 24.7923 197.681 25.8198C193.757 26.6924 189.706 26.9778 185.765 27.7851C174.122 30.1745 165.288 37.0574 157.718 45.7996C152.439 51.8913 147.313 58.1136 141.958 64.4664Z" fill="white"/>
<path d="M143.999 113.608C144.087 90.3176 125.8 71.9526 102.504 71.9363C79.8506 71.92 61.1781 90.7988 61.2123 113.69C61.245 136.059 79.6467 154.212 101.799 154.865C124.772 155.55 144.793 135.994 143.999 113.608ZM47.7704 112.475C48.064 96.2381 53.5752 83.1739 64.3161 72.2951C64.5901 72.0179 64.8968 71.7732 65.1773 71.5041C71.0823 65.7874 70.8711 64.4011 65.13 58.6192C61.1235 54.5825 57.5026 50.1053 54.1436 45.4978C47.7827 36.7882 41.12 28.4375 30.5854 24.5965C26.6221 23.1531 22.3073 22.6719 18.1458 21.783C15.7482 21.2693 13.2503 21.0654 10.9563 20.2744C8.16568 19.3039 5.63277 17.5914 5.86518 14.1581C6.11473 10.4557 7.93983 7.33238 11.9113 7.14481C17.5627 6.88385 23.3829 6.62291 28.89 7.65044C41.3329 9.96646 51.5854 16.1724 59.2715 26.5618C63.8268 32.7189 68.8014 38.5986 73.9782 44.2501C85.1522 56.4418 99.1054 58.9943 114.663 55.1859C125.907 52.4376 134.647 46.1257 141.192 36.6007C143.991 32.5313 146.807 28.4212 150.096 24.7596C152.748 21.8075 155.805 18.9288 159.243 17.0287C167.583 12.4293 176.47 8.89814 186.1 8.36806C189.87 8.16419 193.911 8.89815 197.447 10.2193C199.213 10.8798 201.167 13.889 201.084 15.7402C201.016 17.2407 198.24 19.3039 196.292 19.8993C192.351 21.1225 188.134 21.4161 184.07 22.2723C169.04 25.4609 158.663 35.2877 149.338 46.6477C145.296 51.5733 141.065 56.3439 136.874 61.1472C133.696 64.7925 133.724 65.4857 137.51 68.6091C159.581 86.8355 164.632 116.944 149.661 141.042C137.829 160.084 114.393 170.31 92.7811 165.857C69.5092 161.062 52.0461 143.162 48.5852 120.467C48.1358 117.523 47.9743 114.53 47.7704 112.475Z" fill="white"/>
</svg>
