<svg width="393" height="654" viewBox="0 0 393 654" fill="none" xmlns="http://www.w3.org/2000/svg">
<g filter="url(#filter0_d_228_11)">
<circle cx="197" cy="126" r="71" fill="url(#paint0_linear_228_11)"/>
</g>
<rect y="181" width="393" height="11" fill="#FFCFA1"/>
<rect x="4" y="186" width="393" height="16" fill="#FFCF9F"/>
<path d="M0 191H393V201H0V191Z" fill="#FFBB8F"/>
<rect x="4" y="196" width="393" height="16" fill="#FF9D73"/>
<rect y="204" width="393" height="8" fill="#FF9772"/>
<rect x="4" y="208" width="393" height="16" fill="#FF8875"/>
<rect y="215" width="393" height="8" fill="#FB6C61"/>
<rect x="4" y="219" width="393" height="26" fill="#E97266"/>
<rect y="232" width="393" height="8" fill="#CC5B61"/>
<rect y="240" width="393" height="26" fill="#D0706C"/>
<path d="M-2 176C-19.5 175.271 -14.7 175.2 -19.5 176V343.5H410.5V258H368.5C368.5 258 306.5 254.5 264 254.5C239.932 254.5 231.068 259.861 207 260C180.594 260.152 162 260 135.5 256.5C128.065 255.518 112.667 243.167 103 241.5C93.3333 239.833 92.0821 244.929 78.5 244C66.2272 243.16 60 242.5 56.5 241.5C53.7 240.7 34.5 211 30 208.5C25.5 206 15.5 176.729 -2 176Z" fill="#9A5961"/>
<path d="M18.5 195C8.03337 190.519 -9.5 193 -9.5 193V347H404V191C398.833 190.667 394.029 189.5 387 189.5C377.5 189.5 370.529 191.981 367.5 194C361.5 198 358.457 199.252 354.5 203.5C346.877 211.685 337 223.5 335 225C333.4 226.2 326.333 234.667 325 238.5C321.333 238.333 320 238 316.5 239C310.704 240.656 307.5 247 306 251.5C300.5 249.333 300.872 247.729 293.5 246.5C287.5 245.5 283.5 246 278 251.5C270.872 258.628 271.171 266.656 261.5 269.5C253 272 227.719 271.789 208 271.5C183.973 271.148 172 271.5 146.5 269.5C126.406 267.924 116.33 266.242 99 256C86.5812 248.66 79.4765 231.071 65.5 227.5C57.3651 225.421 47 227.5 47 227.5C47 227.5 47.4042 224.086 45.5 220C39.9567 208.105 30.564 200.165 18.5 195Z" fill="#774659"/>
<path d="M-1 227.5C-14.0674 224.219 -25 227.5 -25 227.5V654H439V229.5H401C401 229.5 389.601 227.084 383 229.5C372.948 233.179 370.5 241.5 363 247C357.331 251.157 348 251 348 251C348 251 343.932 256.476 339.5 260C335.725 263.001 331.847 264.092 328 267C317.002 275.314 308 293 292 301C276 309 233.5 311.5 213 311.5C201.5 311.5 176.588 312.082 143 304.5C116.67 298.556 94.9801 295.575 80 282.5C65.0199 269.425 65.7689 256.467 59 250C52.9293 244.2 51 250 40 250C29 250 20.2118 232.826 -1 227.5Z" fill="#1D2A41"/>
<path d="M13 276.5C8 279 -18 276.5 -18 276.5V654H438V381.5V299.5C438 299.5 408.556 308.179 393.5 299.5C384.521 294.324 383 283.094 374.5 281.5C368.492 280.374 366.429 280.287 362 284.5C354.976 291.182 357.054 300.227 352 308.5C346.889 316.866 342.5 313.5 336 328.5C333.274 334.791 327.5 328.5 318 339C284.379 376.16 244.571 354.535 194.5 352.5C157.58 351 140.104 364.947 109 345C98.3924 338.197 92.4166 333.805 84.5 324C79.1559 317.381 76.5575 313.84 71.5 307C65.7446 299.216 62 292.5 56.5 287C49.5 280 47.2365 284.269 42.5 287C37.9452 289.626 35.1667 294.167 32.5 288C29.8333 281.833 27.5 280 26 276.5C24.5 273 18 274 13 276.5Z" fill="#162030"/>
<path d="M369.851 20C369.851 10.1754 368.66 10.1754 363 10.1754C368.66 10.1754 369.851 7.01754 369.851 0C369.851 7.36842 371.043 10.1754 377 10.1754C371.043 10.1754 369.851 10.1754 369.851 20Z" fill="#D9D9D9"/>
<path d="M289.851 174C289.851 164.175 288.66 164.175 283 164.175C288.66 164.175 289.851 161.018 289.851 154C289.851 161.368 291.043 164.175 297 164.175C291.043 164.175 289.851 164.175 289.851 174Z" fill="#D9D9D9"/>
<path d="M296.319 116C296.319 105.684 294.872 105.684 288 105.684C294.872 105.684 296.319 102.368 296.319 95C296.319 102.737 297.766 105.684 305 105.684C297.766 105.684 296.319 105.684 296.319 116Z" fill="#D9D9D9"/>
<path d="M345.766 154C345.766 142.702 343.894 142.702 335 142.702C343.894 142.702 345.766 139.07 345.766 131C345.766 139.474 347.638 142.702 357 142.702C347.638 142.702 345.766 142.702 345.766 154Z" fill="#D9D9D9"/>
<path d="M353.298 111C353.298 99.2105 351.681 99.2105 344 99.2105C351.681 99.2105 353.298 95.4211 353.298 87C353.298 95.8421 354.915 99.2105 363 99.2105C354.915 99.2105 353.298 99.2105 353.298 111Z" fill="#D9D9D9"/>
<path d="M264.851 28C264.851 17.6842 263.66 17.6842 258 17.6842C263.66 17.6842 264.851 14.3684 264.851 7C264.851 14.7368 266.043 17.6842 272 17.6842C266.043 17.6842 264.851 17.6842 264.851 28Z" fill="#D9D9D9"/>
<path d="M174.851 52C174.851 41.6842 173.66 41.6842 168 41.6842C173.66 41.6842 174.851 38.3684 174.851 31C174.851 38.7368 176.043 41.6842 182 41.6842C176.043 41.6842 174.851 41.6842 174.851 52Z" fill="#D9D9D9"/>
<path d="M111.894 28C111.894 18.6667 111.043 18.6667 107 18.6667C111.043 18.6667 111.894 15.6667 111.894 9C111.894 16 112.745 18.6667 117 18.6667C112.745 18.6667 111.894 18.6667 111.894 28Z" fill="#D9D9D9"/>
<path d="M113.851 95C113.851 84.6842 112.66 84.6842 107 84.6842C112.66 84.6842 113.851 81.3684 113.851 74C113.851 81.7368 115.043 84.6842 121 84.6842C115.043 84.6842 113.851 84.6842 113.851 95Z" fill="#D9D9D9"/>
<path d="M33.2979 146C33.2979 133.228 31.6809 133.228 24 133.228C31.6809 133.228 33.2979 129.123 33.2979 120C33.2979 129.579 34.9149 133.228 43 133.228C34.9149 133.228 33.2979 133.228 33.2979 146Z" fill="#D9D9D9"/>
<path d="M17.8298 24C17.8298 13.193 16.4681 13.193 10 13.193C16.4681 13.193 17.8298 9.7193 17.8298 2C17.8298 10.1053 19.1915 13.193 26 13.193C19.1915 13.193 17.8298 13.193 17.8298 24Z" fill="#D9D9D9"/>
<ellipse cx="107.5" cy="142" rx="20.5" ry="17" fill="#F7E3C9"/>
<ellipse cx="75.552" cy="147.103" rx="13.5307" ry="12.01" transform="rotate(-0.39332 75.552 147.103)" fill="#F7E3C9"/>
<ellipse cx="136.613" cy="147.103" rx="13.5307" ry="12.01" transform="rotate(-0.39332 136.613 147.103)" fill="#F7E3C9"/>
<rect x="74" y="148" width="63" height="11" fill="#F7E3C9"/>
<ellipse cx="319.786" cy="51.359" rx="25.5506" ry="23.359" fill="#F7E3C9"/>
<ellipse cx="16.8644" cy="16.5024" rx="16.8644" ry="16.5024" transform="matrix(0.999971 -0.00763647 0.00617087 0.999981 263 41.9958)" fill="#F7E3C9"/>
<ellipse cx="16.8644" cy="16.5024" rx="16.8644" ry="16.5024" transform="matrix(0.999971 -0.00756791 0.00622678 0.999981 339.104 41.9958)" fill="#F7E3C9"/>
<rect x="278.032" y="59.6033" width="78.5213" height="15.1146" fill="#F7E3C9"/>
<ellipse cx="46.3487" cy="59.892" rx="19.5047" ry="17.892" fill="#F7E3C9"/>
<ellipse cx="12.8738" cy="12.6401" rx="12.8738" ry="12.6401" transform="matrix(0.999972 -0.00748413 0.00629648 0.99998 3 52.7202)" fill="#F7E3C9"/>
<ellipse cx="12.8738" cy="12.6401" rx="12.8738" ry="12.6401" transform="matrix(0.999971 -0.00759351 0.00620578 0.999981 61.0962 52.7202)" fill="#F7E3C9"/>
<rect x="14.4753" y="66.2068" width="59.9412" height="11.5772" fill="#F7E3C9"/>
<defs>
<filter id="filter0_d_228_11" x="122" y="55" width="150" height="150" filterUnits="userSpaceOnUse" color-interpolation-filters="sRGB">
<feFlood flood-opacity="0" result="BackgroundImageFix"/>
<feColorMatrix in="SourceAlpha" type="matrix" values="0 0 0 0 0 0 0 0 0 0 0 0 0 0 0 0 0 0 127 0" result="hardAlpha"/>
<feOffset dy="4"/>
<feGaussianBlur stdDeviation="2"/>
<feComposite in2="hardAlpha" operator="out"/>
<feColorMatrix type="matrix" values="0 0 0 0 0 0 0 0 0 0 0 0 0 0 0 0 0 0 0.25 0"/>
<feBlend mode="normal" in2="BackgroundImageFix" result="effect1_dropShadow_228_11"/>
<feBlend mode="normal" in="SourceGraphic" in2="effect1_dropShadow_228_11" result="shape"/>
</filter>
<linearGradient id="paint0_linear_228_11" x1="172.5" y1="163" x2="217.5" y2="72.5" gradientUnits="userSpaceOnUse">
<stop stop-color="#FF8770"/>
<stop offset="1" stop-color="#F9F2DA"/>
</linearGradient>
</defs>
</svg>
