<svg width="393" height="852" viewBox="0 0 393 852" fill="none" xmlns="http://www.w3.org/2000/svg">
<g clip-path="url(#clip0_108_637)">
<rect width="393" height="852" fill="white"/>
<rect y="-1" width="393" height="324" fill="url(#paint0_linear_108_637)"/>
<g filter="url(#filter0_d_108_637)">
<circle cx="197" cy="248" r="71" fill="url(#paint1_linear_108_637)"/>
</g>
<rect y="303" width="393" height="11" fill="#FFCFA1"/>
<rect x="4" y="308" width="393" height="16" fill="#FFCF9F"/>
<path d="M0 313H393V323H0V313Z" fill="#FFBB8F"/>
<rect x="4" y="318" width="393" height="16" fill="#FF9D73"/>
<rect y="326" width="393" height="8" fill="#FF9772"/>
<rect x="4" y="330" width="393" height="16" fill="#FF8875"/>
<rect y="337" width="393" height="8" fill="#FB6C61"/>
<rect x="4" y="341" width="393" height="26" fill="#E97266"/>
<rect y="354" width="393" height="8" fill="#CC5B61"/>
<rect y="362" width="393" height="26" fill="#D0706C"/>
<path d="M-2 298C-19.5 297.271 -14.7 297.2 -19.5 298V465.5H410.5V380H368.5C368.5 380 306.5 376.5 264 376.5C239.932 376.5 231.068 381.861 207 382C180.594 382.152 162 382 135.5 378.5C128.065 377.518 112.667 365.167 103 363.5C93.3333 361.833 92.0821 366.929 78.5 366C66.2272 365.16 60 364.5 56.5 363.5C53.7 362.7 34.5 333 30 330.5C25.5 328 15.5 298.729 -2 298Z" fill="#9A5961"/>
<path d="M18.5 317C8.03337 312.519 -9.5 315 -9.5 315V469H404V313C398.833 312.667 394.029 311.5 387 311.5C377.5 311.5 370.529 313.981 367.5 316C361.5 320 358.457 321.252 354.5 325.5C346.877 333.685 337 345.5 335 347C333.4 348.2 326.333 356.667 325 360.5C321.333 360.333 320 360 316.5 361C310.704 362.656 307.5 369 306 373.5C300.5 371.333 300.872 369.729 293.5 368.5C287.5 367.5 283.5 368 278 373.5C270.872 380.628 271.171 388.656 261.5 391.5C253 394 227.719 393.789 208 393.5C183.973 393.148 172 393.5 146.5 391.5C126.406 389.924 116.33 388.242 99 378C86.5812 370.66 79.4765 353.071 65.5 349.5C57.3651 347.421 47 349.5 47 349.5C47 349.5 47.4042 346.086 45.5 342C39.9567 330.105 30.564 322.165 18.5 317Z" fill="#774659"/>
<path d="M-1 349.5C-14.0674 346.219 -25 349.5 -25 349.5V776H439V351.5H401C401 351.5 389.601 349.084 383 351.5C372.948 355.179 370.5 363.5 363 369C357.331 373.157 348 373 348 373C348 373 343.932 378.476 339.5 382C335.725 385.001 331.847 386.092 328 389C317.002 397.314 308 415 292 423C276 431 233.5 433.5 213 433.5C201.5 433.5 176.588 434.082 143 426.5C116.67 420.556 94.9801 417.575 80 404.5C65.0199 391.425 65.7689 378.467 59 372C52.9293 366.2 51 372 40 372C29 372 20.2118 354.826 -1 349.5Z" fill="#1D2A41"/>
<path d="M13 398.5C8 401 -18 398.5 -18 398.5V776H438V503.5V421.5C438 421.5 408.556 430.179 393.5 421.5C384.521 416.324 383 405.094 374.5 403.5C368.492 402.374 366.429 402.287 362 406.5C354.976 413.182 357.054 422.227 352 430.5C346.889 438.866 340.889 442.002 336 450.5C332.581 456.443 330 467 330 467L202.5 481.5C202.5 481.5 140.104 486.947 109 467C98.3924 460.197 92.4166 455.805 84.5 446C79.1559 439.381 76.5575 435.84 71.5 429C65.7446 421.216 62 414.5 56.5 409C49.5 402 47.2365 406.269 42.5 409C37.9452 411.626 35.1667 416.167 32.5 410C29.8333 403.833 27.5 402 26 398.5C24.5 395 18 396 13 398.5Z" fill="#162030"/>
<path d="M369.851 142C369.851 132.175 368.66 132.175 363 132.175C368.66 132.175 369.851 129.018 369.851 122C369.851 129.368 371.043 132.175 377 132.175C371.043 132.175 369.851 132.175 369.851 142Z" fill="#D9D9D9"/>
<path d="M289.851 296C289.851 286.175 288.66 286.175 283 286.175C288.66 286.175 289.851 283.018 289.851 276C289.851 283.368 291.043 286.175 297 286.175C291.043 286.175 289.851 286.175 289.851 296Z" fill="#D9D9D9"/>
<path d="M296.319 238C296.319 227.684 294.872 227.684 288 227.684C294.872 227.684 296.319 224.368 296.319 217C296.319 224.737 297.766 227.684 305 227.684C297.766 227.684 296.319 227.684 296.319 238Z" fill="#D9D9D9"/>
<path d="M345.766 276C345.766 264.702 343.894 264.702 335 264.702C343.894 264.702 345.766 261.07 345.766 253C345.766 261.474 347.638 264.702 357 264.702C347.638 264.702 345.766 264.702 345.766 276Z" fill="#D9D9D9"/>
<path d="M353.298 233C353.298 221.211 351.681 221.211 344 221.211C351.681 221.211 353.298 217.421 353.298 209C353.298 217.842 354.915 221.211 363 221.211C354.915 221.211 353.298 221.211 353.298 233Z" fill="#D9D9D9"/>
<path d="M264.851 150C264.851 139.684 263.66 139.684 258 139.684C263.66 139.684 264.851 136.368 264.851 129C264.851 136.737 266.043 139.684 272 139.684C266.043 139.684 264.851 139.684 264.851 150Z" fill="#D9D9D9"/>
<path d="M174.851 174C174.851 163.684 173.66 163.684 168 163.684C173.66 163.684 174.851 160.368 174.851 153C174.851 160.737 176.043 163.684 182 163.684C176.043 163.684 174.851 163.684 174.851 174Z" fill="#D9D9D9"/>
<path d="M111.894 150C111.894 140.667 111.043 140.667 107 140.667C111.043 140.667 111.894 137.667 111.894 131C111.894 138 112.745 140.667 117 140.667C112.745 140.667 111.894 140.667 111.894 150Z" fill="#D9D9D9"/>
<path d="M113.851 217C113.851 206.684 112.66 206.684 107 206.684C112.66 206.684 113.851 203.368 113.851 196C113.851 203.737 115.043 206.684 121 206.684C115.043 206.684 113.851 206.684 113.851 217Z" fill="#D9D9D9"/>
<path d="M33.2979 268C33.2979 255.228 31.6809 255.228 24 255.228C31.6809 255.228 33.2979 251.123 33.2979 242C33.2979 251.579 34.9149 255.228 43 255.228C34.9149 255.228 33.2979 255.228 33.2979 268Z" fill="#D9D9D9"/>
<path d="M17.8298 146C17.8298 135.193 16.4681 135.193 10 135.193C16.4681 135.193 17.8298 131.719 17.8298 124C17.8298 132.105 19.1915 135.193 26 135.193C19.1915 135.193 17.8298 135.193 17.8298 146Z" fill="#D9D9D9"/>
<ellipse cx="107.5" cy="264" rx="20.5" ry="17" fill="#F7E3C9"/>
<ellipse cx="75.552" cy="269.103" rx="13.5307" ry="12.01" transform="rotate(-0.39332 75.552 269.103)" fill="#F7E3C9"/>
<ellipse cx="136.613" cy="269.103" rx="13.5307" ry="12.01" transform="rotate(-0.39332 136.613 269.103)" fill="#F7E3C9"/>
<rect x="74" y="270" width="63" height="11" fill="#F7E3C9"/>
<ellipse cx="319.786" cy="173.359" rx="25.5506" ry="23.359" fill="#F7E3C9"/>
<ellipse cx="16.8644" cy="16.5024" rx="16.8644" ry="16.5024" transform="matrix(0.999971 -0.00763647 0.00617087 0.999981 263 163.996)" fill="#F7E3C9"/>
<ellipse cx="16.8644" cy="16.5024" rx="16.8644" ry="16.5024" transform="matrix(0.999971 -0.00756791 0.00622678 0.999981 339.104 163.996)" fill="#F7E3C9"/>
<rect x="278.032" y="181.603" width="78.5213" height="15.1146" fill="#F7E3C9"/>
<ellipse cx="46.3487" cy="181.892" rx="19.5047" ry="17.892" fill="#F7E3C9"/>
<ellipse cx="12.8738" cy="12.6401" rx="12.8738" ry="12.6401" transform="matrix(0.999972 -0.00748413 0.00629648 0.99998 3 174.72)" fill="#F7E3C9"/>
<ellipse cx="12.8738" cy="12.6401" rx="12.8738" ry="12.6401" transform="matrix(0.999971 -0.00759351 0.00620578 0.999981 61.0962 174.72)" fill="#F7E3C9"/>
<rect x="14.4753" y="188.207" width="59.9412" height="11.5772" fill="#F7E3C9"/>
<rect x="-19" y="701" width="437" height="197" fill="#162030"/>
</g>
<defs>
<filter id="filter0_d_108_637" x="122" y="177" width="150" height="150" filterUnits="userSpaceOnUse" color-interpolation-filters="sRGB">
<feFlood flood-opacity="0" result="BackgroundImageFix"/>
<feColorMatrix in="SourceAlpha" type="matrix" values="0 0 0 0 0 0 0 0 0 0 0 0 0 0 0 0 0 0 127 0" result="hardAlpha"/>
<feOffset dy="4"/>
<feGaussianBlur stdDeviation="2"/>
<feComposite in2="hardAlpha" operator="out"/>
<feColorMatrix type="matrix" values="0 0 0 0 0 0 0 0 0 0 0 0 0 0 0 0 0 0 0.25 0"/>
<feBlend mode="normal" in2="BackgroundImageFix" result="effect1_dropShadow_108_637"/>
<feBlend mode="normal" in="SourceGraphic" in2="effect1_dropShadow_108_637" result="shape"/>
</filter>
<linearGradient id="paint0_linear_108_637" x1="197" y1="59.5" x2="197" y2="282" gradientUnits="userSpaceOnUse">
<stop stop-color="#443E51"/>
<stop offset="1" stop-color="#CD6562"/>
</linearGradient>
<linearGradient id="paint1_linear_108_637" x1="172.5" y1="285" x2="217.5" y2="194.5" gradientUnits="userSpaceOnUse">
<stop stop-color="#FF8770"/>
<stop offset="1" stop-color="#F9F2DA"/>
</linearGradient>
<clipPath id="clip0_108_637">
<rect width="393" height="852" fill="white"/>
</clipPath>
</defs>
</svg>
