<svg width="393" height="262" viewBox="0 0 393 262" fill="none" xmlns="http://www.w3.org/2000/svg">
<circle cx="197" cy="143" r="95" fill="#FF8325"/>
<circle cx="196.5" cy="131.5" r="83.5" fill="#FFA94F"/>
<circle cx="196.5" cy="131.5" r="83.5" fill="#FFA94F"/>
<circle cx="197" cy="123" r="75" fill="#FFBF72"/>
<circle cx="197" cy="120" r="72" fill="#FFD99D"/>
<g clip-path="url(#clip0_244_2)">
<path fill-rule="evenodd" clip-rule="evenodd" d="M200.114 226.551L200.707 226.74L203.574 227.119L211.68 227.972L215.239 228.256L219.095 228.445H225.422L226.509 228.351L227.695 228.161L228.882 227.782L229.771 227.214L230.266 226.74L230.562 226.077L230.463 225.13L230.068 223.993L228.981 222.193H229.178L231.551 221.151L233.924 220.015L235.703 219.067L238.273 217.741L241.634 216.036L243.414 215.089L245.688 213.952L247.863 212.815L250.631 211.395L251.916 210.637L252.805 209.974L253.893 209.121L254.684 208.363L255.573 207.416L256.661 206.09L257.155 204.858L257.254 203.911L257.056 202.964L256.463 201.543L255.475 199.838L254.783 198.891L254.288 197.943L257.056 198.701L258.44 199.175L259.923 199.648H260.714L263.284 199.364L265.657 198.891L269.216 197.849L270.699 197.659L271.292 197.375L271.391 196.996L270.995 196.712L269.611 196.522V196.333L269.908 196.049L271.292 195.48L272.28 195.007L272.577 194.533L272.379 194.06L270.501 194.344L268.919 194.817L267.436 195.48L266.843 195.575L266.942 195.291L267.338 194.817L270.501 191.976L270.896 191.407V190.744H270.501L268.82 191.502L267.931 192.165L266.547 193.018L265.36 194.06L265.163 193.775L265.064 192.354L264.866 191.028L264.57 190.365L263.878 189.513L263.779 189.134L264.174 188.755L264.273 188.281L263.581 187.713L262.691 187.808L260.121 187.902L259.132 188.092L258.638 188.376L257.353 188.85L254.98 189.418L252.904 190.176L249.345 191.786L248.851 191.691L248.06 190.839L247.368 190.081L246.083 188.755L243.315 185.913L242.129 184.682L240.745 183.261L239.855 182.219L238.669 180.987L237.285 179.377L236.395 178.24L235.11 176.535L234.319 175.493L233.034 173.314L231.65 170.662L230.76 168.673L229.574 165.263L228.783 162.326L228.19 159.011L227.695 155.127L227.498 151.527L227.399 135.234L227.3 134.098L227.003 132.393L226.608 130.972L225.817 129.361L224.829 128.035L223.741 127.183L222.654 126.52L220.874 125.762L218.798 125.193L216.03 124.72L212.669 124.057L210 123.488L208.517 123.015L206.836 122.257L205.65 121.404L205.255 120.931L204.76 120.173L204.365 119.32L204.068 117.805V116.857L204.266 116.1L204.76 115.058L205.551 114.205L206.441 112.784L207.133 111.079L207.627 109.563L208.715 105.68L209.209 105.017L209.802 104.164L210.395 102.743L210.791 101.512V100.659L210.593 100.091L209.901 99.5225V98.1963L210 97.249V94.5967L209.901 93.7441L209.506 91.6602L208.912 89.9551L207.924 87.9658L206.935 86.5449L205.947 85.5029L204.76 84.4609L203.871 83.5137L203.08 81.998V80.7666L202.783 80.1035L202.289 79.5352L201.201 79.1562L200.114 78.7916V226.551ZM216.228 161H216.426V165.452L216.623 167.252L217.216 169.999L218.304 173.125L219.194 175.02L220.479 177.198L221.566 178.714L222.357 179.756L223.642 181.271L225.026 182.692L225.916 183.64L227.597 185.25L228.387 185.913L229.574 186.955L230.958 187.997L231.847 188.755L233.231 189.797L234.912 191.123L236.098 191.976L236.692 192.639L236.593 192.733H234.022L229.376 193.018L226.905 193.302L224.532 193.775L223.346 194.154L222.851 193.965L222.258 193.018L221.467 191.502L220.479 189.702L219.49 187.05L218.502 184.019L217.711 182.029L216.821 180.608L215.832 179.188L215.14 177.767L214.35 175.398L213.954 173.314L213.855 172.367V170.188L214.152 168.389L214.844 166.115L216.129 161.189L216.228 161ZM262.395 189.702L261.604 189.607L261.208 189.702L259.923 190.365L259.429 191.123L259.132 191.881V193.396L259.33 194.06L259.824 194.344L261.505 194.249L262.296 193.965L262.988 193.396L263.383 192.639V191.407L262.988 190.365L262.395 189.702Z" fill="black"/>
<ellipse cx="197" cy="81.4947" rx="8.67692" ry="4.33036" fill="black"/>
<path fill-rule="evenodd" clip-rule="evenodd" d="M193.886 226.551L193.293 226.74L190.426 227.119L182.32 227.972L178.761 228.256L174.905 228.445H168.578L167.491 228.351L166.305 228.161L165.118 227.782L164.229 227.214L163.734 226.74L163.438 226.077L163.537 225.13L163.932 223.993L165.019 222.193H164.822L162.449 221.151L160.076 220.015L158.297 219.067L155.727 217.741L152.366 216.036L150.586 215.089L148.312 213.952L146.137 212.815L143.369 211.395L142.084 210.637L141.195 209.974L140.107 209.121L139.316 208.363L138.427 207.416L137.339 206.09L136.845 204.858L136.746 203.911L136.944 202.964L137.537 201.543L138.525 199.838L139.217 198.891L139.712 197.943L136.944 198.701L135.56 199.175L134.077 199.648H133.286L130.716 199.364L128.343 198.891L124.784 197.849L123.301 197.659L122.708 197.375L122.609 196.996L123.005 196.712L124.389 196.522V196.333L124.092 196.049L122.708 195.48L121.72 195.007L121.423 194.533L121.621 194.06L123.499 194.344L125.081 194.817L126.564 195.48L127.157 195.575L127.058 195.291L126.662 194.817L123.499 191.976L123.104 191.407V190.744H123.499L125.18 191.502L126.069 192.165L127.453 193.018L128.64 194.06L128.837 193.775L128.936 192.354L129.134 191.028L129.43 190.365L130.122 189.513L130.221 189.134L129.826 188.755L129.727 188.281L130.419 187.713L131.309 187.808L133.879 187.902L134.868 188.092L135.362 188.376L136.647 188.85L139.02 189.418L141.096 190.176L144.655 191.786L145.149 191.691L145.94 190.839L146.632 190.081L147.917 188.755L150.685 185.913L151.871 184.682L153.255 183.261L154.145 182.219L155.331 180.987L156.715 179.377L157.605 178.24L158.89 176.535L159.681 175.493L160.966 173.314L162.35 170.662L163.24 168.673L164.426 165.263L165.217 162.326L165.81 159.011L166.305 155.127L166.502 151.527L166.601 135.234L166.7 134.098L166.997 132.393L167.392 130.972L168.183 129.361L169.171 128.035L170.259 127.183L171.346 126.52L173.126 125.762L175.202 125.193L177.97 124.72L181.331 124.057L184 123.488L185.483 123.015L187.164 122.257L188.35 121.404L188.745 120.931L189.24 120.173L189.635 119.32L189.932 117.805V116.857L189.734 116.1L189.24 115.058L188.449 114.205L187.559 112.784L186.867 111.079L186.373 109.563L185.285 105.68L184.791 105.017L184.198 104.164L183.605 102.743L183.209 101.512V100.659L183.407 100.091L184.099 99.5225V98.1963L184 97.249V94.5967L184.099 93.7441L184.494 91.6602L185.088 89.9551L186.076 87.9658L187.065 86.5449L188.053 85.5029L189.24 84.4609L190.129 83.5137L190.92 81.998V80.7666L191.217 80.1035L191.711 79.5352L192.799 79.1562L193.886 78.7916V226.551ZM177.772 161H177.574V165.452L177.377 167.252L176.784 169.999L175.696 173.125L174.806 175.02L173.521 177.198L172.434 178.714L171.643 179.756L170.358 181.271L168.974 182.692L168.084 183.64L166.403 185.25L165.613 185.913L164.426 186.955L163.042 187.997L162.153 188.755L160.769 189.797L159.088 191.123L157.902 191.976L157.308 192.639L157.407 192.733H159.978L164.624 193.018L167.095 193.302L169.468 193.775L170.654 194.154L171.149 193.965L171.742 193.018L172.533 191.502L173.521 189.702L174.51 187.05L175.498 184.019L176.289 182.029L177.179 180.608L178.168 179.188L178.86 177.767L179.65 175.398L180.046 173.314L180.145 172.367V170.188L179.848 168.389L179.156 166.115L177.871 161.189L177.772 161ZM131.605 189.702L132.396 189.607L132.792 189.702L134.077 190.365L134.571 191.123L134.868 191.881V193.396L134.67 194.06L134.176 194.344L132.495 194.249L131.704 193.965L131.012 193.396L130.617 192.639V191.407L131.012 190.365L131.605 189.702Z" fill="black"/>
<ellipse cx="8.67692" cy="4.33036" rx="8.67692" ry="4.33036" transform="matrix(-1 0 0 1 205.677 77.1643)" fill="black"/>
<rect x="193.023" y="82.0143" width="9.4" height="140.304" fill="black"/>
<path d="M197 226.475C195.373 226.475 190.854 226.995 190.854 226.995L192.481 220.239H202.242L203.508 226.995C203.508 226.995 198.265 226.475 197 226.475Z" fill="black"/>
<circle cx="287.5" cy="230.5" r="3.5" fill="#FFA027"/>
</g>
<path d="M409.679 105.371C367.751 96.5442 339.983 125.232 331.34 140.679C350.318 156.126 383.382 153.367 397.542 150.057C419.057 138.84 451.606 114.198 409.679 105.371Z" fill="#FF5D00"/>
<path d="M336.305 140.127C340.432 138.407 345.844 136.228 351.752 133.958M395.335 120.818C393.914 120.818 392.038 121.07 389.818 121.522M367.751 128.078C364.441 127.438 367.199 124.128 351.752 123.577M367.751 128.078C371.561 126.751 375.301 125.511 378.785 124.445M367.751 128.078C362.387 129.946 356.882 131.986 351.752 133.958M367.751 128.078C369.406 131.711 362.786 142.334 362.786 143.989M378.785 124.445C376.578 121.949 370.289 116.736 362.786 115.853M378.785 124.445C380.991 128.072 374.923 143.989 373.819 145.092M378.785 124.445C382.928 123.177 386.709 122.154 389.818 121.522M347.339 143.989C348.442 142.885 353.407 135.512 351.752 133.958M351.752 133.958C351.752 131.877 346.603 130.584 344.029 130.197M385.405 149.506C387.611 142.067 391.584 126.056 389.818 121.522" stroke="#950D00"/>
<path d="M298.791 22.6189C286.433 16.8814 273.781 22.435 269 25.929C276.503 33.4319 293.274 30.3425 300.446 25.929L310.928 29.7908C300.997 33.1009 296.032 35.8593 290.516 45.7895C299.342 46.8929 311.79 38.3013 315.341 31.9975C316.224 31.9975 323.8 36.0432 327.478 38.066C316.267 41.3561 311.506 44.6959 307.618 55.1681C320.01 52.5904 325.013 48.8103 332.443 40.2727L347.339 48.5479C333.572 52.758 324.168 61.2366 323.616 70.6152C332.995 71.1668 350.618 59.537 351.2 50.203L371 59.5C361.932 63.2521 359.823 65.6858 359.476 70.0635C367.656 70.1688 371.897 69.3614 376.578 60.6849L391.473 66.2017L385.956 70.0635C387.244 70.983 390.259 72.8219 392.025 72.8219C393.79 72.8219 393.864 70.2474 393.68 68.9601L400.3 71.1668C400.852 68.5923 401.183 63.5536 398.093 63.995C395.004 64.4363 383.649 61.0228 378.5 59C382.302 44.2965 379.722 38.8908 374.371 30.3425C371.231 33.6422 368.314 48.0318 371 56C370.559 56.4413 359.333 51.3101 354 48C362.53 34.5535 363.016 29.6388 358.924 19.3088C352.041 27.2607 347.07 33.818 350 46.5C346.261 44.6145 334.871 38.9221 334.65 38.066C337.441 35.4331 340.796 17.8192 335.202 11.5853C329.685 12.6887 328.03 31.9975 330.237 36.4109C330.237 36.4109 315.78 28.3637 316.445 28.1357C319.203 25.3773 321.961 8.27521 314.79 1.65504C307.618 9.93026 312.031 25.3773 313.134 27.584L302.653 23.7223C303.094 8.71656 297.687 1.65504 294.929 0C292.171 7.72353 292.722 11.0336 298.791 22.6189Z" fill="#712538"/>
<path d="M391.871 158.332C393.845 156.923 395.605 155.618 397.069 154.471C390.528 146.747 370.509 145.092 364.992 145.092C360.579 145.092 361.682 147.189 362.786 148.237C363.501 148.542 364.268 148.789 364.992 148.954C382.755 149.941 388.603 155.34 391.109 157.654C391.405 157.927 391.654 158.158 391.871 158.332Z" fill="#992937"/>
<path d="M387.929 161.091C383.41 159.068 371.613 155.243 360.579 156.126C348.66 157.079 349.926 158.331 351.201 159.593C351.402 159.791 351.602 159.99 351.752 160.187C352.372 160.49 353.104 160.792 353.959 161.091C354.511 161.284 354.797 161.466 354.881 161.643C359.145 162.47 365.121 162.47 370.768 162.47C376.414 162.47 381.731 162.47 384.678 163.298C385.793 162.55 386.879 161.813 387.929 161.091Z" fill="#992937"/>
<path d="M377.129 168.243C371.061 167.882 357.379 167.49 351.2 168.814C343.861 170.387 346.983 172.401 348.732 172.931C348.818 172.954 348.905 172.978 348.994 173.001C352.48 173.922 357.821 174.516 357.821 174.516C357.947 174.516 358.135 174.522 358.377 174.53C360.235 174.591 365.243 174.754 369.529 173.001C372.045 171.463 374.607 169.858 377.129 168.243Z" fill="#992937"/>
<path d="M378.233 169.344C376.946 172.293 373.268 179.076 368.854 182.606C363.741 186.697 360.998 193.527 361.502 195.849C361.556 196.006 361.617 196.16 361.682 196.311C362.069 197.193 362.648 197.945 363.41 198.605C373.177 193.75 380.304 175.273 382.646 166.641C381.215 167.511 379.736 168.417 378.233 169.344Z" fill="#992937"/>
<path d="M350.097 183.71C339.615 187.02 345.684 191.433 350.649 187.02C353.163 185.134 366.419 176.624 378.233 169.344C379.736 168.417 381.215 167.511 382.646 166.641C383.784 165.949 384.892 165.279 385.956 164.641C387.247 163.867 388.473 163.139 389.614 162.47C390.907 161.712 392.089 161.032 393.128 160.449C395.112 159.337 396.573 158.583 397.285 158.332C397.214 157.053 397.142 155.762 397.069 154.471C395.605 155.618 393.845 156.923 391.871 158.332C390.634 159.216 389.313 160.139 387.929 161.091C386.879 161.813 385.793 162.55 384.678 163.298C382.263 164.918 379.716 166.586 377.129 168.243C374.607 169.858 372.045 171.463 369.529 173.001C361.836 177.705 354.564 181.795 350.097 183.71Z" fill="#992937"/>
<path fill-rule="evenodd" clip-rule="evenodd" d="M397.285 158.332C398.001 171.162 398.645 182.926 398.645 183.71C398.645 184.126 397.118 184.844 394.783 185.696C396.438 173.891 393.68 161.091 393.128 160.449C395.112 159.337 396.573 158.583 397.285 158.332ZM389.614 162.47C388.473 163.139 387.247 163.867 385.956 164.641C385.57 170.446 383.755 183.71 379.584 190.33C382.498 189.53 385.79 188.591 388.808 187.665C390.302 180.114 389.878 170.641 389.658 165.734C389.573 163.856 389.519 162.647 389.614 162.47Z" fill="#992937"/>
<path d="M393.128 160.449C392.089 161.032 390.907 161.712 389.614 162.47C389.519 162.647 389.573 163.856 389.658 165.734C389.878 170.641 390.302 180.114 388.808 187.665C391.037 186.982 393.116 186.305 394.783 185.696C396.438 173.891 393.68 161.091 393.128 160.449Z" fill="#FF4100"/>
<path fill-rule="evenodd" clip-rule="evenodd" d="M395.887 133.507C393.864 132.403 389.224 130.63 387.06 130.197C384.301 129.645 371.613 129.093 380.991 136.817C381.643 137.208 382.187 137.537 382.646 137.817C380.326 135.882 377.227 132.312 383.397 133.507C390.615 134.904 394.123 138.473 395.943 140.324C396.067 140.451 396.184 140.569 396.293 140.679C396.146 138.073 396.008 135.646 395.887 133.507ZM396.481 144C395.284 143.462 394.448 143.15 393.615 142.839C392.721 142.505 391.83 142.172 390.5 141.564C391.953 142.719 388.3 143.066 387.06 142.885C385.862 142.714 384.802 142.544 383.821 142.385C378.479 141.525 375.459 141.038 364.992 142.885C357.294 144.244 359.508 146.841 362.786 148.237C361.682 147.189 360.579 145.092 364.992 145.092C370.509 145.092 390.528 146.747 397.069 154.471C396.87 150.918 396.67 147.359 396.481 144ZM382.646 166.641C383.784 165.949 384.892 165.279 385.956 164.641C385.57 170.446 383.755 183.71 379.584 190.33C378.084 190.742 376.685 191.116 375.474 191.433C373.268 194.927 368.082 201.474 364.992 199.709C364.399 199.369 363.871 199.004 363.41 198.605C373.177 193.75 380.304 175.273 382.646 166.641ZM350.649 187.02C353.163 185.134 366.419 176.624 378.233 169.344C376.946 172.293 373.268 179.076 368.854 182.606C363.741 186.697 360.998 193.527 361.502 195.849C360.809 193.844 361.022 191.207 362.234 187.572C363.886 182.614 361.857 184.153 359.29 186.1C358.634 186.598 357.943 187.122 357.269 187.572C355.92 188.471 348.994 191.433 346.787 190.33C341.27 187.572 344.58 182.055 347.339 180.4L357.821 174.516C357.947 174.516 358.135 174.522 358.377 174.53C360.235 174.591 365.243 174.754 369.529 173.001C361.836 177.705 354.564 181.795 350.097 183.71C339.615 187.02 345.684 191.433 350.649 187.02ZM361.502 195.849C361.556 196.006 361.617 196.16 361.682 196.311C361.602 196.187 361.542 196.032 361.502 195.849ZM384.678 163.298C382.263 164.918 379.716 166.586 377.129 168.243C371.061 167.882 357.379 167.49 351.2 168.814C343.861 170.387 346.983 172.401 348.732 172.931C348.434 172.848 348.152 172.763 347.89 172.676C340.436 170.191 347.339 164.953 350.097 163.849C350.758 163.585 351.483 163.344 352.164 163.118C353.758 162.588 355.116 162.137 354.881 161.643C359.145 162.47 365.121 162.47 370.768 162.47C376.414 162.47 381.731 162.47 384.678 163.298ZM348.732 172.931C348.818 172.954 348.905 172.978 348.994 173.001C348.911 172.982 348.823 172.958 348.732 172.931ZM391.871 158.332C390.634 159.216 389.313 160.139 387.929 161.091C383.41 159.068 371.613 155.243 360.579 156.126C348.66 157.079 349.926 158.331 351.201 159.593C351.402 159.791 351.602 159.99 351.752 160.187C344.718 156.759 351.923 153.255 353.732 152.375C353.822 152.331 353.898 152.294 353.959 152.264C356.166 151.161 361.315 149.689 364.992 148.954C382.755 149.941 388.603 155.34 391.109 157.654C391.405 157.927 391.654 158.158 391.871 158.332Z" fill="#FF4100"/>
<path d="M386.818 139.985C387.277 140.15 387.877 140.364 388.715 140.679C389.612 141.015 390.18 141.309 390.5 141.564C391.83 142.172 392.721 142.505 393.615 142.839C394.448 143.15 395.284 143.462 396.481 144L396.293 140.679C396.184 140.569 396.067 140.451 395.943 140.324C394.123 138.473 390.615 134.904 383.397 133.507C377.227 132.312 380.326 135.882 382.646 137.817C382.926 137.987 383.174 138.138 383.397 138.274C384.522 138.961 384.989 139.246 385.483 139.472C385.833 139.632 386.197 139.762 386.818 139.985Z" fill="#992937"/>
<path d="M413.54 171.021C339.395 189.558 337.408 233.361 340.167 261.497C372.716 257.635 399.197 228.396 409.679 206.88L413.54 171.021Z" fill="#792031"/>
<path d="M343.477 257.083C346.199 249.958 351.778 239.105 359.488 227.844M398.645 189.227C394.244 191.691 390.003 194.679 385.956 198.029M359.488 227.844C361.139 229.867 364.33 236.119 363.889 244.946M359.488 227.844C362.898 222.863 366.725 217.802 370.906 212.949M359.488 227.844C355.525 226.52 350.841 228.396 348.994 229.499M370.906 212.949C372.797 215.156 376.909 222.327 378.233 233.361M370.906 212.949C360.027 212.949 355.062 216.259 353.407 217.914M370.906 212.949C375.479 207.641 380.476 202.582 385.813 198.148M367.199 200.26C368.303 200.26 375.474 194.694 385.956 198.029M385.956 198.029C385.908 198.068 385.86 198.108 385.813 198.148M385.813 198.148C387.516 201.427 390.701 210.632 389.818 221.224" stroke="#C1474C"/>
<path d="M410.23 78.8904C362.786 48.5479 332.995 72.8219 331.34 73.3736C351.752 117.508 381.543 120.818 383.198 121.37C384.853 121.921 457.675 109.233 410.23 78.8904Z" fill="#902831"/>
<path d="M341.27 76.132C343.914 76.793 347.315 77.7664 351.2 79.0367M400.852 104.819C397.682 102.046 394.133 99.444 390.37 97.0238M342.374 84.9589C344.58 83.953 349.435 81.3604 351.2 79.0367M351.2 79.0367C351.752 76.9762 351.2 72.8219 350.649 72.8219M351.2 79.0367C355.925 80.5813 361.368 82.5647 367.04 84.9589M361.682 72.2702C363.783 74.8447 367.796 80.9868 367.04 84.9589M367.04 84.9589C364.282 89.924 351.752 93.7858 350.649 93.7858M367.04 84.9589C371.64 86.9005 376.392 89.1122 381.034 91.579M357.821 102.613C358.924 102.061 377.766 95.9925 381.034 91.579M381.034 91.579C383.275 86.7242 377.893 76.6836 374.923 72.2702M381.034 91.579C384.226 93.275 387.366 95.0916 390.37 97.0238M383.75 70.0635C386.692 75.1645 392.135 87.698 390.37 97.0238M390.37 97.0238C387.979 99.9901 380.66 106.695 370.509 109.785" stroke="#E66453"/>
<path d="M17.8789 23.8083C43.31 6.0066 63.7961 5.79467 70.8603 7.91393C76.1584 24.3382 74.0392 34.9344 68.2112 52.4183C63.5489 66.4053 30.5944 110.168 12.051 132.42H-17.0888C-20.0557 132.42 -15.8526 89.6818 -13.3801 68.3127C-13.5567 60.8953 -7.55214 41.6101 17.8789 23.8083Z" fill="#FF9331"/>
<path d="M61.3236 15.3313C58.122 20.7295 53.9582 27.4209 49.1379 34.7516M-16.559 109.638C-11.5568 106.932 -6.14345 102.702 -0.555281 97.4524M45.4292 20.0996C45.9591 24.2163 47.4425 32.91 49.1379 34.7516M49.1379 34.7516C52.9526 35.8769 63.4429 33.2231 68.2112 31.7555M49.1379 34.7516C46.2021 39.2164 43.0228 43.9183 39.6691 48.7096M33.7733 31.7555C34.7016 36.7004 37.1803 47.0142 39.6691 48.7096M39.6691 48.7096C41.4188 49.5573 51.3024 48.3563 56.0255 47.6499M39.6691 48.7096C36.107 53.7985 32.3481 58.9882 28.4752 64.1016M22.6472 45.5307C21.9566 51.4866 23.9812 62.5922 28.4752 64.1016M28.4752 64.1016C30.5945 65.3951 40.6609 63.5626 45.4292 62.4847M28.4752 64.1016C25.2037 68.421 21.8508 72.6859 18.4664 76.7897M13.6404 61.4251C12.5362 63.2661 15.1405 75.1398 18.4664 76.7897M18.4664 76.7897C22.2328 77.8493 34.3032 76.7897 38.0118 75.7301M18.4664 76.7897C15.102 80.8692 11.7066 84.7895 8.32897 88.4456M3.57396 70.9617C3.00256 75.848 4.62061 86.4243 8.32897 88.4456M8.32897 88.4456C10.9457 92.4388 26.3375 91.3118 28.4752 90.035M8.32897 88.4456C5.34225 91.6786 2.36954 94.705 -0.555281 97.4524M-3.84343 81.0282C-3.80642 84.5336 -2.77465 94.1077 -0.555281 97.4524M-0.555281 97.4524C2.23036 100.484 14.3727 102.311 21.0578 101.691" stroke="#D13C00"/>
<path d="M-0.134733 140.52C31.2302 132.891 59.9108 163.126 70.3305 179.197C41.0848 205.899 -8.61178 182.376 -11.2609 157.474C-11.2609 157.474 -31.4997 148.15 -0.134733 140.52Z" fill="#FF4A00"/>
<path d="M65.0323 178.137C62.3738 177.115 57.821 174.75 49.6677 172.324M-23.4466 165.422C-14.6795 165.197 -6.7603 165.237 0.39505 165.479M57.0851 168.6C56.0255 168.6 52.3168 169.689 49.6677 172.324M49.6677 172.324C49.6677 176.577 54.436 180.256 55.4957 181.316M49.6677 172.324C45.9007 171.202 41.365 170.068 35.8926 169.047M47.5485 162.243C44.3696 163.418 37.588 166.425 35.8926 169.047M35.8926 169.047C37.482 175.321 44.8994 182.905 44.8994 183.435M35.8926 169.047C32.2599 168.368 28.2144 167.74 23.7069 167.198M33.2435 181.846C32.7137 180.786 25.8261 175.333 23.7069 167.198M23.7069 167.198C25.8261 163.098 34.4797 158.654 38.5416 156.945M23.7069 167.198C19.9716 166.75 15.919 166.36 11.5211 166.051M27.4155 151.646C26.8857 151.646 14.7 158.204 11.5211 166.051M11.5211 166.051C14.4881 172.489 18.7619 176.791 20.528 178.137M11.5211 166.051C8.03416 165.806 4.33012 165.612 0.39505 165.479M9.40188 153.766C6.92942 155.57 1.6666 160.439 0.39505 165.479M0.39505 165.479C3.04412 172.424 8.34226 174.958 9.40188 176.018" stroke="#8C0100"/>
<path d="M-20.7975 127.122C3.57394 93.2139 48.2549 103.104 61.3236 112.287C29.5348 180.633 -9.14158 150.964 -16.559 150.964C-23.9764 150.964 -56.0008 176.101 -20.7975 127.122Z" fill="#822632"/>
<path d="M54.4361 113.877C52.4517 114.971 50.1297 116.215 47.5485 117.554M-16.0291 141.427C-14.8492 141.324 -13.6103 141.164 -12.3204 140.952M50.1976 111.228C48.9613 112.619 46.7008 115.833 47.5485 117.554M47.5485 117.554C49.6677 119.111 53.9063 119.175 54.4361 119.175M47.5485 117.554C43.2117 119.803 38.143 122.322 32.7137 124.859M39.0715 111.228C36.7756 114.841 32.2899 122.625 32.7137 124.859M32.7137 124.859C32.421 126.835 44.8994 128.711 45.9591 128.711M32.7137 124.859C27.5829 127.257 22.13 129.671 16.6684 131.89M26.8858 111.228C23.2531 116.702 16.1239 128.5 16.6684 131.89M16.6684 131.89C21.8157 137.718 36.4224 137.718 37.482 138.248M16.6684 131.89C11.5172 133.983 6.35832 135.902 1.45471 137.469M11.5212 112.287C7.98907 117.596 1.03086 130.064 1.45471 137.469M1.45471 137.469C12.051 144.107 23.1771 145.136 24.2367 145.665M1.45471 137.469C-3.4858 139.048 -8.16717 140.27 -12.3204 140.952M7.28266 152.023C6.22303 150.964 -8.61175 147.895 -12.3204 140.952" stroke="#E75F5B"/>
<path d="M80.3969 235.734C92.4806 243.965 94.8198 250.333 96.8211 260.635C85.481 255.335 81.2418 249.919 76.6882 236.793C73.4706 234.464 71.4791 233.255 67.1516 231.495C72.2179 237.379 70.0753 251.628 67.1516 256.397C63.4429 253.218 60.6053 239.283 63.4429 229.906L49.6677 223.018C56.6238 236.966 52.846 240.81 49.6677 249.509C44.0499 240.79 41.668 235.442 44.8994 221.429C37.5468 218.71 34.9928 218.344 30.5944 215.601C35.0058 230.218 33.6227 236.488 28.4752 246.33C20.8918 234.804 20.1 227.744 25.2963 214.011C17.8204 210.532 13.9952 208.378 7.28264 204.475C10.272 219.582 9.36674 226.608 3.57394 236.793C-5.63999 223.855 -5.63971 216.159 1.45469 201.826L-12.3205 193.349L-11.7907 188.58C-9.48512 180.445 -2.78382 173.746 8.34227 172.686C7.28264 181.163 4.47596 185.694 -7.55214 191.759L3.04413 198.647C11.3829 186.149 17.098 184.874 27.4156 183.282C23.6681 191.878 19.8168 196.042 9.93171 202.356C16.1539 205.801 19.7483 207.643 26.8857 210.303C29.9239 194.044 36.0605 192.329 45.959 187.521C43.3373 197.798 43.1217 203.842 30.5944 211.892C35.9663 214.677 39.1392 216.161 45.959 218.25C48.334 208.748 54.4395 205.489 66.6218 200.236C63.5488 209.058 62.2786 214.126 49.6677 220.369L64.5025 227.257C68.0173 217.119 73.5504 214.221 85.6951 210.833C83.8625 217.91 75.0988 226.197 68.2112 229.376C70.3305 229.906 74.6232 232.096 77.218 234.674C85.6838 224.088 91.523 224.608 100 224.608C97.4587 230.45 94.8961 232.236 80.3969 235.734Z" fill="#702036"/>
<path d="M114 58.5C114 60.433 112.433 62 110.5 62C108.567 62 107 60.433 107 58.5C107 56.567 108.567 55 110.5 55C112.433 55 114 56.567 114 58.5Z" fill="#FAC271"/>
<circle cx="155.5" cy="34.5" r="5.5" fill="#FFA027"/>
<circle cx="125.5" cy="34.5" r="9.5" fill="#662534"/>
<circle cx="312" cy="220" r="4" fill="#4F2025"/>
<circle cx="308" cy="189" r="8" fill="#FFC980"/>
<defs>
<clipPath id="clip0_244_2">
<rect width="188" height="194" fill="white" transform="translate(103 64)"/>
</clipPath>
</defs>
</svg>
