<svg width="393" height="339" viewBox="0 0 393 339" fill="none" xmlns="http://www.w3.org/2000/svg">
<rect width="393" height="83" fill="#002947"/>
<path d="M57 75.5C30.6 72.3 5 76.8333 -4.5 79.5L-7.5 100.5C18 105.167 72 114.5 84 114.5C96 114.5 296.333 102.5 395 96.5C396.833 89.5 399.4 74.6 395 71C389.5 66.5 334.5 79.5 307.5 71C280.5 62.5 264 72 242 71C220 70 199.5 84.5 181.5 79.5C167.1 75.5 140.167 75.1667 128.5 75.5C115.667 76.8333 83.4 78.7 57 75.5Z" fill="#002C49"/>
<path d="M54 94C16 90.8 -5.83333 95.3334 -12 98V100.5L-2.5 123C11.5 125.833 44.7 131.8 65.5 133C86.3 134.2 296.5 128.833 399 126C405.5 115.333 413.127 86.5 388 86.5C366.5 86.5 273.5 80.5 235 86.5C207.777 90.7426 180.5 94.6211 166 90.5C128 79.7 122.125 83 112.5 86.5C101.5 90.5 92 97.2 54 94Z" fill="#00314F"/>
<path d="M77.5 106C-12.0126 106 11 114 -3 115.5L-1.5 141.5H19.5C21.1 141.5 275.167 144.5 402 146L397 111.5C398.333 106.5 397.7 98.3 384.5 105.5C368 114.5 327 103 308 100C289 97 189.5 104 182.5 104.5C175.5 105 162 102.5 148 98.5C136.8 95.3 126 98.1666 122 100C115 104.5 93.5 106 77.5 106Z" fill="#003554"/>
<path d="M89.5 119.5C50.5991 119.5 10.3333 127 -5 132.5V163C34.5 165.167 113.9 169.5 115.5 169.5C117.1 169.5 305.167 157.833 399 152C439.5 152.333 493.8 147.2 387 124C280.2 100.8 204.5 114.5 179 122L170 120.5C153 117 128 119.5 89.5 119.5Z" fill="#003958"/>
<path d="M292.5 134C200.5 127 190 144.5 174.5 145.5L196.5 168L396.5 162.5C405.333 154.333 417.2 138.5 394 140.5C365 143 384.5 141 292.5 134Z" fill="#00405E"/>
<path d="M170 146C150.4 141.6 45.8333 147.833 -4 151.5V182.5C12.6667 189.667 46.9 204.2 50.5 205C55 206 328 198 330.5 198C332.5 198 376 187.667 397.5 182.5V159.5C396.167 154.167 392.3 145.1 387.5 151.5C381.5 159.5 318 151.5 309.5 151.5C301 151.5 265.5 141 243.5 146C221.5 151 194.5 151.5 170 146Z" fill="#004968"/>
<path d="M61.5 176C40.3 176 7.33333 172.667 -6.5 171V201.5L137.5 212L372 208.5L399 188C398.167 185.333 394.6 179.2 387 176C377.5 172 312 171 296 176C280 181 225.5 179.5 217 176C208.5 172.5 186.5 153.5 175 160C163.5 166.5 133.5 168.5 115 167C96.5 165.5 88 176 61.5 176Z" fill="#004F6B"/>
<path d="M80.5 184.5C36.1 180.5 4 186.167 -6.5 189.5L-4 202C-3.6 204 5.16667 218.5 9.5 225.5L275 230L396.5 219.5C398.333 204.667 399.4 176.5 389 182.5C376 190 298.5 193 284.5 189.5C266.5 185 186 180 166.5 182.5C147 185 136 189.5 80.5 184.5Z" fill="#005A73"/>
<path d="M172 198.5C98 187.5 -5 194.5 -3.50001 198.5C-10.3 199.483 -0.66668 213.576 4.99999 220.5L113.5 224.5C207.333 229 395.9 237.9 399.5 237.5C404 237 425.5 201.5 385 201.5C344.5 201.5 340.5 195.5 319 186.5C297.5 177.5 292 182 280.5 190C269 198 226.5 198.5 217.5 198.5C208.5 198.5 185.5 193.575 182 195.5C178.5 197.425 176.033 199.099 172 198.5Z" fill="#006F7E"/>
<path d="M51 204.5C5.57071 201.774 -4.5 209 -6 209.5L-3 227.5L89.5 235.5L175.5 223C177.167 218.5 178 208.5 168 204.5C158 200.5 128.7 202.322 103.5 202.5C82.9831 202.645 76 206 51 204.5Z" fill="#00717E"/>
<path d="M23.5 218.5C9.9 218.5 -1.83333 217.5 -6 217L-3 246H397C399 239.667 400.8 226.3 392 223.5C381 220 324.5 212.5 318 214.5C312.8 216.1 271.833 215.167 252 214.5C230.333 211.833 183.6 207.7 170 212.5C153 218.5 107.5 222 81.5 218.5C55.5 215 40.5 218.5 23.5 218.5Z" fill="#007C87"/>
<path d="M98.5 233.5C74.8087 233.5 21.5 233 -2.5 235V264L396.5 258.5C399 252.667 399.7 239.8 382.5 235C361 229 299 227 280.5 229C262 231 117.5 233.5 98.5 233.5Z" fill="#008B94"/>
<rect y="323" width="393" height="16" fill="#AD593D"/>
<rect y="278" width="393" height="45" fill="url(#paint0_linear_187_5)"/>
<rect y="262" width="393" height="16" fill="#2F2025"/>
<rect y="257" width="393" height="5" fill="#8A4837"/>
<rect y="251" width="393" height="6" fill="#3F2A29"/>
<rect x="177" y="26" width="7" height="225" fill="#321918"/>
<rect x="169" y="26" width="8" height="225" fill="#512421"/>
<rect x="165" y="26" width="4" height="225" fill="#823628"/>
<ellipse cx="193.5" cy="299" rx="78.5" ry="16.5" fill="#B75E3E"/>
<ellipse cx="191" cy="301.5" rx="56" ry="11" fill="#3C2326"/>
<ellipse cx="191" cy="287.5" rx="77" ry="21" fill="#C48864"/>
<ellipse cx="191" cy="286" rx="77" ry="18.5" fill="url(#paint1_linear_187_5)"/>
<ellipse cx="192" cy="285" rx="76" ry="16.5" fill="url(#paint2_linear_187_5)"/>
<ellipse cx="192" cy="286" rx="57" ry="11.5" fill="url(#paint3_linear_187_5)"/>
<ellipse cx="191.5" cy="286.5" rx="54.5" ry="11" fill="url(#paint4_linear_187_5)"/>
<ellipse cx="190.5" cy="285.5" rx="36.5" ry="10" fill="#C47A4D"/>
<path d="M143.5 223.5C142.667 238.08 145.5 269.893 163.5 280.5C153 264.5 149.5 229 153 225.5C153 223.5 147 223.5 144.5 222.5L143.5 223.5Z" fill="#F9F9E5"/>
<path fill-rule="evenodd" clip-rule="evenodd" d="M132 215.5C132 221.167 132.3 233.8 133.5 239C135 245.5 135.5 259.5 144.5 269.5C151.7 277.5 156.167 282.167 157.5 283.5C158.735 284.276 162.784 285.605 168 286.932C166.167 286.422 170.189 282.378 186 281.5C192.414 281.144 194.971 273.882 195.962 263C196.825 253.523 196.5 241.301 196.5 228.5L197 227L222 225.5C223.2 225.5 236.833 222.833 243.5 221.5L251 215.5H132ZM163.5 280.5C145.5 269.893 142.667 238.08 143.5 223.5L144.5 222.5C147 223.5 153 223.5 153 225.5C149.5 229 153 264.5 163.5 280.5Z" fill="#FCC783"/>
<path d="M168 286.932C170.023 287.447 172.222 287.961 174.5 288.443C178.935 289.381 183.671 290.195 188 290.646C196 287.966 196.641 271.098 195.962 263C194.971 273.882 192.414 281.144 186 281.5C170.189 282.378 166.167 286.422 168 286.932Z" fill="#ECA66A"/>
<path d="M196.5 228.5C196.5 241.301 196.825 253.523 195.962 263C196.641 271.098 196 287.966 188 290.646C220.4 290.646 224.167 247.215 222 225.5L197 227L196.5 228.5Z" fill="#E29B63"/>
<path d="M243.5 259.5C245.509 255.08 247.708 243.396 248.828 236.5C249.153 234.498 249.388 232.9 249.5 232C249.66 230.718 249.879 228.485 250.106 226C250.445 222.281 250.8 217.998 251 215.5L243.5 221.5C236.833 222.833 223.2 225.5 222 225.5C224.167 247.215 220.4 290.646 188 290.646C189.749 290.829 191.431 290.952 193 291C205.443 291.382 224.894 286.561 226.5 284.5C227.918 282.728 233.355 276.433 238.182 269C240.165 265.947 242.044 262.702 243.5 259.5Z" fill="#D68E5D"/>
<path d="M157.5 283.5C157.167 284.667 157.237 286.869 159.5 288C165.5 291 179 294 193 294C193.337 294 193.671 293.999 194 293.997C188.8 293.595 178.833 290.127 174.5 288.443C172.222 287.961 170.023 287.447 168 286.932C162.784 285.605 158.735 284.276 157.5 283.5Z" fill="#FBCA85"/>
<path d="M222 290C226.5 288.714 227 286.5 226.5 284.5C224.894 286.561 205.443 291.382 193 291C191.431 290.952 189.749 290.829 188 290.646C183.671 290.195 178.935 289.381 174.5 288.443C178.833 290.127 188.8 293.595 194 293.997C207.338 293.917 214.193 292.231 222 290Z" fill="#CF865C"/>
<path d="M263 221.5C256.5 220.778 252.333 222.667 251 224C250.333 225.5 251.4 227.9 261 225.5C273 222.5 278.015 239 269.5 250C260 260.5 251 260.5 246 266.88C254.722 264.034 262.699 259.868 268.5 256C277 250.333 280 237.5 277 230.5C275.714 227.5 272 222.5 263 221.5Z" fill="#F9F9E5"/>
<path d="M249.5 235.5C253.833 230.5 267.5 224.5 270.5 235C272.753 246.243 255.167 256.167 243.5 259.5C242.044 262.702 240.165 265.947 238.182 269C240.828 268.434 243.446 267.714 246 266.88C251 260.5 260 260.5 269.5 250C278.015 239 273 222.5 261 225.5C251.4 227.9 250.333 225.5 251 224L250.106 226C249.879 228.485 249.66 230.718 249.5 232C249.388 232.9 249.153 234.498 248.828 236.5L249.5 235.5Z" fill="#EEAA6B"/>
<path d="M139 215C138.2 215.4 138.667 218.833 139 220.5C143.667 221.667 153.1 224 153.5 224C153.9 224 169.667 225.333 177.5 226H211L230 224C234.333 223 243.2 221 244 221C244.8 221 245 218.667 245 217.5L239.5 212.5L216 209L198 207.5C187.5 208 166.3 209 165.5 209C164.5 209 140 214.5 139 215Z" fill="#221212"/>
<path d="M178.5 212C157 213 144 217 142.5 217.5C141 218 140 218.5 139.5 220.5C139 222.5 136.5 219.5 136.5 219.5L134 215L142.5 210L157.5 206.5L183 204.5L224 206.5C230.167 207.833 244.6 210.6 245 211C245.4 211.4 248.5 214.5 248.5 217C246.667 218.667 242.9 221.7 242.5 220.5C242 219 242.5 219 238.5 217C234.5 215 226 214 211 212.5C208.015 212.201 200 211 178.5 212Z" fill="#E7A55B"/>
<path fill-rule="evenodd" clip-rule="evenodd" d="M191.5 228.5C224.361 228.5 251 222.904 251 216C251 209.096 224.361 203.5 191.5 203.5C158.639 203.5 132 209.096 132 216C132 222.904 158.639 228.5 191.5 228.5ZM191.5 225.5C222.152 225.5 247 221.023 247 215.5C247 209.977 222.152 205.5 191.5 205.5C160.848 205.5 136 209.977 136 215.5C136 221.023 160.848 225.5 191.5 225.5Z" fill="#FFFBE3"/>
<ellipse cx="193" cy="221" rx="20" ry="3.5" fill="#6B3C2C"/>
<ellipse cx="186.5" cy="222" rx="6.5" ry="1.5" fill="#AB6A44"/>
<g opacity="0.55" filter="url(#filter0_d_187_5)">
<path fill-rule="evenodd" clip-rule="evenodd" d="M226.169 284.766C221.525 288.053 207.891 290.23 191.846 289.905C175.145 289.566 161.165 286.626 157.252 282.951C159.852 286.885 174.278 290.143 191.745 290.497C208.579 290.838 222.699 288.369 226.169 284.766Z" fill="black"/>
</g>
<path d="M197.5 171.5C192.3 164.7 195.667 156.333 198 153C189.5 158 193.5 169.5 194.5 171.5C195.5 173.5 201.015 180.032 197.5 185.5C193 192.5 190 193.5 191.5 199C193.317 191.279 196.838 191.243 200 186.5C201 185 204 180 197.5 171.5Z" fill="#D9D9D9"/>
<path d="M210.112 172.793C205.138 166.437 208.358 158.616 210.59 155.5C202.46 160.174 206.286 170.924 207.242 172.793C208.199 174.663 213.473 180.769 210.112 185.88C205.808 192.424 202.939 193.359 204.373 198.5C206.111 191.283 209.478 191.249 212.503 186.815C213.459 185.413 216.328 180.739 210.112 172.793Z" fill="#D9D9D9"/>
<path d="M25.3617 76C25.3617 67.6491 24.2553 67.6491 19 67.6491C24.2553 67.6491 25.3617 64.9649 25.3617 59C25.3617 65.2632 26.4681 67.6491 32 67.6491C26.4681 67.6491 25.3617 67.6491 25.3617 76Z" fill="#D9D9D9"/>
<path d="M95.3617 67C95.3617 58.6491 94.2553 58.6491 89 58.6491C94.2553 58.6491 95.3617 55.9649 95.3617 50C95.3617 56.2632 96.4681 58.6491 102 58.6491C96.4681 58.6491 95.3617 58.6491 95.3617 67Z" fill="#D9D9D9"/>
<path d="M109.872 97C109.872 90.1228 108.851 90.1228 104 90.1228C108.851 90.1228 109.872 87.9123 109.872 83C109.872 88.1579 110.894 90.1228 116 90.1228C110.894 90.1228 109.872 90.1228 109.872 97Z" fill="#D9D9D9"/>
<path d="M149.404 91C149.404 85.1053 148.638 85.1053 145 85.1053C148.638 85.1053 149.404 83.2105 149.404 79C149.404 83.4211 150.17 85.1053 154 85.1053C150.17 85.1053 149.404 85.1053 149.404 91Z" fill="#D9D9D9"/>
<path d="M57.4043 112C57.4043 106.105 56.6383 106.105 53 106.105C56.6383 106.105 57.4043 104.211 57.4043 100C57.4043 104.421 58.1702 106.105 62 106.105C58.1702 106.105 57.4043 106.105 57.4043 112Z" fill="#D9D9D9"/>
<path d="M102.34 145C102.34 136.649 101.064 136.649 95 136.649C101.064 136.649 102.34 133.965 102.34 128C102.34 134.263 103.617 136.649 110 136.649C103.617 136.649 102.34 136.649 102.34 145Z" fill="#D9D9D9"/>
<path d="M364.872 91C364.872 83.6316 363.851 83.6316 359 83.6316C363.851 83.6316 364.872 81.2632 364.872 76C364.872 81.5263 365.894 83.6316 371 83.6316C365.894 83.6316 364.872 83.6316 364.872 91Z" fill="#D9D9D9"/>
<path d="M311.894 113C311.894 106.123 311.043 106.123 307 106.123C311.043 106.123 311.894 103.912 311.894 99C311.894 104.158 312.745 106.123 317 106.123C312.745 106.123 311.894 106.123 311.894 113Z" fill="#D9D9D9"/>
<path d="M221.894 108C221.894 101.123 221.043 101.123 217 101.123C221.043 101.123 221.894 98.9123 221.894 94C221.894 99.1579 222.745 101.123 227 101.123C222.745 101.123 221.894 101.123 221.894 108Z" fill="#D9D9D9"/>
<path d="M276.894 86C276.894 79.1228 276.043 79.1228 272 79.1228C276.043 79.1228 276.894 76.9123 276.894 72C276.894 77.1579 277.745 79.1228 282 79.1228C277.745 79.1228 276.894 79.1228 276.894 86Z" fill="#D9D9D9"/>
<path d="M233.915 75C233.915 69.5965 233.234 69.5965 230 69.5965C233.234 69.5965 233.915 67.8596 233.915 64C233.915 68.0526 234.596 69.5965 238 69.5965C234.596 69.5965 233.915 69.5965 233.915 75Z" fill="#D9D9D9"/>
<path d="M44.4043 155C44.4043 149.105 43.6383 149.105 40 149.105C43.6383 149.105 44.4043 147.211 44.4043 143C44.4043 147.421 45.1702 149.105 49 149.105C45.1702 149.105 44.4043 149.105 44.4043 155Z" fill="#D9D9D9"/>
<path d="M268.298 157C268.298 145.211 266.681 145.211 259 145.211C266.681 145.211 268.298 141.421 268.298 133C268.298 141.842 269.915 145.211 278 145.211C269.915 145.211 268.298 145.211 268.298 157Z" fill="#D9D9D9"/>
<defs>
<filter id="filter0_d_187_5" x="153.252" y="282.951" width="76.9169" height="15.5774" filterUnits="userSpaceOnUse" color-interpolation-filters="sRGB">
<feFlood flood-opacity="0" result="BackgroundImageFix"/>
<feColorMatrix in="SourceAlpha" type="matrix" values="0 0 0 0 0 0 0 0 0 0 0 0 0 0 0 0 0 0 127 0" result="hardAlpha"/>
<feOffset dy="4"/>
<feGaussianBlur stdDeviation="2"/>
<feComposite in2="hardAlpha" operator="out"/>
<feColorMatrix type="matrix" values="0 0 0 0 0 0 0 0 0 0 0 0 0 0 0 0 0 0 0.25 0"/>
<feBlend mode="normal" in2="BackgroundImageFix" result="effect1_dropShadow_187_5"/>
<feBlend mode="normal" in="SourceGraphic" in2="effect1_dropShadow_187_5" result="shape"/>
</filter>
<linearGradient id="paint0_linear_187_5" x1="0" y1="300.5" x2="393" y2="300.5" gradientUnits="userSpaceOnUse">
<stop stop-color="#F8B165"/>
<stop offset="1" stop-color="#E48C4D"/>
</linearGradient>
<linearGradient id="paint1_linear_187_5" x1="119.5" y1="279" x2="265.5" y2="290" gradientUnits="userSpaceOnUse">
<stop stop-color="#FAFDF2"/>
<stop offset="1" stop-color="#F4B97D"/>
</linearGradient>
<linearGradient id="paint2_linear_187_5" x1="116" y1="277.5" x2="271" y2="293" gradientUnits="userSpaceOnUse">
<stop stop-color="#FCE7B2"/>
<stop offset="1" stop-color="#FDD08C"/>
</linearGradient>
<linearGradient id="paint3_linear_187_5" x1="145" y1="283.5" x2="249" y2="290" gradientUnits="userSpaceOnUse">
<stop stop-color="#D7945D"/>
<stop offset="1" stop-color="#C0794F"/>
</linearGradient>
<linearGradient id="paint4_linear_187_5" x1="137" y1="281.5" x2="237" y2="293.5" gradientUnits="userSpaceOnUse">
<stop stop-color="#FCDE9E"/>
<stop offset="1" stop-color="#D0895F"/>
</linearGradient>
</defs>
</svg>
