<svg width="261" height="33" viewBox="0 0 261 33" fill="none" xmlns="http://www.w3.org/2000/svg">
<path d="M130.041 20.5588C132.158 20.5588 133.873 18.842 133.873 16.7255C133.873 14.6089 132.158 12.8935 130.041 12.8935C127.925 12.8935 126.208 14.609 126.208 16.7255C126.208 18.842 127.925 20.5588 130.041 20.5588Z" fill="white" stroke="white" stroke-width="0.133333"/>
<path d="M257.996 16.4601H137.15Z" fill="white"/>
<path d="M257.996 16.4601H137.15" stroke="white" stroke-width="1.6" stroke-miterlimit="10" stroke-linecap="round" stroke-linejoin="round"/>
<path d="M146.527 27.5759L146.527 27.5759C146.351 27.011 146.344 26.5126 146.465 26.0844C146.587 25.6562 146.837 25.3026 147.17 25.0252C147.834 24.4718 148.83 24.2207 149.815 24.2759C150.801 24.3311 151.79 24.6933 152.439 25.3823C153.091 26.0746 153.392 27.0884 153.015 28.4249L153.015 28.4249C152.441 30.4523 150.924 31.5314 149.191 31.8307C147.461 32.1294 145.513 31.6522 144.061 30.5696L144.061 30.5696C142.419 29.3437 141.599 27.9261 141.394 26.4742C141.189 25.0238 141.599 23.5479 142.399 22.2053C143.999 19.5226 147.168 17.3535 150.176 16.9567L150.176 16.9567C150.45 16.9208 150.593 16.6856 150.593 16.46C150.594 16.348 150.559 16.246 150.494 16.1778C150.431 16.1117 150.334 16.0704 150.194 16.0889C145.368 16.725 140.738 20.1438 140.573 25.3889C140.499 27.7449 141.749 29.9229 143.593 31.3227C145.436 32.7224 147.865 33.338 150.141 32.5795C151.953 31.9755 153.375 30.2848 153.831 28.4985C154.059 27.6064 154.045 26.6943 153.722 25.8843C153.4 25.0753 152.767 24.3631 151.748 23.8722C150.253 23.1524 148.445 23.2131 147.159 23.9158C146.517 24.2667 146.007 24.7763 145.729 25.4267C145.451 26.0764 145.401 26.8726 145.69 27.8017C145.772 28.0657 146.019 28.1448 146.234 28.086C146.342 28.0566 146.436 27.9937 146.492 27.9078C146.547 27.8236 146.569 27.7122 146.527 27.5759Z" fill="white" stroke="white" stroke-width="0.133333"/>
<path d="M146.023 5.39796L146.023 5.39799C145.848 5.96291 145.84 6.46125 145.962 6.88943C146.083 7.31767 146.333 7.67131 146.666 7.94869C147.331 8.50212 148.326 8.75314 149.312 8.69799C150.298 8.64281 151.286 8.28054 151.935 7.59159C152.588 6.89927 152.889 5.88545 152.511 4.54898L152.511 4.54895C151.938 2.52153 150.421 1.44246 148.688 1.14322C146.958 0.844514 145.009 1.32171 143.558 2.40431L143.558 2.40432C141.915 3.63022 141.095 5.04774 140.89 6.49964C140.686 7.95008 141.096 9.42601 141.896 10.7686C143.495 13.4513 146.664 15.6203 149.673 16.0172L149.673 16.0172C149.947 16.0531 150.089 16.2883 150.09 16.5139C150.091 16.6259 150.055 16.7278 149.991 16.796C149.928 16.8622 149.831 16.9035 149.691 16.885C144.864 16.2489 140.235 12.83 140.07 7.58498C139.996 5.22902 141.246 3.05094 143.089 1.65118C144.933 0.251526 147.361 -0.364097 149.638 0.394331C151.45 0.998386 152.872 2.68907 153.328 4.47542C153.556 5.36749 153.542 6.27959 153.219 7.08959C152.897 7.89853 152.264 8.61073 151.245 9.10169C149.749 9.82144 147.942 9.76083 146.656 9.05809C146.014 8.70721 145.504 8.19754 145.226 7.54721C144.948 6.89743 144.898 6.10129 145.187 5.17222C145.269 4.90821 145.515 4.82904 145.731 4.8879C145.839 4.91725 145.932 4.98014 145.989 5.06608C146.044 5.15033 146.066 5.26164 146.023 5.39796Z" fill="white" stroke="white" stroke-width="0.133333"/>
<path d="M158.946 22.7115L158.88 22.7095L158.946 22.7115C158.895 24.4095 159.797 25.9789 161.127 26.986C162.457 27.9929 164.208 28.432 165.848 27.8796C167.169 27.4343 168.195 26.2018 168.518 24.9002C168.679 24.2505 168.665 23.5873 168.428 22.9988C168.191 22.4112 167.731 21.8931 166.992 21.5348C165.893 21.0019 164.565 21.054 163.622 21.5776C163.151 21.8389 162.778 22.2164 162.574 22.6951C162.371 23.1732 162.334 23.758 162.546 24.439L162.546 24.4391C162.628 24.7029 162.874 24.7819 163.09 24.7228C163.198 24.6934 163.291 24.6304 163.348 24.5445C163.403 24.4603 163.425 24.3492 163.383 24.2133L163.383 24.2133C163.268 23.8429 163.263 23.5149 163.345 23.2324C163.427 22.9499 163.594 22.7173 163.816 22.5359C164.259 22.1743 164.919 22.014 165.57 22.0543C166.221 22.0945 166.876 22.3362 167.307 22.7944C167.741 23.256 167.94 23.929 167.691 24.8102L167.691 24.8103C167.3 26.1919 166.265 26.9193 165.086 27.1159C163.909 27.312 162.587 26.9814 161.604 26.2496L161.604 26.2496C160.477 25.4097 159.915 24.4367 159.778 23.4385C159.641 22.4418 159.928 21.4288 160.481 20.5089C161.586 18.6716 163.764 17.1862 165.819 16.9154L165.819 16.9154C166.093 16.8794 166.235 16.6443 166.236 16.4187C166.237 16.3066 166.201 16.2047 166.137 16.1365C166.074 16.0704 165.977 16.029 165.837 16.0476C162.373 16.505 159.06 18.9518 158.946 22.7115Z" fill="white" stroke="white" stroke-width="0.133333"/>
<path d="M165.819 16.0036L165.819 16.0036C163.764 15.7327 161.586 14.2474 160.481 12.4102C159.928 11.4904 159.641 10.4775 159.778 9.481C159.915 8.48297 160.477 7.51027 161.604 6.67068C162.587 5.93822 163.909 5.60761 165.086 5.80387C166.265 6.00066 167.3 6.72836 167.691 8.10999L167.691 8.11001C167.94 8.99125 167.741 9.66428 167.306 10.1258C166.876 10.584 166.221 10.8258 165.57 10.866C164.919 10.9062 164.259 10.746 163.816 10.3844C163.594 10.2029 163.427 9.9704 163.345 9.68784C163.263 9.40534 163.268 9.0774 163.383 8.70709C163.425 8.57115 163.402 8.45988 163.347 8.37549C163.291 8.2894 163.197 8.22632 163.09 8.19674C162.874 8.13743 162.628 8.21601 162.546 8.47992L162.483 8.46025L162.546 8.47993C162.34 9.14282 162.368 9.7131 162.554 10.1821C162.741 10.6516 163.09 11.0252 163.536 11.2903C164.429 11.8217 165.704 11.9132 166.808 11.4663C167.605 11.1434 168.109 10.6405 168.377 10.056C168.647 9.47045 168.683 8.79731 168.534 8.13136C168.235 6.79712 167.197 5.50811 165.847 5.04046L165.868 4.98012L165.847 5.04046C164.271 4.49427 162.565 4.89491 161.243 5.84511C159.92 6.79545 158.989 8.28965 158.954 9.91887L158.954 9.9189C158.871 13.8042 162.279 16.4019 165.836 16.8714L165.836 16.8714C165.977 16.8899 166.073 16.8486 166.136 16.7824C166.201 16.7142 166.236 16.6123 166.236 16.5002C166.235 16.2746 166.093 16.0395 165.819 16.0036ZM165.828 16.9357V16.9357V16.9357Z" fill="white" stroke="white" stroke-width="0.133333"/>
<path d="M181.317 24.1211L181.317 24.1211C182.243 23.8033 182.95 22.9395 183.167 22.0284C183.274 21.5739 183.259 21.111 183.091 20.7005C182.924 20.291 182.602 19.929 182.089 19.6773L182.089 19.6773C181.309 19.2949 180.368 19.3399 179.7 19.7194C179.367 19.9087 179.103 20.18 178.96 20.5209C178.816 20.8611 178.79 21.2761 178.939 21.7576C179.021 22.0209 179.268 22.0999 179.484 22.041C179.591 22.0116 179.685 21.9488 179.741 21.863C179.796 21.7789 179.818 21.6679 179.776 21.532L179.776 21.5319C179.71 21.3199 179.708 21.13 179.759 20.9652C179.809 20.8004 179.91 20.6654 180.042 20.5608C180.304 20.3529 180.691 20.2631 181.07 20.2888C181.45 20.3145 181.835 20.4568 182.091 20.7286C182.35 21.0036 182.47 21.4031 182.332 21.9226L182.332 21.9226C182.1 22.7926 181.448 23.2345 180.709 23.3456C179.974 23.4561 179.149 23.2406 178.552 22.7963C177.84 22.2673 177.486 21.6524 177.403 21.0194C177.321 20.388 177.509 19.7478 177.863 19.1684C178.57 18.0118 179.951 17.0769 181.238 16.9074C181.511 16.8715 181.653 16.6363 181.654 16.4107C181.655 16.2986 181.62 16.1967 181.555 16.1285C181.493 16.0624 181.396 16.021 181.255 16.0396C178.889 16.3517 176.634 18.0172 176.561 20.5807C176.528 21.75 177.151 22.8298 178.068 23.5207C178.985 24.2115 180.19 24.5079 181.317 24.1211Z" fill="white" stroke="white" stroke-width="0.133333"/>
<path d="M181.238 16.0102L181.238 16.0102C179.951 15.8407 178.57 14.9058 177.863 13.7492C177.509 13.1698 177.321 12.5296 177.403 11.8982C177.486 11.2652 177.84 10.6503 178.552 10.1213C179.149 9.67704 179.974 9.46148 180.709 9.57187C181.448 9.68277 182.1 10.1243 182.332 10.9936L182.332 10.9937C182.47 11.5134 182.35 11.9132 182.091 12.1883C181.835 12.4601 181.45 12.6024 181.07 12.6281C180.691 12.6538 180.304 12.564 180.042 12.3562C179.91 12.2517 179.809 12.1167 179.759 11.952C179.708 11.7873 179.71 11.5975 179.776 11.3857L179.776 11.3856C179.819 11.2497 179.796 11.1386 179.741 11.0544C179.685 10.9685 179.591 10.9055 179.484 10.8761C179.268 10.8171 179.022 10.896 178.939 11.1599L178.939 11.1599C178.793 11.6297 178.814 12.035 178.947 12.3691C179.079 12.7035 179.327 12.9719 179.644 13.1634C180.279 13.5474 181.187 13.6183 181.97 13.2932C182.521 13.0644 182.871 12.712 183.059 12.3044C183.248 11.8958 183.277 11.4263 183.177 10.9611C182.977 10.0284 182.262 9.12791 181.316 8.79638L181.316 8.79636C180.233 8.41562 179.056 8.68635 178.143 9.3392C177.229 9.99217 176.587 11.0216 176.566 12.1467C176.518 14.7936 178.821 16.5566 181.255 16.878C181.395 16.8966 181.492 16.8553 181.555 16.7891C181.62 16.7209 181.655 16.6189 181.654 16.5069C181.654 16.2812 181.511 16.0462 181.238 16.0102Z" fill="white" stroke="white" stroke-width="0.133333"/>
<path d="M2 16.4601H122.845Z" fill="white"/>
<path d="M2 16.4601H122.845" stroke="white" stroke-width="1.6" stroke-miterlimit="10" stroke-linecap="round" stroke-linejoin="round"/>
<path d="M113.469 27.5759L113.469 27.5759C113.644 27.011 113.652 26.5126 113.531 26.0844C113.409 25.6562 113.159 25.3026 112.826 25.0252C112.162 24.4718 111.166 24.2207 110.181 24.2759C109.195 24.3311 108.206 24.6933 107.557 25.3823C106.905 26.0746 106.604 27.0884 106.981 28.4249L106.981 28.4249C107.554 30.4523 109.071 31.5314 110.805 31.8307C112.535 32.1294 114.483 31.6522 115.934 30.5696L115.935 30.5696C117.577 29.3437 118.397 27.9261 118.602 26.4742C118.807 25.0238 118.397 23.5479 117.596 22.2053C115.997 19.5226 112.828 17.3535 109.819 16.9567L109.819 16.9567C109.546 16.9208 109.403 16.6856 109.402 16.46C109.402 16.348 109.437 16.246 109.502 16.1778C109.564 16.1117 109.661 16.0704 109.802 16.0889C114.628 16.725 119.257 20.1438 119.423 25.3889C119.497 27.7449 118.246 29.9229 116.403 31.3227C114.56 32.7224 112.131 33.338 109.854 32.5795C108.043 31.9755 106.621 30.2848 106.165 28.4985C105.937 27.6064 105.951 26.6943 106.273 25.8843C106.596 25.0753 107.228 24.3631 108.248 23.8722C109.743 23.1524 111.551 23.2131 112.836 23.9158C113.478 24.2667 113.988 24.7763 114.267 25.4267C114.545 26.0764 114.594 26.8726 114.306 27.8017C114.224 28.0657 113.977 28.1448 113.761 28.086C113.654 28.0566 113.56 27.9937 113.504 27.9078C113.449 27.8236 113.427 27.7122 113.469 27.5759Z" fill="white" stroke="white" stroke-width="0.133333"/>
<path d="M113.972 5.39796L113.972 5.39799C114.148 5.96291 114.155 6.46125 114.034 6.88943C113.912 7.31767 113.662 7.67131 113.33 7.94869C112.665 8.50212 111.67 8.75314 110.684 8.69799C109.698 8.64281 108.709 8.28054 108.06 7.59159C107.408 6.89927 107.107 5.88545 107.484 4.54898L107.484 4.54895C108.058 2.52153 109.575 1.44246 111.308 1.14322C113.038 0.844514 114.986 1.32171 116.438 2.40431L116.438 2.40432C118.08 3.63022 118.9 5.04774 119.105 6.49964C119.31 7.95008 118.9 9.42601 118.1 10.7686C116.5 13.4513 113.331 15.6203 110.323 16.0172L110.323 16.0172C110.049 16.0531 109.906 16.2883 109.906 16.5139C109.905 16.6259 109.94 16.7278 110.005 16.796C110.068 16.8622 110.165 16.9035 110.305 16.885C115.131 16.2489 119.761 12.83 119.926 7.58498C120 5.22902 118.75 3.05094 116.906 1.65118C115.063 0.251526 112.634 -0.364097 110.358 0.394331C108.546 0.998386 107.124 2.68907 106.668 4.47542C106.44 5.36749 106.454 6.27959 106.777 7.08959C107.099 7.89853 107.732 8.61073 108.751 9.10169C110.246 9.82144 112.054 9.76083 113.34 9.05809C113.982 8.70721 114.492 8.19754 114.77 7.54721C115.048 6.89743 115.098 6.10129 114.809 5.17222C114.727 4.90821 114.48 4.82904 114.265 4.8879C114.157 4.91725 114.063 4.98014 114.007 5.06608C113.952 5.15033 113.93 5.26164 113.972 5.39796Z" fill="white" stroke="white" stroke-width="0.133333"/>
<path d="M101.049 22.7115L101.116 22.7095L101.049 22.7115C101.101 24.4095 100.199 25.9789 98.8685 26.986C97.5385 27.9929 95.7878 28.432 94.1479 27.8796C92.8271 27.4343 91.8011 26.2018 91.4778 24.9002C91.3164 24.2505 91.3311 23.5873 91.5681 22.9988C91.8047 22.4112 92.2649 21.8931 93.0037 21.5348C94.1028 21.0019 95.4305 21.054 96.3741 21.5776C96.845 21.8389 97.2181 22.2164 97.4217 22.6951C97.625 23.1732 97.6616 23.758 97.4496 24.439L97.4496 24.4391C97.3681 24.7029 97.1218 24.7819 96.9059 24.7228C96.7982 24.6934 96.7043 24.6304 96.648 24.5445C96.5929 24.4603 96.5706 24.3492 96.6129 24.2133L96.6129 24.2133C96.7281 23.8429 96.733 23.5149 96.651 23.2324C96.569 22.9499 96.4015 22.7173 96.1795 22.5359C95.737 22.1743 95.077 22.014 94.4262 22.0543C93.7749 22.0945 93.1201 22.3362 92.6892 22.7944C92.2551 23.256 92.0561 23.929 92.3051 24.8102L92.3051 24.8103C92.6958 26.1919 93.7306 26.9193 94.9101 27.1159C96.0865 27.312 97.409 26.9814 98.3917 26.2496L98.3918 26.2496C99.5187 25.4097 100.08 24.4367 100.218 23.4385C100.355 22.4418 100.068 21.4288 99.5146 20.5089C98.4096 18.6716 96.2314 17.1862 94.1766 16.9154L94.1766 16.9154C93.903 16.8794 93.7605 16.6443 93.7596 16.4187C93.7591 16.3066 93.7943 16.2047 93.8589 16.1365C93.9217 16.0704 94.0186 16.029 94.1592 16.0476C97.6226 16.505 100.936 18.9518 101.049 22.7115Z" fill="white" stroke="white" stroke-width="0.133333"/>
<path d="M94.1767 16.0036L94.1767 16.0036C96.2315 15.7327 98.4097 14.2474 99.5146 12.4102C100.068 11.4904 100.355 10.4775 100.218 9.481C100.08 8.48297 99.5188 7.51027 98.3918 6.67068C97.4091 5.93822 96.0866 5.60761 94.9102 5.80387C93.7307 6.00066 92.6958 6.72836 92.3052 8.10999L92.3052 8.11001C92.0562 8.99125 92.2552 9.66428 92.6893 10.1258C93.1202 10.584 93.7749 10.8258 94.4262 10.866C95.0771 10.9062 95.737 10.746 96.1795 10.3844C96.4016 10.2029 96.5691 9.9704 96.6511 9.68784C96.7331 9.40534 96.7282 9.0774 96.613 8.70709C96.5709 8.57115 96.5933 8.45988 96.6485 8.37549C96.7048 8.2894 96.7986 8.22632 96.906 8.19674C97.1215 8.13743 97.3676 8.21601 97.4497 8.47992L97.513 8.46025L97.4497 8.47993C97.6558 9.14282 97.6282 9.7131 97.4414 10.1821C97.2543 10.6516 96.9055 11.0252 96.4599 11.2903C95.5669 11.8217 94.2913 11.9132 93.1877 11.4663C92.3905 11.1434 91.887 10.6405 91.6183 10.056C91.3491 9.47045 91.3131 8.79731 91.4622 8.13136C91.7609 6.79712 92.7986 5.50811 94.1485 5.04046L94.1276 4.98012L94.1485 5.04046C95.7247 4.49427 97.4303 4.89491 98.7529 5.84511C100.076 6.79545 101.007 8.28965 101.041 9.91887L101.041 9.9189C101.124 13.8042 97.7172 16.4019 94.1593 16.8714L94.1593 16.8714C94.0191 16.8899 93.9223 16.8486 93.8596 16.7824C93.7949 16.7142 93.7598 16.6123 93.7602 16.5002C93.7609 16.2746 93.9032 16.0395 94.1767 16.0036ZM94.1678 16.9357V16.9357V16.9357Z" fill="white" stroke="white" stroke-width="0.133333"/>
<path d="M78.679 24.1211L78.679 24.1211C77.7528 23.8033 77.0455 22.9395 76.8292 22.0284C76.7213 21.5739 76.7365 21.111 76.9044 20.7005C77.0719 20.291 77.3934 19.929 77.9067 19.6773L77.9067 19.6773C78.6866 19.2949 79.6276 19.3399 80.2957 19.7194C80.6289 19.9087 80.8923 20.18 81.036 20.5209C81.1795 20.8611 81.2059 21.2761 81.0563 21.7576C80.9743 22.0209 80.7278 22.0999 80.512 22.041C80.4045 22.0116 80.3107 21.9488 80.2546 21.863C80.1995 21.7789 80.1773 21.6679 80.2196 21.532L80.2197 21.5319C80.2855 21.3199 80.2874 21.13 80.2372 20.9652C80.187 20.8004 80.0861 20.6654 79.9541 20.5608C79.6918 20.3529 79.3049 20.2631 78.9255 20.2888C78.5456 20.3145 78.161 20.4568 77.9047 20.7286C77.6455 21.0036 77.5253 21.4031 77.6636 21.9226L77.6636 21.9226C77.8955 22.7926 78.5478 23.2345 79.2866 23.3456C80.0219 23.4561 80.8466 23.2406 81.4438 22.7963C82.1559 22.2673 82.5096 21.6524 82.5924 21.0194C82.675 20.388 82.4868 19.7478 82.1325 19.1684C81.4255 18.0118 80.0448 17.0769 78.758 16.9074C78.4852 16.8715 78.3425 16.6363 78.3415 16.4107C78.341 16.2986 78.376 16.1967 78.4405 16.1285C78.5032 16.0624 78.6 16.021 78.7406 16.0396C81.1067 16.3517 83.3613 18.0172 83.4347 20.5807C83.4673 21.75 82.8451 22.8298 81.9277 23.5207C81.0104 24.2115 79.8056 24.5079 78.679 24.1211Z" fill="white" stroke="white" stroke-width="0.133333"/>
<path d="M78.758 16.0102L78.758 16.0102C80.0447 15.8407 81.4254 14.9058 82.1325 13.7492C82.4867 13.1698 82.6749 12.5296 82.5924 11.8982C82.5096 11.2652 82.1558 10.6503 81.4437 10.1213C80.8466 9.67704 80.0218 9.46148 79.2865 9.57187C78.5478 9.68277 77.8955 10.1243 77.6635 10.9936L77.6635 10.9937C77.5252 11.5134 77.6454 11.9132 77.9047 12.1883C78.1609 12.4601 78.5456 12.6024 78.9254 12.6281C79.3048 12.6538 79.6918 12.564 79.9541 12.3562C80.086 12.2517 80.1869 12.1167 80.2371 11.952C80.2873 11.7873 80.2854 11.5975 80.2196 11.3857L80.2196 11.3856C80.1772 11.2497 80.1995 11.1386 80.2545 11.0544C80.3107 10.9685 80.4045 10.9055 80.512 10.8761C80.7277 10.8171 80.9742 10.896 81.0563 11.1599L81.0563 11.1599C81.2024 11.6297 81.1819 12.035 81.0492 12.3691C80.9163 12.7035 80.6688 12.9719 80.3519 13.1634C79.7167 13.5474 78.8092 13.6183 78.0255 13.2932C77.4746 13.0644 77.1252 12.712 76.9369 12.3044C76.7482 11.8958 76.719 11.4263 76.8188 10.9611C77.0188 10.0284 77.7335 9.12791 78.6793 8.79638L78.6794 8.79636C79.7629 8.41562 80.9395 8.68635 81.8528 9.3392C82.7664 9.99217 83.4084 11.0216 83.4293 12.1467C83.4778 14.7936 81.1743 16.5566 78.7405 16.878C78.6003 16.8966 78.5036 16.8553 78.4409 16.7891C78.3762 16.7209 78.3411 16.6189 78.3414 16.5069C78.3422 16.2812 78.4844 16.0462 78.758 16.0102Z" fill="white" stroke="white" stroke-width="0.133333"/>
<path d="M257.996 18.9855C259.403 18.9855 260.544 17.8447 260.544 16.4375C260.544 15.0303 259.403 13.8895 257.996 13.8895C256.589 13.8895 255.448 15.0303 255.448 16.4375C255.448 17.8447 256.589 18.9855 257.996 18.9855Z" fill="white" stroke="white" stroke-width="0.133333"/>
<path d="M2.61507 19.3375C4.02251 19.3375 5.16294 18.1967 5.16294 16.7895C5.16294 15.3809 4.02248 14.2401 2.61507 14.2401C1.20763 14.2401 0.0666667 15.3809 0.0666667 16.7895C0.0666667 18.1966 1.20761 19.3375 2.61507 19.3375Z" fill="white" stroke="white" stroke-width="0.133333"/>
</svg>
