<svg width="393" height="852" viewBox="0 0 393 852" fill="none" xmlns="http://www.w3.org/2000/svg">
<rect y="227" width="393" height="623" fill="#FDF6E3"/>
<g filter="url(#filter0_d_198_4)">
<path fill-rule="evenodd" clip-rule="evenodd" d="M-111 368.42C-111 326.983 -86.1751 289.709 -46.6197 263.844C-46.1869 265.741 -45.3881 267.615 -44.2401 269.46C-46.1303 270.712 -47.9843 271.991 -49.8011 273.295C-84.3312 298.083 -105 331.795 -105 368.42C-105 395.975 -93.3003 421.882 -72.8 443.579C-75.2338 443.871 -77.6559 444.188 -80.0656 444.53C-99.6481 422.557 -111 396.44 -111 368.42ZM155.952 500.664C230.22 480.409 283 428.839 283 368.42C283 350.433 278.322 333.23 269.792 317.405C267.605 317.567 265.404 317.723 263.19 317.871C272.138 333.578 277 350.656 277 368.42C277 405.045 256.331 438.756 221.801 463.544C201.822 477.887 177.33 489.125 149.911 496.048C151.961 497.561 153.975 499.1 155.952 500.664ZM143.723 491.634C215.383 474.333 267 425.704 267 368.42C267 350.727 262.076 333.859 253.158 318.486C250.909 318.612 248.649 318.73 246.377 318.84C255.833 334.125 261 350.914 261 368.42C261 401.881 242.121 432.729 210.487 455.444C190.317 469.926 165.117 480.96 136.83 487.054C139.166 488.55 141.465 490.077 143.723 491.634ZM128.752 482.096C198.62 468.498 250 422.755 250 368.42C250 350.897 244.657 334.269 235.073 319.323C232.733 319.409 230.382 319.488 228.021 319.558C238.328 334.441 244 351.049 244 368.42C244 398.513 226.976 426.317 198.326 446.832C177.475 461.762 150.671 472.644 120.533 477.459C123.318 478.965 126.058 480.511 128.752 482.096ZM-34.7756 441.119C-37.7675 441.15 -40.7468 441.219 -43.7127 441.325C-65.8118 421.271 -79 395.948 -79 368.42C-79 334.978 -59.5377 304.792 -28.2811 283.351C-26.4159 284.439 -24.4216 285.511 -22.3027 286.565C-24.013 287.687 -25.6879 288.835 -27.3259 290.008C-55.9759 310.523 -73 338.327 -73 368.42C-73 395.804 -58.9026 421.293 -34.7756 441.119ZM110.954 472.527C180.254 464.041 233 420.82 233 368.778C233 351.11 226.921 334.459 216.179 319.839C213.693 319.883 211.197 319.918 208.692 319.944C220.453 334.518 227 351.222 227 368.778C227 395.41 211.935 420.082 186.452 438.329C164.073 454.353 133.958 465.151 100.2 467.538C103.846 469.137 107.432 470.801 110.954 472.527ZM-9.42915 441.753C-13.1335 441.527 -16.8605 441.359 -20.6086 441.25C-45.6405 422.376 -61 396.861 -61 368.778C-61 337.882 -42.4099 310.095 -12.8023 290.839C-10.5679 291.752 -8.23565 292.65 -5.80904 293.532C-8.80286 295.346 -11.6863 297.246 -14.4516 299.227C-39.9347 317.474 -55 342.145 -55 368.778C-55 395.41 -39.9347 420.082 -14.4516 438.329C-12.8181 439.499 -11.1434 440.64 -9.42915 441.753ZM84.3584 461.141C84.9048 461.146 85.452 461.148 86 461.148C157.245 461.148 215 419.793 215 368.778C215 350.87 207.884 334.153 195.565 319.997C192.817 319.991 190.079 319.973 187.353 319.945C201.186 334.042 209 350.924 209 368.778C209 391.851 195.949 413.3 173.724 429.215C151.509 445.122 120.513 455.148 86 455.148C76.892 455.148 68.0289 454.45 59.5075 453.13C68.022 455.484 76.3152 458.162 84.3584 461.141ZM35.1297 447.399C26.9597 445.807 18.6259 444.502 10.1504 443.502C-22.0625 426.708 -43 399.494 -43 368.778C-43 339.833 -24.4068 313.997 4.69401 297.06C7.30579 297.874 10.0027 298.67 12.7815 299.449C7.61661 302.15 2.76707 305.125 -1.72365 308.34C-23.9494 324.255 -37 345.704 -37 368.778C-37 391.851 -23.9494 413.3 -1.72365 429.215C8.78249 436.738 21.2525 442.946 35.1297 447.399ZM-54.8399 441.899C-57.4776 442.077 -60.1035 442.284 -62.717 442.52C-83.0695 421.5 -95 395.96 -95 368.42C-95 331.718 -73.8118 298.569 -39.7391 274.936C-38.3454 276.294 -36.7596 277.634 -34.9891 278.953C-36.1711 279.756 -37.3371 280.57 -38.4868 281.396C-70.1214 304.11 -89 334.958 -89 368.42C-89 395.631 -76.5158 421.113 -54.8399 441.899ZM-26 368.42C-26 340.896 -6.72191 316.596 22.6932 302.065C25.7899 302.835 28.9718 303.585 32.2354 304.314C24.2244 307.658 16.9029 311.712 10.4436 316.337C-8.79625 330.113 -20 348.609 -20 368.42C-20 388.231 -8.79625 406.726 10.4436 420.503C29.6728 434.272 56.5436 442.975 86.5 442.975C116.456 442.975 143.327 434.272 162.556 420.503C181.796 406.726 193 388.231 193 368.42C193 350.098 183.417 332.9 166.756 319.521C169.877 319.617 173.015 319.699 176.172 319.767C190.498 333.285 199 350.141 199 368.42C199 412.909 148.632 448.975 86.5 448.975C24.368 448.975 -26 412.909 -26 368.42ZM-11 368.778C-11 341.516 10.9344 317.923 42.8558 306.553C47.031 307.383 51.3212 308.181 55.7197 308.944C42.383 312.248 30.5176 317.659 20.9038 324.543C4.46886 336.311 -5 352.032 -5 368.778C-5 385.524 4.46886 401.245 20.9038 413.013C37.328 424.773 60.3238 432.235 86 432.235C111.676 432.235 134.672 424.773 151.096 413.013C167.531 401.245 177 385.524 177 368.778C177 352.032 167.531 336.311 151.096 324.543C148.011 322.333 144.694 320.276 141.17 318.391C145.304 318.63 149.479 318.843 153.691 319.029C171.772 331.646 183 349.273 183 368.778C183 407.138 139.572 438.235 86 438.235C32.4284 438.235 -11 407.138 -11 368.778ZM5 368.778C5 340.069 34.1301 316.232 72.3802 311.594C88.1775 313.89 105.128 315.766 122.971 317.158C149.115 326.778 167 346.282 167 368.778C167 400.81 130.735 426.778 86 426.778C41.2649 426.778 5 400.81 5 368.778ZM139.783 404.912C153.322 395.217 161 382.36 161 368.778C161 355.196 153.322 342.339 139.783 332.644C126.254 322.957 107.258 316.778 86 316.778C64.7421 316.778 45.7462 322.957 32.2175 332.644C18.678 342.339 11 355.196 11 368.778C11 382.36 18.678 395.217 32.2175 404.912C45.7462 414.599 64.7421 420.778 86 420.778C107.258 420.778 126.254 414.599 139.783 404.912ZM143 368.778C143 378.999 137.225 388.812 126.762 396.304C116.309 403.789 101.563 408.605 85 408.605C68.4365 408.605 53.6907 403.789 43.2383 396.304C32.7752 388.812 27 378.999 27 368.778C27 358.557 32.7752 348.743 43.2383 341.251C53.6907 333.767 68.4365 328.951 85 328.951C101.563 328.951 116.309 333.767 126.762 341.251C137.225 348.743 143 358.557 143 368.778ZM149 368.778C149 394.087 120.346 414.605 85 414.605C49.6538 414.605 21 394.087 21 368.778C21 343.468 49.6538 322.951 85 322.951C120.346 322.951 149 343.468 149 368.778ZM114.741 387.697C122.128 382.407 126 375.637 126 368.778C126 361.918 122.128 355.148 114.741 349.859C107.365 344.577 96.8691 341.123 85 341.123C73.1309 341.123 62.6351 344.577 55.2591 349.859C47.8724 355.148 44 361.918 44 368.778C44 375.637 47.8724 382.407 55.2591 387.697C62.6351 392.978 73.1309 396.432 85 396.432C96.8691 396.432 107.365 392.978 114.741 387.697ZM85 402.432C110.957 402.432 132 387.365 132 368.778C132 350.191 110.957 335.123 85 335.123C59.0426 335.123 38 350.191 38 368.778C38 387.365 59.0426 402.432 85 402.432ZM111 368.42C111 372.214 108.862 376.21 104.281 379.491C99.7097 382.764 93.0889 384.975 85.5 384.975C77.9111 384.975 71.2903 382.764 66.7193 379.491C62.1375 376.21 60 372.214 60 368.42C60 364.625 62.1375 360.63 66.7193 357.349C71.2903 354.076 77.9111 351.864 85.5 351.864C93.0889 351.864 99.7097 354.076 104.281 357.349C108.862 360.63 111 364.625 111 368.42ZM117 368.42C117 380.877 102.897 390.975 85.5 390.975C68.103 390.975 54 380.877 54 368.42C54 355.963 68.103 345.864 85.5 345.864C102.897 345.864 117 355.963 117 368.42ZM95 368.778C95 369.507 94.5974 370.728 92.8206 372.001C91.0545 373.265 88.3087 374.235 85 374.235C81.6913 374.235 78.9455 373.265 77.1794 372.001C75.4026 370.728 75 369.507 75 368.778C75 368.048 75.4026 366.827 77.1794 365.555C78.9455 364.29 81.6913 363.321 85 363.321C88.3087 363.321 91.0545 364.29 92.8206 365.555C94.5974 366.827 95 368.048 95 368.778ZM101 368.778C101 375.105 93.8365 380.235 85 380.235C76.1634 380.235 69 375.105 69 368.778C69 362.45 76.1634 357.321 85 357.321C93.8365 357.321 101 362.45 101 368.778Z" fill="#EDCFA6"/>
</g>
<g filter="url(#filter1_d_198_4)">
<path fill-rule="evenodd" clip-rule="evenodd" d="M213.142 476.448C211.411 477.498 209.655 478.528 207.874 479.536C224.513 524.597 281.839 557.815 350 557.815C431.186 557.815 497 510.689 497 452.556C497 394.422 431.186 347.296 350 347.296C325.694 347.296 302.766 351.52 282.57 358.999C282.76 361.076 282.888 363.166 282.952 365.266C302.844 357.653 325.665 353.296 350 353.296C389.483 353.296 424.979 364.765 450.452 383.004C475.935 401.252 491 425.923 491 452.556C491 479.188 475.935 503.86 450.452 522.107C424.979 540.346 389.483 551.815 350 551.815C310.517 551.815 275.021 540.346 249.548 522.107C231.905 509.473 219.255 493.759 213.142 476.448ZM197.899 484.826C196.114 485.712 194.308 486.577 192.481 487.422C208.532 524.143 249.013 553.132 300.295 564.628C305.844 563.501 311.469 562.506 317.165 561.651C285.928 557.066 258.145 545.984 236.674 530.609C218.769 517.789 205.405 502.121 197.899 484.826ZM396.802 558.905C402.513 559.355 408.166 559.943 413.756 560.663C472.677 542.743 514 500.926 514 452.198C514 387.144 440.351 334.407 349.5 334.407C324.811 334.407 301.392 338.302 280.376 345.28C280.826 347.244 281.22 349.222 281.556 351.212C302.108 344.299 325.132 340.407 349.5 340.407C393.816 340.407 433.687 353.279 462.326 373.786C490.976 394.3 508 422.105 508 452.198C508 482.29 490.976 510.095 462.326 530.609C444.35 543.481 421.949 553.344 396.802 558.905ZM286.547 567.731C263.371 561.319 242.63 551.512 225.513 539.221C206.683 525.701 192.373 509.299 183.873 491.179C182.028 491.939 180.165 492.678 178.283 493.395C194.305 527.84 229.866 555.864 275.521 570.683C279.156 569.639 282.832 568.655 286.547 567.731ZM439.804 565.061C436.121 564.288 432.403 563.574 428.653 562.92C445.743 556.799 461.205 548.758 474.487 539.221C506.121 516.507 525 485.659 525 452.198C525 418.736 506.121 387.888 474.487 365.174C442.862 342.466 398.868 328.235 350 328.235C324.57 328.235 300.46 332.088 278.727 338.985C278.162 337.068 277.542 335.166 276.87 333.279C299.233 326.178 323.975 322.235 350 322.235C449.964 322.235 531 380.421 531 452.198C531 500.508 494.288 542.662 439.804 565.061ZM265.662 573.691C246.443 566.954 229.071 557.998 214.199 547.322C194.234 532.99 178.903 515.675 169.521 496.538C167.615 497.179 165.692 497.799 163.752 498.398C167.199 505.559 171.424 512.459 176.355 519.046C181.232 524.07 185.767 529.28 189.936 534.657C207.376 552.072 230.195 566.524 256.647 576.762C259.619 575.697 262.625 574.673 265.662 573.691ZM459.411 569.819C456.381 568.982 453.323 568.186 450.238 567.431C463.215 561.733 475.149 554.969 485.801 547.322C520.331 522.534 541 488.822 541 452.198C541 415.573 520.331 381.861 485.801 357.073C451.281 332.292 403.287 316.778 350 316.778C323.226 316.778 297.789 320.694 274.726 327.735C273.951 325.88 273.124 324.041 272.248 322.219C296.101 314.856 322.387 310.778 350 310.778C458.8 310.778 547 374.094 547 452.198C547 501.24 512.225 544.452 459.411 569.819ZM245.991 580.811C231.444 574.863 218.01 567.711 205.954 559.559C207.706 562.928 209.323 566.344 210.801 569.803C219.397 575.049 228.576 579.819 238.257 584.054C240.806 582.941 243.385 581.86 245.991 580.811ZM478.691 575.822C476.072 574.911 473.429 574.032 470.761 573.186C480.7 568.174 489.991 562.564 498.529 556.436C536.317 529.315 559 492.381 559 452.198C559 412.014 536.317 375.08 498.529 347.959C463.839 323.061 416.739 306.728 364.162 304.225C370.613 302.778 376.743 301.249 382.523 299.643C485.832 310.894 565 374.91 565 452.198C565 502.781 531.088 547.68 478.691 575.822ZM227.441 589.05C223.47 587.217 219.584 585.299 215.788 583.299C216.603 585.904 217.341 588.53 218 591.175C218.881 591.614 219.766 592.049 220.656 592.479C222.89 591.31 225.152 590.167 227.441 589.05ZM497.162 582.942C494.845 581.958 492.504 580.999 490.14 580.067C497.562 575.882 504.608 571.374 511.238 566.576C552.279 536.873 577 496.358 577 452.198C577 408.037 552.279 367.522 511.238 337.819C481.651 316.406 443.769 300.786 401.238 293.738C404.993 292.387 408.526 290.996 411.823 289.568C510.5 309.172 583 374.557 583 452.198C583 504.936 549.548 552.021 497.162 582.942ZM514.744 591.137C512.643 590.066 510.518 589.018 508.371 587.993C514.286 584.451 519.964 580.716 525.387 576.803C570.048 544.57 597 500.564 597 452.556C597 404.547 570.048 360.541 525.387 328.308C497.336 308.064 462.444 292.598 423.335 283.895C425.936 282.419 428.299 280.913 430.411 279.379C530.719 303.628 603 372 603 452.556C603 507.987 568.775 557.65 514.744 591.137ZM282.291 380.506C282.558 378.24 282.751 375.959 282.867 373.663C302.424 365.112 325.408 360.185 350 360.185C421.245 360.185 479 401.541 479 452.556C479 503.57 421.245 544.926 350 544.926C287.016 544.926 234.575 512.605 223.26 469.862C225.043 468.619 226.793 467.351 228.51 466.061C232.537 483.919 244.458 500.234 262.276 512.993C284.491 528.9 315.487 538.926 350 538.926C384.513 538.926 415.509 528.9 437.724 512.993C459.949 497.078 473 475.629 473 452.556C473 429.482 459.949 408.033 437.724 392.118C415.509 376.211 384.513 366.185 350 366.185C324.894 366.185 301.648 371.491 282.291 380.506ZM238.3 458.127C242.539 499.848 291.153 532.753 350.5 532.753C412.632 532.753 463 496.687 463 452.198C463 407.708 412.632 371.642 350.5 371.642C324.247 371.642 300.095 378.081 280.955 388.874C280.398 391.631 279.731 394.362 278.956 397.066C297.773 385.073 322.819 377.642 350.5 377.642C380.456 377.642 407.327 386.345 426.556 400.114C445.796 413.891 457 432.387 457 452.198C457 472.008 445.796 490.504 426.556 504.281C407.327 518.05 380.456 526.753 350.5 526.753C320.544 526.753 293.673 518.05 274.444 504.281C255.43 490.666 244.265 472.444 244.005 452.897C242.159 454.673 240.257 456.417 238.3 458.127ZM254.062 442.242C253.362 445.607 253 449.051 253 452.556C253 490.915 296.428 522.012 350 522.012C403.572 522.012 447 490.915 447 452.556C447 414.196 403.572 383.099 350 383.099C319.758 383.099 292.749 393.008 274.96 408.54C270.035 420.512 262.962 431.823 254.062 442.242ZM415.096 496.791C431.531 485.022 441 469.301 441 452.556C441 435.81 431.531 420.089 415.096 408.321C398.672 396.56 375.676 389.099 350 389.099C324.324 389.099 301.328 396.56 284.904 408.321C268.469 420.089 259 435.81 259 452.556C259 469.301 268.469 485.022 284.904 496.791C301.328 508.551 324.324 516.012 350 516.012C375.676 516.012 398.672 508.551 415.096 496.791ZM425 452.556C425 466.138 417.322 478.994 403.783 488.689C390.254 498.377 371.258 504.556 350 504.556C328.742 504.556 309.746 498.377 296.217 488.689C282.678 478.994 275 466.138 275 452.556C275 438.973 282.678 426.117 296.217 416.422C309.746 406.734 328.742 400.556 350 400.556C371.258 400.556 390.254 406.734 403.783 416.422C417.322 426.117 425 438.973 425 452.556ZM431 452.556C431 484.588 394.735 510.556 350 510.556C305.265 510.556 269 484.588 269 452.556C269 420.523 305.265 394.556 350 394.556C394.735 394.556 431 420.523 431 452.556ZM390.762 480.082C401.225 472.59 407 462.776 407 452.556C407 442.335 401.225 432.521 390.762 425.029C380.309 417.545 365.563 412.728 349 412.728C332.436 412.728 317.691 417.545 307.238 425.029C296.775 432.521 291 442.335 291 452.556C291 462.776 296.775 472.59 307.238 480.082C317.691 487.566 332.436 492.383 349 492.383C365.563 492.383 380.309 487.566 390.762 480.082ZM349 498.383C384.346 498.383 413 477.865 413 452.556C413 427.246 384.346 406.728 349 406.728C313.654 406.728 285 427.246 285 452.556C285 477.865 313.654 498.383 349 498.383ZM390 452.556C390 459.415 386.128 466.185 378.741 471.474C371.365 476.756 360.869 480.21 349 480.21C337.131 480.21 326.635 476.756 319.259 471.474C311.872 466.185 308 459.415 308 452.556C308 445.696 311.872 438.926 319.259 433.637C326.635 428.355 337.131 424.901 349 424.901C360.869 424.901 371.365 428.355 378.741 433.637C386.128 438.926 390 445.696 390 452.556ZM396 452.556C396 471.142 374.957 486.21 349 486.21C323.043 486.21 302 471.142 302 452.556C302 433.969 323.043 418.901 349 418.901C374.957 418.901 396 433.969 396 452.556ZM368.281 463.268C372.862 459.988 375 455.992 375 452.198C375 448.403 372.862 444.407 368.281 441.127C363.71 437.854 357.089 435.642 349.5 435.642C341.911 435.642 335.29 437.854 330.719 441.127C326.137 444.407 324 448.403 324 452.198C324 455.992 326.137 459.988 330.719 463.268C335.29 466.541 341.911 468.753 349.5 468.753C357.089 468.753 363.71 466.541 368.281 463.268ZM349.5 474.753C366.897 474.753 381 464.655 381 452.198C381 439.74 366.897 429.642 349.5 429.642C332.103 429.642 318 439.74 318 452.198C318 464.655 332.103 474.753 349.5 474.753ZM356.821 455.778C358.597 454.506 359 453.285 359 452.556C359 451.826 358.597 450.605 356.821 449.333C355.054 448.068 352.309 447.099 349 447.099C345.691 447.099 342.945 448.068 341.179 449.333C339.403 450.605 339 451.826 339 452.556C339 453.285 339.403 454.506 341.179 455.778C342.945 457.043 345.691 458.012 349 458.012C352.309 458.012 355.054 457.043 356.821 455.778ZM349 464.012C357.837 464.012 365 458.883 365 452.556C365 446.228 357.837 441.099 349 441.099C340.163 441.099 333 446.228 333 452.556C333 458.883 340.163 464.012 349 464.012Z" fill="#EDCFA6"/>
</g>
<g filter="url(#filter2_d_198_4)">
<path fill-rule="evenodd" clip-rule="evenodd" d="M213.097 596.592C205.022 559.252 180.491 525.501 144.387 499.444C99.7332 467.217 37.744 447.099 -31 447.099C-99.7439 447.099 -161.733 467.217 -206.387 499.444C-251.048 531.677 -278 575.683 -278 623.691C-278 671.7 -251.048 715.706 -206.387 747.939C-161.733 780.165 -99.7439 800.284 -31 800.284C25.1487 800.284 76.791 786.862 118.162 764.384C118.535 766.44 118.956 768.485 119.424 770.519C77.3778 792.993 25.3395 806.284 -31 806.284C-170.728 806.284 -284 724.534 -284 623.691C-284 522.848 -170.728 441.099 -31 441.099C94.5162 441.099 198.684 507.064 218.576 593.579C216.73 594.566 214.904 595.57 213.097 596.592ZM200.515 604.191C187.383 520.073 88.7393 454.704 -31 454.704C-159.682 454.704 -264 530.202 -264 623.333C-264 716.465 -159.682 791.963 -31 791.963C25.0465 791.963 76.4711 777.641 116.668 753.779C116.445 751.555 116.277 749.321 116.166 747.076C76.6219 771.258 25.2799 785.963 -31 785.963C-94.2173 785.963 -151.204 767.409 -192.238 737.712C-233.279 708.009 -258 667.494 -258 623.333C-258 579.173 -233.279 538.658 -192.238 508.955C-151.204 479.257 -94.2173 460.704 -31 460.704C32.2173 460.704 89.2043 479.257 130.238 508.955C166.437 535.153 189.939 569.763 194.981 607.866C196.801 606.622 198.646 605.397 200.515 604.191ZM116.076 735.889C77.621 761.783 25.8909 777.642 -31 777.642C-149.741 777.642 -246 708.556 -246 623.333C-246 538.111 -149.741 469.025 -31 469.025C84.3331 469.025 178.456 534.202 183.764 616.036C181.796 617.563 179.863 619.113 177.967 620.688C176.995 581.531 154.486 545.62 117.529 519.095C79.7518 491.982 27.2579 475.025 -31 475.025C-89.2579 475.025 -141.752 491.982 -179.529 519.095C-217.317 546.216 -240 583.15 -240 623.333C-240 663.517 -217.317 700.451 -179.529 727.572C-141.752 754.685 -89.2579 771.642 -31 771.642C26.7561 771.642 78.8471 754.976 116.55 728.27C116.32 730.796 116.162 733.336 116.076 735.889ZM165.657 631.746C165.885 628.962 166 626.157 166 623.333C166 545.229 77.8001 481.914 -31 481.914C-139.8 481.914 -228 545.229 -228 623.333C-228 701.437 -139.8 764.753 -31 764.753C28.6964 764.753 82.1912 745.692 118.318 715.585C118.949 712.234 119.707 708.911 120.586 705.62C115.714 710.12 110.443 714.408 104.801 718.458C70.2808 743.239 22.2871 758.753 -31 758.753C-84.2871 758.753 -132.281 743.239 -166.801 718.458C-201.331 693.67 -222 659.958 -222 623.333C-222 586.709 -201.331 552.997 -166.801 528.209C-132.281 503.428 -84.2871 487.914 -31 487.914C22.2871 487.914 70.2808 503.428 104.801 528.209C139.331 552.997 160 586.709 160 623.333C160 628.553 159.58 633.714 158.76 638.799C160.984 636.407 163.284 634.055 165.657 631.746ZM143.856 657.031C147.863 646.284 150 634.988 150 623.333C150 551.557 68.9635 493.37 -31 493.37C-130.964 493.37 -212 551.557 -212 623.333C-212 695.11 -130.964 753.296 -31 753.296C37.0115 753.296 96.2618 726.362 127.19 686.539C131.569 676.288 137.165 666.423 143.856 657.031ZM93.4868 710.357C125.121 687.643 144 656.795 144 623.333C144 589.872 125.121 559.024 93.4868 536.309C61.862 513.602 17.8685 499.37 -31 499.37C-79.8685 499.37 -123.862 513.602 -155.487 536.309C-187.121 559.024 -206 589.872 -206 623.333C-206 656.795 -187.121 687.643 -155.487 710.357C-123.862 733.065 -79.8685 747.296 -31 747.296C17.8685 747.296 61.862 733.065 93.4868 710.357ZM127 623.333C127 653.426 109.976 681.23 81.3259 701.745C52.6866 722.252 12.8158 735.123 -31.5 735.123C-75.8158 735.123 -115.687 722.252 -144.326 701.745C-172.976 681.23 -190 653.426 -190 623.333C-190 593.24 -172.976 565.436 -144.326 544.921C-115.687 524.414 -75.8158 511.543 -31.5 511.543C12.8158 511.543 52.6866 524.414 81.3259 544.921C109.976 565.436 127 593.24 127 623.333ZM133 623.333C133 688.387 59.3508 741.123 -31.5 741.123C-122.351 741.123 -196 688.387 -196 623.333C-196 558.28 -122.351 505.543 -31.5 505.543C59.3508 505.543 133 558.28 133 623.333ZM69.4516 693.243C94.9347 674.995 110 650.324 110 623.691C110 597.059 94.9347 572.387 69.4516 554.14C43.9791 535.901 8.48331 524.432 -31 524.432C-70.4833 524.432 -105.979 535.901 -131.452 554.14C-156.935 572.387 -172 597.059 -172 623.691C-172 650.324 -156.935 674.995 -131.452 693.243C-105.979 711.482 -70.4833 722.951 -31 722.951C8.48331 722.951 43.9791 711.482 69.4516 693.243ZM-31 728.951C50.1859 728.951 116 681.824 116 623.691C116 565.558 50.1859 518.432 -31 518.432C-112.186 518.432 -178 565.558 -178 623.691C-178 681.824 -112.186 728.951 -31 728.951ZM92 623.691C92 646.765 78.9494 668.214 56.7236 684.129C34.5086 700.036 3.51276 710.062 -31 710.062C-65.5128 710.062 -96.5086 700.036 -118.724 684.129C-140.949 668.214 -154 646.765 -154 623.691C-154 600.618 -140.949 579.169 -118.724 563.254C-96.5086 547.347 -65.5128 537.321 -31 537.321C3.51276 537.321 34.5086 547.347 56.7236 563.254C78.9494 579.169 92 600.618 92 623.691ZM98 623.691C98 674.706 40.2448 716.062 -31 716.062C-102.245 716.062 -160 674.706 -160 623.691C-160 572.677 -102.245 531.321 -31 531.321C40.2448 531.321 98 572.677 98 623.691ZM45.5564 675.416C64.7963 661.64 76 643.144 76 623.333C76 603.523 64.7963 585.027 45.5564 571.25C26.3272 557.481 -0.543579 548.778 -30.5 548.778C-60.4564 548.778 -87.3272 557.481 -106.556 571.25C-125.796 585.027 -137 603.523 -137 623.333C-137 643.144 -125.796 661.64 -106.556 675.416C-87.3272 689.185 -60.4564 697.889 -30.5 697.889C-0.543579 697.889 26.3272 689.185 45.5564 675.416ZM-30.5 703.889C31.632 703.889 82 667.823 82 623.333C82 578.844 31.632 542.778 -30.5 542.778C-92.632 542.778 -143 578.844 -143 623.333C-143 667.823 -92.632 703.889 -30.5 703.889ZM60 623.691C60 640.437 50.5311 656.158 34.0963 667.926C17.672 679.687 -5.32379 687.148 -31 687.148C-56.6762 687.148 -79.672 679.687 -96.0962 667.926C-112.531 656.158 -122 640.437 -122 623.691C-122 606.945 -112.531 591.225 -96.0962 579.456C-79.672 567.696 -56.6762 560.235 -31 560.235C-5.32379 560.235 17.672 567.696 34.0963 579.456C50.5311 591.225 60 606.945 60 623.691ZM66 623.691C66 662.051 22.5716 693.148 -31 693.148C-84.5716 693.148 -128 662.051 -128 623.691C-128 585.331 -84.5716 554.235 -31 554.235C22.5716 554.235 66 585.331 66 623.691ZM22.7825 659.825C36.322 650.13 44 637.274 44 623.691C44 610.109 36.322 597.252 22.7825 587.557C9.25375 577.87 -9.7421 571.691 -31 571.691C-52.2579 571.691 -71.2538 577.87 -84.7825 587.557C-98.322 597.252 -106 610.109 -106 623.691C-106 637.274 -98.322 650.13 -84.7825 659.825C-71.2538 669.512 -52.2579 675.691 -31 675.691C-9.7421 675.691 9.25375 669.512 22.7825 659.825ZM-31 681.691C13.735 681.691 50 655.724 50 623.691C50 591.659 13.735 565.691 -31 565.691C-75.7351 565.691 -112 591.659 -112 623.691C-112 655.724 -75.7351 681.691 -31 681.691ZM26 623.691C26 633.912 20.2248 643.726 9.76172 651.218C-0.690674 658.702 -15.4365 663.518 -32 663.518C-48.5635 663.518 -63.3093 658.702 -73.7617 651.218C-84.2248 643.726 -90 633.912 -90 623.691C-90 613.471 -84.2248 603.657 -73.7617 596.165C-63.3093 588.681 -48.5635 583.864 -32 583.864C-15.4365 583.864 -0.690674 588.681 9.76172 596.165C20.2248 603.657 26 613.471 26 623.691ZM32 623.691C32 649.001 3.34622 669.518 -32 669.518C-67.3462 669.518 -96 649.001 -96 623.691C-96 598.382 -67.3462 577.864 -32 577.864C3.34622 577.864 32 598.382 32 623.691ZM-2.25909 642.61C5.12759 637.321 9 630.551 9 623.691C9 616.832 5.12759 610.062 -2.25909 604.772C-9.6351 599.491 -20.1309 596.037 -32 596.037C-43.8691 596.037 -54.3649 599.491 -61.7409 604.772C-69.1276 610.062 -73 616.832 -73 623.691C-73 630.551 -69.1276 637.321 -61.7409 642.61C-54.3649 647.892 -43.8691 651.346 -32 651.346C-20.1309 651.346 -9.6351 647.892 -2.25909 642.61ZM-32 657.346C-6.0426 657.346 15 642.278 15 623.691C15 605.105 -6.0426 590.037 -32 590.037C-57.9574 590.037 -79 605.105 -79 623.691C-79 642.278 -57.9574 657.346 -32 657.346ZM-6 623.333C-6 627.128 -8.13751 631.123 -12.7193 634.404C-17.2903 637.677 -23.9111 639.889 -31.5 639.889C-39.0889 639.889 -45.7097 637.677 -50.2807 634.404C-54.8625 631.123 -57 627.128 -57 623.333C-57 619.539 -54.8625 615.543 -50.2807 612.262C-45.7097 608.989 -39.0889 606.778 -31.5 606.778C-23.9111 606.778 -17.2903 608.989 -12.7193 612.262C-8.13751 615.543 -6 619.539 -6 623.333ZM0 623.333C0 635.79 -14.103 645.889 -31.5 645.889C-48.897 645.889 -63 635.79 -63 623.333C-63 610.876 -48.897 600.778 -31.5 600.778C-14.103 600.778 0 610.876 0 623.333ZM-22 623.691C-22 624.421 -22.4026 625.642 -24.1794 626.914C-25.9455 628.179 -28.6913 629.148 -32 629.148C-35.3087 629.148 -38.0545 628.179 -39.8206 626.914C-41.5974 625.642 -42 624.421 -42 623.691C-42 622.962 -41.5974 621.741 -39.8206 620.469C-38.0545 619.204 -35.3087 618.235 -32 618.235C-28.6913 618.235 -25.9455 619.204 -24.1794 620.469C-22.4026 621.741 -22 622.962 -22 623.691ZM-16 623.691C-16 630.019 -23.1635 635.148 -32 635.148C-40.8366 635.148 -48 630.019 -48 623.691C-48 617.364 -40.8366 612.235 -32 612.235C-23.1635 612.235 -16 617.364 -16 623.691Z" fill="#EDCFA6"/>
</g>
<g filter="url(#filter3_d_198_4)">
<path fill-rule="evenodd" clip-rule="evenodd" d="M616 740.407C616 788.416 589.048 832.422 544.387 864.655C499.733 896.881 437.744 917 369 917C300.256 917 238.267 896.881 193.613 864.655C148.952 832.422 122 788.416 122 740.407C122 692.399 148.952 648.393 193.613 616.16C238.267 583.933 300.256 563.815 369 563.815C437.744 563.815 499.733 583.933 544.387 616.16C589.048 648.393 616 692.399 616 740.407ZM622 740.407C622 841.251 508.728 923 369 923C229.272 923 116 841.251 116 740.407C116 639.564 229.272 557.815 369 557.815C508.728 557.815 622 639.564 622 740.407ZM530.238 854.428C571.279 824.725 596 784.21 596 740.049C596 695.889 571.279 655.374 530.238 625.671C489.204 595.973 432.217 577.42 369 577.42C305.783 577.42 248.796 595.973 207.762 625.671C166.721 655.374 142 695.889 142 740.049C142 784.21 166.721 824.725 207.762 854.428C248.796 884.125 305.783 902.679 369 902.679C432.217 902.679 489.204 884.125 530.238 854.428ZM369 908.679C497.682 908.679 602 833.181 602 740.049C602 646.918 497.682 571.42 369 571.42C240.318 571.42 136 646.918 136 740.049C136 833.181 240.318 908.679 369 908.679ZM578 740.049C578 780.233 555.317 817.167 517.529 844.288C479.752 871.401 427.258 888.358 369 888.358C310.742 888.358 258.248 871.401 220.471 844.288C182.683 817.167 160 780.233 160 740.049C160 699.866 182.683 662.932 220.471 635.811C258.248 608.698 310.742 591.741 369 591.741C427.258 591.741 479.752 608.698 517.529 635.811C555.317 662.932 578 699.866 578 740.049ZM584 740.049C584 825.272 487.741 894.358 369 894.358C250.259 894.358 154 825.272 154 740.049C154 654.827 250.259 585.741 369 585.741C487.741 585.741 584 654.827 584 740.049ZM504.801 835.174C539.331 810.386 560 776.674 560 740.049C560 703.425 539.331 669.713 504.801 644.925C470.281 620.144 422.287 604.63 369 604.63C315.713 604.63 267.719 620.144 233.199 644.925C198.669 669.713 178 703.425 178 740.049C178 776.674 198.669 810.386 233.199 835.174C267.719 859.955 315.713 875.469 369 875.469C422.287 875.469 470.281 859.955 504.801 835.174ZM369 881.469C477.8 881.469 566 818.153 566 740.049C566 661.945 477.8 598.63 369 598.63C260.2 598.63 172 661.945 172 740.049C172 818.153 260.2 881.469 369 881.469ZM544 740.049C544 773.511 525.121 804.359 493.487 827.073C461.862 849.781 417.868 864.012 369 864.012C320.132 864.012 276.138 849.781 244.513 827.073C212.879 804.359 194 773.511 194 740.049C194 706.588 212.879 675.74 244.513 653.025C276.138 630.318 320.132 616.086 369 616.086C417.868 616.086 461.862 630.318 493.487 653.025C525.121 675.74 544 706.588 544 740.049ZM550 740.049C550 811.826 468.964 870.012 369 870.012C269.036 870.012 188 811.826 188 740.049C188 668.273 269.036 610.086 369 610.086C468.964 610.086 550 668.273 550 740.049ZM481.326 818.461C509.976 797.946 527 770.142 527 740.049C527 709.957 509.976 682.152 481.326 661.638C452.687 641.13 412.816 628.259 368.5 628.259C324.184 628.259 284.313 641.13 255.674 661.638C227.024 682.152 210 709.957 210 740.049C210 770.142 227.024 797.946 255.674 818.461C284.313 838.968 324.184 851.839 368.5 851.839C412.816 851.839 452.687 838.968 481.326 818.461ZM368.5 857.839C459.351 857.839 533 805.103 533 740.049C533 674.996 459.351 622.259 368.5 622.259C277.649 622.259 204 674.996 204 740.049C204 805.103 277.649 857.839 368.5 857.839ZM510 740.407C510 767.04 494.935 791.711 469.452 809.959C443.979 828.198 408.483 839.667 369 839.667C329.517 839.667 294.021 828.198 268.548 809.959C243.065 791.711 228 767.04 228 740.407C228 713.775 243.065 689.103 268.548 670.856C294.021 652.617 329.517 641.148 369 641.148C408.483 641.148 443.979 652.617 469.452 670.856C494.935 689.103 510 713.775 510 740.407ZM516 740.407C516 798.54 450.186 845.667 369 845.667C287.814 845.667 222 798.54 222 740.407C222 682.274 287.814 635.148 369 635.148C450.186 635.148 516 682.274 516 740.407ZM456.724 800.845C478.949 784.93 492 763.481 492 740.407C492 717.334 478.949 695.885 456.724 679.97C434.509 664.063 403.513 654.037 369 654.037C334.487 654.037 303.491 664.063 281.276 679.97C259.051 695.885 246 717.334 246 740.407C246 763.481 259.051 784.93 281.276 800.845C303.491 816.752 334.487 826.778 369 826.778C403.513 826.778 434.509 816.752 456.724 800.845ZM369 832.778C440.245 832.778 498 791.422 498 740.407C498 689.393 440.245 648.037 369 648.037C297.755 648.037 240 689.393 240 740.407C240 791.422 297.755 832.778 369 832.778ZM476 740.049C476 759.86 464.796 778.356 445.556 792.132C426.327 805.901 399.456 814.605 369.5 814.605C339.544 814.605 312.673 805.901 293.444 792.132C274.204 778.356 263 759.86 263 740.049C263 720.239 274.204 701.743 293.444 687.966C312.673 674.197 339.544 665.494 369.5 665.494C399.456 665.494 426.327 674.197 445.556 687.966C464.796 701.743 476 720.239 476 740.049ZM482 740.049C482 784.539 431.632 820.605 369.5 820.605C307.368 820.605 257 784.539 257 740.049C257 695.56 307.368 659.494 369.5 659.494C431.632 659.494 482 695.56 482 740.049ZM434.096 784.642C450.531 772.874 460 757.153 460 740.407C460 723.661 450.531 707.941 434.096 696.172C417.672 684.412 394.676 676.951 369 676.951C343.324 676.951 320.328 684.412 303.904 696.172C287.469 707.941 278 723.661 278 740.407C278 757.153 287.469 772.874 303.904 784.642C320.328 796.403 343.324 803.864 369 803.864C394.676 803.864 417.672 796.403 434.096 784.642ZM369 809.864C422.572 809.864 466 778.767 466 740.407C466 702.047 422.572 670.951 369 670.951C315.428 670.951 272 702.047 272 740.407C272 778.767 315.428 809.864 369 809.864ZM444 740.407C444 753.99 436.322 766.846 422.783 776.541C409.254 786.229 390.258 792.407 369 792.407C347.742 792.407 328.746 786.229 315.217 776.541C301.678 766.846 294 753.99 294 740.407C294 726.825 301.678 713.968 315.217 704.274C328.746 694.586 347.742 688.407 369 688.407C390.258 688.407 409.254 694.586 422.783 704.274C436.322 713.968 444 726.825 444 740.407ZM450 740.407C450 772.44 413.735 798.407 369 798.407C324.265 798.407 288 772.44 288 740.407C288 708.375 324.265 682.407 369 682.407C413.735 682.407 450 708.375 450 740.407ZM409.762 767.934C420.225 760.442 426 750.628 426 740.407C426 730.187 420.225 720.373 409.762 712.881C399.309 705.397 384.563 700.58 368 700.58C351.437 700.58 336.691 705.397 326.238 712.881C315.775 720.373 310 730.187 310 740.407C310 750.628 315.775 760.442 326.238 767.934C336.691 775.418 351.437 780.235 368 780.235C384.563 780.235 399.309 775.418 409.762 767.934ZM368 786.235C403.346 786.235 432 765.717 432 740.407C432 715.098 403.346 694.58 368 694.58C332.654 694.58 304 715.098 304 740.407C304 765.717 332.654 786.235 368 786.235ZM409 740.407C409 747.267 405.128 754.037 397.741 759.326C390.365 764.608 379.869 768.062 368 768.062C356.131 768.062 345.635 764.608 338.259 759.326C330.872 754.037 327 747.267 327 740.407C327 733.548 330.872 726.778 338.259 721.489C345.635 716.207 356.131 712.753 368 712.753C379.869 712.753 390.365 716.207 397.741 721.489C405.128 726.778 409 733.548 409 740.407ZM415 740.407C415 758.994 393.957 774.062 368 774.062C342.043 774.062 321 758.994 321 740.407C321 721.821 342.043 706.753 368 706.753C393.957 706.753 415 721.821 415 740.407ZM387.281 751.12C391.862 747.839 394 743.844 394 740.049C394 736.255 391.862 732.259 387.281 728.979C382.71 725.705 376.089 723.494 368.5 723.494C360.911 723.494 354.29 725.705 349.719 728.979C345.138 732.259 343 736.255 343 740.049C343 743.844 345.138 747.839 349.719 751.12C354.29 754.393 360.911 756.605 368.5 756.605C376.089 756.605 382.71 754.393 387.281 751.12ZM368.5 762.605C385.897 762.605 400 752.506 400 740.049C400 727.592 385.897 717.494 368.5 717.494C351.103 717.494 337 727.592 337 740.049C337 752.506 351.103 762.605 368.5 762.605ZM375.821 743.63C377.597 742.358 378 741.137 378 740.407C378 739.678 377.597 738.457 375.821 737.185C374.055 735.92 371.309 734.951 368 734.951C364.691 734.951 361.946 735.92 360.179 737.185C358.403 738.457 358 739.678 358 740.407C358 741.137 358.403 742.358 360.179 743.63C361.946 744.895 364.691 745.864 368 745.864C371.309 745.864 374.055 744.895 375.821 743.63ZM368 751.864C376.837 751.864 384 746.735 384 740.407C384 734.08 376.837 728.951 368 728.951C359.163 728.951 352 734.08 352 740.407C352 746.735 359.163 751.864 368 751.864Z" fill="#EDCFA6"/>
</g>
<g filter="url(#filter4_d_198_4)">
<path d="M419 239C419 245.283 413.695 251.872 402.519 258.285C391.495 264.61 375.41 270.374 355.36 275.24C315.29 284.965 259.831 291 198.5 291C137.169 291 81.7099 284.965 41.6404 275.24C21.59 270.374 5.50477 264.61 -5.51947 258.285C-16.695 251.872 -22 245.283 -22 239C-22 232.717 -16.695 226.128 -5.51947 219.715C5.50477 213.39 21.59 207.626 41.6404 202.76C81.7099 193.035 137.169 187 198.5 187C259.831 187 315.29 193.035 355.36 202.76C375.41 207.626 391.495 213.39 402.519 219.715C413.695 226.128 419 232.717 419 239Z" stroke="#EDCFA6" stroke-width="4" shape-rendering="crispEdges"/>
</g>
<g filter="url(#filter5_d_198_4)">
<path d="M431 248.5C431 255.266 425.29 262.315 413.38 269.147C401.622 275.891 384.475 282.032 363.113 287.215C320.419 297.573 261.335 304 196 304C130.665 304 71.5808 297.573 28.8872 287.215C7.52482 282.032 -9.62223 275.891 -21.3802 269.147C-33.2897 262.315 -39 255.266 -39 248.5C-39 241.734 -33.2897 234.685 -21.3802 227.853C-9.62223 221.109 7.52482 214.968 28.8872 209.785C71.5808 199.427 130.665 193 196 193C261.335 193 320.419 199.427 363.113 209.785C384.475 214.968 401.622 221.109 413.38 227.853C425.29 234.685 431 241.734 431 248.5Z" stroke="#EDCFA6" stroke-width="4" shape-rendering="crispEdges"/>
</g>
<g filter="url(#filter6_d_198_4)">
<path d="M441 260.5C441 267.543 435.064 274.855 422.751 281.926C410.588 288.909 392.855 295.266 370.769 300.629C326.628 311.349 265.544 318 198 318C130.456 318 69.3719 311.349 25.2308 300.629C3.14465 295.266 -14.5881 288.909 -26.7508 281.926C-39.0644 274.855 -45 267.543 -45 260.5C-45 253.457 -39.0644 246.145 -26.7508 239.074C-14.5881 232.091 3.14465 225.734 25.2308 220.371C69.3719 209.651 130.456 203 198 203C265.544 203 326.628 209.651 370.769 220.371C392.855 225.734 410.588 232.091 422.751 239.074C435.064 246.145 441 253.457 441 260.5Z" stroke="#EDCFA6" stroke-width="4" shape-rendering="crispEdges"/>
</g>
<rect width="393" height="227" fill="url(#paint0_linear_198_4)"/>
<ellipse cx="197.5" cy="238.5" rx="217.5" ry="49.5" fill="url(#paint1_radial_198_4)"/>
<path fill-rule="evenodd" clip-rule="evenodd" d="M197 289C317.398 289 415 266.39 415 238.5C415 238.416 414.999 238.332 414.997 238.249C414.413 265.749 317.036 288 197 288C76.9638 288 -20.4131 265.748 -20.9973 238.249C-20.9991 238.332 -21 238.416 -21 238.5C-21 266.39 76.6019 289 197 289Z" fill="url(#paint2_linear_198_4)"/>
<path fill-rule="evenodd" clip-rule="evenodd" d="M414.989 238.505C414.996 238.337 415 238.169 415 238C415 210.386 317.398 188 197 188C76.6019 188 -21 210.386 -21 238C-21 238.169 -20.9964 238.337 -20.9891 238.505C-19.8077 211.671 77.3368 190 197 190C316.663 190 413.808 211.671 414.989 238.505Z" fill="url(#paint3_linear_198_4)"/>
<ellipse cx="196.5" cy="223" rx="12.5" ry="13" fill="#01445E"/>
<path fill-rule="evenodd" clip-rule="evenodd" d="M196.5 258C266.364 258 323 248.15 323 236C323 223.85 266.364 214 196.5 214C126.636 214 70 223.85 70 236C70 248.15 126.636 258 196.5 258ZM196.5 255C264.707 255 320 246.27 320 235.5C320 224.73 264.707 216 196.5 216C128.293 216 73 224.73 73 235.5C73 246.27 128.293 255 196.5 255Z" fill="url(#paint4_linear_198_4)"/>
<path fill-rule="evenodd" clip-rule="evenodd" d="M196.5 273C289.008 273 364 257.554 364 238.5C364 219.446 289.008 204 196.5 204C103.992 204 29 219.446 29 238.5C29 257.554 103.992 273 196.5 273ZM196.5 271C287.351 271 361 256.225 361 238C361 219.775 287.351 205 196.5 205C105.649 205 32 219.775 32 238C32 256.225 105.649 271 196.5 271Z" fill="url(#paint5_linear_198_4)"/>
<path d="M196 217.5C199.763 234 224.5 253.3 260.5 238.5C226.1 244.1 202.5 225.5 196 217.5Z" fill="#9B003B"/>
<path fill-rule="evenodd" clip-rule="evenodd" d="M256.021 235C257.279 236.21 258.736 237.389 260.5 238.5C226.1 244.1 202.5 225.5 196 217.5C196.305 217.703 196.718 218.041 197.261 218.483C202.06 222.398 216.959 234.551 256.021 235Z" fill="#D21B54"/>
<path d="M225 217.5C211.167 211 190.8 194.7 196 217.5C196.305 217.703 196.718 218.041 197.261 218.483C202.06 222.398 216.959 234.551 256.021 235C247.647 226.947 248.037 217.5 225 217.5Z" fill="#750E3E"/>
<path d="M194.339 217.5C190.576 234 165.839 253.3 129.839 238.5C164.239 244.1 187.839 225.5 194.339 217.5Z" fill="#9B003B"/>
<path fill-rule="evenodd" clip-rule="evenodd" d="M134.319 235C133.06 236.21 131.603 237.389 129.839 238.5C164.239 244.1 187.839 225.5 194.339 217.5C194.035 217.703 193.621 218.041 193.078 218.483C188.279 222.398 173.381 234.551 134.319 235Z" fill="#D21B54"/>
<path d="M165.339 217.5C179.173 211 199.539 194.7 194.339 217.5C194.035 217.703 193.621 218.041 193.078 218.483C188.279 222.398 173.381 234.551 134.319 235C142.693 226.947 142.302 217.5 165.339 217.5Z" fill="#750E3E"/>
<path d="M196.5 217.5C225 221 258.5 219.5 316 190.5C306.5 187.5 282.5 187.5 272 189C244.5 206 215 217.5 196.5 217.5Z" fill="#FF919D"/>
<path d="M316 190.5C290 213.893 231.5 232 196.5 217.5C225 221 258.5 219.5 316 190.5Z" fill="#FF4C7A"/>
<path d="M196.5 217.5C219.5 229.5 280 238 316 190.5C290 213.893 231.5 232 196.5 217.5Z" fill="#FF265D"/>
<path d="M196.5 217.5C168 221 134.5 219.5 77 190.5C86.5 187.5 110.5 187.5 121 189C148.5 206 178 217.5 196.5 217.5Z" fill="#FF919D"/>
<path d="M77 190.5C103 213.893 161.5 232 196.5 217.5C168 221 134.5 219.5 77 190.5Z" fill="#FF4C7A"/>
<path d="M196.5 217.5C173.5 229.5 113 238 77 190.5C103 213.893 161.5 232 196.5 217.5Z" fill="#FF265D"/>
<path d="M101 136.5C150.5 144 194.8 187.9 198 217.5C184.796 199.894 167.051 187.435 148.097 174.125C132.6 163.244 116.294 151.794 101 136.5Z" fill="#FFD8C2"/>
<path d="M148.097 174.125C167.051 187.435 184.796 199.894 198 217.5C196.409 217.003 194.797 216.507 193.169 216.005C162.058 206.426 124.757 194.941 101 136.5C116.294 151.794 132.6 163.244 148.097 174.125Z" fill="#FF9FA5"/>
<path d="M198 217.5C143.5 212.5 108.5 188.5 101 136.5C124.757 194.941 162.058 206.426 193.169 216.005C194.797 216.507 196.409 217.003 198 217.5Z" fill="#FF5983"/>
<path d="M198 217.5C162.5 223.5 107 198 101 136.5C108.5 188.5 143.5 212.5 198 217.5Z" fill="#F51F61"/>
<path d="M295 136.5C245.5 144 201.2 187.9 198 217.5C211.204 199.894 228.949 187.435 247.903 174.125C263.4 163.244 279.706 151.794 295 136.5Z" fill="#FFD8C2"/>
<path d="M247.903 174.125C228.949 187.435 211.204 199.894 198 217.5C199.591 217.003 201.203 216.507 202.831 216.005C233.942 206.426 271.243 194.941 295 136.5C279.706 151.794 263.4 163.244 247.903 174.125Z" fill="#FF9FA5"/>
<path d="M198 217.5C252.5 212.5 287.5 188.5 295 136.5C271.243 194.941 233.942 206.426 202.831 216.005C201.203 216.507 199.591 217.003 198 217.5Z" fill="#FF5983"/>
<path d="M198 217.5C233.5 223.5 289 198 295 136.5C287.5 188.5 252.5 212.5 198 217.5Z" fill="#F51F61"/>
<path d="M197.5 217C199.008 215.687 200.543 214.41 202.096 213.156C229.115 189.728 245.816 159.686 251.5 109C203.9 141 195.667 194.333 197.5 217Z" fill="#FFD7C2"/>
<path d="M202.096 213.156C229.115 189.728 245.816 159.686 251.5 109C259.525 177.449 228.329 191.97 202.096 213.156Z" fill="#FF939A"/>
<path d="M197.5 217C211 212 265 186.5 251.5 109C259.525 177.449 228.329 191.97 202.096 213.156C200.596 214.457 199.064 215.738 197.5 217Z" fill="#FF3F7B"/>
<path d="M197.038 217C195.53 215.687 193.995 214.41 192.442 213.156C165.423 189.728 148.723 159.686 143.038 109C190.638 141 198.872 194.333 197.038 217Z" fill="#FFD7C2"/>
<path d="M192.442 213.156C165.423 189.728 148.723 159.686 143.038 109C135.013 177.449 166.209 191.97 192.442 213.156Z" fill="#FF939A"/>
<path d="M197.038 217C183.538 212 129.538 186.5 143.038 109C135.013 177.449 166.209 191.97 192.442 213.156C193.943 214.457 195.475 215.738 197.038 217Z" fill="#FF3F7B"/>
<path d="M196.5 111.5L196.5 126C226.227 160.372 233.085 195.607 203.846 214.068C234.723 194.705 237.918 152.453 196.5 111.5Z" fill="#FFC8B6"/>
<path d="M196.5 218C234.5 200.773 247 160.5 196.5 96V111.5C237.918 152.453 234.723 194.705 203.846 214.068C201.61 215.479 199.164 216.793 196.5 218Z" fill="#FFD7C7"/>
<path d="M196.5 126L196.5 218C199.097 216.823 201.548 215.508 203.846 214.068C233.085 195.607 226.227 160.372 196.5 126Z" fill="url(#paint6_linear_198_4)"/>
<path d="M196.5 111.5L196.5 126C166.773 160.372 159.915 195.607 189.154 214.068C158.277 194.705 155.082 152.453 196.5 111.5Z" fill="#FFC8B6"/>
<path d="M196.5 218C158.5 200.773 146 160.5 196.5 96V111.5C155.082 152.453 158.277 194.705 189.154 214.068C191.39 215.479 193.836 216.793 196.5 218Z" fill="#FFD7C7"/>
<path d="M196.5 126L196.5 218C193.903 216.823 191.452 215.508 189.154 214.068C159.915 195.607 166.773 160.372 196.5 126Z" fill="url(#paint7_linear_198_4)"/>
<path d="M86.2979 128C86.2979 116.211 84.6809 116.211 77 116.211C84.6809 116.211 86.2979 112.421 86.2979 104C86.2979 112.842 87.9149 116.211 96 116.211C87.9149 116.211 86.2979 116.211 86.2979 128Z" fill="#F5F5F5"/>
<path d="M89.3617 152C89.3617 146.105 88.2553 146.105 83 146.105C88.2553 146.105 89.3617 144.211 89.3617 140C89.3617 144.421 90.4681 146.105 96 146.105C90.4681 146.105 89.3617 146.105 89.3617 152Z" fill="#F5F5F5"/>
<path d="M111.383 128C111.383 122.105 110.447 122.105 106 122.105C110.447 122.105 111.383 120.211 111.383 116C111.383 120.421 112.319 122.105 117 122.105C112.319 122.105 111.383 122.105 111.383 128Z" fill="#F5F5F5"/>
<path d="M227.83 93C227.83 84.6491 226.468 84.6491 220 84.6491C226.468 84.6491 227.83 81.9649 227.83 76C227.83 82.2632 229.191 84.6491 236 84.6491C229.191 84.6491 227.83 84.6491 227.83 93Z" fill="#F5F5F5"/>
<path d="M324.872 122C324.872 116.596 323.851 116.596 319 116.596C323.851 116.596 324.872 114.86 324.872 111C324.872 115.053 325.894 116.596 331 116.596C325.894 116.596 324.872 116.596 324.872 122Z" fill="#F5F5F5"/>
<path d="M336.872 174C336.872 168.596 335.851 168.596 331 168.596C335.851 168.596 336.872 166.86 336.872 163C336.872 167.053 337.894 168.596 343 168.596C337.894 168.596 336.872 168.596 336.872 174Z" fill="#F5F5F5"/>
<path d="M319.915 152C319.915 148.07 319.234 148.07 316 148.07C319.234 148.07 319.915 146.807 319.915 144C319.915 146.947 320.596 148.07 324 148.07C320.596 148.07 319.915 148.07 319.915 152Z" fill="#F5F5F5"/>
<path d="M135.383 68C135.383 61.1228 134.447 61.1228 130 61.1228C134.447 61.1228 135.383 58.9123 135.383 54C135.383 59.1579 136.319 61.1228 141 61.1228C136.319 61.1228 135.383 61.1228 135.383 68Z" fill="#F5F5F5"/>
<path d="M13.383 76C13.383 69.1228 12.4468 69.1228 8 69.1228C12.4468 69.1228 13.383 66.9123 13.383 62C13.383 67.1579 14.3191 69.1228 19 69.1228C14.3191 69.1228 13.383 69.1228 13.383 76Z" fill="#F5F5F5"/>
<path d="M196.766 79C196.766 68.193 194.894 68.193 186 68.193C194.894 68.193 196.766 64.7193 196.766 57C196.766 65.1053 198.638 68.193 208 68.193C198.638 68.193 196.766 68.193 196.766 79Z" fill="#F5F5F5"/>
<path d="M11.049 142.448C14.1161 140.99 37.1214 115.611 68.9441 121.232C46.6683 141.116 43.6914 149.111 11.049 142.448Z" fill="url(#paint8_linear_198_4)"/>
<path d="M15.6372 141.107C14.3314 141.649 13.2746 142.023 12.5217 142.177C13.5518 141.835 14.5909 141.477 15.6372 141.107C26.2864 136.684 53.4952 121.044 67.4713 121.503C54.4307 124.181 33.9312 134.628 15.6372 141.107Z" fill="url(#paint9_linear_198_4)"/>
<path d="M73.3209 90.6972C70.7729 90.1283 49.8567 75.5634 26.0111 84.4447C45.678 95.2037 48.9729 100.446 73.3209 90.6972Z" fill="url(#paint10_linear_198_4)"/>
<path d="M69.614 90.4441C70.689 90.6306 71.5509 90.735 72.151 90.7299C71.3136 90.6436 70.4674 90.5479 69.614 90.4441C60.8469 88.9232 37.9048 81.9441 27.181 84.4119C37.575 84.3233 54.6929 88.6286 69.614 90.4441Z" fill="url(#paint11_linear_198_4)"/>
<path d="M109.748 57.8324C107.299 58.166 83.1686 51.8631 66.0235 67.9649C87.5186 71.2087 92.5186 74.8951 109.748 57.8324Z" fill="url(#paint12_linear_198_4)"/>
<path d="M106.419 58.8426C107.43 58.653 108.223 58.4597 108.743 58.2541C107.979 58.4557 107.204 58.6517 106.419 58.8426C98.1685 60.3894 75.3596 61.6964 67.0286 67.5432C76.0402 63.9809 92.6918 62.1813 106.419 58.8426Z" fill="url(#paint13_linear_198_4)"/>
<path d="M366.84 77.8046C343.819 89.9204 330.462 112.566 330.462 126C339.15 123.296 342.637 118.863 359.429 117.184C377.061 115.421 384.198 110.467 392.175 95.3538L396.703 101.063L411.906 73.4775C406.476 69.8716 389.862 65.6888 366.84 77.8046Z" fill="url(#paint14_linear_198_4)"/>
<path d="M331.37 123.372L331.302 123.481C342.018 106.301 373.495 83.215 402.165 79.4568C422.361 74.8039 447.416 66.7775 399.461 77.8462C353.089 88.5495 338.428 112.055 331.37 123.372Z" fill="#00919E"/>
<path d="M397.632 38.3469C323.306 27.8027 295.575 81.7537 291 110.047C304.197 104.248 310.056 102.515 329.535 101.085C365.431 98.4486 392.177 80.5235 397.632 72.0882V38.3469Z" fill="url(#paint15_linear_198_4)"/>
<path d="M395.113 44.5566C394.229 45.4391 389.996 48.7864 378.118 56.4111C371.825 60.45 363.778 63.7872 354.811 66.7953C354.811 76.7805 355.338 80.2925 347.997 91.0355C347.971 91.0744 347.944 91.1132 347.918 91.1519C347.944 91.113 347.971 91.0742 347.997 91.0355C353.751 82.5737 353.824 71.0143 352.807 67.3248C348.279 68.8176 343.68 70.2213 339.25 71.5734L338.903 71.6793C339.433 77.9146 338.372 85.857 332.539 93.2699C338.903 82.1505 337.842 72.6197 337.842 72.0031C331.78 73.8551 326.089 75.6162 321.403 77.3851C319.282 83.739 318.221 85.857 315.04 96.9763C315.888 91.046 318.928 81.7165 320.343 77.7931C307.709 82.9919 297.499 96.7111 294.358 103.33C300.429 89.0862 308.063 81.9543 320.343 76.4736C314.893 76.6316 312.388 77.3851 306.025 80.0326C313.449 75.7966 320.847 75.7966 321.403 76.0092C326.015 74.0275 331.267 72.248 337.312 70.3993C335.191 69.9722 327.236 66.7953 316.631 68.9132C324.055 66.2658 331.479 67.8542 338.718 69.9722C342.922 68.7037 347.5 67.3934 352.5 65.9554C348.448 60.9709 338.903 58.3234 328.827 59.9119C340.281 56.5231 350.923 62.0853 354.811 65.2899C355.51 65.0884 356.217 64.8843 356.932 64.6773C377.083 57.0569 385.922 51.2635 395.113 44.5566Z" fill="#00919E"/>
<defs>
<filter id="filter0_d_198_4" x="-115" y="263.844" width="402" height="244.821" filterUnits="userSpaceOnUse" color-interpolation-filters="sRGB">
<feFlood flood-opacity="0" result="BackgroundImageFix"/>
<feColorMatrix in="SourceAlpha" type="matrix" values="0 0 0 0 0 0 0 0 0 0 0 0 0 0 0 0 0 0 127 0" result="hardAlpha"/>
<feOffset dy="4"/>
<feGaussianBlur stdDeviation="2"/>
<feComposite in2="hardAlpha" operator="out"/>
<feColorMatrix type="matrix" values="0 0 0 0 0 0 0 0 0 0 0 0 0 0 0 0 0 0 0.25 0"/>
<feBlend mode="normal" in2="BackgroundImageFix" result="effect1_dropShadow_198_4"/>
<feBlend mode="normal" in="SourceGraphic" in2="effect1_dropShadow_198_4" result="shape"/>
</filter>
<filter id="filter1_d_198_4" x="159.752" y="279.379" width="447.248" height="321.101" filterUnits="userSpaceOnUse" color-interpolation-filters="sRGB">
<feFlood flood-opacity="0" result="BackgroundImageFix"/>
<feColorMatrix in="SourceAlpha" type="matrix" values="0 0 0 0 0 0 0 0 0 0 0 0 0 0 0 0 0 0 127 0" result="hardAlpha"/>
<feOffset dy="4"/>
<feGaussianBlur stdDeviation="2"/>
<feComposite in2="hardAlpha" operator="out"/>
<feColorMatrix type="matrix" values="0 0 0 0 0 0 0 0 0 0 0 0 0 0 0 0 0 0 0.25 0"/>
<feBlend mode="normal" in2="BackgroundImageFix" result="effect1_dropShadow_198_4"/>
<feBlend mode="normal" in="SourceGraphic" in2="effect1_dropShadow_198_4" result="shape"/>
</filter>
<filter id="filter2_d_198_4" x="-288" y="441.099" width="510.576" height="373.185" filterUnits="userSpaceOnUse" color-interpolation-filters="sRGB">
<feFlood flood-opacity="0" result="BackgroundImageFix"/>
<feColorMatrix in="SourceAlpha" type="matrix" values="0 0 0 0 0 0 0 0 0 0 0 0 0 0 0 0 0 0 127 0" result="hardAlpha"/>
<feOffset dy="4"/>
<feGaussianBlur stdDeviation="2"/>
<feComposite in2="hardAlpha" operator="out"/>
<feColorMatrix type="matrix" values="0 0 0 0 0 0 0 0 0 0 0 0 0 0 0 0 0 0 0.25 0"/>
<feBlend mode="normal" in2="BackgroundImageFix" result="effect1_dropShadow_198_4"/>
<feBlend mode="normal" in="SourceGraphic" in2="effect1_dropShadow_198_4" result="shape"/>
</filter>
<filter id="filter3_d_198_4" x="112" y="557.815" width="514" height="373.185" filterUnits="userSpaceOnUse" color-interpolation-filters="sRGB">
<feFlood flood-opacity="0" result="BackgroundImageFix"/>
<feColorMatrix in="SourceAlpha" type="matrix" values="0 0 0 0 0 0 0 0 0 0 0 0 0 0 0 0 0 0 127 0" result="hardAlpha"/>
<feOffset dy="4"/>
<feGaussianBlur stdDeviation="2"/>
<feComposite in2="hardAlpha" operator="out"/>
<feColorMatrix type="matrix" values="0 0 0 0 0 0 0 0 0 0 0 0 0 0 0 0 0 0 0.25 0"/>
<feBlend mode="normal" in2="BackgroundImageFix" result="effect1_dropShadow_198_4"/>
<feBlend mode="normal" in="SourceGraphic" in2="effect1_dropShadow_198_4" result="shape"/>
</filter>
<filter id="filter4_d_198_4" x="-28" y="184" width="453" height="116" filterUnits="userSpaceOnUse" color-interpolation-filters="sRGB">
<feFlood flood-opacity="0" result="BackgroundImageFix"/>
<feColorMatrix in="SourceAlpha" type="matrix" values="0 0 0 0 0 0 0 0 0 0 0 0 0 0 0 0 0 0 127 0" result="hardAlpha"/>
<feOffset dy="3"/>
<feGaussianBlur stdDeviation="2"/>
<feComposite in2="hardAlpha" operator="out"/>
<feColorMatrix type="matrix" values="0 0 0 0 0 0 0 0 0 0 0 0 0 0 0 0 0 0 0.25 0"/>
<feBlend mode="normal" in2="BackgroundImageFix" result="effect1_dropShadow_198_4"/>
<feBlend mode="normal" in="SourceGraphic" in2="effect1_dropShadow_198_4" result="shape"/>
</filter>
<filter id="filter5_d_198_4" x="-45" y="190" width="482" height="123" filterUnits="userSpaceOnUse" color-interpolation-filters="sRGB">
<feFlood flood-opacity="0" result="BackgroundImageFix"/>
<feColorMatrix in="SourceAlpha" type="matrix" values="0 0 0 0 0 0 0 0 0 0 0 0 0 0 0 0 0 0 127 0" result="hardAlpha"/>
<feOffset dy="3"/>
<feGaussianBlur stdDeviation="2"/>
<feComposite in2="hardAlpha" operator="out"/>
<feColorMatrix type="matrix" values="0 0 0 0 0 0 0 0 0 0 0 0 0 0 0 0 0 0 0.25 0"/>
<feBlend mode="normal" in2="BackgroundImageFix" result="effect1_dropShadow_198_4"/>
<feBlend mode="normal" in="SourceGraphic" in2="effect1_dropShadow_198_4" result="shape"/>
</filter>
<filter id="filter6_d_198_4" x="-51" y="200" width="498" height="127" filterUnits="userSpaceOnUse" color-interpolation-filters="sRGB">
<feFlood flood-opacity="0" result="BackgroundImageFix"/>
<feColorMatrix in="SourceAlpha" type="matrix" values="0 0 0 0 0 0 0 0 0 0 0 0 0 0 0 0 0 0 127 0" result="hardAlpha"/>
<feOffset dy="3"/>
<feGaussianBlur stdDeviation="2"/>
<feComposite in2="hardAlpha" operator="out"/>
<feColorMatrix type="matrix" values="0 0 0 0 0 0 0 0 0 0 0 0 0 0 0 0 0 0 0.25 0"/>
<feBlend mode="normal" in2="BackgroundImageFix" result="effect1_dropShadow_198_4"/>
<feBlend mode="normal" in="SourceGraphic" in2="effect1_dropShadow_198_4" result="shape"/>
</filter>
<linearGradient id="paint0_linear_198_4" x1="196.5" y1="0" x2="196.5" y2="227" gradientUnits="userSpaceOnUse">
<stop stop-color="#008097"/>
<stop offset="0.38" stop-color="#0397B2"/>
<stop offset="0.745" stop-color="#0590AA"/>
<stop offset="0.986929" stop-color="#007990"/>
</linearGradient>
<radialGradient id="paint1_radial_198_4" cx="0" cy="0" r="1" gradientUnits="userSpaceOnUse" gradientTransform="translate(197.5 238.5) rotate(-0.140082) scale(204.508 46.5433)">
<stop offset="0.17" stop-color="#00435D"/>
<stop offset="0.52" stop-color="#0A87A2"/>
<stop offset="0.825" stop-color="#04839F"/>
<stop offset="1" stop-color="#006D84"/>
</radialGradient>
<linearGradient id="paint2_linear_198_4" x1="196.138" y1="289" x2="196.138" y2="238.249" gradientUnits="userSpaceOnUse">
<stop stop-color="#87D2DD"/>
<stop offset="0.555" stop-color="#00C7D5"/>
<stop offset="1" stop-color="#00506D"/>
</linearGradient>
<linearGradient id="paint3_linear_198_4" x1="197" y1="162" x2="197" y2="227.5" gradientUnits="userSpaceOnUse">
<stop stop-color="#87D2DD"/>
<stop offset="0.498943" stop-color="#00C7D5"/>
<stop offset="1" stop-color="#00506D"/>
</linearGradient>
<linearGradient id="paint4_linear_198_4" x1="196" y1="258" x2="196" y2="214" gradientUnits="userSpaceOnUse">
<stop stop-color="#87D2DD"/>
<stop offset="0.555" stop-color="#00C7D5"/>
<stop offset="1" stop-color="#00506D"/>
</linearGradient>
<linearGradient id="paint5_linear_198_4" x1="195.838" y1="273" x2="195.838" y2="204" gradientUnits="userSpaceOnUse">
<stop stop-color="#87D2DD"/>
<stop offset="0.555" stop-color="#00C7D5"/>
<stop offset="1" stop-color="#00506D"/>
</linearGradient>
<linearGradient id="paint6_linear_198_4" x1="213.176" y1="96" x2="213.176" y2="218" gradientUnits="userSpaceOnUse">
<stop stop-color="#FFBBAF"/>
<stop offset="1" stop-color="#FF467D"/>
</linearGradient>
<linearGradient id="paint7_linear_198_4" x1="179.824" y1="96" x2="179.824" y2="218" gradientUnits="userSpaceOnUse">
<stop stop-color="#FFBBAF"/>
<stop offset="1" stop-color="#FF467D"/>
</linearGradient>
<linearGradient id="paint8_linear_198_4" x1="39.4711" y1="144.822" x2="13.7626" y2="124.901" gradientUnits="userSpaceOnUse">
<stop stop-color="#00C9C7"/>
<stop offset="0.331175" stop-color="#009AAA"/>
<stop offset="0.666524" stop-color="#00829A"/>
</linearGradient>
<linearGradient id="paint9_linear_198_4" x1="67.289" y1="122.877" x2="-13.0257" y2="139.619" gradientUnits="userSpaceOnUse">
<stop offset="0.251223" stop-color="#00919E"/>
<stop offset="1" stop-color="#003338"/>
</linearGradient>
<linearGradient id="paint10_linear_198_4" x1="62.5" y1="96" x2="33.5921" y2="71.3204" gradientUnits="userSpaceOnUse">
<stop stop-color="#00C9C7"/>
<stop offset="0.331175" stop-color="#009AAA"/>
<stop offset="0.666524" stop-color="#00829A"/>
</linearGradient>
<linearGradient id="paint11_linear_198_4" x1="70.3106" y1="92.0412" x2="9.16043" y2="63.7052" gradientUnits="userSpaceOnUse">
<stop offset="0.251223" stop-color="#00919E"/>
<stop offset="1" stop-color="#003338"/>
</linearGradient>
<linearGradient id="paint12_linear_198_4" x1="102.485" y1="66.302" x2="66.5062" y2="56.2111" gradientUnits="userSpaceOnUse">
<stop stop-color="#00C9C7"/>
<stop offset="0.331175" stop-color="#009AAA"/>
<stop offset="0.666524" stop-color="#00829A"/>
</linearGradient>
<linearGradient id="paint13_linear_198_4" x1="107.674" y1="60.0687" x2="42.9385" y2="60.2698" gradientUnits="userSpaceOnUse">
<stop offset="0.251223" stop-color="#00919E"/>
<stop offset="1" stop-color="#003338"/>
</linearGradient>
<linearGradient id="paint14_linear_198_4" x1="352.723" y1="124.321" x2="381.247" y2="64.7235" gradientUnits="userSpaceOnUse">
<stop stop-color="#00C9C7"/>
<stop offset="0.331175" stop-color="#009AAA"/>
<stop offset="1" stop-color="#00829A"/>
</linearGradient>
<linearGradient id="paint15_linear_198_4" x1="311.587" y1="102.666" x2="372.21" y2="36.6881" gradientUnits="userSpaceOnUse">
<stop stop-color="#00C9C7"/>
<stop offset="0.485" stop-color="#009AAA"/>
<stop offset="1" stop-color="#00829A"/>
</linearGradient>
</defs>
</svg>
