<svg width="393" height="289" viewBox="0 0 393 289" fill="none" xmlns="http://www.w3.org/2000/svg">
<rect width="393" height="227" fill="url(#paint0_linear_200_363)"/>
<ellipse cx="197.5" cy="238.5" rx="217.5" ry="49.5" fill="url(#paint1_radial_200_363)"/>
<path fill-rule="evenodd" clip-rule="evenodd" d="M197 289C317.398 289 415 266.39 415 238.5C415 238.416 414.999 238.332 414.997 238.249C414.413 265.748 317.036 288 197 288C76.9637 288 -20.4133 265.748 -20.9974 238.249C-20.9991 238.332 -21 238.416 -21 238.5C-21 266.39 76.6019 289 197 289Z" fill="url(#paint2_linear_200_363)"/>
<path fill-rule="evenodd" clip-rule="evenodd" d="M414.989 238.505C414.996 238.337 415 238.169 415 238C415 210.386 317.398 188 197 188C76.6019 188 -21 210.386 -21 238C-21 238.169 -20.9964 238.337 -20.9891 238.505C-19.8077 211.671 77.3368 190 197 190C316.663 190 413.808 211.671 414.989 238.505Z" fill="url(#paint3_linear_200_363)"/>
<ellipse cx="196.5" cy="223" rx="12.5" ry="13" fill="#01445E"/>
<path fill-rule="evenodd" clip-rule="evenodd" d="M196.5 258C266.364 258 323 248.15 323 236C323 223.85 266.364 214 196.5 214C126.636 214 70 223.85 70 236C70 248.15 126.636 258 196.5 258ZM196.5 255C264.707 255 320 246.27 320 235.5C320 224.73 264.707 216 196.5 216C128.293 216 73 224.73 73 235.5C73 246.27 128.293 255 196.5 255Z" fill="url(#paint4_linear_200_363)"/>
<path fill-rule="evenodd" clip-rule="evenodd" d="M196.5 273C289.008 273 364 257.554 364 238.5C364 219.446 289.008 204 196.5 204C103.992 204 29 219.446 29 238.5C29 257.554 103.992 273 196.5 273ZM196.5 271C287.351 271 361 256.225 361 238C361 219.775 287.351 205 196.5 205C105.649 205 32 219.775 32 238C32 256.225 105.649 271 196.5 271Z" fill="url(#paint5_linear_200_363)"/>
<path d="M86.2979 128C86.2979 116.211 84.6809 116.211 77 116.211C84.6809 116.211 86.2979 112.421 86.2979 104C86.2979 112.842 87.9149 116.211 96 116.211C87.9149 116.211 86.2979 116.211 86.2979 128Z" fill="#F5F5F5"/>
<path d="M89.3617 152C89.3617 146.105 88.2553 146.105 83 146.105C88.2553 146.105 89.3617 144.211 89.3617 140C89.3617 144.421 90.4681 146.105 96 146.105C90.4681 146.105 89.3617 146.105 89.3617 152Z" fill="#F5F5F5"/>
<path d="M111.383 128C111.383 122.105 110.447 122.105 106 122.105C110.447 122.105 111.383 120.211 111.383 116C111.383 120.421 112.319 122.105 117 122.105C112.319 122.105 111.383 122.105 111.383 128Z" fill="#F5F5F5"/>
<path d="M227.83 93C227.83 84.6491 226.468 84.6491 220 84.6491C226.468 84.6491 227.83 81.9649 227.83 76C227.83 82.2632 229.191 84.6491 236 84.6491C229.191 84.6491 227.83 84.6491 227.83 93Z" fill="#F5F5F5"/>
<path d="M324.872 122C324.872 116.596 323.851 116.596 319 116.596C323.851 116.596 324.872 114.86 324.872 111C324.872 115.053 325.894 116.596 331 116.596C325.894 116.596 324.872 116.596 324.872 122Z" fill="#F5F5F5"/>
<path d="M336.872 174C336.872 168.596 335.851 168.596 331 168.596C335.851 168.596 336.872 166.86 336.872 163C336.872 167.053 337.894 168.596 343 168.596C337.894 168.596 336.872 168.596 336.872 174Z" fill="#F5F5F5"/>
<path d="M319.915 152C319.915 148.07 319.234 148.07 316 148.07C319.234 148.07 319.915 146.807 319.915 144C319.915 146.947 320.596 148.07 324 148.07C320.596 148.07 319.915 148.07 319.915 152Z" fill="#F5F5F5"/>
<path d="M135.383 68C135.383 61.1228 134.447 61.1228 130 61.1228C134.447 61.1228 135.383 58.9123 135.383 54C135.383 59.1579 136.319 61.1228 141 61.1228C136.319 61.1228 135.383 61.1228 135.383 68Z" fill="#F5F5F5"/>
<path d="M13.383 76C13.383 69.1228 12.4468 69.1228 8 69.1228C12.4468 69.1228 13.383 66.9123 13.383 62C13.383 67.1579 14.3191 69.1228 19 69.1228C14.3191 69.1228 13.383 69.1228 13.383 76Z" fill="#F5F5F5"/>
<path d="M196.766 79C196.766 68.193 194.894 68.193 186 68.193C194.894 68.193 196.766 64.7193 196.766 57C196.766 65.1053 198.638 68.193 208 68.193C198.638 68.193 196.766 68.193 196.766 79Z" fill="#F5F5F5"/>
<path d="M11.049 142.448C14.1161 140.99 37.1214 115.611 68.9441 121.232C46.6683 141.116 43.6914 149.111 11.049 142.448Z" fill="url(#paint6_linear_200_363)"/>
<path d="M15.6372 141.107C14.3314 141.649 13.2746 142.023 12.5217 142.177C13.5518 141.835 14.5909 141.477 15.6372 141.107C26.2864 136.684 53.4952 121.044 67.4713 121.503C54.4307 124.181 33.9312 134.628 15.6372 141.107Z" fill="url(#paint7_linear_200_363)"/>
<path d="M73.3209 90.6972C70.7729 90.1283 49.8567 75.5634 26.0111 84.4447C45.678 95.2037 48.9729 100.446 73.3209 90.6972Z" fill="url(#paint8_linear_200_363)"/>
<path d="M69.614 90.4441C70.689 90.6306 71.5509 90.735 72.151 90.7299C71.3136 90.6436 70.4674 90.5479 69.614 90.4441C60.8469 88.9232 37.9048 81.9441 27.181 84.4119C37.575 84.3233 54.6929 88.6286 69.614 90.4441Z" fill="url(#paint9_linear_200_363)"/>
<path d="M109.748 57.8324C107.299 58.166 83.1686 51.8631 66.0235 67.9649C87.5186 71.2087 92.5186 74.8951 109.748 57.8324Z" fill="url(#paint10_linear_200_363)"/>
<path d="M106.419 58.8426C107.43 58.653 108.223 58.4597 108.743 58.2541C107.979 58.4557 107.204 58.6517 106.419 58.8426C98.1685 60.3894 75.3596 61.6964 67.0286 67.5432C76.0402 63.9809 92.6918 62.1813 106.419 58.8426Z" fill="url(#paint11_linear_200_363)"/>
<path d="M366.84 77.8046C343.819 89.9204 330.462 112.566 330.462 126C339.15 123.296 342.637 118.863 359.429 117.184C377.061 115.421 384.198 110.467 392.175 95.3538L396.703 101.063L411.906 73.4775C406.476 69.8716 389.862 65.6888 366.84 77.8046Z" fill="url(#paint12_linear_200_363)"/>
<path d="M331.37 123.372L331.302 123.481C342.018 106.301 373.495 83.215 402.165 79.4568C422.361 74.8039 447.416 66.7775 399.461 77.8462C353.089 88.5495 338.428 112.055 331.37 123.372Z" fill="#00919E"/>
<path d="M397.632 38.3469C323.306 27.8027 295.575 81.7537 291 110.047C304.197 104.248 310.056 102.515 329.535 101.085C365.431 98.4486 392.177 80.5235 397.632 72.0882V38.3469Z" fill="url(#paint13_linear_200_363)"/>
<path d="M395.113 44.5566C394.229 45.4391 389.996 48.7864 378.118 56.4111C371.825 60.45 363.778 63.7872 354.811 66.7953C354.811 76.7805 355.338 80.2925 347.997 91.0355C347.971 91.0744 347.944 91.1132 347.918 91.1519C347.944 91.113 347.971 91.0742 347.997 91.0355C353.751 82.5737 353.824 71.0143 352.807 67.3248C348.279 68.8176 343.68 70.2213 339.25 71.5734L338.903 71.6793C339.433 77.9146 338.372 85.857 332.539 93.2699C338.903 82.1505 337.842 72.6197 337.842 72.0031C331.78 73.8551 326.089 75.6162 321.403 77.3851C319.282 83.739 318.221 85.857 315.04 96.9763C315.888 91.046 318.928 81.7165 320.343 77.7931C307.709 82.9919 297.499 96.7111 294.358 103.33C300.429 89.0862 308.063 81.9543 320.343 76.4736C314.893 76.6316 312.388 77.3851 306.025 80.0326C313.449 75.7966 320.847 75.7966 321.403 76.0092C326.015 74.0275 331.267 72.248 337.312 70.3993C335.191 69.9722 327.236 66.7953 316.631 68.9132C324.055 66.2658 331.479 67.8542 338.718 69.9722C342.922 68.7037 347.5 67.3934 352.5 65.9554C348.448 60.9709 338.903 58.3234 328.827 59.9119C340.281 56.5231 350.923 62.0853 354.811 65.2899C355.51 65.0884 356.217 64.8843 356.932 64.6773C377.083 57.0569 385.922 51.2635 395.113 44.5566Z" fill="#00919E"/>
<path d="M196.831 217.738C200.594 234.238 225.331 253.538 261.331 238.738C226.931 244.338 203.331 225.738 196.831 217.738Z" fill="#9B003B"/>
<path fill-rule="evenodd" clip-rule="evenodd" d="M256.851 235.238C258.11 236.448 259.567 237.627 261.331 238.738C226.931 244.338 203.331 225.738 196.831 217.738C197.135 217.941 197.549 218.278 198.092 218.721C202.891 222.636 217.789 234.789 256.851 235.238Z" fill="#D21B54"/>
<path d="M225.831 217.738C211.997 211.238 191.631 194.938 196.831 217.738C197.135 217.941 197.549 218.278 198.092 218.721C202.891 222.636 217.789 234.789 256.851 235.238C248.477 227.185 248.868 217.738 225.831 217.738Z" fill="#750E3E"/>
<path d="M195.5 217.738C191.737 234.238 167 253.538 131 238.738C165.4 244.338 189 225.738 195.5 217.738Z" fill="#9B003B"/>
<path fill-rule="evenodd" clip-rule="evenodd" d="M135.479 235.238C134.221 236.448 132.764 237.627 131 238.738C165.4 244.338 189 225.738 195.5 217.738C195.195 217.941 194.782 218.278 194.239 218.721C189.44 222.636 174.541 234.789 135.479 235.238Z" fill="#D21B54"/>
<path d="M166.5 217.738C180.333 211.238 200.7 194.938 195.5 217.738C195.195 217.941 194.782 218.278 194.239 218.721C189.44 222.636 174.541 234.789 135.479 235.238C143.853 227.185 143.463 217.738 166.5 217.738Z" fill="#750E3E"/>
<path d="M195.5 215.5C224 219 257.5 217.5 315 188.5C305.5 185.5 281.5 185.5 271 187C243.5 204 214 215.5 195.5 215.5Z" fill="#FF919D"/>
<path d="M315 188.5C289 211.893 230.5 230 195.5 215.5C224 219 257.5 217.5 315 188.5Z" fill="#FF4C7A"/>
<path d="M195.5 215.5C218.5 227.5 279 236 315 188.5C289 211.893 230.5 230 195.5 215.5Z" fill="#FF265D"/>
<path d="M197.5 215.485C169 218.985 135.5 217.485 78 188.485C87.5 185.485 111.5 185.485 122 186.985C149.5 203.985 179 215.485 197.5 215.485Z" fill="#FF919D"/>
<path d="M78 188.485C104 211.878 162.5 229.985 197.5 215.485C169 218.985 135.5 217.485 78 188.485Z" fill="#FF4C7A"/>
<path d="M197.5 215.485C174.5 227.485 114 235.985 78 188.485C104 211.878 162.5 229.985 197.5 215.485Z" fill="#FF265D"/>
<path d="M99 135.5C148.5 143 192.8 186.9 196 216.5C182.796 198.894 165.051 186.435 146.097 173.125C130.6 162.244 114.294 150.794 99 135.5Z" fill="#FFD8C2"/>
<path d="M146.097 173.125C165.051 186.435 182.796 198.894 196 216.5C194.409 216.003 192.797 215.507 191.169 215.005C160.058 205.426 122.757 193.941 99 135.5C114.294 150.794 130.6 162.244 146.097 173.125Z" fill="#FF9FA5"/>
<path d="M196 216.5C141.5 211.5 106.5 187.5 99 135.5C122.757 193.941 160.058 205.426 191.169 215.005C192.797 215.507 194.409 216.003 196 216.5Z" fill="#FF5983"/>
<path d="M196 216.5C160.5 222.5 105 197 99 135.5C106.5 187.5 141.5 211.5 196 216.5Z" fill="#F51F61"/>
<path d="M293 135.5C243.5 143 199.2 186.9 196 216.5C209.204 198.894 226.949 186.435 245.903 173.125C261.4 162.244 277.706 150.794 293 135.5Z" fill="#FFD8C2"/>
<path d="M245.903 173.125C226.949 186.435 209.204 198.894 196 216.5C197.591 216.003 199.203 215.507 200.831 215.005C231.942 205.426 269.243 193.941 293 135.5C277.706 150.794 261.4 162.244 245.903 173.125Z" fill="#FF9FA5"/>
<path d="M196 216.5C250.5 211.5 285.5 187.5 293 135.5C269.243 193.941 231.942 205.426 200.831 215.005C199.203 215.507 197.591 216.003 196 216.5Z" fill="#FF5983"/>
<path d="M196 216.5C231.5 222.5 287 197 293 135.5C285.5 187.5 250.5 211.5 196 216.5Z" fill="#F51F61"/>
<path d="M196.61 216C198.119 214.687 199.654 213.41 201.206 212.156C228.226 188.728 244.926 158.686 250.61 108C203.01 140 194.777 193.333 196.61 216Z" fill="#FFD7C2"/>
<path d="M201.206 212.156C228.226 188.728 244.926 158.686 250.61 108C258.635 176.449 227.44 190.97 201.206 212.156Z" fill="#FF939A"/>
<path d="M196.61 216C210.11 211 264.11 185.5 250.61 108C258.635 176.449 227.44 190.97 201.206 212.156C199.706 213.457 198.174 214.738 196.61 216Z" fill="#FF3F7B"/>
<path d="M196.149 216C194.64 214.687 193.105 213.41 191.553 212.156C164.533 188.728 147.833 158.686 142.149 108C189.749 140 197.982 193.333 196.149 216Z" fill="#FFD7C2"/>
<path d="M191.553 212.156C164.533 188.728 147.833 158.686 142.149 108C134.123 176.449 165.319 190.97 191.553 212.156Z" fill="#FF939A"/>
<path d="M196.149 216C182.649 211 128.649 185.5 142.149 108C134.123 176.449 165.319 190.97 191.553 212.156C193.053 213.457 194.585 214.738 196.149 216Z" fill="#FF3F7B"/>
<path d="M196.351 216.5C158.351 199.273 145.851 159.5 196.351 95C246.851 159.5 234.351 199.273 196.351 216.5Z" fill="#FFD7C7"/>
<path d="M187.851 213.5C156.975 194.137 154.934 150.953 196.351 110C237.769 150.953 235.728 194.137 204.851 213.5C202.616 214.911 199.605 216.5 196.351 216.5C193.098 216.5 190.087 214.911 187.851 213.5Z" fill="#FFC8B6"/>
<path d="M196.351 126.432C166.624 160.804 159.612 196.039 188.851 214.5C191.087 215.911 193.32 216.532 196.351 216.5C199.266 216.469 201.616 215.911 203.851 214.5C233.091 196.039 226.079 160.804 196.351 126.432Z" fill="url(#paint14_linear_200_363)"/>
<defs>
<linearGradient id="paint0_linear_200_363" x1="196.5" y1="0" x2="196.5" y2="227" gradientUnits="userSpaceOnUse">
<stop stop-color="#008097"/>
<stop offset="0.38" stop-color="#0397B2"/>
<stop offset="0.745" stop-color="#0590AA"/>
<stop offset="0.986929" stop-color="#007990"/>
</linearGradient>
<radialGradient id="paint1_radial_200_363" cx="0" cy="0" r="1" gradientUnits="userSpaceOnUse" gradientTransform="translate(197.5 238.5) rotate(-0.140082) scale(204.508 46.5433)">
<stop offset="0.17" stop-color="#00435D"/>
<stop offset="0.52" stop-color="#0A87A2"/>
<stop offset="0.825" stop-color="#04839F"/>
<stop offset="1" stop-color="#006D84"/>
</radialGradient>
<linearGradient id="paint2_linear_200_363" x1="196.138" y1="289" x2="196.138" y2="238.249" gradientUnits="userSpaceOnUse">
<stop stop-color="#87D2DD"/>
<stop offset="0.555" stop-color="#00C7D5"/>
<stop offset="1" stop-color="#00506D"/>
</linearGradient>
<linearGradient id="paint3_linear_200_363" x1="197" y1="162" x2="197" y2="227.5" gradientUnits="userSpaceOnUse">
<stop stop-color="#87D2DD"/>
<stop offset="0.498943" stop-color="#00C7D5"/>
<stop offset="1" stop-color="#00506D"/>
</linearGradient>
<linearGradient id="paint4_linear_200_363" x1="196" y1="258" x2="196" y2="214" gradientUnits="userSpaceOnUse">
<stop stop-color="#87D2DD"/>
<stop offset="0.555" stop-color="#00C7D5"/>
<stop offset="1" stop-color="#00506D"/>
</linearGradient>
<linearGradient id="paint5_linear_200_363" x1="195.838" y1="273" x2="195.838" y2="204" gradientUnits="userSpaceOnUse">
<stop stop-color="#87D2DD"/>
<stop offset="0.555" stop-color="#00C7D5"/>
<stop offset="1" stop-color="#00506D"/>
</linearGradient>
<linearGradient id="paint6_linear_200_363" x1="39.4711" y1="144.822" x2="13.7626" y2="124.901" gradientUnits="userSpaceOnUse">
<stop stop-color="#00C9C7"/>
<stop offset="0.331175" stop-color="#009AAA"/>
<stop offset="0.666524" stop-color="#00829A"/>
</linearGradient>
<linearGradient id="paint7_linear_200_363" x1="67.289" y1="122.877" x2="-13.0257" y2="139.619" gradientUnits="userSpaceOnUse">
<stop offset="0.251223" stop-color="#00919E"/>
<stop offset="1" stop-color="#003338"/>
</linearGradient>
<linearGradient id="paint8_linear_200_363" x1="62.5" y1="96" x2="33.5921" y2="71.3204" gradientUnits="userSpaceOnUse">
<stop stop-color="#00C9C7"/>
<stop offset="0.331175" stop-color="#009AAA"/>
<stop offset="0.666524" stop-color="#00829A"/>
</linearGradient>
<linearGradient id="paint9_linear_200_363" x1="70.3106" y1="92.0412" x2="9.16043" y2="63.7052" gradientUnits="userSpaceOnUse">
<stop offset="0.251223" stop-color="#00919E"/>
<stop offset="1" stop-color="#003338"/>
</linearGradient>
<linearGradient id="paint10_linear_200_363" x1="102.485" y1="66.302" x2="66.5062" y2="56.2111" gradientUnits="userSpaceOnUse">
<stop stop-color="#00C9C7"/>
<stop offset="0.331175" stop-color="#009AAA"/>
<stop offset="0.666524" stop-color="#00829A"/>
</linearGradient>
<linearGradient id="paint11_linear_200_363" x1="107.674" y1="60.0687" x2="42.9385" y2="60.2698" gradientUnits="userSpaceOnUse">
<stop offset="0.251223" stop-color="#00919E"/>
<stop offset="1" stop-color="#003338"/>
</linearGradient>
<linearGradient id="paint12_linear_200_363" x1="352.723" y1="124.321" x2="381.247" y2="64.7235" gradientUnits="userSpaceOnUse">
<stop stop-color="#00C9C7"/>
<stop offset="0.331175" stop-color="#009AAA"/>
<stop offset="1" stop-color="#00829A"/>
</linearGradient>
<linearGradient id="paint13_linear_200_363" x1="311.587" y1="102.666" x2="372.21" y2="36.6881" gradientUnits="userSpaceOnUse">
<stop stop-color="#00C9C7"/>
<stop offset="0.485" stop-color="#009AAA"/>
<stop offset="1" stop-color="#00829A"/>
</linearGradient>
<linearGradient id="paint14_linear_200_363" x1="205.676" y1="95.6406" x2="205.676" y2="215.154" gradientUnits="userSpaceOnUse">
<stop stop-color="#FFBBAF"/>
<stop offset="1" stop-color="#FF467D"/>
</linearGradient>
</defs>
</svg>
