<svg width="173" height="173" viewBox="0 0 173 173" fill="none" xmlns="http://www.w3.org/2000/svg">
<path d="M126.908 6.91015C117.155 6.91015 107.402 6.86938 97.65 6.95093C95.8543 6.95908 94.0007 7.25267 92.2824 7.77459C89.0408 8.75319 87.4554 11.0855 87.5207 14.5188C87.5867 18.0581 89.8049 19.1671 92.8785 19.371C94.2967 19.4689 95.7116 19.6972 97.1289 19.7135C109.213 19.8195 121.299 19.844 133.382 20.0153C136.357 20.056 137.786 22.8613 136.347 25.6014C135.818 26.6045 134.928 27.4445 134.102 28.26C120.292 41.8707 106.469 55.4569 92.6461 69.0512C85.8734 75.7057 79.1121 82.3765 72.3157 89.0147C67.0516 94.1524 65.269 94.136 60.0979 89.2675C56.9737 86.3235 53.8218 83.4041 50.5606 80.6151C47.4919 77.9973 44.1051 78.0054 41.4352 80.3785C38.2376 83.2165 39.5897 86.1033 41.6545 88.6151C45.4499 93.2308 49.4556 97.6753 53.4923 102.087C56.9101 105.822 56.9982 106.369 53.3904 110.006C42.9455 120.542 32.4761 131.046 22.0303 141.574C17.4554 146.189 12.8021 150.732 8.39762 155.502C5.32971 158.821 5.12013 162.711 7.4125 164.97C10.0025 167.523 13.0076 167.441 16.781 164.179C21.6935 159.931 26.5262 155.576 31.1354 151.001C41.7573 140.465 52.2234 129.773 62.7531 119.147C66.9203 114.939 68.6565 115.037 73.1728 119.074C77.234 122.703 81.4036 126.242 85.7796 129.472C88.1568 131.225 91.1807 132.008 93.4812 129.137C95.6341 126.454 95.449 123.51 93.1452 120.958C89.7446 117.207 86.3211 113.447 82.666 109.949C78.5665 106.018 78.3667 105.047 82.4785 100.856C88.3101 94.9108 94.2339 89.0636 100.12 83.1676C115.387 67.8932 130.615 52.57 145.998 37.4099C147.254 36.1703 149.716 35.2732 151.326 35.6076C152.306 35.8115 153.333 38.7147 153.29 40.3701C153.106 47.3834 152.315 54.3886 152.154 61.4019C152.006 67.8769 152.014 74.4009 152.638 80.8352C153.119 85.7853 157.364 87.9138 161.422 85.2715C163.216 84.1054 164.596 81.1451 164.778 78.878C165.298 72.4193 165.017 65.8953 165.217 59.3957C165.641 45.6219 166.336 31.8563 166.592 18.0743C166.738 10.2455 163.131 6.93463 155.396 6.91832C145.9 6.89385 136.404 6.91015 126.908 6.91015ZM127.404 25.21C118.364 25.21 109.323 25.2263 100.282 25.1937C97.3124 25.1855 94.2999 25.2997 91.3813 24.8675C84.8222 23.8889 81.8929 20.5535 81.6271 14.3149C81.4036 9.08756 85.2022 3.49324 90.4271 2.32708C94.4533 1.42187 98.6604 0.981479 102.79 0.957014C115.394 0.891774 128 1.18537 140.605 1.21799C144.891 1.22615 149.181 0.899945 153.465 0.64714C161.84 0.15784 168.32 3.15885 170.878 10.2945C172.44 14.6574 172.482 19.7461 172.399 24.4842C172.111 40.8594 171.48 57.2265 170.95 73.5936C170.866 76.195 170.772 78.8046 170.437 81.3816C169.568 88.0524 165.085 91.8445 158.093 91.9831C152.384 92.1054 147.577 88.3297 147.056 82.0585C146.414 74.3194 146.623 66.4988 146.659 58.7189C146.68 54.3152 147.091 49.9196 147.299 46.0215C127.489 65.8708 107.546 85.8505 87.4065 106.034C90.2445 109.125 93.9346 112.917 97.3589 116.946C100.272 120.371 101.743 124.31 100.142 128.876C97.862 135.392 92.2498 138.54 85.9329 135.702C81.2968 133.631 77.2968 130.075 73.1328 127.025C71.373 125.728 69.9189 124.024 68.1053 122.295C67.0639 123.233 66.091 124.024 65.2127 124.905C53.6611 136.55 42.1928 148.277 30.5401 159.816C26.8556 163.462 22.8303 166.813 18.7047 169.961C14.0042 173.549 8.13748 173.256 3.92297 169.676C-0.0028459 166.34 -1.08094 160.567 1.61592 155.421C2.73886 153.276 4.37965 151.327 6.08975 149.582C19.8627 135.572 33.7099 121.635 47.5278 107.673C47.9722 107.225 48.3514 106.711 48.9638 105.993C46.5573 103.343 44.1394 100.839 41.9106 98.1809C39.743 95.5876 37.5436 92.978 35.7609 90.1319C32.5503 84.9943 33.2165 80.1013 37.2671 76.3255C41.5208 72.354 47.9029 71.4978 52.3213 74.7842C56.0652 77.5732 59.4202 80.876 62.9374 83.9667C63.9935 84.8964 65.017 85.8587 66.1962 86.9352C86.8463 66.6374 107.298 46.5272 127.751 26.4251C127.635 26.0173 127.519 25.6096 127.404 25.21Z" fill="white"/>
<path d="M126.908 6.91014C136.404 6.91014 145.9 6.89383 155.396 6.9183C163.131 6.93461 166.737 10.2455 166.592 18.0743C166.336 31.8563 165.641 45.6219 165.217 59.3957C165.017 65.8953 165.298 72.4192 164.778 78.878C164.596 81.1451 163.216 84.1054 161.422 85.2715C157.364 87.9137 153.119 85.7853 152.638 80.8352C152.014 74.4009 152.005 67.8769 152.154 61.4019C152.315 54.3886 153.106 47.3834 153.29 40.3701C153.333 38.7147 152.306 35.8114 151.326 35.6076C149.716 35.2732 147.254 36.1703 145.998 37.4098C130.615 52.57 115.387 67.8932 100.12 83.1675C94.2338 89.0636 88.31 94.9107 82.4784 100.856C78.3667 105.047 78.5665 106.018 82.666 109.949C86.321 113.447 89.7445 117.207 93.1451 120.958C95.4489 123.51 95.634 126.454 93.4811 129.137C91.1806 132.008 88.1567 131.225 85.7795 129.472C81.4036 126.242 77.2339 122.703 73.1727 119.074C68.6565 115.037 66.9203 114.939 62.7531 119.147C52.2233 129.773 41.7572 140.465 31.1353 151.001C26.5261 155.576 21.6935 159.931 16.7809 164.179C13.0076 167.441 10.0025 167.523 7.41244 164.97C5.12007 162.711 5.32965 158.821 8.39756 155.502C12.8021 150.732 17.4553 146.189 22.0303 141.574C32.476 131.046 42.9454 120.542 53.3903 110.006C56.9981 106.369 56.91 105.822 53.4923 102.087C49.4556 97.6753 45.4498 93.2308 41.6545 88.6151C39.5896 86.1033 38.2375 83.2165 41.4351 80.3785C44.105 78.0054 47.4918 77.9973 50.5605 80.615C53.8217 83.4041 56.9736 86.3235 60.0978 89.2675C65.2689 94.136 67.0516 94.1523 72.3156 89.0147C79.112 82.3765 85.8733 75.7057 92.6461 69.0512C106.469 55.4568 120.292 41.8706 134.102 28.2599C134.928 27.4444 135.818 26.6045 136.347 25.6014C137.786 22.8613 136.357 20.056 133.382 20.0152C121.299 19.844 109.213 19.8195 97.1289 19.7135C95.7115 19.6972 94.2966 19.4689 92.8785 19.371C89.8049 19.1671 87.5867 18.058 87.5206 14.5188C87.4554 11.0855 89.0407 8.75317 92.2823 7.77457C94.0006 7.25265 95.8542 6.95907 97.65 6.95091C107.402 6.86936 117.155 6.91014 126.908 6.91014Z" fill="white"/>
</svg>
