<svg width="45" height="44" viewBox="0 0 45 44" fill="none" xmlns="http://www.w3.org/2000/svg">
<path d="M21.3354 7.39062H21.8408L22.4341 7.41211L23.2031 7.47656L24.0161 7.58398L24.7192 7.71289L25.3564 7.86328L25.9058 8.01367L26.6968 8.27148L27.312 8.50781L28.0371 8.83008L28.6523 9.13086L29.1797 9.43164L29.6191 9.68945L30.0366 9.96875L30.4102 10.2266L30.8057 10.5273L31.1133 10.7637L31.377 11L31.6187 11.1934L31.8604 11.4297L32.0361 11.5801L32.3438 11.8809L32.4976 12.0527L32.6514 12.2031L32.8052 12.375L33.0688 12.6758L33.2446 12.8906L33.4644 13.1699L33.772 13.5781L34.1235 14.0938L34.3872 14.502L34.6509 14.9531L34.8926 15.3828L35.1343 15.877L35.376 16.4141L35.6616 17.1445L35.9033 17.875L36.123 18.6914L36.2549 19.3145L36.3867 20.1309L36.4526 20.7324L36.4966 21.4844V22.5156L36.4526 23.2891L36.3428 24.1699L36.2109 24.9219L35.9912 25.8242L35.7935 26.4688L35.5518 27.1562L35.2881 27.7793L35.0464 28.2949L34.8706 28.6387L34.6069 29.1328L34.3213 29.6055L34.1675 29.8418L33.8159 30.3574L33.5303 30.7441L33.2666 31.0664L33.0249 31.3672L32.959 31.4531H32.915L32.8711 31.5391L32.6733 31.7539L32.5195 31.9258L32.3438 32.0977L32.1899 32.2695L32.0142 32.4414H31.9702V32.4844L31.7944 32.6348L31.6406 32.7852L31.4648 32.9355L31.1572 33.1934L30.9155 33.3867L30.6079 33.623L30.2124 33.9023L29.7729 34.2031L29.2017 34.5469L28.6963 34.8262L28.1909 35.084L27.5537 35.3848L26.9604 35.6211L26.3452 35.8359L25.7959 36.0078L24.9609 36.2227L24.1919 36.373L23.4668 36.4805L22.5879 36.5664L22.2144 36.5879H20.8521L20.2368 36.5449L19.4678 36.459L18.5669 36.3086L17.7319 36.1152L17.1167 35.9434L16.3477 35.6855L15.6006 35.3848L15.0293 35.127L14.458 34.8477L14.0405 34.6113L13.5791 34.332L13.2056 34.0957L12.832 33.8379L12.5684 33.6445L12.019 33.2148L11.7993 33.0215L11.5796 32.8496L11.4038 32.6777L11.228 32.5273L10.6567 31.9688L10.5029 31.7969L10.3052 31.582L10.1074 31.3457L9.95361 31.1738L9.51416 30.6152L9.25049 30.25L8.98682 29.8633L8.70117 29.4121L8.41553 28.918L8.08594 28.2949L7.73438 27.5215L7.49268 26.8984L7.27295 26.2539L7.0752 25.5664L6.89941 24.7715L6.76758 23.998L6.67969 23.2246L6.63574 22.5156V21.4199L6.67969 20.7324L6.78955 19.8301L6.94336 18.9922L7.11914 18.2617L7.29492 17.6602L7.55859 16.9082L7.80029 16.3281L8.06396 15.748L8.39355 15.1035L8.70117 14.5879L8.89893 14.2656L9.38232 13.5566L9.62402 13.2344L9.93164 12.8477L10.1733 12.5684L10.1953 12.5254H10.2393L10.2832 12.4395L10.481 12.2246L10.5029 12.1816H10.5469L10.5908 12.0957L10.8984 11.7949L11.0303 11.6445H11.0742L11.0962 11.5801L11.272 11.4297L11.5576 11.1504L11.7993 10.957L11.8652 10.8926H11.9092V10.8496L12.1289 10.6777L12.5244 10.377L12.9419 10.0762L13.3813 9.77539L13.7329 9.56055L14.0625 9.36719L14.6118 9.06641L15.0732 8.83008L15.8643 8.48633L16.4355 8.27148L17.2266 8.01367L17.8418 7.8418L18.7427 7.64844L19.4019 7.54102L20.105 7.45508L20.6763 7.41211L21.3354 7.39062ZM20.9839 8.80859L20.105 8.87305L19.4458 8.95898L18.8525 9.06641L18.1714 9.2168L17.2925 9.47461L16.8091 9.64648L16.2158 9.88281L15.6445 10.1406L15.2051 10.3555L14.6777 10.6562L14.3481 10.8496L13.9526 11.1074L13.5571 11.3867L13.2715 11.6016L12.9639 11.8379L12.7222 12.0527L12.4805 12.2461L12.1069 12.6113L12.019 12.6758V12.7188H11.9751L11.8213 12.8906L11.6016 13.1055L11.4478 13.2773L11.1841 13.5781L10.9204 13.9004L10.7007 14.1797L10.3931 14.6094L10.1514 14.9746L9.97559 15.2539L9.71191 15.7051L9.44824 16.1992L9.22852 16.6504L8.94287 17.3379L8.70117 18.0039L8.45947 18.8633L8.32764 19.4434L8.23975 19.916L8.15186 20.5605L8.08594 21.334V22.666L8.17383 23.6543L8.28369 24.3418L8.41553 24.9648L8.59131 25.6309L8.74512 26.125L9.00879 26.834L9.25049 27.3926L9.55811 28.0156L9.75586 28.3809L10.0635 28.8965L10.3491 29.3262L10.6567 29.7559L10.9424 30.1211L11.228 30.4648L11.5137 30.7871L11.7773 31.0664L12.4805 31.7539L12.7222 31.9473L12.9639 32.1621L13.2715 32.3984L13.5571 32.6133L13.9966 32.9141L14.502 33.2363L15.0732 33.5586L15.6665 33.8594L16.3257 34.1602L17.0728 34.4395L17.7539 34.6543L18.3911 34.8262L19.1382 34.9766L19.7314 35.0625L20.5444 35.1484H20.874V35.127L20.2368 35.0195L19.7974 34.9121L19.1602 34.6973L18.7646 34.5254L18.2593 34.2676L17.7319 33.9238L17.3804 33.6445L17.1606 33.4512L16.9849 33.3008L16.6772 32.9785L16.4355 32.6777L16.2378 32.4199L15.9741 32.0117L15.8423 31.7969L15.5786 31.2383L15.3809 30.7012L15.249 30.207L15.1611 29.7559L15.0952 29.1973V28.4668L15.1392 28.0156L15.2271 27.5215L15.3589 27.0059L15.5127 26.5762L15.7104 26.1035L15.9741 25.6094L16.3257 25.0938L16.6333 24.707L16.897 24.4277L17.2705 24.0625L17.5122 23.8691L17.8638 23.6113L18.2812 23.3535L18.8086 23.0742L19.3579 22.8594L19.9072 22.6875L20.5444 22.5586L21.1377 22.4941H21.9946L22.5879 22.5586L23.0493 22.6445L23.6646 22.8164L24.2139 23.0312L24.5654 23.2031L24.9609 23.418L25.3564 23.6758L25.6641 23.9121L25.9717 24.1699L26.4331 24.6211L26.6309 24.8574L26.9385 25.2656L27.1802 25.6523L27.4438 26.1465L27.5977 26.4902L27.8174 27.1348L27.9492 27.7148L28.0151 28.1875L28.0371 28.4883V29.1113L27.9932 29.6484L27.8833 30.2285L27.7515 30.7227L27.5757 31.1953L27.3999 31.582L27.1582 32.0332L26.8726 32.4629L26.6748 32.7207L26.4331 33L26.2793 33.1719L25.9058 33.5371L25.6641 33.7305L25.3564 33.9668L24.9829 34.2031L24.6313 34.3965L24.2798 34.5684L23.8623 34.7402L23.335 34.9121L22.7637 35.041L22.1704 35.1484V35.1699L22.6318 35.1484L23.5767 35.041L24.3237 34.9121L25.3784 34.6543L26.1694 34.3965L26.6309 34.2246L27.334 33.9238L27.9492 33.623L28.4766 33.3223L28.8721 33.0859L29.1357 32.9141L29.5093 32.6562L29.8828 32.377L30.2344 32.0977L30.4541 31.9043L30.6958 31.7109L30.9595 31.4531L31.1353 31.3027L31.3989 31.0234L31.5527 30.873L31.7505 30.6367L31.9922 30.3789L32.2119 30.0996V30.0566H32.2559L32.4976 29.7344L32.8491 29.2402L33.1348 28.7891L33.3765 28.3809L33.6401 27.9082L33.9258 27.3066L34.1675 26.7266L34.3872 26.125L34.6069 25.416L34.8047 24.5781L34.9365 23.8047L35.0244 22.9668L35.0464 22.623V21.334L34.9805 20.5391L34.8706 19.7656L34.7388 19.1211L34.563 18.4336L34.3872 17.875L34.1895 17.3164L33.9258 16.6934L33.6401 16.0918L33.3765 15.5977L33.1567 15.2324L32.8931 14.8242L32.6294 14.4375L32.3218 14.0293L32.0801 13.7285L31.5967 13.1699L31.2671 12.8262L30.7178 12.2891L30.542 12.1387L30.2344 11.8809L29.8828 11.6016L29.4653 11.3008L29.0918 11.043L28.7183 10.8066L28.3887 10.6133L27.8833 10.334L27.2241 10.0117L26.5649 9.73242L25.9058 9.49609L25.2686 9.30273L24.6753 9.15234L23.9502 9.00195L23.1812 8.89453L22.522 8.83008L22.0825 8.80859H20.9839ZM21.5112 23.8691L21.0938 23.8906L20.5225 23.9766L20.0171 24.1055L19.5557 24.2773L19.2041 24.4492L18.8525 24.6426L18.5449 24.8574L18.1714 25.1582L17.7539 25.5664L17.4683 25.9316L17.2485 26.2539L16.9849 26.7266L16.7871 27.2207L16.6333 27.7363L16.5454 28.2734L16.5234 28.4453V29.1973L16.6113 29.7988L16.7432 30.293L16.9189 30.7656L17.0947 31.1094L17.2705 31.4316L17.5342 31.7969L17.7319 32.0332L17.9736 32.291L18.2153 32.5273L18.5229 32.7637L18.9404 33.043L19.5337 33.3438L19.9951 33.5156L20.3687 33.623L21.0278 33.7305L21.2695 33.752H21.9067L22.5439 33.666L23.0713 33.5371L23.5327 33.3652L23.9941 33.1504L24.4556 32.8711L24.7412 32.6562L25.0488 32.3984L25.2686 32.1836L25.4224 32.0117L25.4443 31.9473H25.4883L25.7739 31.5605L25.9717 31.2383L26.1475 30.8945L26.2573 30.6582L26.4551 30.0781L26.5649 29.541L26.6089 29.1758V28.4668L26.543 27.9512L26.4331 27.4785L26.2573 26.9629L25.9497 26.3398L25.708 25.9746L25.4883 25.6953L25.2246 25.3945L25.0049 25.1797L24.7632 24.9863L24.3896 24.707L23.9722 24.4707L23.6206 24.2988L23.291 24.1699L22.8955 24.041L22.3682 23.9336L22.0166 23.8906L21.5112 23.8691Z" fill="#B0ABA4"/>
<path d="M38.1006 10.6777H41.6821L41.9019 10.7637L42.1216 10.957L42.2314 11.1719L42.2534 11.2363V11.5156L42.1655 11.7305L41.9678 11.9668L40.3638 13.5352H41.5283L41.77 13.5781L41.9897 13.707L42.1655 13.9004L42.2534 14.1152V14.373L42.1875 14.5664L42.0337 14.7598L41.8579 14.8887L41.6382 14.9531H38.4741L38.2544 14.8887L38.0566 14.7383L37.9248 14.5234L37.8809 14.416V14.0938L37.9688 13.8789L38.1665 13.6641L39.7266 12.1387L39.7485 12.0957H38.2324L38.0127 12.0527L37.8149 11.9453L37.6611 11.7949L37.5513 11.5801L37.5293 11.4941V11.2793L37.6172 11.0215L37.8149 10.8066L38.0127 10.6992L38.1006 10.6777Z" fill="#B0ABA4"/>
<path d="M37.7271 15.791H39.6826L40.0562 15.8125L40.2759 15.8984L40.4736 16.0703L40.6055 16.3281L40.6274 16.5L40.5835 16.7578L40.4517 16.9727L39.5068 17.8965L40.0122 17.918L40.21 17.9824L40.3418 18.0684L40.5176 18.2617L40.6055 18.4551V18.7988L40.4956 19.0137L40.3418 19.1855L40.1221 19.293L40.0562 19.3145L39.5508 19.3359H37.771L37.4854 19.293L37.2876 19.1855L37.1118 18.9922L37.0239 18.7988L37.002 18.7129V18.5625L37.0898 18.2832L37.2437 18.0898L38.1006 17.252L38.1226 17.209L37.9468 17.2305L37.3535 17.209L37.1118 17.123L36.936 16.9727L36.8042 16.7578L36.7603 16.6074V16.4141L36.8481 16.1777L36.98 16.0059L37.1558 15.877L37.3315 15.8125L37.7271 15.791Z" fill="#B0ABA4"/>
<path d="M16.5234 19.0352H16.8091L17.0508 19.1211L17.2705 19.3145L17.3804 19.5293L17.4023 19.6152V19.873L17.3145 20.0879L17.1387 20.3027L16.1499 21.2695L15.9521 21.3984L15.7544 21.4629H15.5127L15.271 21.377L15.0952 21.2266L14.9634 21.0332L14.9194 20.9043V20.6035L15.0073 20.3887L15.249 20.1309L15.7544 19.6367L15.8862 19.4863L16.0181 19.3789L16.1279 19.2715L16.2817 19.1426L16.4575 19.0566L16.5234 19.0352Z" fill="#B0ABA4"/>
<path d="M26.3013 19.1211H26.5869L26.8066 19.207L27.0483 19.4004L27.8174 20.1523L27.9932 20.3887L28.0591 20.582V20.8184L27.9932 21.0117L27.8613 21.1836L27.7075 21.3125L27.5537 21.377L27.4438 21.3984H27.1802L27.0044 21.334L26.7847 21.1621L25.8838 20.2812L25.7739 20.1094L25.73 20.002L25.708 19.7871L25.7739 19.5508L25.8618 19.4004L25.9497 19.293L26.1035 19.1855L26.3013 19.1211Z" fill="#B0ABA4"/>
</svg>
