<svg width="222" height="170" viewBox="0 0 222 170" fill="none" xmlns="http://www.w3.org/2000/svg">
<path d="M133.704 61.6802C133.138 52.3835 132.535 42.5242 131.937 32.6648C130.584 10.3364 109.641 0.395408 91.3619 10.2222C78.1663 17.3089 68.2906 27.7636 62.0847 41.5293C61.451 42.9401 60.8369 44.4243 59.8746 45.5986C57.9582 47.9228 55.9358 47.9146 54.224 45.2479C53.663 44.3753 53.137 43.4701 52.6884 42.5323C48.3369 33.4476 41.888 25.8309 34.4229 19.3966C29.2184 14.9113 22.8216 11.5841 16.5284 8.66461C11.4951 6.32412 7.85961 7.83278 6.4015 11.2089C4.94012 14.5933 6.39985 16.4526 11.7063 19.6983C16.7673 22.7972 22.4994 25.6025 26.1782 30.0062C35.9756 41.725 43.6299 55.0258 48.5001 69.5172C50.6367 75.8781 50.171 83.0871 51.1537 89.8721C51.5696 92.7426 51.9137 96.233 53.6972 98.1005C55.2483 99.7315 58.9018 100.229 61.4086 99.8375C64.7897 99.3074 65.7169 96.0862 65.7544 92.8568C65.9208 78.6916 68.5499 64.9912 73.5008 51.7148C77.7243 40.3957 84.8379 31.3192 94.8392 24.5913C104.452 18.1244 113.94 21.9246 116.609 33.1785C116.998 34.8177 117.374 36.4976 117.44 38.1775C117.853 48.6975 118.127 59.2256 118.543 69.7456C119.091 83.6172 118.837 97.6193 124.852 110.675C125.274 111.589 125.11 113.04 124.702 114.027C123.112 117.86 121.301 121.611 119.596 125.403C113.211 139.609 101.829 147.275 86.8057 149.306C78.1117 150.472 69.2382 150.366 60.4398 150.692C55.2247 150.888 52.0768 153.09 51.7604 157.167C51.4603 161.033 53.919 163.952 59.3633 164.14C67.7711 164.433 76.2213 164.001 84.6332 163.52C89.5442 163.243 94.6949 163.088 99.2543 161.497C111.751 157.126 122.464 149.917 130.514 139.136C133.764 134.79 135.719 134.831 139.411 138.729C152.692 152.755 168.158 159.948 187.736 153.734C196.557 150.929 204.283 146.084 209.137 138.28C216.548 126.366 217.995 113.024 214.601 99.5357C210.528 83.3481 198.016 75.6742 183.276 71.0504C179.287 69.7945 174.704 69.2399 170.595 69.8108C159.331 71.3765 148.92 75.0626 141.29 84.3838C140.335 85.5499 137.531 85.6886 135.703 85.4358C134.884 85.3216 133.832 83.079 133.793 81.7742C133.598 75.2828 133.704 68.7751 133.704 61.6802ZM57.513 37.0685C59.0665 34.5486 60.9046 31.5883 62.7305 28.6117C68.815 18.7034 77.3271 11.1682 87.3268 5.70432C100.518 -1.5047 113.487 -1.30899 125.851 7.65336C132.656 12.5871 136.178 19.5678 136.82 27.5516C138.061 42.9563 138.536 58.4183 139.32 73.8638C139.365 74.7527 139.326 75.6416 139.326 77.1666C154.113 66.0269 169.84 60.2042 187.674 66.2715C199.277 70.2267 209.406 76.6447 216.055 87.6376C226.329 104.624 222.316 135.483 208.617 147.919C189.02 165.705 159.242 168.348 135.352 143.328C130.737 147.642 126.429 152.339 121.452 156.18C110.462 164.645 97.9609 169.343 83.927 169.44C74.8513 169.506 65.7357 170.101 56.7122 169.44C49.296 168.894 45.6091 163.446 46.1596 156.123C46.6366 149.795 52.0214 145.081 59.0396 145.114C70.4819 145.163 81.845 145.465 93.0467 141.925C101.652 139.202 107.952 134.26 112.345 126.578C112.991 125.452 113.566 124.278 114.229 123.161C117.848 117.061 118.757 111.279 116.739 103.809C113.999 93.6641 113.615 82.8098 112.88 72.2165C112.124 61.3296 112.232 50.3774 111.794 39.4579C111.702 37.1663 111.113 34.8095 110.347 32.6321C108.504 27.3803 104.235 25.5536 99.5756 28.6525C95.2967 31.4904 91.1539 34.8748 87.8569 38.7892C81.2252 46.6506 77.5685 55.988 75.1074 66.0513C72.7677 75.6171 71.8241 85.2074 71.3145 94.9526C71.0021 100.914 66.4109 105.546 60.6918 106.174C54.0609 106.9 47.7898 103.214 46.4833 97.2279C45.605 93.1993 45.3449 88.9913 45.2911 84.8568C45.119 71.6457 39.0818 60.5956 32.6084 49.725C28.5015 42.8341 25.0642 35.3396 18.2662 30.4874C15.0026 28.155 11.46 26.206 7.97866 24.1917C0.953132 20.1387 -1.4118 14.9847 1.06651 8.89293C3.38742 3.19259 9.53303 0.607454 16.9329 2.69513C25.6082 5.14163 33.2583 9.74921 39.4708 16.1509C45.8635 22.7401 51.515 30.047 57.513 37.0685Z" fill="white"/>
<path d="M203.49 112.926C203.455 95.9638 191.003 83.0137 174.665 82.9484C158.2 82.8832 144.589 97.1544 144.624 114.443C144.657 131.161 157.555 144.388 173.714 144.266C190.112 144.144 203.526 130.027 203.49 112.926ZM133.704 61.6802C133.704 68.775 133.598 75.2827 133.793 81.7741C133.832 83.0789 134.884 85.3215 135.703 85.4357C137.531 85.6885 140.335 85.5499 141.29 84.3837C148.92 75.0625 159.331 71.3765 170.595 69.8107C174.704 69.2399 179.287 69.7944 183.276 71.0503C198.016 75.6742 210.528 83.348 214.601 99.5357C217.995 113.024 216.548 126.366 209.137 138.28C204.283 146.084 196.556 150.928 187.736 153.734C168.158 159.948 152.692 152.755 139.411 138.729C135.719 134.831 133.764 134.79 130.514 139.136C122.464 149.917 111.751 157.126 99.2543 161.497C94.6948 163.088 89.5441 163.243 84.6332 163.52C76.2213 164.001 67.7711 164.433 59.3633 164.14C53.919 163.952 51.4603 161.033 51.7604 157.167C52.0768 153.09 55.2246 150.888 60.4398 150.692C69.2382 150.366 78.1116 150.472 86.8057 149.306C101.829 147.275 113.211 139.609 119.596 125.403C121.301 121.611 123.112 117.86 124.702 114.027C125.11 113.04 125.274 111.589 124.852 110.675C118.837 97.6193 119.091 83.6171 118.542 69.7455C118.127 59.2255 117.853 48.6974 117.44 38.1775C117.374 36.4975 116.998 34.8176 116.609 33.1784C113.94 21.9245 104.452 18.1243 94.8392 24.5912C84.8379 31.3191 77.7242 40.3956 73.5008 51.7148C68.5499 64.9911 65.9207 78.6915 65.7544 92.8567C65.7168 96.0861 64.7896 99.3074 61.4086 99.8374C58.9017 100.229 55.2483 99.7314 53.6972 98.1004C51.9137 96.2329 51.5696 92.7426 51.1536 89.872C50.171 83.087 50.6366 75.878 48.5 69.5171C43.6298 55.0257 35.9755 41.7249 26.1781 30.0061C22.4994 25.6024 16.7673 22.7971 11.7063 19.6982C6.39981 16.4525 4.94008 14.5932 6.40146 11.2089C7.85957 7.8327 11.4951 6.32405 16.5284 8.66454C22.8216 11.584 29.2183 14.9112 34.4228 19.3965C41.8879 25.8308 48.3369 33.4476 52.6884 42.5322C53.1369 43.4701 53.6629 44.3752 54.224 45.2478C55.9357 47.9145 57.9582 47.9227 59.8746 45.5985C60.8369 44.4242 61.451 42.94 62.0846 41.5292C68.2906 27.7635 78.1663 17.3088 91.3619 10.2221C109.641 0.395337 130.584 10.3363 131.937 32.6647C132.535 42.5241 133.137 52.3835 133.704 61.6802Z" fill="white"/>
</svg>
