<svg width="227" height="143" viewBox="0 0 227 143" fill="none" xmlns="http://www.w3.org/2000/svg">
<path d="M58.1563 92.2076C58.1563 92.1587 58.1563 92.1016 58.1563 92.0526C65.3001 92.0526 72.4602 92.224 79.604 91.9956C85.5245 91.7999 88.0526 86.6296 85.0107 81.5246C83.6815 79.2901 82.2869 77.0638 81.2105 74.7151C76.6926 64.8884 74.3521 54.6294 77.7038 44.0442C82.817 27.8729 99.5348 18.3886 117.06 21.2754C132.244 23.779 142.683 32.4152 146.646 47.1431C149.77 58.7232 147.005 69.8221 139.152 79.3472C134.846 84.5664 137.178 90.9436 143.8 92.3136C145.439 92.648 147.152 92.8355 148.824 92.7785C163.902 92.281 178.973 91.7102 194.051 91.1638C199.36 90.9681 204.677 90.8539 209.986 90.5603C212.539 90.4135 215.059 89.0761 214.773 86.4502C214.545 84.3707 212.726 82.2993 211.193 80.6112C210.484 79.8283 208.771 79.7467 207.499 79.6978C200.363 79.4369 193.228 79.2411 186.092 79.1025C178.165 78.9557 170.239 78.9802 162.312 78.7682C158.569 78.6703 157.607 77.1861 158.83 73.7854C164.351 58.5274 162.312 44.0687 154.907 29.879C147.869 16.3988 136.265 10.2662 121.977 7.66472C113.537 6.13158 104.991 5.29164 97.0149 8.51287C77.8017 16.2601 66.6701 31.1022 62.4214 51.082C61.0024 57.7854 60.3418 64.766 63.8403 71.3145C65.9198 75.2126 64.7211 77.708 60.3582 78.548C58.5886 78.8905 56.7292 78.8253 54.9106 78.8334C42.9391 78.8742 30.9594 78.6703 19.0041 79.0373C15.5301 79.1351 11.893 80.4073 8.76962 82.0139C7.30172 82.7723 5.93982 85.7652 6.26602 87.3962C6.58407 88.9782 8.98984 91.0088 10.7187 91.2698C15.6688 92.0119 20.7412 92.1179 25.7647 92.175C36.5619 92.2891 47.3591 92.2076 58.1563 92.2076ZM57.8464 73.1738C54.3153 61.9444 55.2613 51.0493 59.1757 40.7332C66.0748 22.5721 77.9159 8.48023 96.9578 2.42107C107.959 -1.08558 119.27 0.928735 130.41 3.71774C145.831 7.57506 155.176 17.6057 162.084 31.3958C168.877 44.9575 168.33 58.6661 165.68 73.2391C175.98 73.2391 186.198 73.1413 196.416 73.2799C200.95 73.3451 205.509 73.6957 210.011 74.2503C214.732 74.8293 218.214 77.3247 219.943 81.9404C222.341 88.3666 219.071 94.6623 212.351 95.9426C209.056 96.5705 205.631 96.6195 202.263 96.7336C184.208 97.3371 166.145 97.9243 148.081 98.3973C145.651 98.4625 143.131 98.12 140.758 97.5491C132.073 95.4615 127.971 83.6122 133.802 76.8191C141.28 68.1177 143.931 58.0871 140.766 47.3959C137.757 37.2266 130.263 30.3927 119.808 27.7342C105.292 24.0482 87.4002 30.564 83.1514 45.9932C80.0281 57.3287 83.0453 67.8568 89.5693 77.4144C94.5928 84.7702 91.6407 94.9885 83.6081 97.2229C81.5122 97.8019 79.2289 97.8345 77.0352 97.8427C61.5651 97.9242 46.0951 98.0466 30.6332 97.9161C23.3916 97.859 16.1417 97.4757 8.93272 96.8396C4.52087 96.44 1.63405 93.6347 0.500501 89.2799C-0.722749 84.6153 0.834808 80.8477 4.4067 77.7896C8.38634 74.389 13.1652 73.3288 18.205 73.2799C30.1602 73.182 42.1155 73.1983 54.0788 73.1738C55.2205 73.1738 56.3622 73.1738 57.8464 73.1738Z" fill="white"/>
<path d="M110.177 135.772C110.177 136.269 110.177 136.767 110.177 137.264C143.343 137.264 176.51 137.28 209.668 137.223C211.992 137.223 214.341 136.815 216.608 136.294C219.748 135.576 221.077 133.423 220.726 130.202C220.327 126.54 217.872 124.599 212.392 124.281C207.222 123.971 202.035 123.98 196.857 123.98C171.095 123.971 145.333 124.061 119.572 123.996C86.1442 123.914 52.7169 123.694 19.2814 123.604C16.5739 123.596 13.7033 123.686 11.1997 124.55C9.25884 125.227 6.22519 127.445 6.4046 128.53C6.75527 130.691 8.60649 133.203 10.5555 134.345C12.6351 135.56 15.5382 135.715 18.0826 135.723C48.7862 135.804 79.4816 135.772 110.177 135.772ZM111.082 118.108C139.062 118.108 167.034 118.075 195.013 118.124C201.113 118.141 207.222 118.23 213.305 118.654C222.545 119.29 226.753 123.8 226.402 132.192C226.223 136.62 223.695 140.322 219.34 141.39C215.719 142.279 211.911 142.801 208.192 142.793C197.917 142.785 187.641 142.263 177.374 142.198C131.829 141.929 86.291 141.741 40.7454 141.529C32.4354 141.488 24.1172 141.586 15.8073 141.35C9.69921 141.178 4.17015 139.49 1.36483 133.276C-1.17138 127.666 0.622725 122.251 6.42093 120.163C10.3598 118.744 14.7716 118.059 18.9796 118.035C49.675 117.863 80.3787 117.945 111.082 117.945C111.082 117.994 111.082 118.051 111.082 118.108Z" fill="white"/>
<path d="M58.1563 92.2076C47.3591 92.2076 36.5618 92.2892 25.7646 92.175C20.7411 92.1179 15.6687 92.0119 10.7186 91.2698C8.98979 91.0089 6.58402 88.9783 6.26597 87.3962C5.93977 85.7652 7.30167 82.7723 8.76957 82.0139C11.8929 80.4074 15.5301 79.1352 19.0041 79.0373C30.9593 78.6703 42.939 78.8742 54.9105 78.8334C56.7291 78.8253 58.5885 78.8905 60.3582 78.548C64.7211 77.708 65.9198 75.2126 63.8403 71.3145C60.3418 64.766 61.0024 57.7854 62.4214 51.082C66.6701 31.1022 77.8017 16.2601 97.0149 8.51289C104.99 5.29166 113.537 6.1316 121.977 7.66474C136.265 10.2662 147.869 16.3988 154.907 29.879C162.312 44.0687 164.351 58.5275 158.83 73.7855C157.607 77.1861 158.569 78.6704 162.312 78.7682C170.239 78.9802 178.165 78.9557 186.092 79.1025C193.228 79.2412 200.363 79.4369 207.499 79.6978C208.771 79.7468 210.484 79.8283 211.193 80.6112C212.726 82.2993 214.545 84.3707 214.773 86.4502C215.059 89.0761 212.539 90.4135 209.986 90.5603C204.677 90.8539 199.36 90.9681 194.051 91.1638C178.973 91.7102 163.902 92.281 148.824 92.7785C147.152 92.8356 145.439 92.648 143.8 92.3136C137.178 90.9436 134.846 84.5664 139.152 79.3472C147.005 69.8221 149.77 58.7232 146.646 47.1431C142.683 32.4152 132.244 23.7791 117.06 21.2755C99.5348 18.3886 82.817 27.8729 77.7038 44.0442C74.3521 54.6294 76.6926 64.8884 81.2104 74.7152C82.2869 77.0638 83.6814 79.2901 85.0107 81.5246C88.0525 86.6296 85.5245 91.7999 79.604 91.9956C72.4602 92.224 65.3001 92.0527 58.1563 92.0527C58.1563 92.1016 58.1563 92.1587 58.1563 92.2076Z" fill="white"/>
<path d="M110.177 135.772C79.4815 135.772 48.7861 135.804 18.0826 135.723C15.5382 135.715 12.635 135.56 10.5555 134.345C8.60646 133.203 6.75525 130.691 6.40458 128.53C6.22517 127.445 9.25882 125.227 11.1997 124.55C13.7033 123.686 16.5739 123.596 19.2814 123.604C52.7169 123.694 86.1442 123.914 119.572 123.996C145.333 124.061 171.095 123.971 196.856 123.979C202.035 123.979 207.221 123.971 212.392 124.281C217.872 124.599 220.327 126.54 220.726 130.202C221.077 133.423 219.748 135.576 216.608 136.294C214.341 136.815 211.992 137.223 209.668 137.223C176.51 137.28 143.343 137.264 110.177 137.264C110.177 136.767 110.177 136.269 110.177 135.772Z" fill="white"/>
</svg>
