<svg width="45" height="44" viewBox="0 0 45 44" fill="none" xmlns="http://www.w3.org/2000/svg">
<path d="M22.2583 7.39062H22.7856L23.3569 7.41211L24.126 7.47656L24.9609 7.58398L25.8618 7.75586L26.543 7.92773L27.3779 8.18555L27.9712 8.40039L28.5425 8.63672L28.9819 8.83008L29.8169 9.25977L30.1904 9.47461L30.6079 9.73242L31.0913 10.0547L31.4868 10.334L31.8384 10.6133L32.0581 10.7852L32.3657 11.043L32.6294 11.2793L32.6953 11.3223V11.3652L32.7832 11.4082L33.3545 11.9668V12.0098H33.3984L33.5522 12.1816L33.7939 12.4395L33.9917 12.6758L34.2773 13.0195L34.6069 13.4492L34.9146 13.8789L35.2222 14.3516L35.5078 14.8242L35.7935 15.3398L36.0352 15.8125L36.3428 16.5L36.6284 17.252L36.8262 17.8535L37.0459 18.6699L37.1997 19.4004L37.3315 20.2598L37.4194 21.248V22.752L37.3535 23.5684L37.2217 24.4707L37.0679 25.2441L36.9141 25.8457L36.6724 26.6191L36.5186 27.0488L36.2769 27.6504L35.9473 28.3594L35.7275 28.7891L35.4419 29.2832L35.2661 29.584L35.0244 29.9492L34.8706 30.1855L34.585 30.5723L34.3213 30.916L33.9697 31.3457L33.7061 31.6465L33.3984 31.9688L33.3325 32.0547H33.2886L33.2446 32.1406L32.8052 32.5703L32.6294 32.7207L32.3218 33L32.0801 33.1934L31.7944 33.4297L31.5088 33.6445L31.1133 33.9238L30.3882 34.3965L29.9048 34.6758L29.4214 34.9336L29.0039 35.1484L28.2788 35.4707L27.5317 35.75L26.8066 35.9863L26.0596 36.1797L25.3784 36.3301L24.7192 36.4375L24.0161 36.5234L23.5107 36.5664L23.1152 36.5879H21.7749L21.1597 36.5449L20.3906 36.459L19.4897 36.3086L18.6548 36.1152L17.8638 35.8789L17.2266 35.6641L16.6333 35.4277L15.9961 35.1484L15.5566 34.9336L15.1611 34.7188L14.5679 34.375L14.2383 34.1602L13.8867 33.9238L13.4912 33.6445L13.1396 33.3652L12.9199 33.1934L12.5903 32.9141L12.3047 32.6562L12.063 32.4199L11.8872 32.2695V32.2266L11.8213 32.2051L11.6675 32.0332L11.4258 31.7969L11.272 31.625L11.0083 31.3242L10.7666 31.0234L10.459 30.6367L10.1953 30.2715L9.97559 29.9492L9.71191 29.541L9.38232 28.9824L9.07471 28.4023L8.85498 27.9512L8.61328 27.3926L8.41553 26.877L8.17383 26.168L7.9541 25.3516L7.80029 24.6211L7.66846 23.7832L7.60254 23.1387L7.55859 22.3652V21.6133L7.60254 20.8398L7.66846 20.1953L7.75635 19.5938L7.93213 18.7344L8.08594 18.1328L8.28369 17.4883L8.48145 16.9297L8.74512 16.2852L9.00879 15.7266L9.18457 15.3828L9.44824 14.8887L9.75586 14.373L9.99756 14.0078L10.2393 13.6641L10.5029 13.2988L10.7227 13.0195L11.0083 12.6758L11.2061 12.4395L11.4917 12.1387L11.5137 12.0957H11.5576L11.6016 12.0098L12.3926 11.2363L12.5684 11.0859L12.876 10.8281L13.1396 10.6133L13.5132 10.334L13.8647 10.0762L14.5898 9.60352L15.0293 9.3457L15.5347 9.06641L16.1938 8.74414L16.853 8.46484L17.4243 8.25L18.3032 7.9707L18.9624 7.79883L19.6875 7.64844L20.3247 7.54102L21.0278 7.45508L21.6211 7.41211L22.2583 7.39062ZM21.9067 8.80859L21.0278 8.87305L20.3687 8.95898L19.5557 9.10938L18.9404 9.25977L18.2812 9.45312L17.6221 9.68945L17.0947 9.9043L16.5234 10.1621L15.9741 10.4414L15.3809 10.7852L14.7876 11.1719L14.3921 11.4512L14.0405 11.7305L13.7988 11.9238L13.4912 12.1816L13.1616 12.4824L12.5684 13.0625L12.4146 13.2344L12.1509 13.5352L11.8652 13.8789L11.6016 14.2227L11.3818 14.5234L11.0083 15.082L10.7007 15.5977L10.415 16.1348L10.2393 16.4785L9.97559 17.0801L9.75586 17.6387L9.49219 18.4766L9.31641 19.1641L9.20654 19.7227L9.11865 20.2598L9.05273 20.8184L9.00879 21.6133V22.4082L9.05273 23.1816L9.1626 24.0625L9.31641 24.8574L9.49219 25.5449L9.71191 26.2324L9.93164 26.8125L10.1514 27.3281L10.3711 27.8008L10.5908 28.209L10.8105 28.5957L11.0742 29.0254L11.4917 29.627L11.7993 30.0352L12.1069 30.4004L12.3047 30.6367L12.5684 30.916L12.7661 31.1309L13.2715 31.625L13.4473 31.7754L13.689 31.9902L13.9307 32.1836L14.2822 32.4629L14.6997 32.7637L15.1611 33.0645L15.5786 33.3223L16.084 33.6016L16.6772 33.9023L17.3145 34.1816L17.8638 34.3965L18.6768 34.6543L19.3359 34.8262L19.9512 34.9551L20.6323 35.0625L21.4233 35.1484L22.2363 35.1914H22.7417L23.5767 35.1484L24.3677 35.0625L25.1587 34.9336L25.9058 34.7617L26.4551 34.6113L27.29 34.332L27.8174 34.1172L28.2568 33.9238L28.96 33.5801L29.4873 33.2793L29.9707 32.9785L30.3442 32.7207L30.6519 32.5059L30.8936 32.3125L31.1133 32.1406L31.4209 31.8828L31.7065 31.625L32.0361 31.3242L32.2119 31.1523L32.3657 30.9805L32.5415 30.8086L32.6953 30.6367L32.937 30.3574L33.1787 30.0566L33.4424 29.7129L33.7061 29.3477L34.0137 28.875L34.2554 28.4668L34.541 27.9512L34.8267 27.3711L35.1343 26.6406L35.3979 25.8672L35.5957 25.1797L35.7495 24.5137L35.8813 23.6758L35.9473 23.0527L35.9692 22.752L35.9912 21.8926L35.9692 21.2266L35.9033 20.4961L35.7935 19.7441L35.6616 19.0781L35.5298 18.5625L35.332 17.918L35.1343 17.3594L34.8486 16.6719L34.4751 15.9199L34.2554 15.5117L33.9258 14.9746L33.6182 14.5234L33.3545 14.1582L32.8711 13.5566L32.6514 13.3203L32.4976 13.1484L32.2559 12.8906L32.1021 12.7188L31.9263 12.5684L31.6406 12.2891L31.4648 12.1387L31.2451 11.9453L30.9375 11.709L30.5859 11.4297L30.1685 11.1504L29.8828 10.957L29.4653 10.6992L28.894 10.377L28.3447 10.0977L27.7075 9.81836L26.9604 9.53906L26.2134 9.30273L25.3345 9.08789L24.4775 8.9375L23.7085 8.85156L23.0273 8.80859H21.9067Z" fill="#B0ABA4"/>
<path d="M27.1362 21.8926L27.4219 21.9141L27.6196 22L27.7515 22.0859L27.9492 22.2793L28.2129 22.6445L28.5205 23.1816L28.8501 23.8047L29.0918 24.2773L29.2676 24.707L29.3774 25.0938L29.4434 25.4375V26.0176L29.3555 26.4043L29.2017 26.748L29.0479 27.0059L28.7842 27.3281L28.5425 27.5215L28.3008 27.6719L27.9712 27.8223L27.6636 27.9082L27.3779 27.9512H27.0044L26.6089 27.8867L26.2573 27.7578L25.9058 27.5645L25.6201 27.3281L25.4004 27.0918L25.1807 26.748L25.0488 26.4473L24.9609 26.1035L24.939 25.9746V25.4805L25.0488 24.9434L25.2246 24.4492L25.5103 23.8477L25.7739 23.3535L26.0596 22.8379L26.3452 22.4082L26.543 22.1719L26.7188 22.0215L26.8945 21.9355L27.1362 21.8926ZM27.1802 23.7832L26.9604 24.1914L26.6089 24.8789L26.4551 25.2656L26.3892 25.5879V25.8457L26.4771 26.125L26.6089 26.2969L26.7847 26.4473L27.0264 26.5332H27.356L27.5977 26.4473L27.7734 26.3184V26.2754H27.8174L27.9272 26.1035L27.9932 25.8887V25.502L27.9053 25.1797L27.7075 24.7285L27.29 23.9121L27.2021 23.7832H27.1802Z" fill="#B0ABA4"/>
<path d="M21.3354 25.8672H23.5327L23.8403 25.8887L24.0381 25.9746L24.2139 26.125L24.3237 26.2969L24.3896 26.5117V26.6621L24.3237 26.877L24.1699 27.0918L23.9502 27.2422L23.7744 27.2852H21.2036L20.9619 27.1992L20.7861 27.0488L20.6543 26.834L20.6104 26.6836V26.4902L20.6763 26.2754L20.7861 26.1035H20.8301V26.0605L21.0278 25.9316L21.1597 25.8887L21.3354 25.8672Z" fill="#B0ABA4"/>
<path d="M27.0483 19.5508H27.312L27.5098 19.6152L27.6416 19.7012L27.7515 19.8086L27.8613 19.959L27.9272 20.1738V20.3242L27.8613 20.5391L27.7515 20.7109L27.5537 20.8828L27.3779 20.9473L27.1582 20.9688L26.9385 20.9258L26.7627 20.8398L26.5869 20.6465L26.499 20.4746L26.4771 20.4102V20.0879L26.5649 19.8945L26.6748 19.7441L26.8726 19.6152L27.0483 19.5508Z" fill="#B0ABA4"/>
<path d="M17.688 19.5508H17.9077L18.1274 19.6152L18.3032 19.7441L18.4351 19.8945L18.5229 20.0879L18.5449 20.3027L18.501 20.4961L18.3691 20.7109L18.1934 20.8613L17.9956 20.9473H17.6221L17.4243 20.8613L17.2485 20.7109L17.1387 20.5391L17.0947 20.4102V20.1094L17.1826 19.8945L17.3364 19.7227L17.4463 19.6367L17.688 19.5508Z" fill="#B0ABA4"/>
</svg>
