<svg width="337" height="34" viewBox="0 0 337 34" fill="none" xmlns="http://www.w3.org/2000/svg">
<path d="M162.94 12.9245C164.883 23.7978 155.156 33.5004 144.152 31.4324C139.322 30.5244 136.384 26.4951 136.692 21.5498C136.956 17.3058 139.767 14.0218 143.784 12.8364C148.856 11.3418 153.052 15.2764 151.682 20.3124C151.411 21.3071 152.955 21.7324 153.224 20.7377C155.203 13.4657 148.482 8.97111 141.955 11.8058C135.412 14.6458 132.875 23.1191 137.139 29.0204C140.931 34.2671 148.503 33.8365 153.892 31.7485C162.023 28.5978 165.996 20.9671 164.483 12.4978C164.302 11.4858 162.759 11.9151 162.94 12.9245Z" fill="#FDFCFF"/>
<path d="M7.66841 11.4938C17.8711 18.1405 26.9298 20.6712 39.2404 19.9858C52.5764 19.2432 66.2377 16.1405 79.1831 12.9845C92.7604 9.67646 105.903 6.44849 119.74 4.27782C132.504 2.27515 157.896 -4.3835 162.94 12.9245C163.227 13.9098 164.772 13.4911 164.483 12.4978C161.65 2.77914 152.851 0.139151 143.543 0.00848579C129.34 -0.190182 114.331 3.13912 100.446 5.84579C85.4778 8.76446 70.8711 13.2831 55.8484 16.1485C47.5697 17.7271 39.1404 18.9125 30.6938 18.4085C22.0404 17.8912 15.5844 14.7431 8.47642 10.1125C7.61109 9.54979 6.80841 10.9338 7.66841 11.4938Z" fill="#FDFCFF"/>
<path d="M6.48047 7.43382C7.09647 5.85515 8.72713 3.13917 7.37513 1.56051C5.38447 -0.764825 4.87112 3.96581 4.95112 5.22848C4.93512 3.80714 3.95246 0.989847 2.2898 0.79918C1.4258 2.15251 2.53246 4.19517 3.25379 5.38317C2.64979 5.1485 1.94046 4.11246 1.19779 4.37646C-0.375545 4.93646 1.17246 6.42849 1.83513 6.80582C2.97913 7.45782 5.42714 8.01517 6.48047 7.8165" fill="#FDFCFF"/>
<path d="M7.00178 7.57784C7.62445 6.05384 8.62179 4.40315 8.40712 2.68982C8.28846 1.73915 7.54179 0.427186 6.44446 0.388518C4.51113 0.320518 4.35512 3.94716 4.40979 5.22849C4.76979 5.22849 5.13112 5.22849 5.49112 5.22849C5.40579 3.37249 4.50445 0.701842 2.43378 0.277842C2.20845 0.231175 1.93646 0.305823 1.82312 0.525824C0.932455 2.26982 1.86979 4.12049 2.78712 5.65649C3.03379 5.40982 3.28046 5.16185 3.52713 4.91651C2.58179 4.40451 1.74713 3.31516 0.593792 4.06716C-0.146208 4.54983 -0.130211 5.35915 0.289789 6.05382C1.38712 7.87382 4.5178 8.60719 6.48046 8.35785C7.1618 8.26985 7.1698 7.18717 6.48046 7.27517C5.20846 7.43784 3.78578 7.07784 2.61912 6.58051C2.21378 6.40718 1.40046 6.04313 1.27646 5.56847C0.959125 4.35113 2.64846 5.66985 2.98046 5.84985C3.4458 6.10185 4.00579 5.58847 3.72045 5.10981C3.04045 3.97114 2.07379 2.4085 2.75646 1.0725C2.55379 1.15517 2.34979 1.23782 2.14579 1.32048C3.69913 1.63915 4.34579 3.84049 4.40979 5.22849C4.44179 5.92183 5.52046 5.92716 5.49112 5.22849C5.46312 4.55916 5.46045 1.80314 6.26578 1.5378C6.81111 1.35914 7.20846 2.24316 7.31246 2.63383C7.47646 3.2485 7.26845 3.95514 7.08578 4.54314C6.79112 5.48847 6.33246 6.37515 5.95912 7.28982C5.69646 7.93382 6.74178 8.21517 7.00178 7.57784Z" fill="#FDFCFF"/>
<path d="M171.276 12.4978C169.811 20.6951 173.47 28.2444 181.294 31.5244C186.766 33.8164 194.703 34.4457 198.62 29.0204C202.826 23.1964 200.419 14.6737 193.9 11.8457C187.368 9.0124 180.523 13.3457 182.535 20.7377C182.804 21.7311 184.348 21.3097 184.078 20.3124C182.707 15.2764 186.903 11.3418 191.975 12.8364C195.992 14.0218 198.803 17.3058 199.067 21.5498C199.375 26.4951 196.438 30.5244 191.607 31.4324C180.603 33.5004 170.876 23.7978 172.819 12.9244C172.999 11.9164 171.458 11.4844 171.276 12.4978Z" fill="#FDFCFF"/>
<path d="M327.283 10.1125C320.584 14.4765 314.418 17.6125 306.3 18.3138C297.876 19.0405 289.378 17.9058 281.107 16.3778C265.659 13.5258 250.684 8.84312 235.315 5.84579C221.747 3.20046 207.288 0.131132 193.426 0.0204659C183.784 -0.0568676 174.252 2.28714 171.276 12.4978C170.988 13.4885 172.532 13.9125 172.819 12.9245C177.763 -4.03816 202.254 2.10447 214.847 4.09247C229.074 6.33914 242.611 9.5818 256.576 12.9845C269.148 16.0498 282.372 19.0098 295.307 19.9165C308.043 20.8112 317.518 18.3818 328.091 11.4938C328.951 10.9338 328.15 9.54846 327.283 10.1125Z" fill="#FDFCFF"/>
<path d="M329.859 7.43382C329.244 5.85515 327.614 3.13917 328.966 1.56051C330.955 -0.764825 331.47 3.96581 331.39 5.22848C331.406 3.80714 332.387 0.989847 334.05 0.79918C334.914 2.15251 333.808 4.19517 333.086 5.38317C333.69 5.1485 334.4 4.11246 335.142 4.37646C336.716 4.93646 335.167 6.42849 334.504 6.80582C333.362 7.45782 330.912 8.01517 329.859 7.8165" fill="#FDFCFF"/>
<path d="M330.382 7.28977C330.007 6.3751 329.548 5.48842 329.254 4.54309C329.071 3.95509 328.864 3.24844 329.028 2.63378C329.132 2.24311 329.528 1.35908 330.074 1.53775C330.879 1.80308 330.878 4.5591 330.85 5.22844C330.82 5.92577 331.899 5.9231 331.931 5.22844C331.994 3.84577 332.64 1.6391 334.194 1.32043C333.991 1.23776 333.787 1.15511 333.583 1.07245C334.267 2.40978 333.303 3.96442 332.619 5.10975C332.334 5.58709 332.894 6.10179 333.359 5.84979C333.598 5.72046 333.792 5.57512 334.011 5.41646C334.204 5.27646 335.12 4.79643 335.195 5.3871C335.254 5.85243 334.044 6.44179 333.72 6.58046C332.552 7.07912 331.134 7.43778 329.859 7.27512C329.171 7.18845 329.178 8.2698 329.859 8.3578C331.823 8.60713 334.954 7.8751 336.051 6.05376C336.467 5.36176 336.49 4.54844 335.746 4.06711C334.592 3.32044 333.76 4.40312 332.814 4.91646C333.06 5.16179 333.307 5.40977 333.554 5.65643C334.471 4.1191 335.408 2.26977 334.518 0.525768C334.403 0.303102 334.132 0.231119 333.907 0.277786C331.836 0.701786 330.934 3.37244 330.85 5.22844C331.21 5.22844 331.57 5.22844 331.931 5.22844C331.984 3.94444 331.83 0.320463 329.895 0.388463C328.798 0.42713 328.052 1.7351 327.932 2.68977C327.718 4.40443 328.715 6.05245 329.338 7.57779C329.598 8.21379 330.644 7.9351 330.382 7.28977Z" fill="#FDFCFF"/>
</svg>
