<svg width="241" height="209" viewBox="0 0 241 209" fill="none" xmlns="http://www.w3.org/2000/svg">
<path d="M57.317 114.918C57.8283 114.918 58.3397 114.926 58.8518 114.926C58.8518 129.238 58.7809 143.55 58.9244 157.854C58.9472 160.113 59.5058 162.617 60.6345 164.517C61.463 165.919 63.8255 167.51 65.1491 167.241C66.9285 166.882 69.0023 165.112 69.7828 163.416C70.7002 161.418 70.5477 158.849 70.5477 156.525C70.5501 134.922 70.4612 113.312 70.4506 91.709C70.4449 79.3542 70.3446 67.0075 70.6464 54.6609C70.8527 46.2204 71.2082 37.6169 75.3355 29.9757C78.5371 24.0551 83.4815 20.4996 90.7835 20.6137C98.0178 20.7279 103.236 23.6311 106.653 29.9593C109.927 36.0267 110.299 42.6648 110.371 49.303C110.534 64.5202 110.455 79.7456 110.589 94.971C110.722 110.188 111.035 125.405 111.186 140.631C111.254 147.391 110.95 154.168 111.135 160.921C111.253 165.243 113.569 167.877 116.495 167.909C120.133 167.95 122.882 165.495 123.41 161.361C123.87 157.748 124.227 154.103 124.248 150.474C124.343 134.205 124.363 117.935 124.292 101.666C124.216 84.2308 123.652 66.7791 124.058 49.3519C124.195 43.4395 125.826 37.2173 128.22 31.7698C131.422 24.4792 139.792 20.8094 146.967 22.0734C155.086 23.5087 160.621 28.8666 161.855 37.4783C162.83 44.2795 163.491 51.1949 163.456 58.0614C163.268 94.6284 162.795 131.196 162.489 167.771C162.459 171.269 161.251 173.805 158.05 175.306C155.578 176.472 153.111 177.638 150.64 178.804C143.471 182.181 136.178 185.32 129.218 189.088C127.459 190.034 125.414 193.394 125.896 194.862C126.604 197.006 129.295 198.727 131.493 200.04C132.615 200.717 134.694 200.554 136.014 199.999C146.012 195.791 156.056 191.657 165.789 186.886C168.431 185.589 169.608 185.924 171.445 187.547C175.915 191.51 180.296 195.628 185.129 199.102C187.521 200.823 190.767 201.638 193.751 202.168C196.68 202.699 199.017 200.733 199.425 197.977C199.693 196.166 198.767 193.793 197.603 192.268C196.41 190.703 194.204 189.944 192.569 188.672C189.603 186.364 186.55 184.121 183.879 181.496C181.762 179.416 181.318 177.23 183.808 174.425C192.089 165.096 200.782 155.979 207.857 145.777C215.302 135.037 221.264 123.236 227.509 111.705C233.397 100.826 235.5 89.0342 234.438 76.7201C232.347 52.4835 202.014 40.2509 185.784 52.2225C180.603 56.039 178.08 54.4978 177.859 48.0553C177.555 39.1908 176.587 30.7422 172.297 22.4731C163.812 6.13044 136.621 0.209865 122.955 14.2283C119.297 17.9796 117.812 18.1346 114.168 14.5708C103.315 3.95302 80.0474 3.05596 69.2029 14.3506C66.4269 17.2375 63.4064 16.8624 60.2479 14.4322C58.0991 12.7849 55.81 11.1865 53.3463 10.1019C39.7609 4.13245 20.7671 8.52803 11.2682 20.0429C6.2928 26.0694 4.91137 33.2703 6.37764 40.9605C6.93952 43.9044 9.12994 44.9238 11.7722 45.1276C14.6019 45.3397 17.0819 44.4915 17.9088 41.4823C18.4854 39.3865 18.4902 37.1358 18.8491 34.9665C19.119 33.3274 19.1981 31.5251 19.9606 30.1224C23.6915 23.2641 34.0957 19.0887 42.7375 20.7931C49.6375 22.155 55.9649 28.9808 56.4297 36.9482C57.118 48.7322 57.1784 60.5569 57.2869 72.3653C57.4165 86.5469 57.317 100.737 57.317 114.918ZM118.418 10.2242C132.204 -1.55158 147.298 -2.53832 162.925 5.67376C179.081 14.1631 183.306 29.2906 183.577 45.3396C189.231 44.1898 194.684 42.2978 200.193 42.1184C218.506 41.5068 237.581 54.0574 240.102 75.6681C241.577 88.3247 239.449 100.647 234.143 111.762C227.674 125.316 219.781 138.299 211.439 150.816C205.488 159.738 197.784 167.502 190.86 175.779C190.204 176.562 189.537 177.345 188.568 178.486C190.993 180.305 193.234 182.042 195.531 183.697C197.426 185.059 199.486 186.217 201.302 187.677C205.7 191.2 206.841 195.938 204.662 200.888C202.463 205.887 197.53 209.19 192.483 207.861C187.958 206.67 183.67 204.395 179.475 202.217C177.209 201.035 175.302 199.127 173.328 197.439C171.356 195.75 169.502 193.924 167.535 192.097C158.267 198.091 148.607 203.392 137.618 205.471C134.556 206.05 131.024 205.985 128.086 205.039C118.773 202.038 116.846 191.534 124.422 185.377C127.097 183.208 130.387 181.724 133.537 180.223C140.226 177.035 146.985 174.001 153.762 171C155.782 170.111 156.624 168.953 156.647 166.604C156.996 130.307 157.535 94.0087 157.81 57.7108C157.858 51.4967 157.146 45.2499 156.319 39.0766C155.446 32.5771 151.523 28.5567 146.149 27.7901C140.505 26.9828 134.759 29.9349 132.466 35.888C130.913 39.9166 129.989 44.4508 129.976 48.7566C129.884 78.3022 130.194 107.84 130.176 137.385C130.171 145.565 129.6 153.744 129.078 161.907C128.829 165.789 127.417 169.214 123.832 171.432C115.477 176.603 106.774 172.786 105.675 162.992C104.997 156.957 105.369 150.8 105.286 144.7C105.123 132.737 104.888 120.773 104.835 108.81C104.747 89.1728 104.879 69.5274 104.691 49.882C104.648 45.3723 104.112 40.7647 103.044 36.3855C101.419 29.731 96.9927 26.4119 90.8732 26.3304C85.1753 26.257 80.5849 29.625 79.0273 36.1979C77.627 42.1021 76.5334 48.2347 76.4674 54.2857C76.1298 85.503 76.1656 116.729 76.0735 147.954C76.0596 152.635 76.2578 157.324 76.0083 161.989C75.6543 168.586 71.8166 172.582 65.6955 173.194C60.4298 173.724 55.7863 170.209 54.0852 164.24C53.5918 162.511 53.2762 160.668 53.2428 158.874C52.6809 129.083 52.1924 99.285 51.6517 69.4948C51.4634 59.0971 51.4332 48.6914 50.8379 38.3182C50.5182 32.7565 47.2986 28.4425 41.9375 26.5831C36.8104 24.8135 28.5902 27.6189 25.7971 31.9492C24.7704 33.5394 24.6489 35.8391 24.5078 37.8452C24.0014 45.0543 20.7214 49.67 15.2184 50.6078C6.29198 52.1165 0.572883 47.4844 0.131698 38.3998C-0.640581 22.4486 7.91241 10.2487 24.2216 4.54839C38.6356 -0.491402 52.3408 0.462669 64.6647 10.3139C83.0126 -3.16631 96.6689 -3.17443 118.418 10.2242Z" fill="white"/>
<path d="M178.904 144.284C178.645 144.284 178.386 144.276 178.127 144.276C178.127 146.225 178.104 148.182 178.132 150.131C178.179 153.402 180.348 154.209 182.897 153.516C184.365 153.116 185.815 151.803 186.778 150.531C190.85 145.132 194.854 139.677 198.668 134.099C209.248 118.62 217.755 102.196 220.972 83.4724C222.588 74.0779 217.064 65.9229 207.794 63.5335C199.94 61.511 194.236 65.7679 188.656 70.0167C183.641 73.8414 179.953 78.873 179.801 85.4133C179.345 105.034 179.182 124.663 178.904 144.284ZM57.3169 114.918C57.3169 100.737 57.4165 86.5469 57.2868 72.3653C57.1783 60.5569 57.118 48.7321 56.4297 36.9482C55.9649 28.9807 49.6374 22.155 42.7375 20.7931C34.0956 19.0887 23.6915 23.2641 19.9606 30.1224C19.1981 31.5251 19.1189 33.3274 18.849 34.9665C18.4902 37.1358 18.4853 39.3865 17.9087 41.4823C17.0818 44.4915 14.6019 45.3396 11.7721 45.1276C9.12989 44.9237 6.93947 43.9044 6.37759 40.9604C4.91132 33.2703 6.29275 26.0694 11.2681 20.0429C20.7671 8.52801 39.7609 4.13244 53.3463 10.1019C55.8099 11.1865 58.099 12.7849 60.2479 14.4322C63.4063 16.8624 66.4269 17.2375 69.2029 14.3506C80.0474 3.05594 103.315 3.95301 114.168 14.5708C117.812 18.1346 119.297 17.9796 122.955 14.2283C136.621 0.20985 163.811 6.13043 172.297 22.473C176.587 30.7422 177.555 39.1908 177.859 48.0553C178.08 54.4977 180.603 56.039 185.783 52.2225C202.014 40.2509 232.347 52.4835 234.438 76.7201C235.5 89.0342 233.396 100.826 227.509 111.705C221.264 123.236 215.302 135.037 207.857 145.777C200.782 155.979 192.089 165.096 183.808 174.425C181.318 177.23 181.762 179.416 183.878 181.496C186.55 184.121 189.603 186.364 192.569 188.672C194.204 189.944 196.41 190.702 197.602 192.268C198.767 193.793 199.693 196.166 199.425 197.977C199.017 200.733 196.68 202.699 193.751 202.168C190.767 201.638 187.521 200.823 185.129 199.102C180.296 195.628 175.915 191.51 171.445 187.547C169.608 185.924 168.431 185.589 165.789 186.886C156.056 191.657 146.012 195.791 136.014 199.999C134.694 200.554 132.615 200.717 131.493 200.04C129.295 198.727 126.603 197.006 125.896 194.862C125.414 193.394 127.459 190.034 129.218 189.088C136.178 185.32 143.471 182.181 150.64 178.804C153.11 177.638 155.578 176.472 158.05 175.306C161.251 173.805 162.459 171.269 162.489 167.771C162.795 131.196 163.268 94.6284 163.456 58.0614C163.491 51.1949 162.83 44.2795 161.855 37.4782C160.621 28.8666 155.086 23.5087 146.967 22.0734C139.792 20.8094 131.421 24.4792 128.22 31.7697C125.826 37.2173 124.195 43.4395 124.057 49.3519C123.652 66.7791 124.216 84.2308 124.292 101.666C124.362 117.935 124.343 134.205 124.248 150.474C124.227 154.103 123.87 157.748 123.41 161.361C122.882 165.495 120.133 167.95 116.495 167.909C113.569 167.877 111.253 165.243 111.135 160.92C110.95 154.168 111.254 147.391 111.186 140.631C111.035 125.405 110.722 110.188 110.589 94.971C110.455 79.7456 110.534 64.5202 110.371 49.303C110.299 42.6648 109.927 36.0266 106.653 29.9593C103.236 23.631 98.0178 20.7279 90.7835 20.6137C83.4815 20.4996 78.5371 24.0551 75.3354 29.9756C71.2082 37.6169 70.8526 46.2204 70.6463 54.6608C70.3446 67.0075 70.4449 79.3542 70.4506 91.709C70.4612 113.312 70.5501 134.922 70.5476 156.525C70.5476 158.849 70.7001 161.418 69.7827 163.416C69.0023 165.112 66.9284 166.882 65.149 167.241C63.8255 167.51 61.463 165.919 60.6344 164.517C59.5058 162.617 58.9472 160.113 58.9243 157.854C58.7808 143.55 58.8517 129.238 58.8517 114.926C58.3396 114.926 57.8283 114.918 57.3169 114.918Z" fill="white"/>
</svg>
