<svg width="44" height="44" viewBox="0 0 44 44" fill="none" xmlns="http://www.w3.org/2000/svg">
<path d="M21.7637 7.39062H22.2793L22.8379 7.41211L23.5898 7.47656L24.4062 7.58398L25.2871 7.75586L25.9531 7.92773L26.7695 8.18555L27.3496 8.40039L27.9082 8.63672L28.3379 8.83008L29.1543 9.25977L29.5195 9.47461L29.9277 9.73242L30.4004 10.0547L30.7871 10.334L31.1309 10.6133L31.3457 10.7852L31.6465 11.043L31.9043 11.2793L31.9688 11.3223V11.3652L32.0547 11.4082L32.6133 11.9668V12.0098H32.6562L32.8066 12.1816L33.043 12.4395L33.2363 12.6758L33.5156 13.0195L33.8379 13.4492L34.1387 13.8789L34.4395 14.3516L34.7188 14.8242L34.998 15.3398L35.2344 15.8125L35.5352 16.5L35.8145 17.252L36.0078 17.8535L36.2227 18.6699L36.373 19.4004L36.502 20.2598L36.5879 21.248V22.752L36.5234 23.5684L36.3945 24.4707L36.2441 25.2441L36.0938 25.8457L35.8574 26.6191L35.707 27.0488L35.4707 27.6504L35.1484 28.3594L34.9336 28.7891L34.6543 29.2832L34.4824 29.584L34.2461 29.9492L34.0957 30.1855L33.8164 30.5723L33.5586 30.916L33.2148 31.3457L32.957 31.6465L32.6562 31.9688L32.4199 32.2266L32.0762 32.5703L31.9043 32.7207L31.6035 33L31.3672 33.1934L31.0879 33.4297L30.8086 33.6445L30.4219 33.9238L30.0781 34.1602L29.7129 34.3965L29.2402 34.6758L28.7676 34.9336L28.3594 35.1484L27.6504 35.4707L26.9199 35.75L26.2109 35.9863L25.4805 36.1797L24.8145 36.3301L24.1699 36.4375L23.4824 36.5234L22.9883 36.5664L22.6016 36.5879H21.291L20.6895 36.5449L19.9375 36.459L19.0566 36.3086L18.2402 36.1152L17.4668 35.8789L16.8438 35.6641L16.2637 35.4277L15.6406 35.1484L15.2109 34.9336L14.8242 34.7188L14.2441 34.375L13.9219 34.1602L13.5781 33.9238L13.1914 33.6445L12.8477 33.3652L12.6328 33.1934L12.3105 32.9141L12.0312 32.6562L11.7949 32.4199L11.623 32.2695L11.3652 31.9902L11.1719 31.7969L11.0215 31.625L10.7637 31.3242L10.5273 31.0234L10.2266 30.6367L9.96875 30.2715L9.75391 29.9492L9.49609 29.541L9.17383 28.9824L8.87305 28.4023L8.6582 27.9512L8.42188 27.3926L8.22852 26.877L7.99219 26.168L7.77734 25.3516L7.62695 24.6211L7.49805 23.7832L7.43359 23.1387L7.39062 22.3652V21.6133L7.43359 20.8398L7.49805 20.1953L7.58398 19.5938L7.75586 18.7344L7.90625 18.1328L8.09961 17.4883L8.29297 16.9297L8.57227 16.2422L8.80859 15.7266L8.98047 15.3828L9.23828 14.8887L9.53906 14.373L9.77539 14.0078L10.0117 13.6641L10.2695 13.2988L10.4844 13.0195L10.7637 12.6758L10.957 12.4395L11.2363 12.1387L11.2578 12.0957H11.3008L11.3438 12.0098L12.1172 11.2363L12.2891 11.0859L12.5898 10.8281L12.8477 10.6133L13.2129 10.334L13.5566 10.0762L14.2656 9.60352L14.6953 9.3457L15.1895 9.06641L15.834 8.74414L16.4785 8.46484L17.0371 8.25L17.8965 7.9707L18.541 7.79883L19.25 7.64844L19.873 7.54102L20.5605 7.45508L21.1406 7.41211L21.7637 7.39062ZM21.4199 8.80859L20.5605 8.87305L19.916 8.95898L19.1211 9.10938L18.5195 9.25977L17.875 9.45312L17.2305 9.68945L16.7148 9.9043L16.1562 10.1621L15.6191 10.4414L15.0391 10.7852L14.459 11.1719L14.0723 11.4512L13.7285 11.7305L13.4922 11.9238L13.1914 12.1816L12.8691 12.4824L12.2891 13.0625L12.1387 13.2344L11.8809 13.5352L11.6016 13.8789L11.3438 14.2227L11.1289 14.5234L10.7637 15.082L10.4629 15.5977L10.1836 16.1348L10.0117 16.4785L9.75391 17.0801L9.53906 17.6387L9.28125 18.4766L9.10938 19.1641L9.00195 19.7227L8.91602 20.2598L8.85156 20.8184L8.80859 21.6133V22.3867L8.85156 23.1816L8.95898 24.0625L9.10938 24.8574L9.25977 25.459L9.49609 26.2324L9.71094 26.8125L9.92578 27.3281L10.1406 27.8008L10.3555 28.209L10.5703 28.5957L10.8281 29.0254L11.2363 29.627L11.5371 30.0352L11.8379 30.4004L12.0312 30.6367L12.2891 30.916L12.4824 31.1309L12.9766 31.625L13.1484 31.7754L13.3848 31.9902L13.6211 32.1836L13.9648 32.4629L14.373 32.7637L14.8887 33.1074L15.3398 33.3867L15.9629 33.7305L16.6289 34.0527L17.3594 34.3535L18.1113 34.6113L18.9062 34.8262L19.5078 34.9551L20.1738 35.0625L20.9473 35.1484L21.2266 35.1699L21.7852 35.1914H22.1934L22.7734 35.1699L23.4824 35.1055L24.2559 34.998L24.9863 34.8477L25.7168 34.6543L26.4902 34.3965L27.0059 34.2031L27.6289 33.9238L28.3164 33.5801L28.832 33.2793L29.3047 32.9785L29.6699 32.7207L30.0137 32.4629L30.3145 32.2266L30.5938 31.9902L30.7656 31.8398L30.9805 31.6465L31.1523 31.4961V31.4531L31.2383 31.4102L31.4102 31.2383V31.1953L31.4961 31.1523L31.6465 30.9805L31.7969 30.8301L31.9473 30.6582L32.2051 30.3574L32.2695 30.2715V30.2285H32.3125L32.6348 29.7988L32.8066 29.5625L33.1074 29.1113L33.3438 28.7246L33.5586 28.3594L33.9238 27.6504L34.1816 27.0703L34.3965 26.5117L34.6328 25.8027L34.8262 25.0938L34.9766 24.3848L35.084 23.6758L35.1484 23.0527L35.1699 22.752L35.1914 21.9141L35.1699 21.2266L35.1055 20.4961L34.998 19.7441L34.8691 19.0781L34.7402 18.5625L34.5469 17.918L34.3535 17.3594L34.0742 16.6719L33.709 15.9199L33.4941 15.5117L33.2363 15.082L32.9355 14.6094L32.6562 14.2227L32.4629 13.9648L32.2051 13.6426L32.0117 13.4062L31.7324 13.1055L31.582 12.9336L30.9375 12.2891L30.7656 12.1387L30.5508 11.9453L30.25 11.709L29.9062 11.4297L29.498 11.1504L29.2188 10.957L28.8105 10.6992L28.252 10.377L27.7148 10.0977L27.0918 9.81836L26.3613 9.53906L25.6309 9.30273L24.7715 9.08789L23.9336 8.9375L23.1816 8.85156L22.5156 8.80859H21.4199Z" fill="#B0ABA4"/>
<path d="M14.7168 23.0527H29.2617L29.4551 23.1172L29.627 23.2461L29.7773 23.4395L29.8418 23.6543V24.1055L29.7988 24.6855L29.6914 25.3301L29.5625 25.8672L29.4336 26.2969L29.1973 26.8984L28.8965 27.5215L28.6387 27.9512L28.4238 28.2734L28.2305 28.5312L27.9512 28.875L27.7148 29.1328L27.6504 29.2188H27.6074L27.5645 29.3047L27.2422 29.6055L26.9629 29.8418L26.6836 30.0566L26.3184 30.3145L25.7812 30.6367L25.373 30.8516L24.8145 31.0879L24.2344 31.2812L23.6328 31.4316L22.9883 31.5391L22.623 31.582L22.2578 31.6035H21.6992L21.1191 31.5605L20.5605 31.4746L20.0664 31.3672L19.5508 31.2168L19.0781 31.0449L18.6914 30.873L18.3477 30.7012L17.9824 30.5078L17.4023 30.1211L17.123 29.9062L16.8223 29.6484L16.6074 29.4551L16.1133 28.9609L15.6836 28.4238L15.3828 27.9941L15.1465 27.5859L14.9531 27.2422L14.7168 26.7051L14.5234 26.168L14.373 25.6523L14.2441 25.0078L14.1797 24.4922L14.1582 24.2773V23.6328L14.2227 23.4395L14.3086 23.3105L14.502 23.1387L14.7168 23.0527ZM16.457 24.4492L15.5977 24.4707L15.6621 24.9004L15.791 25.4805L15.9844 26.0605L16.2207 26.5977L16.4355 27.0059L16.7793 27.5215L17.0156 27.8223L17.2734 28.123L17.6602 28.5098H17.7031V28.5527L17.9395 28.7461L18.3047 29.0254L18.6699 29.2617L18.9277 29.4121L19.2715 29.584L19.7871 29.7988L20.1738 29.9277L20.6895 30.0566L21.2051 30.1426L21.6562 30.1855H22.3438L22.9238 30.1211L23.4824 30.0137L24.0195 29.8633L24.4707 29.6914L24.8145 29.541L25.2871 29.2832L25.5879 29.0898L25.9746 28.8105L26.2969 28.5312L26.3828 28.4668V28.4238L26.4688 28.3809L26.7266 28.123V28.0801H26.7695L26.9629 27.8438L27.2422 27.5L27.543 27.0273L27.7578 26.6406L27.9941 26.1035L28.209 25.459L28.3594 24.75L28.4023 24.4707L28.1016 24.4492H16.457Z" fill="#B0ABA4"/>
<path d="M16.2207 18.627H16.5L16.9082 18.6914L17.2305 18.7988L17.5742 18.9707L17.8105 19.1426L18.0254 19.3359L18.1758 19.4863L18.3691 19.7656L18.5195 20.0664L18.541 20.1309V20.4102L18.4551 20.625L18.2617 20.8398L18.0469 20.9473L17.9609 20.9688H17.7031L17.4668 20.8828L17.3164 20.7539L17.0801 20.4102L16.9297 20.2598L16.7578 20.1523L16.5645 20.0879L16.4355 20.0664H16.2637L16.0059 20.1309L15.791 20.2812L15.6621 20.4316L15.5332 20.668L15.3828 20.8398L15.168 20.9473L15.082 20.9688H14.8027L14.5664 20.8828L14.3945 20.7324L14.2656 20.5176L14.2227 20.3242L14.2441 20.1094L14.3301 19.8945L14.4805 19.6367L14.6953 19.3574L14.8887 19.1641L15.1895 18.9492L15.5117 18.7773L15.877 18.6699L16.2207 18.627Z" fill="#B0ABA4"/>
<path d="M27.4355 18.627H27.7148L28.123 18.6914L28.5098 18.8203L28.832 18.9922L29.0898 19.1855L29.3047 19.3789L29.541 19.6797L29.7129 19.9805L29.7773 20.2168L29.7559 20.4316L29.6699 20.6465L29.5195 20.8184L29.3477 20.9258L29.1758 20.9688H28.918L28.7246 20.9043L28.5098 20.7109L28.2734 20.3672L28.0586 20.1953L27.8652 20.1094L27.6504 20.0664L27.3711 20.0879L27.1562 20.1738L27.0273 20.2812H26.9844L26.9414 20.3672L26.7051 20.7324L26.5332 20.8828L26.3184 20.9688H26.0176L25.8027 20.8828L25.6309 20.7324L25.502 20.5391L25.459 20.4102V20.1309L25.5664 19.8516L25.7383 19.5938L25.9316 19.3574L26.168 19.1211L26.4473 18.9277L26.748 18.7773L27.0273 18.6914L27.2207 18.6484L27.4355 18.627Z" fill="#B0ABA4"/>
</svg>
