<svg width="393" height="790" viewBox="0 0 393 790" fill="none" xmlns="http://www.w3.org/2000/svg">
<rect x="-1" width="394" height="772" fill="url(#paint0_linear_231_71)"/>
<path d="M-42 155.459V360.459C-31.893 363.388 -21.1468 366.331 -10 369.19V328.459C26.4478 314.66 88.8084 285.707 137.037 250.008C24.2245 137.138 -33.1224 156.347 -42 155.459Z" fill="#DFBEED"/>
<path d="M199 182.459C200.234 180.215 201.484 177.927 202.753 175.604C214.329 154.411 227.51 130.279 245.226 109.682C189.663 94.7445 151.84 70.9691 100 57.4594C34 40.2594 -7.5 69.9593 -20 86.9593L-42 155.459C-33.1224 156.347 24.2245 137.138 137.037 250.008C165.115 229.225 182.5 212.459 199 182.459Z" fill="#D8B1E8"/>
<path d="M426.5 789.5C452 678.333 500.9 163.359 426.5 86.9593C360.84 19.534 292.438 54.7936 245.226 109.682C227.51 130.279 214.329 154.411 202.753 175.604C201.484 177.927 200.234 180.215 199 182.459C182.5 212.459 165.115 229.225 137.037 250.008C88.8084 285.707 26.4478 314.66 -10 328.459V369.19V789.5H426.5Z" fill="url(#paint1_linear_231_71)"/>
<defs>
<linearGradient id="paint0_linear_231_71" x1="196" y1="0" x2="196" y2="772" gradientUnits="userSpaceOnUse">
<stop stop-color="#C8ACE1"/>
<stop offset="0.343461" stop-color="#CAA4E4"/>
<stop offset="0.58891" stop-color="#D4B1E8"/>
<stop offset="0.925" stop-color="#F2D5F5"/>
</linearGradient>
<linearGradient id="paint1_linear_231_71" x1="211.996" y1="50" x2="211.996" y2="789.5" gradientUnits="userSpaceOnUse">
<stop stop-color="#D8A1DF"/>
<stop offset="1" stop-color="#F0D2F4"/>
</linearGradient>
</defs>
</svg>
