<svg width="515" height="235" viewBox="0 0 515 235" fill="none" xmlns="http://www.w3.org/2000/svg">
<path fill-rule="evenodd" clip-rule="evenodd" d="M474.445 0.605469H477.18L479.23 2.31445L480.256 4.36523L480.598 7.09961L478.889 14.2773L473.42 31.709L470.686 41.6211L468.635 51.1914L467.268 62.1289L466.926 72.041L466.242 75.459L465.217 76.4844L463.166 75.8008L461.457 74.0918L460.432 69.9902L459.748 64.8633V56.3184L460.773 47.4316L462.824 37.5195L465.9 26.2402L471.027 8.80859L472.395 2.65625L473.762 0.947266L474.445 0.605469ZM322.004 37.5195H327.131L331.916 38.8867L336.018 41.2793L339.094 44.3555L341.486 49.1406L342.17 51.875V54.2676L341.145 56.6602L337.043 56.3184L335.334 53.584L333.625 49.4824L331.574 47.7734L329.182 46.748H324.396L320.295 47.7734L315.852 49.4824L309.699 52.9004L305.598 55.9766L302.18 59.0527L299.787 62.8125L298.42 65.5469L298.078 67.2559V73.0664L299.787 76.1426L303.205 79.2188L310.383 83.6621L317.219 87.4219L321.662 90.498L325.764 94.2578L328.84 98.7012L330.549 102.119L330.891 103.486V107.93L329.865 111.006L327.473 114.424L322.688 117.158L317.561 119.209L313.801 120.234L311.408 120.576H304.572L298.762 119.551L294.318 117.842L290.559 115.107L288.166 112.031L286.799 108.271V105.879L288.166 102.461L290.559 100.41L291.584 100.068H293.977L296.027 101.094L296.369 102.461L294.66 104.512L293.293 105.879L292.951 106.562V108.955L293.977 110.664L297.736 112.373L300.471 113.057H308.674L314.484 111.689L319.953 109.297L322.346 107.588L324.055 104.854L323.713 102.803L322.004 100.068L318.928 96.6504L315.168 93.916L306.965 89.4727L299.445 84.6875L295.344 80.9277L292.609 77.5098L290.559 73.0664L289.875 67.5977L290.559 61.4453L292.268 57.3438L295.344 52.9004L298.42 49.8242L304.23 45.3809L309.357 42.3047L314.826 39.5703L319.953 37.8613L322.004 37.5195ZM80.0117 44.6973H85.4805L89.582 46.4062L92.6582 49.1406L93.6836 51.5332L94.0254 55.9766L93.3418 60.7617L91.9746 62.4707L91.291 62.8125H88.8984L86.8477 61.1035L86.1641 59.3945L85.4805 53.584L81.0371 54.2676L75.5684 56.3184L70.0996 59.3945L65.6562 62.4707L61.8965 65.2051L58.4785 67.9395L54.0352 72.041L49.9336 76.1426L46.8574 79.9023L44.123 83.3203L39.3379 90.498L35.9199 96.6504L33.1855 103.145L31.4766 108.271L30.4512 113.74V117.842L31.8184 122.285L34.2109 125.02L37.6289 126.729L43.4395 128.096H48.5664L54.377 126.729L60.1875 124.678L68.3906 120.918L73.8594 118.184L78.9863 115.449L81.0371 114.766H82.7461L83.7715 115.791L83.4297 117.5L80.3535 121.602L76.9355 124.336L70.7832 128.096L63.2637 131.514L56.4277 133.906L52.3262 134.932L49.9336 135.273H43.7812L38.3125 134.248L32.8438 132.197L28.4004 129.121L25.3242 125.703L22.9316 120.918L22.248 117.842V111.006L23.2734 105.879L26.0078 97.6758L29.7676 89.8145L34.2109 82.2949L37.6289 77.5098L42.0723 72.041L46.8574 66.9141L53.0098 60.7617L56.7695 57.6855L62.5801 53.2422L70.0996 48.457L75.9102 45.7227L80.0117 44.6973ZM141.877 85.0293L139.143 84.6875L138.117 85.0293L136.066 87.0801L132.307 94.2578L130.939 94.5996L129.23 95.625L127.18 99.7266L125.812 104.854L124.787 112.715L124.104 120.576L124.787 123.994L126.838 125.361L129.572 125.703L130.939 125.02L132.307 123.311L135.725 112.031L136.75 107.246L138.801 101.094L139.484 100.41L140.852 112.715L141.877 117.5L143.244 119.893L145.295 121.26H148.371L149.055 120.918L150.08 119.893L152.131 114.082L154.523 107.588L157.6 101.094L159.992 97.334L161.701 95.625L161.018 102.461V110.322L162.043 114.424L163.752 117.5L166.145 119.551L170.246 121.26H172.98L174.006 120.918L175.715 119.893L176.398 118.525L175.373 117.158L169.221 115.791L168.537 114.082V106.904L170.246 96.6504V91.5234L169.904 90.1562L168.195 87.4219L166.145 86.0547L162.727 85.3711L161.018 85.7129L157.6 87.4219L154.865 90.1562L151.789 94.2578L149.055 99.043L148.371 100.752H147.688V98.0176L147.346 95.625L145.637 89.1309L143.928 86.3965L141.877 85.0293ZM253.645 163.301L251.936 163.984L249.885 173.555L248.176 179.707L246.467 183.467L244.758 184.834H240.998L236.555 184.15L231.77 182.783L226.643 180.732L221.174 177.998L216.047 174.58L213.312 171.846H211.604L205.793 173.213L206.135 174.238L210.92 179.023L215.363 182.441L220.49 185.518L225.959 188.252L232.795 190.645L239.289 192.012L244.416 192.354L247.492 191.67L250.91 189.961L253.645 187.227L255.695 183.125L257.746 175.947L259.455 167.061L259.797 162.617H258.43L253.645 163.301ZM108.723 91.5234L104.963 91.1816L103.254 91.5234L98.4688 93.916L95.7344 96.3086L91.9746 100.41L89.2402 105.537L87.873 109.98V115.107L88.8984 118.525L90.9492 121.602L93.3418 123.994L96.7598 126.045L101.203 127.412H107.697L110.773 126.387L116.242 123.652L119.66 120.234L121.711 116.816L122.736 112.715V108.955L122.395 106.562L121.027 102.461L118.977 99.043L116.242 96.6504L112.824 94.5996L111.457 92.8906L108.723 91.5234ZM109.748 100.068H105.646L104.279 99.7266L102.912 100.752L99.8359 104.17L97.4434 107.93L96.0762 112.031V115.791L96.7598 117.158L99.4941 119.209L102.912 119.893L105.646 119.551L109.406 118.184L112.482 116.133L113.85 114.424L115.559 110.322V105.195L114.875 103.486L112.824 101.094L109.748 100.068ZM496.662 131.172H508.283L513.068 131.855L514.094 132.881L513.752 134.59L512.043 136.299L509.309 137.324L506.916 137.666H487.775L478.205 138.35L463.508 139.033L445.393 139.717L408.479 142.109L373.273 144.844L351.398 146.895L326.789 149.629L303.889 152.705L287.141 155.098H283.381L280.646 156.123L257.062 160.566L225.617 167.061L211.604 170.137L195.197 173.896L181.525 177.314L137.775 189.277L121.711 194.062L106.33 198.848L90.6074 203.975L76.5938 208.76L60.8711 214.57L54.377 217.305L52.3262 219.014L53.6934 219.355L54.0352 220.723V223.457L53.0098 226.191L50.959 227.217L42.0723 227.559L34.2109 228.926L24.9824 230.977L13.7031 233.027L8.57617 234.736H3.10742L1.05664 232.344L0.714844 231.66V228.242L1.39844 227.217L8.23438 225.166L23.957 219.014L52.668 208.418L64.9727 203.975L79.3281 198.848L99.8359 192.012L118.635 186.201L140.168 180.049L155.549 175.947L174.689 171.162L198.957 165.693L200.666 165.352L198.957 158.174L198.273 153.389V148.604L198.957 145.186L199.982 144.844L203.059 150.312L204.426 154.072L206.818 162.617V163.984L223.225 160.566L237.58 157.832L270.051 152.021L290.9 148.604L322.688 144.844L350.715 141.768L375.324 139.375L404.035 136.982L452.912 133.223L476.154 131.855L482.648 131.514L496.662 131.172ZM469.66 134.59H475.471V134.932L381.477 142.451L359.26 144.502L331.574 147.578L307.648 150.654L280.988 154.414L256.721 158.516L239.973 161.592L218.781 165.693L209.211 167.744H207.502L208.527 167.061L224.592 163.643L248.518 158.857L279.621 153.389L306.623 149.287L323.371 146.895L352.766 143.477L381.818 140.742L407.795 138.691L457.697 135.273L469.66 134.59ZM421.809 77.168L419.416 76.8262L417.365 77.5098L413.947 79.5605L410.529 82.2949L409.162 82.6367L406.77 80.9277H404.377L403.352 81.6113L401.984 83.6621L400.275 89.1309L397.883 96.3086L397.199 93.2324L396.174 90.498L393.439 86.7383L389.338 83.6621L383.869 81.6113L379.426 80.9277H376.35L373.957 81.9531L370.881 84.3457L367.121 88.4473L365.07 92.207L364.729 94.2578L363.703 93.916L363.02 92.8906L360.627 90.498L357.893 89.1309L354.816 88.1055L353.791 87.0801L351.74 84.6875L347.639 82.2949L344.904 82.6367L341.828 85.0293L340.119 87.0801L337.385 90.498L334.309 96.3086L332.6 101.094V106.562L333.967 109.639L336.359 112.373L339.436 114.424L343.537 115.791L348.322 116.133L352.424 115.449L355.5 114.082L358.918 112.031L360.627 110.322L363.703 106.904L364.387 104.854H365.07V105.537L367.805 108.955L371.906 111.689L376.35 113.398H382.502L386.604 112.031L391.389 109.297L393.781 106.904L396.174 103.486L397.541 106.221L399.592 107.588L401.984 107.93L404.377 105.195L407.453 99.7266L411.555 93.2324L414.289 90.1562L417.023 87.7637V89.8145L418.391 99.043L419.416 102.119L421.809 105.537L423.859 107.246L428.303 109.639L431.037 109.98L435.139 108.955L436.164 107.93L436.506 105.537L435.139 103.828L430.695 103.486L428.986 102.803L426.594 100.752L425.568 98.0176L424.885 93.2324V80.9277L424.201 79.2188L421.809 77.168ZM379.768 88.4473L385.236 88.7891L388.654 90.498L390.705 92.5488L391.047 94.9414L390.021 98.3594L387.629 101.777L384.895 103.486L381.135 104.854L379.426 105.195H376.691L373.957 103.828L372.248 101.777L371.906 100.752V98.0176L373.273 94.5996L376.008 91.1816L378.4 89.1309L379.768 88.4473ZM347.297 91.8652L348.664 92.5488L352.424 93.916L356.525 94.9414L358.576 96.6504L358.918 99.043L357.209 102.461L354.475 105.195L351.057 106.904L349.006 107.588L346.613 107.93H343.195L341.145 106.904L340.461 105.879L340.803 102.803L343.537 96.9922L346.955 92.207L347.297 91.8652ZM464.875 99.3848L462.141 98.3594H457.355L455.305 99.3848L453.938 101.777V104.854L454.279 105.537L456.672 108.271L460.432 109.639H463.508L465.9 108.613L467.268 106.904V103.486L466.242 101.094L464.875 99.3848ZM251.594 80.9277H248.859L245.783 81.9531L242.707 84.0039L240.314 86.3965L237.58 89.8145L234.846 94.9414L234.162 98.7012L234.504 103.486L235.871 107.588L231.086 108.613H225.275L224.592 108.271L223.225 106.904L221.857 103.486L220.49 91.1816L219.123 87.4219L217.756 85.7129L215.363 84.6875L212.971 85.0293L210.92 86.7383L208.869 89.8145L206.135 95.2832L203.742 95.625L202.033 97.334L200.324 101.777L198.957 106.221L196.564 108.613L192.805 111.006L189.729 112.373L187.336 112.715L186.994 111.689V108.613L187.336 106.221L190.07 93.916L190.412 91.5234L189.387 89.8145L186.652 88.4473L184.26 88.7891L182.551 90.8398L180.842 96.9922L179.133 105.537V111.006L180.5 115.107L182.551 117.842L185.285 119.551L189.045 120.234L193.146 119.551L195.881 118.184L198.957 115.791L200.324 115.449L203.4 116.475L205.793 116.133L207.844 113.057L210.236 106.562L212.629 99.7266L213.312 99.043L213.996 103.145L215.363 107.246L217.414 110.664L220.148 113.057L222.883 114.424L226.643 115.449H231.77L234.504 114.766L238.264 113.057L241.34 112.031L245.783 113.398H250.568L254.67 112.031V119.893L254.328 134.932L253.645 147.578L253.303 154.072H255.012L258.771 153.389L261.164 152.363L261.506 148.262L263.215 114.424L264.24 101.436L264.924 98.3594V94.9414L264.582 93.5742L263.215 90.8398L261.506 87.7637L259.113 85.0293L256.037 82.6367L251.594 80.9277ZM253.645 89.1309L252.277 88.4473L251.252 88.7891L247.834 91.1816L243.732 95.9668L242.023 100.068V102.803L242.707 104.17H244.074L249.543 100.41L253.645 96.3086L255.695 92.5488L255.354 91.1816L253.645 89.1309ZM187.678 52.5586L183.576 51.875L182.209 52.2168L180.842 53.584L179.816 55.6348V59.3945L180.158 60.0781L182.209 62.4707L184.943 63.8379H187.336L189.729 62.8125L190.754 61.1035V55.6348L189.729 53.9258L187.678 52.5586Z" fill="white"/>
</svg>
