<svg width="393" height="852" viewBox="0 0 393 852" fill="none" xmlns="http://www.w3.org/2000/svg">
<g clip-path="url(#clip0_7_21)">
<rect width="393" height="852" fill="white"/>
<rect width="393" height="288" fill="url(#paint0_linear_7_21)"/>
<ellipse cx="250" cy="216.5" rx="14" ry="13.5" fill="#FDFBE6"/>
<ellipse cx="266.997" cy="230.085" rx="13" ry="8.14918" transform="rotate(19.8869 266.997 230.085)" fill="#FDFBE6"/>
<ellipse cx="290" cy="238" rx="16" ry="12" fill="#FDFBE6"/>
<ellipse cx="308" cy="237.5" rx="5" ry="4.5" fill="#FDFBE6"/>
<ellipse cx="321.11" cy="241.443" rx="11.5" ry="4.5" transform="rotate(10.0805 321.11 241.443)" fill="#FDFBE6"/>
<path d="M224 256.5C219.6 255.7 235.167 228.167 243.5 214.5C246.667 216.333 253.5 220.6 255.5 223C258 226 267.5 230 272 231.5C276.5 233 284 235.5 293.5 238C303 240.5 300 238 304.5 238C308.1 238 310.667 239.333 311.5 240C315.167 240.5 323.4 241.6 327 242C330.6 242.4 336.167 245.833 338.5 247.5C338.833 256.833 339.3 276.4 338.5 280C337.5 284.5 278.5 275 272 275.5C265.5 276 229.5 257.5 224 256.5Z" fill="#FDFBE6"/>
<ellipse cx="3" cy="238.5" rx="24" ry="18.5" fill="#FDFBE6"/>
<ellipse cx="51.6229" cy="253.153" rx="32.0343" ry="43.5" transform="rotate(21.2513 51.6229 253.153)" fill="#FDFBE6"/>
<ellipse cx="91.5" cy="235" rx="17.5" ry="8" fill="#FDFBE6"/>
<ellipse cx="117.5" cy="232.5" rx="15.5" ry="10.5" fill="#FDFBE6"/>
<ellipse cx="143.821" cy="232.808" rx="23.5" ry="8" transform="rotate(-17.8213 143.821 232.808)" fill="#FDFBE6"/>
<path d="M140.5 284.5L151.5 236H99C97 236 63 238.5 54 238.5H25C11.5 238.5 -12.5 243.5 -14 244.5C-15.2 245.3 -10.1667 276.5 -7.50001 292C10.3333 296.667 47.3 306.5 52.5 308.5C57.7 310.5 113.333 293.333 140.5 284.5Z" fill="#FDFBE6"/>
<ellipse cx="57.3641" cy="259.607" rx="41" ry="18.5" transform="rotate(8.87901 57.3641 259.607)" fill="#F9F4D7"/>
<ellipse cx="114" cy="260" rx="32" ry="14" fill="#F9F4D7"/>
<ellipse cx="354" cy="238.5" rx="22" ry="20.5" fill="#F9F4D7"/>
<ellipse cx="328.841" cy="257.011" rx="21" ry="10.5" transform="rotate(-13.1791 328.841 257.011)" fill="#F9F4D7"/>
<path d="M328 284L326 264C332.167 257.5 345.6 243.8 350 241C355.5 237.5 364.5 227 366.5 225C368.5 223 389 209.5 394.5 207C400 204.5 404 213.5 410 218.5C414.8 222.5 404.667 272.5 399 297L328 284Z" fill="#F9F4D7"/>
<path d="M-14 264C-13.2 261.2 0.999987 256.167 7.99999 254H25.5H73C80.5 254 99 270.5 104.5 281C108.9 289.4 90.3333 290.5 80.5 290C65.3333 297.167 34.3 311.9 31.5 313.5C28 315.5 -11 321.5 -14 323C-17 324.5 -15 267.5 -14 264Z" fill="#F9F4D7"/>
<ellipse cx="6.5" cy="252.5" rx="20.5" ry="21.5" fill="#F9F4D7"/>
<ellipse cx="385.881" cy="209.613" rx="26.7176" ry="12.5855" transform="rotate(-29.6579 385.881 209.613)" fill="#F9F4D7"/>
<path d="M401 258C383 238.5 380.5 260 333.5 277C343.5 288.333 367.6 310.8 368 312C368.4 313.2 396.833 295.833 411 287C414.667 281.833 414.687 272.828 401 258Z" fill="#D4DFBD"/>
<path d="M71.5 279C5 255.5 17 267.5 -7.5 273V313C20.6667 311.167 77.3 307.5 78.5 307.5C80 307.5 134.709 301.337 71.5 279Z" fill="#D4DFBD"/>
<path d="M199 188C122.2 261.2 70.6667 284.167 54.5 286.5C59.1998 289.608 64.6428 293.199 70.5 297.053C102 286.607 112 278 134 259C156 240 142 255.5 163 239C179.8 225.8 197.667 197.032 204.5 184.297C203.184 184.525 201.528 185.591 199 188Z" fill="#369483"/>
<path d="M204.5 184.297C197.667 197.032 179.8 225.8 163 239C142 255.5 156 240 134 259C112 278 102 286.607 70.5 297.053C102.654 318.215 147.293 347.323 150 348C151.231 348.308 177.397 347.541 214 346.29C213.833 337.194 212.6 318.4 209 316C205.4 313.6 181.167 306 169.5 302.5C159.167 300.684 146.3 289.743 177.5 260.5C208.7 231.257 208.5 197.514 204.5 184.297Z" fill="#2A8178"/>
<path d="M209 186.5C207.314 185.095 206.188 184.006 204.5 184.297C208.5 197.514 208.7 231.257 177.5 260.5C146.3 289.743 159.167 300.684 169.5 302.5C181.167 306 205.4 313.6 209 316C212.6 318.4 213.833 337.194 214 346.29C272.576 344.29 357.881 341.051 410.5 339C413.445 338.517 416.467 337.97 419.5 337.362C405.5 335.724 363 326.5 311 305C269.4 287.8 237.667 229.013 227 201.77C219.686 195.66 213.689 190.407 209 186.5Z" fill="#1F6F6C"/>
<path d="M402.5 291C317.653 272.725 259.402 228.836 227 201.77C237.667 229.013 269.4 287.8 311 305C363 326.5 405.5 335.724 419.5 337.362C458.346 329.573 498.968 311.778 402.5 291Z" fill="#17696A"/>
<path d="M403 287C397.4 272.2 382 291.5 319.5 324.5L409 350.5C409.333 335.5 408.6 301.8 403 287Z" fill="#1B756C"/>
<path fill-rule="evenodd" clip-rule="evenodd" d="M9.79973 293.424C0.655026 296.766 -7.11114 299.603 -8.5 300V319.5H51C54.1667 317.667 64.7 313.4 81.5 311C100.022 308.354 66.4225 288.982 56.1772 283.075C54.8066 282.285 53.8805 281.69 53.5 281.5C51.5 280.5 48.6661 280.289 45.177 281.112C44.6488 281.237 44.0917 281.369 43.5 281.5C40.7857 282.103 23.7001 288.346 9.79973 293.424Z" fill="#267D77"/>
<path d="M81.5 311C64.7 313.4 54.1667 317.667 51 319.5L78.5 341C104.333 343.5 156.1 348.5 156.5 348.5C157 348.5 186 332 165 333C148.2 333.8 72 285.5 53.5 281.5C53.8805 281.69 54.8066 282.285 56.1772 283.075C66.4225 288.982 100.022 308.354 81.5 311Z" fill="#1F746F"/>
<path d="M45.5 315C25.1 314.2 -0.666667 303.333 -11 298V399.5H401V362C405.5 341.167 411.8 299 401 297C387.5 294.5 370.5 309.5 369 312.5C367.5 315.5 356 333.5 344 326.5C332 319.5 314 319.5 298 315C282 310.5 242.5 286.5 204 309.5C165.5 332.5 152 338 140 339C128 340 122.5 329 107.5 333.5C92.5 338 91.5 334.5 86 329C80.5 323.5 71 316 45.5 315Z" fill="#1A6A67"/>
<path d="M26.9627 369.941L-6 381.923V386.055V422H436V346.804C424.347 350.247 392.349 353.745 357.589 340.193C314.138 323.253 315.112 327.444 301.652 336.061C295.5 340 285.67 345.281 265.693 335.235C240.221 322.427 219.745 335.235 189.779 350.935C165.806 363.496 135.84 363.554 122.355 364.157C110.035 364.708 81.501 365.479 65.9186 364.157C50.3363 362.835 33.4554 367.462 26.9627 369.941Z" fill="#0F4C4D"/>
<path fill-rule="evenodd" clip-rule="evenodd" d="M197.943 188.557C197.798 188.702 197.651 188.849 197.5 189L179.5 205.5L165 218.5L188.5 210.5C196.875 199.157 199.702 193.702 204.5 184.091C204.617 184.091 204.735 184.095 204.855 184.105C204.694 184.054 204.574 184.048 204.5 184.091C202.391 184.1 200.71 185.784 197.943 188.557Z" fill="white"/>
<path d="M197.5 222L205.5 212C207.503 198.861 206.662 193.332 204.5 184.091C199.702 193.702 196.875 199.157 188.5 210.5L197.5 222Z" fill="#ECECE6"/>
<path d="M205.5 212L227 224.5L230 209.5C223.578 199.963 207.71 185.004 204.855 184.105C204.735 184.095 204.617 184.091 204.5 184.091C206.662 193.332 207.503 198.861 205.5 212Z" fill="#D4D6BE"/>
<path d="M249 218.5C236.5 209.5 222.5 197.5 214 190C209.54 186.065 206.956 184.279 204.855 184.105C207.71 185.004 223.578 199.963 230 209.5L249 218.5Z" fill="#CFD2B0"/>
<rect y="432" width="393" height="19" fill="#419F92"/>
<rect y="446" width="393" height="19" fill="#439E92"/>
<rect y="463" width="393" height="19" fill="#3E938F"/>
<rect y="480" width="393" height="19" fill="#2F877E"/>
<rect y="499" width="393" height="19" fill="#2A7E71"/>
<rect y="523" width="393" height="19" fill="#27776E"/>
<rect y="542" width="393" height="19" fill="#216B62"/>
<rect y="565" width="393" height="19" fill="#175C59"/>
<rect y="588" width="393" height="19" fill="#115451"/>
<rect y="610" width="393" height="19" fill="#0F4D4C"/>
<rect y="635" width="393" height="19" fill="#084142"/>
<rect y="658" width="393" height="19" fill="#073738"/>
<rect y="683" width="393" height="19" fill="#043334"/>
<rect y="712" width="393" height="19" fill="#043030"/>
<rect y="737" width="393" height="19" fill="#022D30"/>
<rect y="771" width="393" height="19" fill="#032A2B"/>
<rect y="798" width="393" height="30" fill="#042B2C"/>
<rect y="422" width="393" height="14" fill="#49A598"/>
<rect y="439" width="393" height="14" fill="#47A195"/>
<rect y="456" width="393" height="14" fill="#41938F"/>
<rect y="473" width="393" height="14" fill="#348A81"/>
<rect y="490" width="393" height="17" fill="#318578"/>
<rect y="511" width="393" height="17" fill="#2E7F76"/>
<rect y="532" width="393" height="17" fill="#29766C"/>
<rect y="553" width="393" height="17" fill="#1C635F"/>
<rect y="574" width="393" height="19" fill="#165B58"/>
<rect y="598" width="393" height="19" fill="#125251"/>
<rect y="622" width="393" height="19" fill="#0C4647"/>
<rect y="646" width="393" height="19" fill="#093C3D"/>
<rect y="670" width="393" height="19" fill="#043637"/>
<rect y="694" width="393" height="22" fill="#063434"/>
<rect y="722" width="393" height="22" fill="#043134"/>
<rect y="750" width="393" height="22" fill="#053132"/>
<rect y="778" width="393" height="22" fill="#063233"/>
<rect x="-5" y="806" width="393" height="22" fill="#D9D9D9"/>
<rect y="806" width="393" height="46" fill="#053132"/>
<ellipse cx="195" cy="510" rx="70" ry="22" fill="url(#paint1_radial_7_21)"/>
<ellipse cx="193" cy="493.5" rx="14" ry="11.5" fill="#033030"/>
<g opacity="0.2">
<path d="M197.169 525.283C193.406 508.783 168.669 489.483 132.669 504.283C167.069 498.683 190.669 517.283 197.169 525.283Z" fill="#9B003B"/>
<path fill-rule="evenodd" clip-rule="evenodd" d="M137.149 507.783C135.89 506.572 134.433 505.394 132.669 504.283C167.069 498.683 190.669 517.283 197.169 525.283C196.865 525.08 196.451 524.742 195.908 524.3C191.109 520.385 176.211 508.232 137.149 507.783Z" fill="#D21B54"/>
<path d="M168.169 525.283C182.003 531.783 202.369 548.083 197.169 525.283C196.865 525.08 196.451 524.742 195.908 524.3C191.109 520.385 176.211 508.232 137.149 507.783C145.523 515.836 145.132 525.283 168.169 525.283Z" fill="#750E3E"/>
<path d="M198.5 525.283C202.263 508.783 227 489.483 263 504.283C228.6 498.683 205 517.283 198.5 525.283Z" fill="#9B003B"/>
<path fill-rule="evenodd" clip-rule="evenodd" d="M258.521 507.783C259.779 506.572 261.236 505.394 263 504.283C228.6 498.683 205 517.283 198.5 525.283C198.805 525.08 199.218 524.742 199.761 524.3C204.56 520.385 219.459 508.232 258.521 507.783Z" fill="#D21B54"/>
<path d="M227.5 525.283C213.667 531.783 193.3 548.083 198.5 525.283C198.805 525.08 199.218 524.742 199.761 524.3C204.56 520.385 219.459 508.232 258.521 507.783C250.147 515.836 250.537 525.283 227.5 525.283Z" fill="#750E3E"/>
<path d="M198.5 527.521C170 524.021 136.5 525.521 79 554.521C88.5 557.521 112.5 557.521 123 556.021C150.5 539.021 180 527.521 198.5 527.521Z" fill="#FF919D"/>
<path d="M79 554.521C105 531.128 163.5 513.021 198.5 527.521C170 524.021 136.5 525.521 79 554.521Z" fill="#FF4C7A"/>
<path d="M198.5 527.521C175.5 515.521 115 507.021 79 554.521C105 531.128 163.5 513.021 198.5 527.521Z" fill="#FF265D"/>
<path d="M196.5 527.536C225 524.036 258.5 525.535 316 554.536C306.5 557.536 282.5 557.536 272 556.036C244.5 539.036 215 527.536 196.5 527.536Z" fill="#FF919D"/>
<path d="M316 554.536C290 531.143 231.5 513.036 196.5 527.536C225 524.036 258.5 525.535 316 554.536Z" fill="#FF4C7A"/>
<path d="M196.5 527.536C219.5 515.536 280 507.036 316 554.536C290 531.143 231.5 513.036 196.5 527.536Z" fill="#FF265D"/>
<path d="M295 607.521C245.5 600.021 201.2 556.121 198 526.521C211.204 544.126 228.949 556.586 247.903 569.895C263.4 580.777 279.706 592.227 295 607.521Z" fill="#FFD8C2"/>
<path d="M247.903 569.895C228.949 556.586 211.204 544.126 198 526.521C199.591 527.018 201.203 527.514 202.831 528.016C233.942 537.594 271.243 549.079 295 607.521C279.706 592.227 263.4 580.777 247.903 569.895Z" fill="#FF9FA5"/>
<path d="M198 526.521C252.5 531.521 287.5 555.521 295 607.521C271.243 549.079 233.942 537.594 202.831 528.016C201.203 527.514 199.591 527.018 198 526.521Z" fill="#FF5983"/>
<path d="M198 526.521C233.5 520.521 289 546.021 295 607.521C287.5 555.521 252.5 531.521 198 526.521Z" fill="#F51F61"/>
<path d="M101 607.521C150.5 600.021 194.8 556.121 198 526.521C184.796 544.126 167.051 556.586 148.097 569.895C132.6 580.777 116.294 592.227 101 607.521Z" fill="#FFD8C2"/>
<path d="M148.097 569.895C167.051 556.586 184.796 544.126 198 526.521C196.409 527.018 194.797 527.514 193.169 528.016C162.058 537.594 124.757 549.079 101 607.521C116.294 592.227 132.6 580.777 148.097 569.895Z" fill="#FF9FA5"/>
<path d="M198 526.521C143.5 531.521 108.5 555.521 101 607.521C124.757 549.079 162.058 537.594 193.169 528.016C194.797 527.514 196.409 527.018 198 526.521Z" fill="#FF5983"/>
<path d="M198 526.521C162.5 520.521 107 546.021 101 607.521C108.5 555.521 143.5 531.521 198 526.521Z" fill="#F51F61"/>
<path d="M197.39 527.021C195.881 528.334 194.346 529.611 192.794 530.864C165.774 554.293 149.074 584.335 143.39 635.021C190.99 603.021 199.223 549.687 197.39 527.021Z" fill="#FFD7C2"/>
<path d="M192.794 530.864C165.774 554.293 149.074 584.335 143.39 635.021C135.365 566.571 166.56 552.051 192.794 530.864Z" fill="#FF939A"/>
<path d="M197.39 527.021C183.89 532.021 129.89 557.521 143.39 635.021C135.365 566.571 166.56 552.051 192.794 530.864C194.294 529.564 195.826 528.283 197.39 527.021Z" fill="#FF3F7B"/>
<path d="M197.851 527.021C199.36 528.334 200.895 529.611 202.447 530.864C229.467 554.293 246.167 584.335 251.851 635.021C204.251 603.021 196.018 549.687 197.851 527.021Z" fill="#FFD7C2"/>
<path d="M202.447 530.864C229.467 554.293 246.167 584.335 251.851 635.021C259.877 566.571 228.681 552.051 202.447 530.864Z" fill="#FF939A"/>
<path d="M197.851 527.021C211.351 532.021 265.351 557.521 251.851 635.021C259.877 566.571 228.681 552.051 202.447 530.864C200.947 529.564 199.415 528.283 197.851 527.021Z" fill="#FF3F7B"/>
<path d="M197.649 526.521C235.649 543.747 248.149 583.521 197.649 648.021C147.149 583.521 159.649 543.747 197.649 526.521Z" fill="#FFD7C7"/>
<path d="M206.149 529.521C237.025 548.884 239.066 592.068 197.649 633.021C156.231 592.068 158.272 548.884 189.149 529.521C191.384 528.109 194.395 526.521 197.649 526.521C200.902 526.521 203.913 528.109 206.149 529.521Z" fill="#FFC8B6"/>
<path d="M197.649 616.588C227.376 582.216 234.388 546.982 205.149 528.521C202.913 527.109 200.68 526.489 197.649 526.521C194.734 526.552 192.384 527.109 190.149 528.521C160.909 546.982 167.921 582.216 197.649 616.588Z" fill="url(#paint2_linear_7_21)"/>
</g>
<path d="M196.831 483.738C200.594 500.238 225.331 519.538 261.331 504.738C226.931 510.338 203.331 491.738 196.831 483.738Z" fill="#9B003B"/>
<path fill-rule="evenodd" clip-rule="evenodd" d="M256.851 501.238C258.11 502.448 259.567 503.627 261.331 504.738C226.931 510.338 203.331 491.738 196.831 483.738C197.135 483.941 197.549 484.278 198.092 484.721C202.891 488.636 217.789 500.789 256.851 501.238Z" fill="#D21B54"/>
<path d="M225.831 483.738C211.997 477.238 191.631 460.938 196.831 483.738C197.135 483.941 197.549 484.278 198.092 484.721C202.891 488.636 217.789 500.789 256.851 501.238C248.477 493.185 248.868 483.738 225.831 483.738Z" fill="#750E3E"/>
<path d="M195.5 483.738C191.737 500.238 167 519.538 131 504.738C165.4 510.338 189 491.738 195.5 483.738Z" fill="#9B003B"/>
<path fill-rule="evenodd" clip-rule="evenodd" d="M135.479 501.238C134.221 502.448 132.764 503.627 131 504.738C165.4 510.338 189 491.738 195.5 483.738C195.195 483.941 194.782 484.278 194.239 484.721C189.44 488.636 174.541 500.789 135.479 501.238Z" fill="#D21B54"/>
<path d="M166.5 483.738C180.333 477.238 200.7 460.938 195.5 483.738C195.195 483.941 194.782 484.278 194.239 484.721C189.44 488.636 174.541 500.789 135.479 501.238C143.853 493.185 143.463 483.738 166.5 483.738Z" fill="#750E3E"/>
<path d="M195.5 481.5C224 485 257.5 483.5 315 454.5C305.5 451.5 281.5 451.5 271 453C243.5 470 214 481.5 195.5 481.5Z" fill="#FF919D"/>
<path d="M315 454.5C289 477.893 230.5 496 195.5 481.5C224 485 257.5 483.5 315 454.5Z" fill="#FF4C7A"/>
<path d="M195.5 481.5C218.5 493.5 279 502 315 454.5C289 477.893 230.5 496 195.5 481.5Z" fill="#FF265D"/>
<path d="M197.5 481.485C169 484.985 135.5 483.485 78 454.485C87.5 451.485 111.5 451.485 122 452.985C149.5 469.985 179 481.485 197.5 481.485Z" fill="#FF919D"/>
<path d="M78 454.485C104 477.878 162.5 495.985 197.5 481.485C169 484.985 135.5 483.485 78 454.485Z" fill="#FF4C7A"/>
<path d="M197.5 481.485C174.5 493.485 114 501.985 78 454.485C104 477.878 162.5 495.985 197.5 481.485Z" fill="#FF265D"/>
<path d="M99 401.5C148.5 409 192.8 452.9 196 482.5C182.796 464.894 165.051 452.435 146.097 439.125C130.6 428.244 114.294 416.794 99 401.5Z" fill="#FFD8C2"/>
<path d="M146.097 439.125C165.051 452.435 182.796 464.894 196 482.5C194.409 482.003 192.797 481.507 191.169 481.005C160.058 471.426 122.757 459.941 99 401.5C114.294 416.794 130.6 428.244 146.097 439.125Z" fill="#FF9FA5"/>
<path d="M196 482.5C141.5 477.5 106.5 453.5 99 401.5C122.757 459.941 160.058 471.426 191.169 481.005C192.797 481.507 194.409 482.003 196 482.5Z" fill="#FF5983"/>
<path d="M196 482.5C160.5 488.5 105 463 99 401.5C106.5 453.5 141.5 477.5 196 482.5Z" fill="#F51F61"/>
<path d="M293 401.5C243.5 409 199.2 452.9 196 482.5C209.204 464.894 226.949 452.435 245.903 439.125C261.4 428.244 277.706 416.794 293 401.5Z" fill="#FFD8C2"/>
<path d="M245.903 439.125C226.949 452.435 209.204 464.894 196 482.5C197.591 482.003 199.203 481.507 200.831 481.005C231.942 471.426 269.243 459.941 293 401.5C277.706 416.794 261.4 428.244 245.903 439.125Z" fill="#FF9FA5"/>
<path d="M196 482.5C250.5 477.5 285.5 453.5 293 401.5C269.243 459.941 231.942 471.426 200.831 481.005C199.203 481.507 197.591 482.003 196 482.5Z" fill="#FF5983"/>
<path d="M196 482.5C231.5 488.5 287 463 293 401.5C285.5 453.5 250.5 477.5 196 482.5Z" fill="#F51F61"/>
<path d="M196.61 482C198.119 480.687 199.654 479.41 201.206 478.156C228.226 454.728 244.926 424.686 250.61 374C203.01 406 194.777 459.333 196.61 482Z" fill="#FFD7C2"/>
<path d="M201.206 478.156C228.226 454.728 244.926 424.686 250.61 374C258.635 442.449 227.44 456.97 201.206 478.156Z" fill="#FF939A"/>
<path d="M196.61 482C210.11 477 264.11 451.5 250.61 374C258.635 442.449 227.44 456.97 201.206 478.156C199.706 479.457 198.174 480.738 196.61 482Z" fill="#FF3F7B"/>
<path d="M196.149 482C194.64 480.687 193.105 479.41 191.553 478.156C164.533 454.728 147.833 424.686 142.149 374C189.749 406 197.982 459.333 196.149 482Z" fill="#FFD7C2"/>
<path d="M191.553 478.156C164.533 454.728 147.833 424.686 142.149 374C134.123 442.449 165.319 456.97 191.553 478.156Z" fill="#FF939A"/>
<path d="M196.149 482C182.649 477 128.649 451.5 142.149 374C134.123 442.449 165.319 456.97 191.553 478.156C193.053 479.457 194.585 480.738 196.149 482Z" fill="#FF3F7B"/>
<path d="M196.351 482.5C158.351 465.273 145.851 425.5 196.351 361C246.851 425.5 234.351 465.273 196.351 482.5Z" fill="#FFD7C7"/>
<path d="M187.851 479.5C156.975 460.137 154.934 416.953 196.351 376C237.769 416.953 235.728 460.137 204.851 479.5C202.616 480.911 199.605 482.5 196.351 482.5C193.098 482.5 190.087 480.911 187.851 479.5Z" fill="#FFC8B6"/>
<path d="M196.351 392.432C166.624 426.804 159.612 462.039 188.851 480.5C191.087 481.911 193.32 482.532 196.351 482.5C199.266 482.469 201.616 481.911 203.851 480.5C233.091 462.039 226.079 426.804 196.351 392.432Z" fill="url(#paint3_linear_7_21)"/>
</g>
<defs>
<linearGradient id="paint0_linear_7_21" x1="196.5" y1="4.06678e-08" x2="196" y2="250.5" gradientUnits="userSpaceOnUse">
<stop stop-color="#45B6B0"/>
<stop offset="1" stop-color="#EFEDC4"/>
</linearGradient>
<radialGradient id="paint1_radial_7_21" cx="0" cy="0" r="1" gradientUnits="userSpaceOnUse" gradientTransform="translate(195 510) rotate(0.514479) scale(70.0028 22.0002)">
<stop offset="0.336897" stop-color="#022F2F"/>
<stop offset="1" stop-color="#2E7F76"/>
</radialGradient>
<linearGradient id="paint2_linear_7_21" x1="188.324" y1="647.38" x2="188.324" y2="527.867" gradientUnits="userSpaceOnUse">
<stop stop-color="#FFBBAF"/>
<stop offset="1" stop-color="#FF467D"/>
</linearGradient>
<linearGradient id="paint3_linear_7_21" x1="205.676" y1="361.641" x2="205.676" y2="481.154" gradientUnits="userSpaceOnUse">
<stop stop-color="#FFBBAF"/>
<stop offset="1" stop-color="#FF467D"/>
</linearGradient>
<clipPath id="clip0_7_21">
<rect width="393" height="852" fill="white"/>
</clipPath>
</defs>
</svg>
