<svg width="1024" height="1024" viewBox="0 0 1024 1024" fill="none" xmlns="http://www.w3.org/2000/svg">
<g clip-path="url(#clip0_419_90)">
<rect width="1024" height="1024" fill="#FF0505"/>
<rect x="-49" y="-96" width="1282" height="1281" fill="#FD75F9"/>
<path fill-rule="evenodd" clip-rule="evenodd" d="M227.321 557.977C214.894 566.429 202.467 574.882 190.04 583.334C190.815 583.131 120.126 495.424 138.857 356.254C302.813 336.179 380.167 395.026 380.167 395.026C396.011 235.624 510.424 167 510.424 167C510.424 167 657.352 251.223 650.395 400.225C752.957 327.436 881.516 355.649 881.516 355.649C881.516 355.649 907.981 529.375 796.778 617.95C843.244 643.614 894.072 675.704 929.214 728.262C846.686 813.556 790.598 846.167 733.857 854.923C668.784 864.966 605.816 841.429 557.082 802.758C502.405 759.37 474.275 705.89 420.479 672.764C375.42 645.019 313.382 627.018 245.851 655.665C215.084 668.718 185.882 695.84 151.854 728.407C214.591 806.391 331.051 848.514 445.805 761.332C456.82 771.08 467.835 780.827 478.849 790.575C478.849 790.575 266.952 967.49 94 726.803C134.66 673.217 205.963 612.194 280.181 602.304C371.345 590.156 434.192 617.824 497.386 677.05C540.482 717.44 575.812 766.043 625.837 792.146C690.978 826.135 775.296 825.685 873.003 726.975C850.566 683.256 756.121 647.991 756.121 647.991C739.5 662.724 645.203 686.618 645.203 686.618C644.325 672.579 642.279 639.313 642.279 639.313C642.279 639.313 840.598 620.747 843.02 397.396C760.217 378.1 651.157 452.004 651.157 452.004C643.143 541.742 560.38 644.87 560.38 644.87C547.703 634.54 539.201 624.833 526.524 614.504C526.524 614.504 714.299 391.07 513.375 225.188C343.762 390.536 456.37 544.111 456.37 544.111L423.74 572.598C423.74 572.598 385.952 531.369 378.774 449.069C378.774 449.069 302.065 383.079 180.962 396.332C187.746 508.227 227.321 557.977 227.321 557.977Z" fill="white"/>
</g>
<defs>
<clipPath id="clip0_419_90">
<rect width="1024" height="1024" fill="white"/>
</clipPath>
</defs>
</svg>
