<svg width="199" height="175" viewBox="0 0 199 175" fill="none" xmlns="http://www.w3.org/2000/svg">
<path d="M103.287 5.4282C92.6936 6.47204 82.0187 7.03475 71.5151 8.66575C53.256 11.5118 35.7473 16.3314 21.6473 29.5425C10.6869 39.8178 4.96217 51.6997 6.91937 67.0229C9.56974 87.7774 24.9337 101.543 45.7861 101.364C67.4376 101.176 84.4164 84.2381 85.0688 62.448C85.4765 49.0982 79.7272 38.6027 70.5284 29.6322C67.2174 26.411 67.0707 24.674 71.295 22.7005C74.2797 21.306 77.721 20.5394 81.0238 20.2214C101.477 18.2234 121.832 19.4222 141.95 23.41C153.546 25.7097 165.012 28.7107 175.002 35.6425C177.644 37.4692 180.694 38.8147 183.728 39.932C186.492 40.9595 189.453 41.1145 191.353 38.0726C193.261 35.0227 191.842 32.4539 189.64 30.4396C187.544 28.5232 185.18 26.8187 182.7 25.4324C158.064 11.5689 131.944 3.68303 103.287 5.4282ZM76.3022 26.5333C78.4388 29.3876 80.1513 31.622 81.8149 33.8973C96.8283 54.4397 93.1748 82.7621 72.7629 97.9467C58.198 108.777 41.4477 110.848 25.1703 102.97C11.8532 96.5195 3.86121 84.7193 1.46364 69.6407C-2.516 44.613 10.377 28.4416 29.9327 16.1765C43.7473 7.51587 59.5599 4.18049 75.4621 2.37008C89.7742 0.739078 104.257 -0.0845454 118.659 -0.0029954C135.051 0.0948646 150.684 4.75946 165.893 10.8186C174.749 14.3497 183.508 18.0358 190.929 24.0787C193.628 26.2724 196.066 29.3468 197.388 32.5354C199.027 36.4906 197.624 40.511 194.362 43.5202C190.66 46.9371 186.183 46.7578 181.877 45.3796C178.566 44.3194 175.312 42.7454 172.417 40.829C160.021 32.6251 145.954 29.2001 131.626 27.4793C117.852 25.8239 103.899 25.5874 90.0026 25.0981C85.6886 24.9431 81.3256 25.9706 76.3022 26.5333Z" fill="white"/>
<path d="M94.6672 169.352C105.391 168.308 116.196 167.754 126.831 166.098C145.09 163.268 162.607 158.449 176.707 145.238C187.667 134.962 193.408 123.08 191.434 107.757C188.76 86.9457 173.453 73.2289 152.576 73.4083C130.916 73.5959 113.962 90.4931 113.285 112.316C112.869 125.666 118.618 136.161 127.834 145.132C131.153 148.361 131.308 150.098 127.067 152.063C123.968 153.49 120.396 154.224 116.963 154.583C97.8151 156.581 78.7323 155.358 59.8616 152.047C46.9441 149.78 34.149 146.624 23.0256 138.95C20.5872 137.27 17.7901 136.039 15.0092 134.97C12.1142 133.845 9.03159 133.519 7.0173 136.691C4.97855 139.896 6.67479 142.522 8.9745 144.601C10.9806 146.42 13.2722 148.01 15.6372 149.34C40.1592 163.105 66.141 171.032 94.6672 169.352ZM122.035 148.214C119.809 145.229 117.999 142.889 116.278 140.491C101.542 119.973 105.342 91.7735 125.648 76.7764C140.246 65.9955 156.98 63.9159 173.257 71.8344C186.427 78.2361 194.411 89.9141 196.858 104.821C200.951 129.792 188.246 146.102 168.698 158.449C154.786 167.232 138.843 170.583 122.81 172.41C108.506 174.041 94.0148 174.897 79.6213 174.775C63.2379 174.636 47.5885 170.021 32.3876 163.929C23.5475 160.381 14.7564 156.728 7.35983 150.653C4.67683 148.443 2.28737 145.352 0.949952 142.163C-0.648428 138.355 0.721612 134.44 3.76343 131.456C7.36794 127.916 11.8776 127.99 16.1835 129.303C19.6249 130.347 22.9929 132.01 26.0103 133.992C38.414 142.171 52.4814 145.588 66.8098 147.301C80.5836 148.948 94.545 149.185 108.433 149.674C112.739 149.829 117.077 148.785 122.035 148.214Z" fill="white"/>
<path d="M44.9215 85.918C58.4099 86.024 69.4762 75.0392 69.5985 61.4204C69.729 47.9646 58.6872 36.7271 45.1662 36.5558C31.8246 36.3764 20.4565 47.5161 20.2281 60.9801C19.9916 74.5907 31.107 85.812 44.9215 85.918ZM103.287 5.42818C131.943 3.68301 158.064 11.5689 182.7 25.4324C185.179 26.8187 187.544 28.5232 189.64 30.4396C191.842 32.4539 193.261 35.0227 191.353 38.0726C189.453 41.1144 186.492 40.9595 183.728 39.9319C180.694 38.8147 177.644 37.4692 175.002 35.6425C165.012 28.7107 153.546 25.7097 141.95 23.41C121.831 19.4222 101.476 18.2234 81.0237 20.2214C77.7209 20.5394 74.2796 21.3059 71.2948 22.7005C67.0706 24.674 67.2173 26.411 70.5282 29.6322C79.7271 38.6027 85.4764 49.0982 85.0687 62.448C84.4163 84.2381 67.4375 101.176 45.7859 101.364C24.9336 101.543 9.56962 87.7773 6.91925 67.0229C4.96205 51.6996 10.6868 39.8178 21.6471 29.5425C35.7471 16.3314 53.2559 11.5118 71.515 8.66573C82.0186 7.03473 92.6935 6.47202 103.287 5.42818Z" fill="white"/>
<path d="M153.734 88.8619C140.172 88.6581 129.032 99.439 128.755 113.05C128.47 126.66 139.642 138.118 153.277 138.224C166.651 138.322 177.954 127.166 178.134 113.71C178.313 100.254 167.32 89.0577 153.734 88.8619ZM94.6671 169.352C66.1409 171.032 40.1591 163.105 15.637 149.339C13.2721 148.01 10.9805 146.42 8.97438 144.601C6.67467 142.522 4.97843 139.896 7.01718 136.691C9.03146 133.519 12.1141 133.845 15.0091 134.97C17.7899 136.039 20.5871 137.27 23.0254 138.95C34.1488 146.624 46.944 149.78 59.8615 152.047C78.7322 155.358 97.815 156.581 116.963 154.583C120.396 154.224 123.968 153.49 127.067 152.063C131.308 150.098 131.153 148.361 127.833 145.131C118.618 136.161 112.869 125.666 113.285 112.316C113.962 90.493 130.916 73.5958 152.576 73.4082C173.453 73.2288 188.759 86.9455 191.434 107.757C193.408 123.08 187.667 134.962 176.706 145.238C162.606 158.449 145.089 163.268 126.83 166.098C116.196 167.753 105.391 168.308 94.6671 169.352Z" fill="white"/>
</svg>
