<svg width="134" height="186" viewBox="0 0 134 186" fill="none" xmlns="http://www.w3.org/2000/svg">
<path d="M21.0805 100.942C21.0887 100.82 21.0886 100.698 21.0968 100.567C22.6625 100.567 24.2691 100.828 25.7696 100.518C29.4883 99.7599 30.8175 101.53 30.8828 104.889C30.9154 106.056 30.9971 107.222 30.9318 108.388C29.8635 126.337 24.3343 143.03 16.3995 159.006C14.2629 163.304 11.474 167.291 9.64727 171.703C8.92148 173.465 9.27211 176.539 10.4301 178.007C12.1101 180.144 15.0622 180.233 17.4842 178.439C18.9358 177.363 20.4445 176.213 21.4801 174.77C24.2039 170.986 27.0826 167.226 29.1621 163.083C32.4159 156.608 35.36 149.938 37.9043 143.153C42.463 130.969 46.467 118.614 45.7575 105.305C45.6352 102.932 46.8176 101.521 49.2315 101.619C61.7005 102.117 74.1613 102.671 86.6222 103.234C88.9382 103.34 90.0718 104.449 90.1126 106.953C90.1615 110.435 90.4388 113.933 90.8465 117.399C93.448 139.491 103.267 158.5 116.233 176.099C119.03 179.891 121.436 180.348 124.486 178.293C127.895 176.001 128.441 173.718 126.166 169.575C124.111 165.815 121.412 162.382 119.617 158.517C112.213 142.533 106.537 125.986 104.237 108.404C103.405 102.043 104.327 100.934 110.843 100.632C115.091 100.437 119.381 100.021 123.548 99.1646C126.117 98.6345 128.4 96.9709 128.017 93.6763C127.666 90.5774 126.313 88.0575 122.969 87.5682C119.389 87.0544 115.752 86.7608 112.131 86.663C105.95 86.4917 104.033 85.2196 104.824 79.0054C106.219 68.0859 107.793 57.0848 110.631 46.4751C113.436 35.9715 118.158 26.0468 124.486 16.9948C127.356 12.8928 127.202 9.37804 124.812 7.46161C122.064 5.25161 118.704 5.7817 115.352 9.80211C112.123 13.6676 108.779 17.7043 106.724 22.2303C98.0881 41.2152 91.0504 60.7545 88.4897 81.6395C87.8536 86.8342 87.0137 87.666 81.7864 87.5193C71.5111 87.2257 61.2521 86.7119 50.9931 86.2552C47.7801 86.1166 46.2142 84.6487 45.9614 81.1746C44.5016 60.6974 39.519 41.1336 29.4231 23.1518C26.4058 17.7695 22.4832 12.8358 18.5117 8.08956C16.8155 6.05897 13.9042 4.91725 11.1641 7.17619C8.48108 9.4025 7.92644 12.1263 9.63899 15.1762C11.5473 18.5687 13.8959 21.7492 15.4698 25.2884C23.2415 42.7075 28.8849 60.7627 30.9073 79.8209C31.364 84.0697 30.0347 85.8801 25.68 86.2226C21.4068 86.557 17.1008 86.3939 12.8194 86.6304C9.14154 86.8342 6.77659 89.2726 6.45854 92.8118C6.11603 96.5795 8.06511 99.45 11.7919 100.086C14.8501 100.608 17.9816 100.673 21.0805 100.942ZM51.9961 107.45C50.9196 123.752 46.6709 138.635 40.4975 152.833C36.6973 161.575 31.4781 169.771 26.3405 177.86C23.7798 181.889 20.0286 185.2 14.5892 185.224C5.54528 185.265 0.45659 177.689 4.18343 169.461C5.78996 165.913 7.89395 162.602 9.72882 159.153C18.0959 143.373 23.9185 126.81 25.1172 108.828C25.158 108.192 25.1172 107.548 25.1172 106.3C21.2844 106.3 17.5493 106.488 13.8388 106.259C2.59307 105.591 -2.91964 95.3154 2.93565 86.1084C5.81436 81.5742 10.2671 80.6854 15.1519 80.718C18.365 80.7343 21.5779 80.718 25.582 80.718C24.5953 75.246 24.1224 70.3285 22.7849 65.6639C19.6208 54.6791 16.3669 43.7024 12.4932 32.9623C10.5768 27.6453 7.15172 22.8827 4.50134 17.8185C2.73171 14.4341 2.2914 10.903 3.91425 7.30668C6.86636 0.766366 13.2273 -1.73721 19.368 1.85099C22.524 3.70217 25.4924 6.40147 27.6045 9.3862C41.2723 28.7299 48.4323 50.52 50.9848 73.933C51.0664 74.7077 51.1072 75.4906 51.2132 76.2654C51.3763 77.5375 51.5802 78.8097 51.833 80.563C62.0512 80.9871 72.245 81.4112 82.7812 81.8515C85.0809 60.2326 92.184 40.1795 101.081 20.7706C103.674 15.111 107.825 10.0549 111.846 5.2027C113.607 3.07425 116.657 1.44324 119.414 0.790839C127.675 -1.16636 134.239 6.59718 131.736 15.0865C131.157 17.0519 130.194 18.9846 129.036 20.6809C117.456 37.5862 113.053 56.8727 110.362 76.7302C110.28 77.3744 110.321 78.035 110.337 78.6874C110.353 79.2011 110.435 79.7067 110.541 80.7261C113.729 80.8729 116.926 80.9382 120.107 81.1991C125.701 81.664 130.651 83.295 132.829 89.1829C135.74 97.0443 131.923 103.691 123.271 105.354C119.087 106.153 114.782 106.268 109.872 106.765C110.631 111.275 110.875 115.972 112.245 120.319C115.793 131.589 119.569 142.81 123.817 153.836C125.611 158.492 128.971 162.529 131.336 167.006C134.484 172.951 133.946 177.395 129.991 181.285C124.347 186.823 117 186.929 112.449 180.388C106.08 171.247 100.339 161.616 94.9975 151.83C88.2207 139.434 85.9046 125.676 84.2818 111.797C84.1594 110.802 83.1156 109.154 82.4142 109.106C72.3428 108.421 62.2632 107.964 51.9961 107.45Z" fill="white"/>
<path d="M21.0805 100.942C17.9816 100.673 14.8501 100.608 11.7919 100.086C8.0651 99.45 6.11602 96.5794 6.45853 92.8118C6.77658 89.2725 9.14153 86.8342 12.8194 86.6303C17.1008 86.3939 21.4067 86.557 25.68 86.2226C30.0347 85.8801 31.364 84.0697 30.9073 79.8209C28.8848 60.7627 23.2415 42.7075 15.4698 25.2884C13.8959 21.7491 11.5473 18.5687 9.63898 15.1762C7.92643 12.1262 8.48107 9.40248 11.1641 7.17616C13.9041 4.91723 16.8154 6.05895 18.5117 8.08954C22.4832 12.8358 26.4058 17.7695 29.4231 23.1518C39.519 41.1336 44.5016 60.6974 45.9614 81.1746C46.2142 84.6486 47.78 86.1166 50.9931 86.2552C61.2521 86.7119 71.5111 87.2257 81.7864 87.5192C87.0137 87.666 87.8536 86.8342 88.4897 81.6395C91.0504 60.7545 98.0881 41.2151 106.724 22.2303C108.779 17.7043 112.123 13.6676 115.352 9.80209C118.704 5.78168 122.064 5.25158 124.812 7.46159C127.202 9.37801 127.356 12.8928 124.486 16.9948C118.158 26.0468 113.436 35.9715 110.631 46.4751C107.793 57.0847 106.219 68.0859 104.824 79.0054C104.033 85.2195 105.95 86.4917 112.131 86.663C115.752 86.7608 119.389 87.0544 122.969 87.5682C126.313 88.0575 127.666 90.5774 128.017 93.6763C128.4 96.9709 126.117 98.6345 123.548 99.1646C119.381 100.021 115.091 100.437 110.843 100.632C104.327 100.934 103.405 102.043 104.237 108.404C106.537 125.986 112.213 142.533 119.617 158.517C121.412 162.382 124.111 165.815 126.166 169.575C128.441 173.718 127.895 176.001 124.486 178.293C121.436 180.348 119.03 179.891 116.233 176.099C103.267 158.5 93.448 139.491 90.8465 117.399C90.4388 113.933 90.1615 110.435 90.1126 106.953C90.0718 104.449 88.9382 103.34 86.6222 103.234C74.1613 102.671 61.7005 102.117 49.2315 101.619C46.8176 101.521 45.6352 102.932 45.7575 105.305C46.467 118.614 42.463 130.969 37.9043 143.153C35.36 149.938 32.4159 156.608 29.1621 163.083C27.0826 167.226 24.2039 170.986 21.4801 174.77C20.4445 176.213 18.9358 177.363 17.4842 178.439C15.0622 180.233 12.11 180.144 10.4301 178.007C9.2721 176.539 8.92147 173.465 9.64727 171.703C11.474 167.291 14.2629 163.304 16.3995 159.006C24.3343 143.03 29.8635 126.337 30.9318 108.388C30.9971 107.222 30.9154 106.056 30.8828 104.889C30.8175 101.53 29.4883 99.7599 25.7696 100.518C24.2691 100.828 22.6625 100.567 21.0968 100.567C21.0886 100.698 21.0887 100.82 21.0805 100.942Z" fill="white"/>
</svg>
